<mxfile host="app.diagrams.net" agent="Mozilla/5.0 (X11; Linux x86_64; rv:128.0) Gecko/20100101 Firefox/128.0" version="24.9.1">
  <diagram name="Page-1" id="Frta-he6XwjeRtnhI-Ct">
    <mxGraphModel dx="2284" dy="1830" grid="1" gridSize="10" guides="1" tooltips="1" connect="1" arrows="1" fold="1" page="1" pageScale="1" pageWidth="850" pageHeight="1100" math="0" shadow="0">
      <root>
        <mxCell id="0" />
        <mxCell id="1" parent="0" />
        <mxCell id="2oHWV97SwtffOisidZYd-15" value="&lt;div&gt;MANAGER&lt;br&gt;&lt;/div&gt;" style="rounded=0;whiteSpace=wrap;html=1;align=left;verticalAlign=top;" vertex="1" parent="1">
          <mxGeometry x="110" y="-10" width="360" height="240" as="geometry" />
        </mxCell>
        <mxCell id="3" value="Raspberry Pi 1" style="rounded=1;arcSize=40;strokeWidth=2;horizontal=1;verticalAlign=top;align=center;" parent="1" vertex="1">
          <mxGeometry x="-10" y="260" width="240" height="150" as="geometry" />
        </mxCell>
        <mxCell id="4" value="Raspberry Pi 2" style="rounded=1;arcSize=40;strokeWidth=2;verticalAlign=top;" parent="1" vertex="1">
          <mxGeometry x="350" y="260" width="136" height="150" as="geometry" />
        </mxCell>
        <mxCell id="6" value="topic wisinfo" style="curved=1;startArrow=none;endArrow=block;exitX=-0.006;exitY=0.633;entryX=0.5;entryY=0;exitDx=0;exitDy=0;exitPerimeter=0;" parent="1" source="2oHWV97SwtffOisidZYd-12" target="3" edge="1">
          <mxGeometry relative="1" as="geometry">
            <Array as="points">
              <mxPoint x="110" y="190" />
            </Array>
            <mxPoint x="194.48000000000002" y="230" as="sourcePoint" />
          </mxGeometry>
        </mxCell>
        <mxCell id="7" value="topic robotevents" style="curved=1;startArrow=none;endArrow=block;exitX=1;exitY=0.5;entryX=0.5;entryY=0;exitDx=0;exitDy=0;" parent="1" source="2oHWV97SwtffOisidZYd-12" target="4" edge="1">
          <mxGeometry relative="1" as="geometry">
            <Array as="points">
              <mxPoint x="410" y="180" />
            </Array>
            <mxPoint x="296.4000000000001" y="230" as="sourcePoint" />
          </mxGeometry>
        </mxCell>
        <mxCell id="2oHWV97SwtffOisidZYd-10" value="WIS" style="ellipse;whiteSpace=wrap;html=1;align=center;verticalAlign=top;" vertex="1" parent="1">
          <mxGeometry x="140" y="10" width="180" height="130" as="geometry" />
        </mxCell>
        <mxCell id="2oHWV97SwtffOisidZYd-11" value="WISFacade" style="ellipse;whiteSpace=wrap;html=1;verticalAlign=top;" vertex="1" parent="1">
          <mxGeometry x="376.5" y="75" width="83" height="70" as="geometry" />
        </mxCell>
        <mxCell id="2oHWV97SwtffOisidZYd-12" value="WIS_BROKER" style="rounded=0;whiteSpace=wrap;html=1;verticalAlign=top;" vertex="1" parent="1">
          <mxGeometry x="160" y="150" width="169" height="60" as="geometry" />
        </mxCell>
        <mxCell id="2oHWV97SwtffOisidZYd-16" value="MonitoringDevice" style="ellipse;whiteSpace=wrap;html=1;verticalAlign=top;" vertex="1" parent="1">
          <mxGeometry y="295" width="120" height="80" as="geometry" />
        </mxCell>
        <mxCell id="2oHWV97SwtffOisidZYd-17" value="Scale" style="ellipse;whiteSpace=wrap;html=1;verticalAlign=top;" vertex="1" parent="1">
          <mxGeometry x="136" y="295" width="74" height="80" as="geometry" />
        </mxCell>
        <mxCell id="2oHWV97SwtffOisidZYd-18" value="Basicrobot" style="ellipse;whiteSpace=wrap;html=1;verticalAlign=top;" vertex="1" parent="1">
          <mxGeometry x="358" y="295" width="120" height="80" as="geometry" />
        </mxCell>
        <mxCell id="2oHWV97SwtffOisidZYd-19" value="" style="image;sketch=0;aspect=fixed;html=1;points=[];align=center;fontSize=12;image=img/lib/mscae/Docker.svg;" vertex="1" parent="1">
          <mxGeometry x="171.7" y="35" width="36.59" height="30" as="geometry" />
        </mxCell>
        <mxCell id="2oHWV97SwtffOisidZYd-20" value="" style="image;sketch=0;aspect=fixed;html=1;points=[];align=center;fontSize=12;image=img/lib/mscae/Docker.svg;" vertex="1" parent="1">
          <mxGeometry x="399.71" y="100" width="36.59" height="30" as="geometry" />
        </mxCell>
        <mxCell id="2oHWV97SwtffOisidZYd-22" value="" style="image;sketch=0;aspect=fixed;html=1;points=[];align=center;fontSize=12;image=img/lib/mscae/Docker.svg;" vertex="1" parent="1">
          <mxGeometry x="219.41" y="180" width="36.59" height="30" as="geometry" />
        </mxCell>
        <mxCell id="2oHWV97SwtffOisidZYd-23" value="" style="image;sketch=0;aspect=fixed;html=1;points=[];align=center;fontSize=12;image=img/lib/mscae/Docker.svg;" vertex="1" parent="1">
          <mxGeometry x="41.70999999999998" y="320" width="36.59" height="30" as="geometry" />
        </mxCell>
        <mxCell id="2oHWV97SwtffOisidZYd-24" value="" style="image;sketch=0;aspect=fixed;html=1;points=[];align=center;fontSize=12;image=img/lib/mscae/Docker.svg;" vertex="1" parent="1">
          <mxGeometry x="154.70999999999998" y="320" width="36.59" height="30" as="geometry" />
        </mxCell>
        <mxCell id="2oHWV97SwtffOisidZYd-25" value="" style="image;sketch=0;aspect=fixed;html=1;points=[];align=center;fontSize=12;image=img/lib/mscae/Docker.svg;" vertex="1" parent="1">
          <mxGeometry x="399.71" y="320" width="36.59" height="30" as="geometry" />
        </mxCell>
        <mxCell id="2oHWV97SwtffOisidZYd-28" value="" style="shape=image;verticalLabelPosition=bottom;labelBackgroundColor=default;verticalAlign=top;aspect=fixed;imageAspect=0;image=data:image/png,iVBORw0KGgoAAAANSUhEUgAABAAAAANVCAMAAADRJ3x7AAAACXBIWXMAAA7EAAAOxAGVKw4bAAAB8lBMVEVHcEyR1eOP1eKR1eODxtOR1eOR1eOR1eKR1eMAAAAAAQGO1OKO1OKP1eKP1eKP1eKR1eOP1OKR1eOP1eKR1eOR1eOR1eOR1eMAAQKR1eOR1eOR1eON1OKR1eMBAQKR1eIossk1t80AAQEAFx4AAAAAGSAAAAAAAAAAAAAEbItBu88ECAoEbItKvtIEbIsIbowFbYwSf5uHytiAxNJ8zt1kx9dMndeR1eMqt/+R1eFMm9cQXInF3ecot/8AAACNv+WNv+MEbIwAAgIVrcXD3ecCBQcAMlYqdcEVq8Vz0P8DCg4ANlsOWYZOj80BNFcJSnIbh9r///8JcJEEOl4GRWwKT3gejeEMVoIPdMMOXIkVfc8EEhoYgtQGQWYDPWMLU30ik+gMERMJDA0QdJYpc74SFxomm/ESeMi81uMLIS8osfoRHCITesseJSgKKDkIMUd+ttAEGiUcrscmp/MdfaJGltAeLjZAj78fPlUXdJ+HvOAeNEIzPUEmTWkuW3k2cKCxyNM7gqs9hLpJkcUih7sNcL9HV14joN8bhqpfocE1SlMyZItuoK9JmdRMbXppsdgsjs1ggYtbi6RwzPpgp9NbZGl9i5Gmt74YZJINXYaLnKJGdI8UnrhpdHmYqbFqwOsUVno6VWBamdHp6ekVXIIWYYgXgR16AAAANnRSTlMA9R/kA/nv/P358FMKFCtEtDeWYqWH23jk1Me/bs7Q6vnetCM+D16Zffiq/OKCrVGA7u7oyeNXiDfDAAAgAElEQVR42uzaz4/aSBbA8Rz6UvUX+MSB35L/AaSoSlpL3gNBWFpotVrIQdFqDzgSyCKHcNgbknPk6Nw4wP+5r8r8MD2d7WSU0XRmvh+6bWNsQ2b6vXqv8Js3AAAAAAAAAAAAAAAAAAAAAAAAAAAAAAAAAAAAAAAAAAAAAAAAAAAAAAAAAAAAAAAAAAAAAAAAAAAAAAAAAAAAAAAAAAAAAAAAAAAAAAAAAAAAAAAAAAAAAAAAAAAAAAAAAAAAAAAAAAAAAAAAAAAAAAAAAAAAAAAAAAAAAAAAAAAAAAAAAAAAAAAAAAAAAAAAAAAAAADg7K7T4T8C8FfSaXU6nVar1W51u+1Wu93v93v9bq/fa8pvvyGrRrPfbzYaQbMpy0aj2ZBDmr3q9V5XnrR77a6c13ILuYQ8WnLFjtO6k6RxR9oA/sSBu+2XLQnEVkfis9vtSnz3JZ578qsbWmulVWCtlZUsbSRrLc8jG8kq0g2rVCS/yr3kNuRHyy4dyZFykpwoZwWSJHTTv6obSjXkyvLcvUVD3qspW23JLF2v33XppttutyVXdCVd3FU5w+UO+ZBkDOCnxX8vaOqm9nEqgSrRHKmG3458KLuQVz7+JYhPES7RLb+BRHggh7gDI3+YpApJCy4zRD7qVSTnNbR1KzlTny5itbYulyhdXdzKU3lL67JFUJ0ZVadKnvAHBIEOlCsz5HM2AtvoBUo3AxU0fY3RlMwhdUjPVSb9bltWfUkdrtxo3/m6pePKjtbdmzct/n8DN9oSs3EY6pnVQ2tjCT0f5TaM4ihUH1QQS5zqKnZtoHzEKl1Fvna5QOJd66gqD3we0RLpvgoIInekpAGXEOToQPs6wsW0Tw/2LHIhLz+yljSho+jyin8DVa3s6UP4p5FWVf0ha3e6bEU+u2j3zu6DuXSiGoHkDklfkq104GoaWbiVpI2+FBquxpDiws9e3N3xx4C/YZev7D92u+1u+2VTlNvtsdwcNuX+MD0ck+mm3CXH42R/XMnP5zT5spwuZulsefi8zGefk9kq/M9yNlxO43y21HZpZ0uJ9eEsdvEcWEkrKgq1D3RfN8jQXY34rgq4hL8b8+0pel2JEbhol/B1+6Oq9PDBr6pTbeBrlarkCFz6iar04NKI26+jy6V9oaKDoHrd+rLDvRqoKgOpSAoeX2f4VqTZc3mh7d21aTTwt6DDnfEG2UAWt647/FbmtjJjMpO5ZZat16YYDNbFYL3d7oqiKOVRbMtjsS/L8tMkScvk42q5Cj/k0SLS4WK4CHX80cWiBOPMBWHYCPzsQlVcuGIi8t1FwwWqPvUeSgZyWzUkVRng8kGgmjKuu+eustAurgO/HZ27i+gU9VIS+HPVKWu4XYHW5x1VWXOavLC66VqaQPV6Takaur1uu1PlhDaTD/gLVgA6Lqv4HzyN/uf2XJOBuX1drpCdNrNzLnE71sU6K9bFtii+FMV6W5T7+81hkZTHxXGfz8J8k3+UUmK1CIfRx1msh4E0DoEOP8jAHemhzj/6EV9CVoexD8zALyS4pUQYWh/zkUscroNo+J7Az1VqPzeh1Xmwd/ML1k9DKNc92KZLPL7ZkFQjqSSI/OyFZBEdVSnBVRDWtzIuW8kLjeqLDjfP0Oq8oWPAX0FLRZOBOY30sjLPpgDzcmYwl2rhuVxSZYd6hSG1g2SEwXq3y3bZeld8kh5kW26T/Waz32+22/v002qzPKbJSnLFJExXySaP02X6YTb+sFTL2Wyp4vTzKvcj/SwfhvFiEcyWdimNRy6hPVsutI59DRCFp6HeryTWm7HNXUbJbTi0oY2tkmokHLrpDpckItljdSzVyLCao5DkEPlWxU8tuELFfd8pxQFVAX75BBB8HvwoM/hpzMU1Qbj6ITt3HLJcD7LCbRWFdB1beV7ssmK3LgrpRXzrsRWb7W77781u+2WbjrebfbLOtsfNpiy/7PbbyWFVfjmU5UpMj2leHg+b6SpNDp/TT/tU+pRym5b78rgvD+lmLyu3Y3U4luVhaIcLSTZxHKnYFQTxKY1EvrKQCqPR89+c+q8ogV9vElCv3MBvfCgObpsBv+kX2bnmN+c9pj6in/deLnFTSphzv2B+W1Ccgt+Yek9hzDdSTFZlBddvnCYtbtXPrJ5UsxvrU9WR+byyPueWwaVtuflYtXWWq/xx9DCa399P08lS5MM4rqYr3I0Q7guRwHUfWmvXIvT77haGTocGAb9IBaDD1Xn2zzwz0p8i/5IGngaMqZX89Y2nl8ue7DDPlBTm/xUZT0LV3ET5KZE835t8bynz7IFLNRu99Y7yeHx8fNhPk3+uFnkcxadvKGx1m5S/AaKagJAGodlztyDw94VX3wLY2c5UETQ4j92XQd6co9/UotQMrgP2zbGD2kh8iVG/dQ5NcyoDzLW8MDdvdrnetfx4rmmoHWcG9Zrjtu64NhffuNbt8dcq53JGMVSLh7dfJfavvrono4fDwzRNF8vZYjaMourbzEBV9zD4GyDdlwruRmmqAbzmFiBQ+c58awj8ic3+M+O7ebZW+EM/xA9+VrPVUe4D/u3jSB6PpxTw9lwUuEww2qfjyWq2XIZhpD64mYLQ3/1U3YygKQPwirUDrXbmSXCaWs1tvi8YzY8Gq/mJwWq+dVHzQ292KSGuh2/CfFGF/Xz8fpJOp++TJJnP56Ov14LA1QTHkWsPRlM3UTBerfLc2nxW3cNAAsCrngOIg3/9zmDM/uyB+o9PMXsbLao4nyfp+8m7d+N3YizLVNLB/XQ+/zoa1dqDo3+8HY0ekv00GedSD3T5I8MrTgANFe9Ps+XXxjq7mdsf1Gb+b9Z+M6vNDtTmAH7T2ZvaWZmff6817vWDa9evT0PU5xpuPtHlW4Qn7zh4MlfxjRnC+rhfn1zI3KJUdlXV/Y9z6QFGDw8P9/fz6eT9u8nYJYLxeCKSdJo8PIwkFbjC4PHUHEgqmMdWt5gDwOt1p7Ua1yfJzMtj/UujrqldKfvx8bj+ObKXB3bzPVfLfuic69FHpSbV2D56dxrpk/sqI0gjcJ8kU+kKfF0wHqfvxtIgzCVBPJyLgsTagNsD8Joppf6bmZ9cWZvfc3b2/Sd977d9L5340r/FjHW8qtr9+fi+SgSTyf/Yu5bexnEkfNmL/At8yqFndmaA+QMGDPJAwAkQG7awsmVJoR1tY9ZCOEICQ3uYubfhax87txwm/3OrKFIm9XAevd3QACx027JeloFU1VdVXxVL9Z5tt+XG4+p2BqZgsd0CLgBkADINyos21Ltwf2JO+iwfIMo9VnX0kYWFDYA+suC6XS2rin3EaBQwy24tFxILctSreKRetyON76u4SMREHKT2RCa5yHwgk6qkYwdSvxps0u9s8lA68/V0pd43sbIEW20J5relv9/KCGG1XG7UoQfPIQAnPTcA3uCmIO9PvL8l6U7elFV82eGTd6b9Xv1ziwn7jzIACxUCrKfLsTYA2jRM16W/V4YALIGKAe4p/eAMgJMeyz8/sMEdaXT/Nph3bbtFndX7MsVOnPmCoih28v9OiJbbdFxKaikD41FJe2Kh46b2Xct/nxgbLJRSK+S/uFQG4FZDgfV0rg4pQzBeqo3ZgwsBnPTdAHiDvTjR+BRRTymAMBPj4oS8RXtdoH4PM4wwQolmPUFWE3Y70P1SxMhmA9bz++Y9iVVhUEbAiDPM32TVF5qJ/3rYQ46MsRIBxBtlAEDvSy1faSiwmisDsJyq3N8mWFcI4Gf3N+akx/Kj57H9pxdgsXhPSV2cNl53+a6SVJyNNEZtUIN0kILIu0saYDo+T+hNqe+zpYL1y6BuABZzBQWmU10w0JWDvUd/cX9jTvqMAIZ0MDl+b4JOm2qLUvflS9EPZhBZsGsaPMclAii1fDnXMUFlAIJtXOp9lRTQG3vqOQTgpN8IgHrsS5vDJS9l9kgnzZ+8MZmnEUDqh2kY7tKwsF04edXtSCc7uStjSGpPTuoZxidKJ6Wax9vKAKzGtiVYBkvl+NWO9VanCW6GzgA46bX8gBOy/qrV0LpygeWnehJNGCN/ajcSrSi93ouvBn+kaQgGgPt+GIrTfussImpPaJOXRAc/mbQfHFmPaec1y12bCd1vJAKokv/LQBuAaQ0K3M51UuBShQCLfw8dE9hJv0OAC+bRpz5Q94UPEvqcgwEovvmXve6sDWMfVxYPaLyZ6lqf3tgqA7A6GYAyTfAcUDp0axE46XcOAGKAeRtX5sXOH9LNrCeNk0S9nIgjhYtC4D8hpfB5GIL6+2laMwBENPz8i9xBYQEA0s0hOGMKRPH7x8n1QiKAlTYAU53hX17CHjw2RSgAGytNA6gswQMd0J9cK4CT/so/fhhAmPtUy8wRCw23ltNFPaVXDQmrDQe1h4kYHJs09VMI+0PE/fDGk0xCAPjotyEAs0pXzgY7jRg5zSsitmab481I98giUk9OqiPijrH9owL8pVKv56ocOEb+H3YKz6ZqYzOvBQePd2x44bqBnfTaAuAoq31VUjca66zyvpVMM4p0wiqeV9xcPRXcKr2fcgX4koYpZvxTEFB/P8myKOGYBPRPIcApT0eMkYCt04mE8V2iMRfIyghqdsNoZBwhZgakojvcs0llABbKu2u2z3SuucHblUUEjDU1eLxn1HMhgJNeG4APlP56fy5Irg0GEd0kOmF24tbShKJ+Dfj/FNP+oPCg9DyLoihH9O9zHu6EedNKqSFYOBfOE5N1QLqKjUbmT7T9VPNBjzdsMoktBADwXlGC0RLEz7I7aFVShbQBCMA0SLOB6xY4JrCTXssFpYONsOptL7flkXc0CtRp9hDw+wD8eYLJ/zCLsjwEPJBcRZEyAC1pwvS1M0jI2cQfeVVngTQA1/vYyv2t5hUBeFv2/t9OSwMgQwG5MZcbz/F4P3BVQCd9RwADb/Bw/Jpc+ftO3fk8yXmeZYnEAJn0/2mYRAee2kSgCnsUuR+KlpYA8TVPdS4Z+IUxdh2riH+t+H+6GVDT/VaXwW2p94oreDuXfUNw2oReOAPgpN8CBmByfxxVGYD6iFyjNdiY4kOaSTNihOS1wTzNDmMy2gH4z5I842mIiT+AAggAUv9wAIsgjJHDpAr7U574XFjJQNLCAyZWKG+NAyL1hB+xO4gtdhAZBaD/aiCQxveLqSIELS63j1ZWYDbfKAOgqoDj24lrBXDSd/nF8z7cfK50lJB6epycwnutL4KMGs371mIhRAfjxEjVWY03ogjB36c+R+4fBAE5wIFd6Kc8ysEUtBOIsEqYh+SUiCRtOq3uT1p/AWkWFFqrAOWZd4xS1Q08VwYA3LvdChBvLqc2JND9gkgD8BwPyEm/5afBxXD4iTTG6tfjYtI6ZIt0rfBB2ntsEchj6X93THm6S8ucf7oLkwyTf0gEBP+f+EXbl4oUjiRWENDSFmT8DNFGF2zyG0iNEHg6Y49LDKoQQLn31bxS80XVC6RMg3L8G00DWFPPczQAJ70PAVi1MsC7gnzxphwB+v00zLMc32TOH975b0nJAcQoIOS+GJm1gyptyLPc3xVfn4U495QmrtlTNglUzl8F+Jv5tqbmG6X4i7mKCbb6SMAGblUAJ30PASiVawN93RDt+siu7gw9xP7hLswijrovw3/f54cIovsrLiuDKcYFOzkY5Ggp9TGBQCHd7V7dzjs6Bw9eI3s2uQ6eS/cerG29r7qBN4ohsFCDAh6rU+7Z4INbF8hJzxEAZYO74/cb6r8Dj5/yLOE+xPohoHo0AlGGei8pgfjqY10AU36Wtw851gvS5Ls1Lx8/0uuJxvcq97dVvUCxbgacTRUCWGq932pG4H5w4QaCOem9AaDezWfSkU6voeKW4Txv7bkvykg/QdqfBACpJP8iIxB3pLBfSsbxDPN+GB2EYR7xZjuglSxoWV2Q2PTlsykOI+lwR+n1QiKAlRoAGG/UbNBY+/nZXCMAlft7RB6QbBLYswvHA3LSb0EmoLf/ZMzQJZ1D+0SnohOr+beenD/NBIK3I+cphAF54mPzj+QBc/T52AYUXiE7CDaTJD8cDkkSmrgdgwU/j7LESu6J+jOeGwFEiJ32s8mAxOpzIOTzHWU3azUILND+fqX5vgs9KGBVhf7IDFzP8Qjo/+OeDgeOCeyk3/IzpfT+v4SQjvVzu7PtpNN3kjN4oEB4HyL+z5LPoawEXPkQCCQc9B4xgH8FG1kWRRnsMT11mOTc53mWC9lLeCx2hRA1d06anztYfudHh5UTAW8m7OZJrQyoDECgkX+gHD/ouzIAAep9PF6XzMDH8V/XbOAQgJO/AwL4or0/aSX1EtODChNON5b5JaRxrW1YCh+xP7xkWYJQP8khHMhyn8sqgM9TDuAfOwNkDGAO+z3mWYZdA5mAMIJHEWCELCzamvxErS2ZNKcLiQ4rZpq3fzHK9msF+DcaASjHH6hYYIWIHzw/6L2iCukmgduJN7xwOUAnfUcAA/rwZ43812gFJucX2SFdszpP76IodseiKDDID9GRH8AAgI+/SgDwZ9zPc452IeNZJNU/51wiAOOWiP9RkoQjQiilOJeCaJsK0Db3qB37PFFaEQErfx/oBYK2axnpryVFKMbQv9yxmONGjOuCDR0T2EnvDYA3HP7652unZpI3F991YqAAv574qS/Tfxx7fmADQD++5HmC0B6Df9B+8OwRVgnBLiQWJfAotR50H2OEJIryPIuSuq0iLzxbc9wZ6Rpz+Dxhk/t6yu8UAjyWaq4KhOvpVBoCgAQbPQ7EjQR18neoAgy0AWg22Aqb+fcmNpC96wiKC07eB//ty/Z/noPegw7n0qXDK0J/2Ifqj/E/QICM24lIniU56D1EDQAQwJLA1QV5m8Xqnl3e3Hpi7FqPBNUGQE/9mM2D2WOJ+APp+dXqAM/x4nI6QyTwHFDPc0PBnfRcfmHUG9yLN8zOfrPKSSuSRlLRUXwftRtsAKb7pO8HjYZPoM+cRwcMAcAsRBAlJDUqIJwXJXhlaTR8xRn8RrKYMHoTP5chgOYD2C1/iA22EgrcggGIn+N4vMQd8TiO7ygbOAPgpO8GwPOoF/y/Ru63aH9RtvYkkfT3cvBHhhF+hhNAsAuQ54j7EduDZUgQ5f+Gn3Aj0fMCsYNgx2HvAfA/XMjhZgAZjt9S/0d/XFN2HyOsr8Z9zaZT3RQEjh+L/adRQbBDnlquCvAc3zHmeoGc9F1+ZB6d/PECgm8MB7fDZ3Em9Md+PyFGxEesn6EByMsEHnj6RCb18SPifoT1GOHD9kGdkANaAKuRREmI1EA485BhiQCQA1yY+8IeEGjM8/kfe9ey27aSRNfkF2ilRSbJvUB+QIDQvSBABZAEiQD1MKmHjcy9EtLR2DA4GGD2NjhLbrnLIvrP6aquptgkpdhJHNBAdwzbkmibDtzVVadOnWPm9nSFaNAQEGd/4XTlcz6hEmCg9b8GhS4AVvz9rfwEsoTpZIQlQa6YgVEUrWRxZQOAXS1f7x2Pe15S6OqJ+iZmzYiZ+brp2KdeT29w2CeI5UkdHOBUl+c2ov5qx8uP+5iiASL/+wMyAB6vFBJ4BQFgr1RDdrJuOMD1cPqDlkicpRV536pRCKuP+DQGrDNphFh5fDg54mm+pYN/GRYeoTQUFIYhtv9nVBwU1OB86HhdGwDsavd6955z7g3T70kC9ooztAIPCkNGzDAMTuRmh6Y/zv2sMas/QCtgDVAebnS5yyEf+IgxAGRBMwULUoIQI2gg0wRgCMnPIIc4yK2/ztbrJBFV3kJ1tz8B2GgIBUWkEwABYBcgGmsHcJn559Ttn2lm0KxsFJQvNTU4X7ncEgHtan0GIBNVb3VqmDPWkB+zM4J/TPSa/LdQxgf8flP5L0lx7Bd6+LCnD3D+/0XH/iNk9DF19+Qr0N4DXhBcC5fK+AEyoQH2DYLFQa59iqgASRj1DKGSRofQU3vQGGsQTbiF0UoUn2VupPa7zADmBvbX35LsT665wRutG66fGH+WxdVbSwSyq+0lgIwAw5dR/8MtKuiD4u2okl8X+djTOxww/Y8DaA7GcbZGqP+QxTHMCMitD6oh8dUjzgjs9y/uGqRv/sH3fDIHH09GmuYXmroA1xNCB/R04FLDhHPf4ZYJbNdrwAA69wlxdhmrkf+M8T+D31v53LQIoe9XXCbWhPVhENirGgDTfMgJDtjcvwJdgIWKAyAWACPCAWgEAT/wStYA2eFqUVCSqQRgtVswxQfP3nr1FzM+lW/JyvM8JQcwHtG+nw8oAyCs/zQdpKeBr0cTUgryHadrA4BdLV9/OJ7jfEmaxujYcxR0T+X3GQfO9JEO/T1g+JDpx8D+CzI1DLCngIDzPjgrLJP/DOeGFwt55dUjDArHa12siAYTcVGk+uKcqwFrvvsmuOCf997wU2hm/vOB1gUY6Ix/pJVCppopgEXDccOtK4BdryAAdB3PdZPiCNTvKi48+qGhAyC0VrAwQXjRM09VfJyocx+gfTz06fAHYlBMCQDQA5ATBHiAfCZYAGMI7AOgAwA8QiURIgToCt0syGWoeCtciwzlT6ExicJCCB6dJAKE0dw8RY+He8+//5oT8z8yFcG2KAl4jK7D7XXhBtLPj/25vuLWtzwgu9q/3rqOp0HAFxbYgTEf2OXQw4vlR+z6AdIH2cAD4n4wGLBXIOAeAEAwDloEOCtwgOQgSJJ0B91FwAeD5CeEjL7/G0+H/nBVYH9LLfynVT+mlPkX3b85KYNt4fzvR7cytbKjAHa1ff0JIKCbXnLbqg7JsCdtIFHpEvSStZrly4AKnMV72POwrWMVCmD8B/p7e7QLuboCn7A1dgYyqAPgDZIFnCUgTvH6rJQZa7YxflbAeBh6Hq8EgJkeCw4J+1Ozf3DFRIeIKaoB9G8dx2YAdrV9gT2wXw0AL5UCAOIPxCBK63GaB9g/cp+DOBic9jjjA0gheIVDJhBjUQDggEwOUkgAZFqwxrRBlg43gv2CbsWZDIBzf7U8khGgCf6PZcafq4hAASAMlwYYGN1xzi0NwK7WlwCcO86sqO9F1Q2oV0XYRbXG71UaAsJ89mTiIdbyhJelO1B6YlL+gv1/WGegEYQHPLL85PkPO/wRhwKRQazaBWgLxASKCyQpfJ/FTSqowjcdi41uP6t0M05NAFHhDogSq/AIFMm5lv1ZQoFfmAAsR1s1CrChvuA1oYPRZjBTzqC3fte1NAC7Wh8AHO51vqSNHh4FNqZ3kjDlAVkRCwQriMSsJg+m/YRQEjzA+h3TeJwOwtlAIPoh8odcXwABFB1ojbbBe0QF5NM12F8GgwTagYV/cI81yPuIUm9AlE1QmfmCMHzRew8+9+6/GfZfUdH9C0EGRG706UwZAyJFEMYCQ0AHo2N+DTQAmwHY1fb1rguaYGmxr6sink11syEX3CS7S6etKJGDGQn7BmgEsEZ+nwwEWXADzb0A6n2o8PG0zyAGfMRCH0eD1QTwIRUN2oPMZPtV9EsbfgFWH2Aw2IO6kyDuPvv+PXmBEw8gCsPZyRxczQTM+2XjgGhLTOBNx3UsE9iu1mMA7zn33PvsJSl1pbocjQABwA+I5YthAMm+8uks1vk+FAlAF8gQHlwgW2AhniA6yn7FrWIIEXdDf3g71lPAKgDMttfmE6NwHtE0MCoH5BPCAO6+OI7NAOx6DSUA9zYpq3H6mammRxQBE1JnZRHNKg2vaUYwBUOQ/QFgPEABZCFwQGXAQOn9Yr6/Dg6qAagmBzOABmUVkIpe/UcbmQozT3hmph9nrIAbhglIv/zeX3kyA8jLB77m/1yH5BW4DWdR2SEw0mrBE0dmAJYHZFfrA4DLHfdD2jOsfyENFqXp+uIdMypp0TOodwVwIE6EHMGMKrwnz/n9Hnb0oxr2O4CuD0wIQoMQu4SgDQomIegfFKCCIKABC1EuNcj+l5UEy9QdlKl+5u2LUoUjKuyfYqyxJC2QrrwVSgIeSekXh39HGhUkus9ooihCU20WHKI4cHS8s0RAu17DAm9A50N6WSXjgl6IONt6a+7DLeIYkT3QBfoIMoExYv6HK9QDAnTwJsAAsLuJMQPAtoDyAxPnZEcuins8ZfS/4dV0JVOju9yo8Ptb7QQKGUBeIgQVAWCzWSI6CF3Arv3zsqv1AaDjcc9Per/LHVDI7H//ETp8BxwBlgn/R6D+QONfnveQ/YM1oIwDqg2gSAOJ6P3uJTMALQrcnw42FABon6MP2BGxAHMYcIzSIcd+9NlzXOsKYFf7A4DjcHeV/r6NJVK5sw/oB6LgP9UCgDFAeJgB/R+sghYACMBs4Hq9EC+PT9aJgB73h7eRZgCPjZGf6USV/tFookYBtFnwXKuD33ncfWP/vOxqexfgLedu9z/Zbz1b0QB0ofwAQeljB42BG7AMlIU/4v7QJwSOADoF78SvJPg9WQ6AywCgR3vJGayv5cFnow1ZhqkRgPGIaoS5bgd+lv+vlglsV+vXewCrnP8xdqLOiRN8x+rVdgk4P4F7hiUoM1V56jBCEuC0r9ztaxwNwokfsAlF/09sD8ZBkMGncon6sc3M+V1RwvJF7Z6Jo2T0JtRlTFToA+XLHoZDzw+/6SlgAv2Lkl8FgPmAMoDiBYALj1E/BwzgvS0B7HoFAYB3O40z/KwM5F/MmtmzkmyBHsEQBID5g/tf7vYFKIcFUAmoWgAoQ7vke8U/u3xb4mlAYINdEMuGw9UnnQEMaObvNASop/9HWheESgDlCtBfrlwZAOyfl11tX/9443DHf2BlIz2crlfsWlYXBD9N4Jd668Kk3OoLjINXUDjB0cAdoHvI8EOPUJgDALtwGBICYAB8w292iagd/Yy+OzsjAMDK91cVB6QvIk2AshAoK5xNmXqZPQw9zu+O1OWnYaBZEQA2tN9VBqAsw/ITSPDVl2HVBgC7Wr/ednins0pfpgkgLhTuSRqsM/D4Ak/whQL7AQTYoWX4za6y+393G4D9V6ZGQyr9iwENqisAACAASURBVGHfWSUDmE9mYwoA12gPMKNhgbnrOPyt/fOyq/UZQNfpuB/Sci5clcllFxyBL0zis8bLDKtw6PbBXt9BrQ/v5Ke7ZJfIJ5Ofx/LZ+fs9rwh8gio9nw+nOWEAU9MleKZFQgkcGI8mZA2q4MI87DiuJQLa9QrWn47nPEEPQPzcZqzbdajvCq7hidr2agl58ovkl/w09qR7PyNxIh5WK8+fHQna22gt0DnZgSw1Oqhlg0kaUHGFj6Hrua7FAO1q/Xr3B3fdL4I1OAGwiuV2fbRONFzVq+kKf3fHimI9b2Sn2Zms0Syc1bObi5KgrHfkHh+qBCCfDkalEuAY9beq9JePMQAccwwA8gVQDIEvCv92Pf7ORgC7Wo8BgCLYV8HqmTFrCApaM7SykWreHIZpD9Pfi/14PS+Y0X9k1Z0uDMnfZpeQSlir9/9KP6fHvnLO/Tnq+4HUb0Sp/xx8wKJwo0VCR4D9ReNwpNzCkShwzLELaEsAu14BBuBwtxs2GOMYUYA1HKrVJFuU93ptuK6YCRJNmcHTag9RzjdEUxyoPWC98sBS6X5rqsDV3/Cb3P+eUv0gob9TG7CwCptpiTASBoo2ehpYBoCO/euyq/0B4I3rdP6VPr+aZ8/dvi8i3fuz93d+ffM831PNvqLrF6FNuAwJoAimHm9pOlB5iI1JDwSIgG+sJrBdr6IL4HRvk1qRz85pAlfP1rrJHqv589XUA35gNzf87LLwsKELxOq/TI9dAAPqt9tjG4/799NjXh4BiMIJlvqlA5/4ACMlCag9xPJ7Lv9b7V+XXe0PAC530Brseyew+PHzWTznLBeNqf/PJAXih7763yvufZpSBjCYljIAJABGhTewEgsNxwAWjMNwDqjBcsX/z94VtaaubOGX8xJ/gU8+dO9dC/6BQnEeBmZDp6JwVaSEWGLxIYYmBMUd8RqQLWgUqhgfLHkwHur/vGvNJK3tbu9pz7n3YUNWY0ziJE3CfN/61spkRsmkCiC13+ApQJaQnDd9HuOn+Np3Ho+eUzx/HTe/Gne3+JQCLL4YROh1GN95/ZJA5/xVFyTvjzIQd/HReZEBjM/6+V2G4nH/fs/Jv6dWgE8XWzx/7gnxuWfTTg+TgGL0H/E68MWxwr+pxkOAN+MuAetxlvCh2cS84cUNzxGavgyY2m9AALmMks113+tno3j+zjO+dze/qf7feI5Y/FspgOJ7J9P5fDOh//5uwYFSZjzIQT4q2MJf9AkoFUBDPO2/vi5VrmqlUqlRqpS1m+vGTb1e/Y4hwKHOFZJNGwKm9jsoAEXJWLe3h8rjbDJY3W5nk9n29jDYPm5vBzgNBr3t7Xaw7a1Wt73BYDDtrqZTmDrdzrTbwUY72G6n00m88i8s8Eb7geLn8gDFD0H5F+YpvtO88WO5hohSalwnrwM3K2BarVquarVmU7u6ajab1Wq1fHUF86tmtVwua2VYi/sH0Bjoh/Rt4NT+n8H7ly9fwU6/np5+Pcvncfp6epY/zefzJyf5s7MTsDz8wRy2wISbzmDpDFfPxGL+9PQEQgA0BRweYxalqlynjMA6fuE39o9JcVn8oDoqWEvVCcGlFnUiy9AOkV12NbcabTXtcTuLepPDZDqbTFeTWRdmXZitpivgi+kUGWPanXamSdufzl/11vVmG6DXTX4652+8C3wcyRR/fbXouIvzFyShwaVa+IxfhPjl783y92r5e7lZ/Q5gB9AD3BH7VaCDmqbVwCqVeq1Sa4iWQ324oykBpPa/sj8Q7l++ngHWAcf5k2w2m8lgf74ISHxtjeQyOusrmNHL6kq7kKECrKQFhUhbUQqFO6YolJiUZBHyGShQaJsA6QwgvMAKsLdhtg3Pdd07w70btoct02R6uz8cGnqbt3CYHIyKaQsWgQ/g4Bx9JEsoQmeCISgWpC2GiypT4fRg1eGccoer1HAc1XCAO1RHV1XdAPrQa4ZlqE5k26MLxzaNcuQOJoMoOvQO0QD+HqNZdzVZdado3S4OCtQ57/6TB3wfCwoqhKg2KgD4PDQaN6XYGo34O15/uH64vo6VwpNpIKtyaQiQ2t8W5t/++PYNnTu46nwOvLiiZIlCKMxpFhDPAIQKPqfijjpy525/73mh5y9G4ejeCxfr0Ft73nwRrn+E+8X9eO35Y38cjvZQKFyEoxAXvdAP/fF6sfY3yw1MuyDYBZfSgstdsNwFm+Vutwx2m03o//AXUNrdu6HnDUcG73PT7OvMY4QznVLeAoWAFIHoF+SDp4gsQCRXiF+oLCN0BC4JucEYJTGVkWcTJRlHkmEOo9yCi1Z1y3FMx3Bc27Jq7iHStodDZTuYrCB4WYmARDYojmdvtkY+1glvP9mQWwdwd43XwP6gHco44FpKAKl90sC/CwWfQ7xT8NgAiww6bqhPmYzouiPLuWOA5+TMUA3Dtm13Pg7D8eI+DHf+cuP/BKj7O8D0brkBFAcJpP/ajosGxxuDZEtwtBmPHGz83fKHv1yP7ze+7+2BaMLR3Om7umkYwBCqCTg2URIwqgvIQ4RBY7yjXtA55yggiPyAz5Vfcs5fsEHMHvJL8ILKacwjwhh38LCWRSNbVy3bAn6IKtp2cjhsb3uT2Wrbm2EggjrivNt5/bjxqEGBJAA4MCoAbAlw+CQRYEvgTC5tCZzaJy1P4+ouqz3iHgzUugI8gLU7q8QlxK9cFgQUtMBHcrUA+IGdlYIDi6resu7UdtsI+0OjP5z3h+5+7Pnhwl8uf653S8DuZrMDDw+fy93lJy14RRRHhAEyYrcLdnjopb8Z75Y//RCER+gOQXTsPXfouqEJ5KCrbQ/iBikAGGdPNABQfr5IKrRELC4Y4yqjMX2ISRYjMSfEdMElK4gbSB25FYIRDuV1B3QEhB8QgEQzraxaVlQeVbez28l00ptglAFKArTE9NwSOYALoe6vrw+vIH79cHHTuGg8NuqNqH4T1ev1qAGzm8d6vVSKWwKnBJDaZwlAoh7dflYhMGFuDkgABYDQBFJckyeGSMQz1nou/KAi6j7ur8hVJd6fwUQxI0B0FQoYZqHAWd+0IB43Ieb39t4+xKDAh7jB34CUAGZYbwJAMfp6mC6Dy39gwUuaAILAoGMJemU99tbjuRuO50PDHJquaez7IBTMvsligiMmZUl6waEJsuGCCUYJ8Z2Q+GeEPvEjeSJLwn7REoJP2lKOiDhEJD9RWYGQMG3HRmViPJQe0G5qNc2uVMta1bJsCD8cS1UNpjocRAhQkoonKrQMVwlstlQ4qexJ+i5gap9M9Z0Rxay6tn3YWpZhOFDJiFlQHRykqlAAUGelsxT1OY6Y0S0CGI5qtoKCgWD7HiLXBCYyWYkHBekAiCEjGAIFRoHKY2Ad5vgogLG7FmshJrju9h3O71xgCH3ed731fIF5BMwxjMP1Zg3KfynAHMRBQfBBKgjeYQhQI3CQ3Wa3/hM0yvj+BwY4o3A499y9a8zdO/eOt3jLGDLL0DHZwGMCVGmSeUjoMYG80ErJoow/Yl5JVALcT0aOeSTmBQA3QpkL3pDBRkIYCW/IfUic5pD/iDHkWSUdFSC1zyuAnCV64xPjXkOsulqtRPZ7NgA7bCO7akeaBtSgOtSxcPhahyNiqSpEMY/94HMtxyw/zdCMZAK0Ai3EtVWhcQpfMgDK5ER506ekXZLBE0Vhm44FTBFqgM9TuWr2XRD0fQDnvj8ElT/fz8Ph3hOZiXANigI8PYYZGBXgdPkhJRG8XBAKBFMau0ukm2XgL3e+t16sw/V4PQpDFDDmqD8fmeawrcPNwXsBYYWgBbxGCXUaiybyRBEAaP60So9/SYIxmugGose7cqnB4L5xR4WbADeCc0d8YB2fbOAdS4cFSe3TdkJIVHx+v6Yo7EXn2sIgTl1NZ91VdzLpTqeHwWRWnlXsirE9/GtU1h3VotSKgCQY4gDxzYEguIyLOXn2cuLHOIuA+pWilhDeEP0eT7yddKvPoBCKl0regGqfSG1RvIXJOTwIaQEvcUxVqrrumADMfh/k/b9H4X4OaPU931+Hi42/BAM0LzERIWEevB9sBG9qB9gDFYjv+z+WmG4YGRY+d4R/7Yhk4VEIIJUAF/wF18EcZhig6EFtgeSyy6DuDYAx7AjqnqiWBereAaqFTUL4w9y2ba1sa8DE1YpWqZVK9Xrlon5TbzQa9cZNqYHPBK8bjGRz6asAqX3WcpmM/WJc3oQCXjadx22do0/ctr2LDfC7XUx0rzqd7rTbu11NVoPtNtJWA7tXiaIe1nZHs28do8odg1vc4Jgb44aMlIEoIKyVzX84BLcyP4+OXupb4Q3R86lM5vTpf9i7vte2lSz8cl/svyBPebi93btw/wGDGcEKlAdJSGElxauokpqWtnhaJERCtqZQWDagLBd2TdmHiD5cL0T/5845MyPNyHKKC/flokliK7YlO5Dz6ztnvi/BJLlzE3jHsTl22Vedr7HB1YA12okJVFt4fTDSqmAGZyWf3r+/vX1z++nX/91+/np7+/HLr5+//P3zV7a+/OufX/4BzYb/IKoIt//97TcEKT7/m1n7x6+f1u9ZtcKvv2bv+4onMOh+0BXZOIVQrauqctZrzwuiKG1czvHFrBVNNo4F2tcdlnbgquB/g1+8y4c//Es80ugQYTWfTaoA0zoaAzidz9a1uqW1zwAGxHpETQ/UqVuk6xFPEbko+AhMHq5hDA+cQ729397kd/Xd7sb3/rItb8pdUbbhZucVZQCZLQuNaEMsXtrQj5cVMqT+awitFho0h+UlGiEqChvdhpmYiNTBSBDUEaKksBC3k+A9gPlWl5mwZ1/xSxtvrl7BGyf2q1fW1adbk9UXyZt1kVzZkHJbUPubtqnMF1jYCQRkrmIvS4oySkM/9bxsl+eJFXK7jpdNC1+KsQ7g/aVA/BOrPK73L35wr4A9n8YApvUdJcDJrKIqxb3cU7dHtsef6++UEVmyGNp/T9BFlAPSJRLMOVwTPtIPXL0LWtc32219x2qL4P5xe7N52O2YY1gHbViurXWZ8Eo38ZgteknFjNGW3Xk5wsMdAeQBFi8aRC+uM1uJ11miChHYA5YhpllZvGCRLQ7wJZZpiFkCqL3BpySYlBepF3oBjOKm/q5puoAeL1tm6Y8txG3L8hU7XS4bNbIPVxxD37+ySnffykcGAvYvsPTN2Xz25ykDmNbRGMDsl5rotBZkj8pOV7oYZ7pW7XyMn5Mo3mEh5DDUwTj5HF10DoTPzpAtQBAw4s9yie1uV99sNv7rsm19fxeuryK7qCxrjdbLimdWUvCZHQsqA2zdg7eARoY0ZlNO/aFrSEzE0RMr4WlC0qGSwsWAryhiZuaNWOyAWXnbYmAHs2+WsZzNlba5Mq1w3GKbgS3HrXiIlfHJas/UY3FGc/AC8N36v8zmP06yINM6cj07NWal3LzeDbJSRfJGUePpiXEU+TvFLRDluN/l3yGM/Z79McZMxTcI86eaZ6B9AgGXpJRvBbyuKSsq7u6u79vNbrMpN8GmvXt4aIP142s7KJIyqZKS5e9FxdKGCjoYCE5iM91OWB1g4XgfoA0ALuKUkMnBSJwG4tseDDGi39XrUMdz0zswsRewDKD9Rgofc8uOBTgQ2kbFWb743H/jrvh6dAHry9nXKo98n337oQ/3Od67y9iNA9OcnU57gaZ15Hp+YsxSOjajTgej6vTJLfB0f7L9OK4ftVhYPJE6EDJC2yE8hwAdKOYRNaX1ot4y91Bf32039XXdbutd6D8+7KrHYFeU96XvratdWZRF4iXoEJiPsBO8ge4a5AgchjTNsq/X4+Vyb0pv75E2sO2lAvHFbpTnETPZfOVHYeSzb9zkm2Zpljl8639krzkJiB84mYM7fh3PC2DLL+z9lQu2BONyPHjcQV6QtrTM2WzKAKZ1bAZwMptdbcc5rcmTzBg9+w0ZcHir1kn2dtd2Eb9j2f02DwgR3uHQpv6h6+j6mEru0AMX5Jo3NwW1AOKULIfYvq439/X2r/Xddtts7+qHkrmJ8GNaQDPCH+J2wxI9FoeNy+N5aXrA18WsO8i8IM06o2UHuLHX887wFm4Ey59l72KuBQLbfdM0ZNadBRl7OXMGGbiKwAtTFvrZjxPkfsSWnwndEGtmzJ5N/9DTOnKdzOfFVqGpUpi2yYh9kp4Lf0iISUelsFR67s6QlWepvCLRY/oBgKE7pHtUoWSh45IqxfgoV5iuSIBpA4xEdWAl8I+wm4LlAcWqGYfhYrdZNZiY+7BJP8wchyv5eFcVezaHLfzMggOw5TQMszNmuyxz90J2SuhEEWb13AG0ocQNg9R1WVYfu07AbtjyHd9FpDHl8kAsD3Ec8QmyoNsMeDI5gGkdWwKcnhjma0IWQz573QUMZTg0aft+D2wfpTs8gWivlkX/kEtDhwfwkp3mBqHDz7An4EuG1H5URzTJkCeYDFk6lApDQyrZpQrTtjg41zmBhpXnWIizFD47w1CO2XjAwvZZEEEYL8ygWcYrL8Nd/ewAIcE0QxP3keM/F2p/YcDhwtQs+GZgR8KHvUIwBwfjUIgDLF0nlTwA/CCEGetnUxdgWsetH34+nb3ZjOtVDaltqU7eRxf7Dw4ZNkfVdg/Kf9KnqfrGLk4HH5foaMQB7o0RNiB9sEEpKa7XMLu7Q2LOHKw+8zNM3zF7Z+E99YCdx89Z3GYxOvJ87AdUdgHAvlD2XOac1FtQ/KaZi5o/rmD/8jlsYCQVJ/pOpZULdaAs464izoRQYO8A2AFWHsVsZky7gad1fAZgGNW9npITzQn0UZwshtJ4VEcDpPQNfz1V47VWCfQP0wFsqKCNpH//UQGhUdMdwBV0FDXYO52qdcLQQ9EAZoVy4OkE/j2oylkhH7EC3HfClbtyozTkQh0o2JGn3OQr046BzFvY6YpHdZHCh6jwnYm4LiQA4sI0zhotujudSkgkOcJzqR4eagerqxmUAFMGMK1jQUBWO26GgN1IbKVDZU5ygN9qNL7TwxYoSD6vkXdLHx8YaTxQsp+a0JFPQIfvMnK9Q30NmD6gXSpxB71CO8fEPc1zN25cUbSH3HB9bp3iQUHf7SZmxbm7pZ1iqR5g1u8GYYwOwBXSHxF3AAafBFxJ414JB+AGgSsdgCgBcqdzAHiyW8Fm7ikDmNaR6yeWOVp3Pb0+6QcCtcbA8PeFUpDLCn8YrXXgjg5UMeVrr19enL84v3xxefni4m0PMxLNfZCe2l/LTEjvFrrzdLxCcVyqd9CKHDKmNir+alIDHUCVA0+nk3EgIEfRjthPcy7OGQk9b+4VQnyJbVSqLUfcWWRYw8fcoKUDSIXoV2UYa7T7QHoNJxB1vij9WU3gyutFmgPILZYATHQA0zreAbAMoOVNOTJOZUfJQlOyUHE2xWyIJsMhnqVqe4Do9i+s8+3LC+YBLi8/fLi4eEk0/l1t7pD2vb1eVnekjdg3MtT5Zv3zdpq8YieDpjQq/mY5zrgFltE12J1/lqkZeZzyuBxkSgYQhxia28iwqt7u5YGLLoQ5AKj+45RjACjtI8T9Km7T3Unpkov/SAcgJYOXvgAOmVfCA+ZwjPnUBpzW8RgAqx0fFAi/t1UygPyJwmRHdLlcoqv7qDK6mrI27dECKnt0b89fnjMH8O7di/OLt6TP3QdjhkRvMvSX18YTiZa00MGnH+gEay1EFepQ/lKWAcAcQBUrep3ME0RKXBbAnM/TgoxLeuU2kHv1DoDXCawQiNHk0QFkPJyvnICL+1mmUSpBHc4OhBpQlwEI3JDZvXhNiiVHyxzA/MepDTit78gAzPn9vtbl4rDGBlmMNvyf1Ot54gwW/l+AB2D2f35OtSr+MJ/2N0U/yGE5EC1jeeKPlkydsLOgUB1AnCEUF2eqA4g5lOcKRC/iJUAkuwBREPUCf3GWNmD4jnAAIhMwDC4N3AMHEgOQ0uBNJsAAN5R9Ad5RhPc7mRzAtL7LAZymexA73ZfZHQB8ZCiFQ0YngMhenB2+CBGAS+YFAARYaMFdubaWSAy2LC302mBfyeMpjWD906p4ojh9h3uBGozioXQAKzRLtEY3EO4g4OU9BwZSPj3sS6wuxHNzBx3ACtt7PA+A3zgWsLIss4Bpws5ryDCfn0m779FAMUMQh7wvsLON099HGvT5nya38sddP/w0N+cnZW/mVI/6hI4q5OwL5BGlSh/gBGRPHqdvGALmDuH/EmqAD+f1eISn48J/ROPcJ7o+Jx39iANtUTpy3QHGyRwAiJE0CNqJHpxwAB4GXzfgv2Uc4HfwrvWMJFB8Bkz39jl97qVxb825GPdpTHZO3PcTAB0M1UEBwBS5JLhMQrq+QOPbxmz+e2wFeP7zbFIc/IN3AeapPtonwDVClfBLyQBjRxCNkq7wxnsqX0gQVOTTtV1Xv4/ktJ8IpDUCAO/+9oEVAS9l6U4EKkmVTYfiN1nJU2XjYYdLKOwEasrBpxOo9hmIUP+lpAcVuHwvVcS7CLkB/oAKTDQQdsgxPEDkXLRfTyQCWAl43DJLwwygcSA0fZf/Z+9qetTGsugmG/sXsGJRFXUi9R9AQs+ULFELygJLgA0uDHRGKZQXd30IKZphNLt0M4qiqDKrRrNJpK7/Oe9+vOdnY0hmwmwQDgKHAlOlqnvfufece16KmYDB/awLoR9fIRkIF9ADxNQD6OleQ8onvSuTAKbbUIBKAM+t1c//DwtEHbwGTz4DR4wA1O/3r7LMtttLP5NvYueOenKbirfX1sIO29Y+OhLHeeWNWv8Xo9FosUgm89yKTJb1ONu4XRZpifI3Y+8vXuAI5B6hYenj1MMQBoMhAWz6BNWhaxdjNGJ4bqizz5VATLCgeetRCaD7eZQJGBDMsOqPmdPTowD9tu+lBYovpYZic3BlyEQ+CXQmGKc0CjCAXQEOPg387AVYvIPb6AkEHCsCcNUvOLUYvEo5sBQFta3W44hSfIudLT/97uVEHTfzeRQmkTrmEZxB/C8SyAGTHZt/m8pEVOuFRVkSJKumlPOsJhvF0QA7YZWvnwIJcItNuwH34qeXMS3nhACmzTzyh4wAbn0U9QxzLd8A7/u0ok9RJUhBPLik1/Rf+W3qAXDcK5w/oNYfPwHvH3MCMMQgPTNQkeoe2hLw/Mx1Hdd9hSDgJDI6ShbwufrlOrfbLb/qvr/YIferiPYiQ6efvFHxH0Lgh5AJErop/L9AEPBbuKffL0oTPLuIim0fI1G1ze9WuhKWVMB+/g4sxQABzDi2NehnPD/UCaAfGHTfbF57COdNH3+K5QMv9j2k87WYj3iDsUIAnTayDVrmO+bJAZUINP/IvGAzuNS1ADUQnu481zt0E/C87qrl4e2H1dfXsEXcqRd4pCyA5/7RyHUveRltDdGKfKJeCIuTN06BdJOiILyxpTj8sI5CPCao/FnALYEOADQBVAqYmEsJbTbKLT1p5xQhC99po2hpaJ/u/68UpanFxvar5C2YgrwJTNzjKh/kqzsHZUxUnVqRgw2WAO2uhdk5AXBbf4gJoNdPGcTTOn/n+z4aD8245Ke2wqYgQDDKYj6J+1N0Dr5TFcCBdUDntXpdXfXvq4vW118gAzw/dQKO7zh3PZ9YAFEU75TZdFGOuSrmvGQKUEILsMbeKMSPi/9ikmHcq/tMpQC8ZZEs9fh1VlrPt6d4C0RgWa+8BQsK1y0RivmU8pa3QGP5FvYA6o7zbr0KOuze9fQoANX1RA0wENg8eO3UaugHfeTteaiHyEHd2tPTwLee3+nalb5KAANmHbgE6G/RAUPKIs1bBQBqB2UBntdcVf+77z5eXLRWn16rSvHEBhxpD6D2pcKPZwcSF//DuT1nE2aLUTYB5X+iQh97fwviAFViCNey6n0qrYRZuPxuYZDYy/h/8yh9NOzY2QYaUKP75qyfjvNmPeeB+GpAsIC0fh2vkz7lNGBAvP2AJIS6IcAAnyn9u7bXAeagOeDMEHd1ish7AGkVAsCSw68dMgE8ewFbuNXdd/etFmSAzz+rZFA7WY4dXxMAdvD6h9yqmoU1+yeqrbpEWThbKr9tMa6urpcToPtD6gBkC+z9K0SweI/xH4Zb5L9+2yScy6Kbhyx07MsfZfcl5XYnsUpjJEokAL/8QVUAt7cBxra258AEQCTdOOVKgMQ6XBcMO9QD4IFBRgABs/ck3uGvbVgJ3FQfhGVDM+XmgApu6vT1+RXqRM8AXk3NjMGY3+w5B+zTvYS9Bl33g8L/FyoBtO4/OSAZO2WA4+sBOL7TJzNuqflyreBhRU1elxuHHW0alGvsrZlAa7TYmuAj1Q+s/dEcEkAGKQCwgApuKgEeJ5FlMsQXw7M5IIZI5N9ZzuVL4z8kCvolYY8tWI+CZQM6U8hcR8BfkA3b1ugR7EA64NevCvCx5vQDQ9KNBxoIECygyOxBAghyLV9wBcu9uu8RrTe0bAB4JEBVDT5qB1gzgIaCNCTQ18L/Pod7Lg1iGBK8UUjugH4gP7mgf3z9+z2Gv/q3uv/Vq7uue6oCjg0B1Byn9qfYDZN3u+mJ6q77ltzefhoSwATEv8gBPMJ98hhGKhNkWZaMogoaDq41wUJh+W3MLne7Em73K8QOC6ICjPkn2IF0ANcP9CjegNQ93L2nhXzTo748A4HggaTAA50A0AhAI4A+Ri0j/aBLJQAMA15/se0/gi6fmARg+MChxgQ0gtSMVcKpH46pe15zXFVSvMX4BwzQaq0+fqg5tfpJEHB0JYDjuF3Z+PFj3zXkcn6zXs7X8yWs+jj+D/o/FfQwBAT1wASJgEhUXkom6oURTgoU5T7iOwp6+WM/z/IaNhaDlVlV7pwACOZPeSiY1muuC7joH/ikA2AiD5p2MUY0uQLAi8Yc5wGzizPwH+9BQT+Y6gRA/kFx1yiDtBbRIABdR9x5B0QA52ew17v7+n7VarUQAKjH1b+c9kkPcHTHS8ev1b8svxHGYnekl211Sn4+HNHE/C0ARfAxKQAAIABJREFU9WdQBag7dZJA5R+FSTghInC0rv7w5QIbBJHc8z1WGP3se53Y00+0mQy5RhbwdpzX81q5w0P6/DThgzFLfYYdz7+0IlaB/5m+52b+mIgBVcWbeT6vbZuHQODHPC3EPkD9Sz0CpLWBLBbsOTV1HIgGfO5i///nz6sWLv8XXAZ8daAP8OKUAY6qB1Dznfpt4e9eMucv7Q052CSDqTKL8BdC5rt1yCJVaKYKBJL/ySIJE2z/Q+yPFiQDwGoA2YDRKInWURSuo7WU1khAIxpNMIOsG6JipIdHEujjSg6Gxp1QioKpidkNUZr+gcjbCY18WKHxF9gpsAP8fFpchxnPj9MrruunGJmXAAQ2XzpeG1BDejnQTbsA5DsU65gHxpxAZpdmns/rxHR9IziKOXvErEG+1MpirTBUnw6gIb5W9bl7oNA8c1EA9G9Y/u3j46+eq6DBaQvi40IAnu+ku5Z9sbVTiCzr/cV31QMRaX9UtEPsZ8ljthihCgCWduwHACXwm3oO7pLkpoAi1qNkgsZh8ocKk//i+807BY9tr9NpUwIY6GHAYR6WzPBrho7QwVNXlQB9i9ELsHxgTB9c4bNpTw8DxrDX90yBhs6fVkrRmoJcgRRf5TloYCWj8dPgwXHdswP9SZyBpsD9AJU/Lf3UBWi17t+5Ts097UF8VAmgDlLg5bfG5fc8L/bR8fqYw8gvKoAyXPYx3pEDgPgHNyDABSohjEAaAB1/W58XjbIkitSr5xWVfWV/UjZ2KpZ3mZlWeITCF/52DXuS9zd6otcU78GUZgJ1Z58TAL3ozvfeDJ+Mmp+1+zNC+zFW/QGTfDNuAnZhP8LAHvXVyqOhTgCzPiOA8dScUEr40oau/UGWZrCJhWOVBz9XAa3WZ/UxvnPyHj2i46e677v19xWTALYgeEvWL8rqOuMTJmT5GhBU8wg7fVAAgPI3o6pfxf9jqJLBaJGhH8iCUYCqC/JdANWVwgWThvPCoIIoIpQSXJElHWBhgxCRjziVPEqtHwzbjE+wgXBHrd860nUlz34euq5PdX+PEoCC8ynGJy/mSCEOaYh3zJwglQA9KgGeYOrQH+bOAhj43GXobgo1gZUAUhYXd7yaUz9IAnihUL7reF8p/C80D4AQYPXJg+7Ai1MRcDw9ANfx/Yd1wVqjbOiz23m/6BW4veGOaQLOqdU/Yd1/ohICpAIV1qgGAmCATQA8YCigoDYKMTGMRsmatwSWputQ0u7KnXsa7iIHRUk7XJYigh8I0nOBxt8bKt6NIZD+HyeAKcl6vc7QSgBkFs7zAnH3aphX9jrMe8A3xtaq3uyZBMAa5EBLkZpTpgEDbgv23qiwrR3kD8JR9b/jvTMKACsRrFr3b0EgdHaCAEdEA6pfd/sxDx22+Mg37CpYcdp+m8KaEy7L9MtjuzchsP/qRhVASAkgW7AVwARxAYc/pIRJQdmzTnBiEICBXM/X82h+c3OztDcNKdn4iJIHcb5diS3+MR5GxbcU5gLlHbBz7YGVANj8iwE60/gaCJAQSHP6pgQg3f+QB4bQNYikARDm+CRs7ud1NpatIAwNBvxI25IZBNDUCIDbCSg88g7RA3imAEDd9V59bhEDaG7ACIIaAKoDxz1NBh4PC+B4/vWj2KPfb4jGlkvGzjmBrT13pAS53jrUB2D+xyiKEqACcCBgkREHCOhf3WeQE5Jiiw7zxiibRMu5uoRKAGAkMF82qiwAvqVJ2LlZWPXxB4QW7PQbXGlRD0V+THtysQdYs88qX2r7qwQAe4nogV6KYS0SIOJPe4H2eK4HhgFx/5FA7//V66aBQQBPVlcQ5gdMORLzHMFhkPm5A0v8Lx+IASARwApSAasBWp/BeaT+8hQ5x9IDAD+AN2tRGIkzw7INMwSswYEUVhsutwsztmFEyhl+bh6FYRTR9D8ofkgDGELvL3mfQAGQZDwNPAJWUMV/mKhMMCnMEYt1onJDFqqFfw4+IhFYCtxEkfYl0bpjaajA3FOskY/8sp9IaatgaZkGCWt3NP6B7qA39yq1WvAM5GfddJP/Tw/qUXt+/KCyql0CkGKXx/yo7Rdz5kgpATz1QW8wa+bQgG0DjMp4YzKC2UwIzIkCdiDznAPYATw7+w97V9ObRpZFN70pfgErL0jPJJL/ABJ6j6ik8qKMbCS+oSBkNAG5VMFG1ZtmZnZ2SI+iiMmq0cyiI8X/c979eF8FTs8Mlka2IB0nxjZy1H73nXvuuecABVga3Wjqr74yTCD+Xt28hQCCynES8FwKAEx2o43gMXiqB/h2tr9vNpga4UAqPOlM4VLNwe9niAQfSP6aIAME3Y/6E7zA+exnBgj0IRwARAGJ2Sig3QKFCjJ170M9wdsfmoBpXsj28/2DUuGGFqbCphVYQ9DUtz9NzXjBhqFdAwKI2/dg/81cPDv/k+RHIwBu3Me0nnsVRh4H0MEN4suLS0Ly8I7292NjIeANyQ+kQS2G+siEpIeXbB4IYEFbArJYsHeGA4LBAg2BHoMTVp1EUPqsLv1VXSMArgP4bn31FXLIK0ca4NkgAPWTc70RwrP10sIafbPqtRsToCM8Cy0dKe6s3tFnrYn6S3ABsJls0P83SbqUA9AcYhcAK0HZbZ96APIHmmf+Bl+ag35gmED9wOt/OgUSwN/u17bgqeMOagqZ2G8ZputEKrz4IWGWjvKFjNRt3jNOgOjXYb29wd+vR0CgQyEBiABGFCg8GJsCAHf3JXsI4b5A5+JiULM2YcAbypjNQ3o15+ZXbUVLO5HQ7i8UgIabFDK4Uhd3+REQQAVWAEvvPunTbkaAWASwEKw+yONm8LOaAkh5uhaOX29qwveMta7wpHWpVugJJ0Gr6l7Z+nxNE3L/aFIXoLp3OPBQDeDUq/OvSsIGaoGC/fjAQSA0Aoakw7O4RrHQMMtgbwjKBnQBrnto6o8EPVRAjYEwNa6wGWi3hI3viWt1Pg7BExAPrEYAdOj0+t8Zi3suOo4cIJbhVWMAJP2lI9nn1b0ObhNqS0Bt/XstWQo8MAiA08FJXWh8BGpWQ6DVwtsoCEqVwwvAizIsFQaf7QrAa2IAmACAN6+/joJABpUjD/gsHi8q6kdneSvcOD4/6GtP2q9hBLzkMMdOKJ3O8DWm1PaTAYAqA1Nc/1VXPywDwAYwTwdBBqRKAKKAO5wE5OtZTpHBs/UUhoTqdcA6MEM5IbxGXnXbFOEGE5qaZYcBDsEhvmNqYOkL/uetwQ4vGvW20JoPeBqPzT/bgnRI3vtGywFahABkvOw5qt42kYAs3Md31Bc27IdqjdFIylHDjQDW9uDm3Lf1NrBxBWeTksHypFR+hGV9YABKla+fjAjYFQJpUuDmLUiFj9YAz6QAlMoy+NvGSH1cjz+PLjM6Gkdvb8+ZOw0UKcR9rsHGr4upX02K/gAYgJQAov4NFAHoC+D+B9Tf79/OqQ+AAgBPIjM4R6hATwBPqEoG0oB5wXZwZ+4n/HBjpy4IsZsFLEzSqPD2DdajURRFMbYAk5rD6OvOvMP7vxzaRSRgIw7DxRunBWifUQFos3cIzQIoJozXBa6g1aAWgB1/x2z7oyWIMEUoFAAmElTBKQWPsAtUOQEL8M91gwA0DrC/VAX4cCrVrXFyVAM9h8creXJS+i0XxkLDjd0UntpHuCoBUZDimZ49zcH1G8j/XFS7uMWXmPMPdABLgZANAGSgysBQ3ex0+9/1qRfgYQCWAMQKc9AJZoAZFI5odmdpUQpoT7XuXjSZqetY1S9XoqBhEhYhCFtJ1ks5iuTymyH9jA0wb/N2SN/PVAALAntRPPIKAOF80wKMnTEiSwUaMbiPe7s/LYMATAvACKBntgMYAYzCUvlwy74fy4AA3n/S559lQEQF1DUgqK8+Q1t0dAh8HhwAJAOd/GtPbpd3ZDzLr33+f2aoNptxAVDnfjprJnoK2ORZIGuBE2wCkAzI6INwvvt32ZwKgLrs76gnIIHQfJ4M+/M/9+EFVXNQkPGJBy39qjtQQHxHE7j79PqtlCHCecMB8IXM5t1sFKbKA4D9LSGAb3E0AuLQpInRUtBEl45LHCacs5qfjIFGcUyeoGb7d8yYo6VTQCa6Ehh7wg79pRHJkiwffCW/DEogAqQGYGVEgAQB6AHPrm7+ImUgK0cI8PQfP7wMQPp9W9j6E+Kh6F3hf0zsGPCrxn0GD1DqTPH3lKoB7gNCJdgMcQl4iG5gCAS6yRywAVSGJLvVB1/BgAykQVQQ4DPXaZ6mO5KdPd+EVSQK4X3n4oF/VXX/pwmxuYpiGV1BAWBHsAFP+rgz16bAVADYHqQTheHV/RZEfWT8SWvB/CW0zP/m4tx6f4OaP46i6y0phRso/GvrFkAj/5buBRwOgCQCEahzDm0BwB1KRqef6mYHQOsA8O1Kw4L66y9SqmbhyAI8hxZA/T8vlz9qIwDPAswTBZv+QOy+W90x8uHNurSLeAAlgF0mBLtNRPIJuYAm9Bb3AakkDOd9zQai/o94AQAL3QflfMKb8AtvraH4b/JQQGr3B8TeVKKfVGcex4seSnZ1XMfY4fs5FuANDeSZA9iOJKn6xjT5H7RaE0v40wIPZwA3WEHUjsOQogENAtA6YtMCtKwpMKORDjGRPVVwSgdzAD9UIAYsMh3Aym0EuAwQE/DlLWgBjomBz6EAlBTEHeV7c4AeWJgvKG/SneU7dwdgOp1NuwDxEQR0E/IFycgXuMnNQbc772OJ2OCwbw6aYLz3URxMrKDqFHL/20n972BPpplIxf8g/xXOq4qP6lhG4YL4Nl7Bb7Utqtf2PdrXBw734L6lUMNyYDd7GeczAhi7ssABFYD7y1jGUbtm44aN2ZgWF9Vq5zok1CAAzh1ohGEgD2blXqm7IDj9p2MDZljAlR0EYg3461sYGB7FQE//8UdIBjr91QsC971A0wc8AfZ5he448OVTZASABkAxIJkC4GFnVDDcQJeAdACNC5n8Z3VwMudCMJ93rU1Xsv7v3QnF9yxMd7wMdIn7GS7m+ByiAcdtrcMfO1ZgE9MCOBa/izAMYaS35a29LRWAMYt/qQVocaQYLxEoqBFdoOL/bNyoQUZgmyXB2ibcrAkaBTBMFxqEOOTha/qVAIzAv9Tt+p8l/upmMRj/+PI+KEt5jAp6+hzAC0gHXm72uACJB+CAqO4wa1UnJqwAD2ZMBMBVv0E/ACTym0QOYF2AkNAEdoRIEUBxIcQVDmEziCjBbJOa469eIjXiHeGP/VJvJGhizYQNMi+AGO+fbGPH+bN+jaIw/hOQc5cTk9jXdqYA/N7lGer6emjhvz1Th3kJEWFjjgcnX1/SAWiegK7z3sUZIQBYOrx2YkbBM4wKwLnOCmyZAqBpQcIU953RI3iCvlBtvXz5+ZO+7/1fbj9Qh7XgUvDYWYTHx/8LAZR/EsUmWXj+Gd6s3xMGFH3CRGEukM/gsM+m5AmWKJCfZRwQqp7FOx/+jtOADCYCyPvNN02cFyZUAO4ADuSgRs7XXXhumKzdIM+9KWCiIPQRvjyoYFhghMF+VIi4j6W6zSEcuKM5AFL7cgHQwZ1mM2BySct54dKBCY3WuUUAA7rZO/QyqgCQLQB4+iwY36PgdztmReBEO4AaRzDDAejXh/zeQxEA/CjIk/c3eN9r7o/+02IAqwV4XyqrhuGoBnz6BQAmustb8V0onT64d/u79mGwv7uhqSDAfNYEIimAvUET1wVBDpCBPUAGggDwCk4y9AlINhkrBOfoIA6agGzYV8UhF/+BJ7n4vSYh3Rcl7r7az2CCFS0s92dYO0L1DO51VhfF+d2PVdFYbq0SkN2EJmdcADqWA2jQHvFgEUIuCOF7vt61jFBzAQNbAM55LZAjCrYyCMonB4LBH4MgKEUfVmz/xW/rr+1msOkAXoM1UFkedwKfgQ4AiN+rW1Gt+gIZPQBI/dwN4S3cFYzBipbgKbsBchQYIv8mRYHACkDSxWVh2hcGp9AM/YIhLCyjuHCYDUABuFUAYDhEE8EM7YMhTyxPhbPF45r92tWE6i6AsRuPeqeh+Cmex8k3WNGJYQeHh/hmcM+5IGNt6zFmhx549iJUcL5nu/4enXLK9fAZQbIHqtUWkSoaxAHoABK9Sjix8UIcB9KZjL2wwAbs8B66o/8SfhRABWCvesMBrOz5JzDwDzQGOdoCPH0OIJCnlZcf06qngnO1AEURjXB3Z4qhgUIUa0aO55uhPtz4uBoEFkCoDQT4zyQhEQTgFEKKAOABYUAIHkHzNQgM1uvuOgFmANDDcJqmrmbP+UZTV/+/o2o2UmCnzdmrboT/fsNt4DGe9AkfQ1L089metDrOTl+D0vuuR1F8RWf3Tc3uCpLdr+oHHFEAS3kGC6kgwKJm3Uat7xf7/ikEoB3BdOiwQgBoQtyKS7Jy6Fi+At3gu1/47kfFj/UDZAGAngXWfzmFncCjEuDJP15AOvDJrdHTCm0B4mr+qwXNvdX9mYVbYdCBMRPVk0BE+Orgo4YfioGC/oAI2NkDngB9b3eDTiEbVQM2oAlobuZECKqWICOLMHykuCQ0W4PFWK4Jey+8vOoq/IXR9nhvXLrDKodNXdBQIlfIPA7Dy/uta8LTsQVAM/OsEuBLegmjw4b9KH8No3282Qe6AJzxQq9UX9MiIRCN/Rs6E1Qj/4buDXQEqeEAlqEMwgPx+B/ACiR4d+MYgXqmYCtvOFj/O9iDvjqSAE++BVCN32nc89kzZ13GSILMhrwJ7qwWDfX2OnRWUzjuTa4C0AOgNjDBM99VZx3F/QnWAlUlsmxOagG0CaTtAPVcXjUEvRXsiTz1b233EjcoQFQ9ACAezA0sWAzTd7+AcwkW/8zjwV/GPQvM9dCeEQBFgP2bvWvraSPJwi/z0v0L/JQHEi5S3q0WqNpWS00k22Oj9aVjbGMTbUAULAg5tyU3JdkdohBGKE+x5gVF8D+3zqWqq7oNZPLmlXuigTa2gcmcU+d85zvft7YXVpDUo2l+zO2hWQAZhDESADp/Q04AiDVAnHMCSHcC2nzua4/ARt1JAN09P1QlwPLSg/sPfhkJBDlwP3xycmIWgd1loIxJwBtIAHOnwNmvANRfo3f8LMvusUS5ZW5qllkAckT4A2c1iJsAWgREFIBmAsANwgRAMwCUDEU4AAr8DhEE0TAIOAC7B5sdOU2WWAiHvaB9f/M7zEbRwHIVdhcFrd/GaW3kJWBzMUj8pyCgnuYnFiLQ0pAexiiYdbdShI8lxPm5ZAao5QITUgSb9KJKWDliS8CaIwLeTH0CkjV3QZjf5BDsi0KU7C4sL688WFz8tQrA235oEwCo5C+X09CHoQDxAv6sqKNjLgsy89diwVd/7//OdPluERC4e7ZB5plWGhCpHE8q7C9HSPljKRAE/xH9g0oASUGjziNEB4EQtPtfVA+BWSH8eYxOQRvSrfCdwE0dwtwGXphiRtMAAmfRLzO2tLaBg3T3UR7GcS+K6rZpN0NxXN1Tl9/VlDwcEdRUAugd0apf2/L2oS6CAlwvCvKOUVKJ2U/USH/q8sEkgDZbiBjsD2YQ+MgxWnl4kAY831eBWVhZ+ps54LelsBAWvvxpAADLFlCLghs+cBk8QsBWdo4CznwLUIBK7tJZjZWOB69rtmEb6BkZIOEIckjrjJXaGvQClQEvGPjrUAJAn3AV/1D2w57/qN9//LivNUTRO1AlgN0LmWqNycBG+C3+j3AKEplX+xbCzgspe1kGlnGgsP8TgKjhYSWKo17jigd8BNJTC8B5oMpLQM1UrjcB8sDWNS4ONZi5l5gKIOEKgC09VAIAniEQAXukNMIJIKnq8oETgV45TiuALg0dkh6Z+YSRB9ZdwAnww3sLS3+rQF8BVbHCH6kUyAnpAdt5IP1S6QQGD4U5FWjWpwAP1P8uXu8/0pmJixv8f+904xbTp+1jnAN0aOiHEiFUAhAfeIRp4AARgv5uH0cEwAvCTWD1Z0OKG6f5ctr40b0Rt/gWW84CWLtk14xRESyKjxt48LsVABOBGNhraAxAxfikpgIyrtu7vlQJDLYYA0hHAqAu0GVbkErM5GAaA2pLwK4GA1kAMDUg00TkIZCI4v23qogI96Nt7AcKvh95C0v3f5qtu6Le4+HDLyW783eGgeWyJQ9ePolVsvHmCWDWryVMAGNHFNty9nXqZeH4Zztzdw3QOc9MV3HHDPd3eAWAbzgvdDDmcTPgYLPf6SMVCMwBUDzkQqSChbYeeVayTLiORNImLWqHM+Hy/zLtjSkl0nnnxTH01nFjYhg/pjUfbJE7gJb5alo24L0wDptXmCWGFgg4YNywmqReYuz+0UDCUeOKOEU8BWDVD9YdBmOgiTYo560gKg5U/7Afhh/OX358+eH92/23ex51BIXI9wsriz+XAxYKkDS+laYc91T+2wKh6pEnUAL48wia9QSAPg/PpK3Dn6fXmjJaiulrdSKwq/T8iT3uMMxPAT/iCSBfG6AeDtAfGIQePHrMNiGgBNg/tUX8nG8qMqe1SLXKc9ZfIqdbxr2MzRuQbhaBPDA+DkHgt3FtxnZme4djz9h3tTjSVWhOANI/ohM6Yb7v0MIAMKBben4Ih/lVC+wH4ralOAS7AMwAXnfNQg2NmAYFk7XaXqgO/7NVvIqr5x/fvjje3z4MPXD58MPlxZ88Crx73ldnBKChv1Kp5M4EVQKAqsO/N4+gWccAYI3M/0zonbRdQbQHGDtoEcgntPWGThjSGsKZo5r1gvk0xUp9rMOeSn8M/xGYewASgLjf5sEjFAUCWWBYBwB14N0LFiuTRovY5iHCjyt1tSId+cLAoTS6U0tptI6EEQyW6aRAWISnz3EE2h61lAEM5zDC9sTtSapbiUXXpeyg6vnK8RG5fPEYEJ7FzTw5CeidojZJCzZVyogql5N0xjdR0a0JQUb+p+uCgMwvuAIMYPvsfDW9nr/8cLZ/GIF+rx+GP9MJLCN0AHqAJ0b7J0UAy24VoO5ALdWbbwPMPgjoh95CXYrAIsg42oCZlT9XiVfkJwS5l+qlAHL00ORfFPenVWGkCVxA4B+QV+jBJhF+dzsyawKalfy0xcumTyyCjH1A1gs4ZQJO+VWeqa46qhzXLCiuTeU8t/UJRylTcxI83S+jMK40LKSQ9IJ4gFhrDtqYABhKAJ7xdR2ER3oTinPt+sMSRFXjFqwrgIYhB+OXEtVyxPtcAagSgK7fP7588QoyQBR5hbuNPFagFCx8K9lSwKVyxhjAaIOVSn9gAphH0KwnAFAFLlwH1uEnLC6QCKZa5rrCepafSLpMmA2zQFK4EwgwMimAH9lAP6D+JrqD4WrgwcHmaV7hTwQu30eIrCpYRvLDpSm6ywJTXA2Fux78GeE12Ow1RKD2OiUAPs65yG+sb3HQDhGUi8LmNQAHhgqc4NCubZzBNBFogJj/pMn2A5OU55uwIVCXew4V9twTaB0yzTMYVsI47H1cLRYh/Iv4UV3nqy8/vD58iHjA3SN7aAEK/teMHjirANnCgEwG/ssreL4/1wSZ8QupwAvfxQ1CQDl0TeT1M0QeThPThDbkGBgAYA/Kpz+LhSBDCLb/DmD+r07+PmoHdE5lTnU0t2lwS1qafi/yJEBxoz6IEP+EBFA5qiF23+JhHFcA5PTLhH29DIQYQEM1Dr0WrQoRBkAiQgTn11BcUPMAiF90DeZ+8WHCeuPYAujiQlUAXd0CrOkWoK2nAOqTyVC1AJX9TxD+Pyj2i8VVnQTO9iD+VTOwfP8OEND3Cl++5tC+/IWPn7wBLbk5D2D2E0AU+gtXgZHOcLUxhXvaCosox+ahgSsYKuxz2XlHKgIY+B9poRCcAFygTdhuv4NmALugDzrakRmVLpHFJEWevSwdYT+REzAWbqITmdXHLIYQiH/ARC1qXhvoDjbx1jkBDNMWoMsa/tSUX8ZRdHxpsQbZCZgaggStRLosKTagQl+1AJVKj3OJZv5SC5AYAUDtTGCeskZE5Ktj9UO+Pl9ND3+qBOiT52d7T727hbyXEdUHW3CY8rMpMBMBTowuaKmsS4IvbzzPW5prAs34teiHsVdoZAMjJ/0nAtcURGbJ/yKruzutppByBycBG6QVjLjgxiZpgeEgEEQBYRR4KqfqjgkbxLclSbI25lapIOQ0tr+QlgHgtDen60pVAEzrr2qjX7IC4hWdhH37GusDo/xxvQWsnmY68dOTPaoHKKC7A60rYvzEe73LaQlgrZoyAQ0IODSchAkIioZRZe/TapFTQJE/04jg+fvXyBO6bXtvERJA/K+/bAKANQagyYAZBqgPLwpeGM6nADNfAQAT0P9uN/HSRQKzS0HCUd4UgWWuaRi3qQRXToFjDNuBI0IBRht8sXkwm4icyoxct83yD4S0mHzS4u/mOYnpzyqkzRkUwTQasMxQCuD7gShwhC2AcQfXjHy6b68Pas4yEDzaDOPe8eAaQTpOANDOM2THb2C1ABNoAcJK1Ota/P614TqrgQ8Y/G+smynA1nDNIgnWn6r+4S1FvQ58kwTgrnj+8V2lEEa3YYHLkeoGw2+lki0HnoL/JcceTBUC+9ACzIlAM18B3FOl4cNn8g5an8gKf9xJCrxFs3O8Y3gAZBuy0T9AcUCQ/j6V8pfeNUNbEr/4E2a+eQs6gAjirqY3cTRTl85lFuZnDGBCG3yXwARs0Wo/TQHQ3rNLzB7m+rPgF0qKdbuHkDP21gAEbK1zBdDUFcBWZgfQDArIkfC62QufHL4ywV8s/sCPP/D+B80Fzt8fxpEX3ZwBgAkYQwtQLme5AKXUJKSkHzt56vveHAOY+eu35bAQVk5zqrhORGRbg2lztOzA4DZRLqlagR0iBmxcwCow+IerBDAey1vBPTF9j/dmU6CbtH/ldLgw12zIV+ALRBiAYeSva1ffoaXfxSYexN+vV0J0BwfOALf1EMu1JnL9a9QCsAMgjfRhG7gXH3bTNUP1IlYDr5EZqZ0d7hBUAAAgAElEQVQAtFjYkMqQI0hTe+cU79ACcBvg/FP8/V0v8m4GAiABhPG3lP5rmwOmZsH6Kyeer2rH+TbgzF/oCH95h+qftPX/M2Eu7zpQ5fQnSvAQGu/sjMBH6HQsx66wv8y+Qvyc6p+87RXyDv3w3EDgGjqA6MjW42rQyn+3yg09YwCGCpysTY6gbGhZL+KqgVw8yBdcwwPEB+qCOXivztHNpYYeAzabXduRhCiFyTBJGg1iGMKLt9+dF+GwLxatViAFAzArnO0B22/6MIC2QlQFYDsCWzelctmRBvyKBqFzHtDsJwC/EBYupYH9Uj09eYd8vrzZXs/ZHRLCTR+36I0GU6b+0k4k0tracZD7lBmcOgRZv4StbyjtNUZnL8gVPYBX17ECqKcrPDjxr6U8gDY7ArXJ4zdBWP5IZY04WUv7hjZ172TnQX7C3QFh+6grMqn1Yq0jOmlW9YHfYCIQrgB0a4N6dZi0G62tZrVer9bh3/UWvP8xjAFff1q1D343+n/Q/fMP295NKh6YAJ5+u2n2Z6EANAZU2WJOBPw/uJY9P/S+y2Ac/I+9q/lNG9vis+gG/wWssshnJfajaCKbyNKt1AvCC0AIXRlkV1nYqOZZqagJE6o0aChNp0HAIhELSBX+z3fOvdfGDtCkb/pm3pNyScAYgxLjc87vfP0OeN+wxL2Lc71UV3UTdB9qojMwTp8dlesuGwaSJfmbDe9auPGwLTc23CtR5nu4EtBboQENJdtdTg5ORDbctb0P8jC0rcQuH8XSgMt4f33ZyxNyc4kZ4gVMut3GOgVk4Y6QeVnQZ8o38mxgHakHBSFQVZYWRaUFRiFnlA2zhPIuVw3kP5crlEplySdILNIRvn4IAHDjWwQCwvs/Pza09PoBAvtYNJj6Y81IgOPEg6QL/oKTQZ4VwP9FnO+XHb5293f393d39l/uwwMsvH/58gDbxizmMYcyny/Pd7yi6QReaT5/027P2+13PVif+qd9rhnUp7OC/4VQ4eHj/vymMb9P+pgn/bWn6F1rGsYAKoViPVGFJ7MAMkkvBn4ivL8VkJzmBWyQCoAbfYEABAdQ1RSfJ4YEcARAvbyIG1QqAPDrtYJp5HJS7MMHM2fWaiWjUi5X8kcyJ3DENEposOr4r+zBAuHzDY57iACy61TAyi17R1LaMx/I/2pk75e9vZ09kPCDg5fbL7e30kpa2VYULApHvhhsFsUWEV4iGlJJ4IJ7vkn4c/kKcuJRqlHq+8xrNm/PjcWiPb/5NOz3wXN3D91le9DhCqXeZsl0/0Pp3zQKeI2Hoa6MMntcHSTpzU4dolON0/VHDH0hMhe1PRUh1FU5MJCHBG6xLofexhRAWWQBagUxSdyM8YkLj7+MnD7c1cBoo4D4sF4VudTnaqUaWHsD3P68pASJryoygok0YOj/fwurgb79GnYHyFc+Osp6s72v4ZCou+xyFOADBMD3ZkPKQKwsSO0+7Wp8Xn+f6O/t7ILQg2OfTiM1lIa8TZokjMJtuAfRRi4H3dJTmt5QkEWCkIZFCemcdCwUfK4GYCfWwWoATgnVuG7QsTUOjqOoISjVdeZ59815u3g/7PWGLuoD4T1EbQGrAcTviL4bjSiO5/Hj7GKq9C8SZYmqujKubHnMkvZ72Z6wHGykrqkPTrAhYE2fTko46bsoc+9yIO+tUAD1cIBnOOcHgT1mAb0q9ukum4WrEd+3wd2Eqoz1FXOoT0yG55xPB6/WS9ziF426US6Bpa/nq0ffXz6oaKcb6wWM4oDRgygI+vhh2iFbgATRMhwcAArcSyAA5e0omgB4lpUlAGcxSsAoMHj2FsuAntIJ8OLF6tbz+un1PDto77fTioKD24XAo3wjNcwWbqe3SQp0QkazldSJ3QmCTvdydDWZjWeT68H0Yja+ngwuB7NBdzC96t61glaLNRqORW0L6eoZQGGhBFANEKTJQoxA4AH1gA1b1Gc0ACeCsblxP1+0+/2hiCaoouHWfaJDoKorZbzqmnYENdbqm9AUCcJCNVHyqx4me/5iO91Y1MCNFSCayNRnGw+yAIKOTygAwflVDWMAHOsz3kCEsb0wR5ATE0H4W/KvSvkKIvxayayBiTeq1UUZFACxC3LyH+L7R6U+hgAYfAfWxW9R5P/Xyz8/XsLt4uL9VXAeBK1zq+O0LLtjE9HFn0JrjxfI9lImkRRUUabHsbw/pwTNxsYBHMtXs9kvJ0+cC/Is9f9Vg7+zv/8SHPntNIJ5Xu/NMb0OX6WmnJAUoHlinWQybxvdaXd01b2+GEwHk+vXr8fj17jkQ7jGsGPM72azyWwwmYyuRp2g2w2uWg3/hDLbboD0AwpADEAIdxqk28BJLXXpQMAfwDxaaDaDQlAMFubNfNgeDvtDHkY4lCBhjTewnqxn3fShOB1pIl+QrBZQ470Eh4fqauNg7Gh3JZbgzgHlaP59DM1j2O8o5gKIkGBYv8vpgm5pOBowHwsCVvP5WqleN0rFQq4oHPpX8CuaiUyNyJ6DH1tV+NR8hSJv2dVF90P3/LzldFotv2HbpEE0G1SzZhPpzfFvJqQPRQbRLS02T3CPe4afo8a/kArkODYZPCIEy47Qi/zREAAogxfPCuHHHfqNr+yC4CMRpC6EHrx7oqSI1rGsltMKRtP309HgcgRGHgw9SveT1+qhs2tQCCMADdO74C6Aq8z2T/AS03i/LHcOqIwbCNcBnlj4lPLoAuAEBsf4Td9rzgNv8e6m18PYYv8UF9YAuO4Ddi91mVKQ0u5GjB2qusL4v6wDlvN93ThYiL/Hla/FKYIf0BlEuUUP/x+WT8YAwr4/jgDCQqCQ/dPMH+WpRmQMgGuJeqVWKIKxz6HEv8JbsZYr1swauPV5EGGkA4DTwwQp8BNWxbg3DLNYLhY8n/kO45INIKwRiTkV0Ru8AziiM/Edie8nA5YfDqDoFMZBPELHLfvsOEb7ExYAnIUlwFEmsLG5ouAZDfxd0f3tbW1bAW8+rSvp8063E3wNpqP3UxDVGTfkf32N1z3Dz55dDy5n08nF1/PReQe0DW2whoceAZHhRNggulRMwlkQjzp3qgn2y+I161i2bVsOmy8Cc77oIU7oDbEqqH8qMpERyF/GEpYs31G/YcQb4ooggqsmZ4MnuhLU2IwwEVRw4+NODmPEgH0f5YnFA/oh9Ycs8w/TgOVwzAc8rYKLRJyqOMgEuUfBx8RdIWeWTKNsAMAHiF+NgXwDteMmBQAHlw3TNLym5zlNn+LZ0wGQ4UmNYrWER2rCiK7GnTXYa1EGxzENHqjHGPNpE5aTKzUND6cI7MUTwpqS+l12AZzFuwEl7j/LRuHBs1ZK+XFG0EgBPCuCn6IA+CynFHj9KaXlfJ5ejD4MJuMZQvjX6+39eN2e8abXNu0ec8dh+cL1eDYYXHcng+6d3/l8wlrWiUfExclRASMYOIRNyjfx6iTyYtXFYsJ7IJQyz6fMb5qOD+5D8eb+zf2wd/Ou1+/zDCSPJUS5/lit0tLARz9uLMcftQfFUIa7wnWkHiZgBr7hkw6So9N8xOmxpOOqijZeqQ44yTcY83oRFECeG92qqAwG249hfLNcKdfrlQ2O/cKkDP77Zgjrb/Nw9LxcKhSbftNxGLNRbVKOp3iMVpw3QsPMDZ5LiiBAQ3mnqCQYyDycRr9glkuGWSuXjWq+koc/oYodB4ujRe3BSPF9RSPpt/96UAV8Jux+SAci+4K/2M9lgP+8AlB4B7eicD2gk0wmo+sNy7Y6raD7eTqdDi6uZ5vle/yY5f9RCIHAALHBbHbV/Xzx+3kjaIAz6lgeYSj20vQzDhLAR2ZamGzkw3e4AhCxRYEYCIYXuTuBIQfqed79m/bixrz/1O71232ehTx1H5lVrq4QgH03z+g+KCvoF0GHMT+/tPgRZ6ec1Fnns0ErdfOVWcISPcwK1jGiJ95UMup1NPaPgXoD/m/mGzjss+l4zGNUWHUbwTqcPWnWeWoGz6HI1FLE9ownEDTq4fu8QrNZMEzDqCAHYf0I3Qu83eP9g+VpevogZotxRMTW1iCbTP9lpft/vGQJxxCAtbX1XATwzyOAlMJYhlFE3jyqg4l++NW1FFrgVCqTObFadnCO6qD7tTv9Oh1MJiCh4NP/DA/he/oDVMFrUAbXg8HFXTAddBoBo0GLOYgGNIrjdnjmAGdvSk2gEz2+tDDCSJCYlyNaQsESgoljDuGZLwe0wrv5TbvX7g2Hp4eoFFAnYAWjBPehfU8UE6pL3m9XjfOIS0YzN9IabR+UEnESMQAZ768WsV7HwMKcHC/XwcR9sVZDQiAdg4BPiuJX6vX7otH0HBE+JTbhCRYetiMyeMd9eoH2ie6AcaeA5OHHadZ80ywUK3ywMAWXIswcLI6OHg8n5pt6Or2dLAW0t7dG2YfVf8fLBECkFP4AAPA8F/CfVwBpbwhOc3veLNo0QzwPrBVcRwov8EnBRgqQAdVtuJYAKiBLPLNIpts6+Td71/OTOLuF72I25S9gxcJx1MR/wMRYvzSpyVdJu2i5hLwpDRoXhdBOg+Gi/SAxQwbRCTjFhaQLIIH/855z3ra0Ds6de8PkuwsZw/hbxJ7zPs9znnPOou23H/yHYdAZhUEY3KHEh2Bhst0kkKQC+M4z5Al34TD80mv7vv3QaTdkmzUUJnJNgJRCSgIyrzbKEYsVCT6IYvymmIjaHCooaFQAdgvM1nMAKLid+dJc9gf9p8F9ixJC/aS+yfaTXXGcXoNKQgIlAKAsTIzoPJztEGJFOKQ1wzD12I2vn50DzddNo1QuA/yvYDcwPMqfJIBKpVyew0ntuMjJlZTpSolIvQLMQ46LKgxDHpkR8H/HsEx9bpWBJBQJx6+Wx1MVvkbRf1FAnE6jNFHxxJ1Cujt4F66b/NUorv1nZ4OlJgP8QVtBcjvv4wD/bs9PHo74Fq+x149QOKtfDgYAITWF5ZgnOWnDXz6PLEFGMyDOh8PKAVBvD8U4pSbX5IuLhv8QdAElLHoBhGqAWH6y9YSQKivMJsPgbtjpdbptSAY9p806eN7CietJYnT5Y2gj0qX3kyWRcoXiRYgYop8+TUEYocREAzV4z1YgHdieDbfVzfz+CdEBaYv1+qtt5yeZCQKpmWd8HohM80BwL5cJYV+tkgsfYl7VNQj6kmFB4GeDvcSA0LPpD6GHXNy0dc9zkeFgqkPpjov0PKOhEECyowI03nNVV1VNs1RaGmQjqHDdcPojlo/7CDae9JVyxbJKeIMHbFar0Y7xIssJ2d5gNIwIf0Ve/3Uv4GmmC4AywEgW8//LNLB38W/bFOCwn526d0T1tBacfU/LwcvSdB3d8ZxDmeVlJAci0ANaIysIMr/k5PjAQZQJYaTYxD4VRbmo1Rr+yAagABAhDIbPs+fZn5PJlrkCKoozvAFbGA/Dbi/oBd1Fx+81lUZX8q8UeGQeiVvoOYJsBZGDA7RJL+CkOHIocqsiJxNcK5N59SHKFAqwZI/ZL+6l2X1ZXXJdkaTFo9crQxNnQR8JuOLS7i71HGJHN62SZpVQxS9O3zrjDZwj5kVhVoawc10HMhGL3NaRjoePnzN9Kp4Qw4HcoOrMqWpzLBRMV9PV6hWWn274eS4gDokln1GBr4WA1wxNM4CewAvZDnQiKrrOB40BlGHAGtNC/qeCIOa5Fziu/p2mm4DXnOD0QRAK78H894uAknR4nZrj+eN8Tuy6H8C5dz+Y35hzZwmBU0NZWzg8lGW4bCK3L16QeMLKYqIpc8DNKMpkuYZvXtQazWbPB0a/uAswIwRUb9xqQpjEUuJkNnweDmdfgsfuotsJe49YW2g3FIkprNFQiBXHGgGiAlQMIcY5AsAKI+fMEZ3AZCDHLBslNEWxa67jqquu2b+56fcjG/N6qiF/Mkv0JbzT/00J/0diDz+B2XB8e8DVL/DBybHaSbwGnmoPfg2GGweYJHuO4zD8mFIqV0isW01/9u1f0/uV7sGDZORHxBylAzw5O1fPUJVAsKKqVdOoGpZxXga0YlWNIi88iAUxl04AHwAB5K6CtQ0gCv91RohqALefD98VgP+HBIDn+M3J5kk82Xm9cT/soD54GjxdPt30r03NnHt4LsGF6Hl4YVLfC5ec8U0lMpUA3k7aAyRUqej0UrAFXREbQBw6QdANnsfPz+PJttLBJFOhHCNOmA3RttwLHxfBDPJCx7fbfoMp9hXwGL+Dhz2TqaWO6IAoQ4hxkxJXD7FKFhcYONtWUKpDRR15BjwNjt5Zmqv+9f0/W634CbynzPKr/pyiZZmGBqCL1znWVXopdlHzRwMJwfWYXlXNkq4vsXxYQSVEtMu/agCcFrFhsFSqRL1Asmy75DU+o5hHsGIYJUM1LcsqVpO1AunVo8cqrg1KVwHQCJAXat9iFTDeBnKaWhPAs8FIKOQ37Rr69Gl3d3f/4GB/ZwfuDvb39g92dz9+fBcLfpcGIOal6/+uf/YkGdhJ+7parXr/ur+qD1aufm+6c2r4o5o9Xab8koV7JtEJxY/SuF2IpwiJmDkevT5rN+2rdnfUewyHw/HzeF2E3H6JAXjDeDILhuMvwZcQLQhAHlBKsGs2kxuNhtypYfExkdK5MYnHJX/0UmxUYOu6OoLxC8mxXdfVtHn/6QUZx38w6FWKU22um67nAV0BsBTheZGXMWSefSDrMGD1joZVOvIDAMBfHicAH5OsxIpv55bjKYa8BsCeLIW8X5C7kKc2/hyHEoCuAXWwVG2KaoGla5VkhRH2K5FVqWpGuEECwJ9W8j4c5MVcvvkt3Q+cMgMn04L/uG2K+YNs/H/AZpR90pnRXSDgtpkC1adzuXwBUsHHT+9pYOsIACBc/uXkZHNn7Ob4T83uz1IF3v06GPRbg+ubl5ubpWp7ro2AmwrPjOR3usMStUTHP2LZxHmmxGcrv2M1iYlNv9P7qzcMh1/IjTzZsoKwTi8TVCcmY6QN/5oFj8MwfJyFfjdsM7txxRpyze8wibFYLYgNs/C6w9sa4wqknGQ4ZEREM2RF3XwIWyXdUD0HYBSGOGabOLFwFQUpCDqgmAugQDfnljUtRwW61xAfJ4JJnpJCABXsHQBIYWkY8qZe1c9SA0HOq6oB4D5aVoj9CtSyXNFpiFgx3i8etSBFCECvcstitFgYp5Zkp/ruka/s8+16C2h6Gyj3AuKrwZWYKQF82N3fyYkQ7xDtBSEnSEIOUgk9G9R0gD3okAb2dt9zwHYhwI4g2POj9Ga7emZe54ZZnok3Pi0WvFqhE2eEer016Pf7Ayyo3cxX+oq8qEx1PYU5qMeloC0doR63onP1PvKu1ChriBdi44Jdtf2wB+BgOAx+jwthMomExSgrzMZjVBjH4d1w1gt7vbDjt/023KHa3gAa08YIR+WAMW6mQ1DDUmY7eq+bidfi0jQBITCGAsOFFDU+cIAfp0Mc8u+5rm6WTDiSj4uV1XS1DvvpBtUAE4VDH6iULcMwqiZO/VHPzpJxIHDwVw3N1ADZa1a5uF4PNCUWY9IoAYr8cjROmO8YK+vn8ZZxblbm6WDlQrBnfAD/+JjPCYeHX09PMzPATtddANE7/hLEvXXw7+0UqOccC0uHUl70ZUmAP38hgon4U3ICwQJxZ3/33T24RQSAnM3cGONH9cxqjzemedc3rgE7eUUZSBqrx9N8W4OjfuupddJ/0RwdS202ylkenx+QlOcj3040WyQp2+N/F3gOy3anCblgEYbDALnC5HfbkpIMgcXN8WQc3MFLb3HX83sP3W7T9hudml27YjJO57+QkQfU5KiZQVRXKOaX5hr9snwYArkWYugjEemX4cnwHMgNmAgdnPALCP9NPW+atPMd8+XAIh8JSPZhup2d6Yahw9mvamVNKxf1aE2AwVuMK/H+gAolXsxSRW5PLlb5FFF+2McbxqLp4qVosNGxnYOTOrM5/NOOIOYOwwzoj7W/lAvwtpnsGfy4W+DTZSAFXF01m+Ho2/fbryO4haPvo9H3xQP++RvCIQIBCROBsL/3jgO2dduBZ767bpOpv56lm5qPU39jIk/9rQ//ZL0PZQVACa2j1hMkhKf7S0AINy+Xmu10NA/ZgSOJkdufpPg4B7B1ixpX5lBdUBBJtB98CMXhHWSDyZ+/NRu86oPgZQcsOuBAhPE47A174eOou/B7bcALkNuABtiuA4xGSiqPMcrhoxHQ2sgcVXdLZOLHOZ/oA3J+UjOY4r8iFhQB3eNiEZwhJDKuNcCJjQYDIBjJ8P/1sCFKADQJeA3tLaon8GXE8VSS4/XSIfg6jiz4zCItWnB07KFtNNvPg8uBmkG6/y+7D4SrgN/FaKYQIH+4AiWA/I3wa/D5M7YOxTd4/ZbmBnz7Fnxf1BaNqA25IOSBDLzngK3ccKGz/daIvpONM67ieD95BQBOMkN+6/9m72p608iW6CzeBn6BV17MRMlI/gNI6DYIqb1oWvSiu4VaqGnZIy+6EWDkiIlxEimSJYJjEUKycMuLGMn8z3frVt2PbsibpzjvrYwSG2O+YqfqVp06dU5tx5qntk+lWyKKmewZWMZ7hsvry9XW53XyaGJNgLNj426aQgxsghBbepXFBvr89NRuOYPNNL15v3m3XPOA/P71/5AGigRIef3z4u/1OBXnve2oLCaWE8CM22k5k8mEF/ld3ttDTBvDuTHPCpN4z3iwy3v60IOdgY4vCntR5ruwCgDC/hOy+/LlSS/lwWPaNI5IE1wkgtyX6D4QD3GCIHXJTI0CjxABl6zI+oQ0OKABWuTzv+KF/OFGLf43DfRPs4JmV4cibfz5Coim0+nb+1tiDCODSGaAhnmZ3W6Gg8HJEH1Kqwd/PqeAX1IBHFTTrFbUw1GrLJlBdTMFcQ3Qr+SUzfZo5u4vAYqIgnpKmQ7gS94urObX89XFdf4m2MZbPxV7rDzQe2MRTD3LmJLZmt2rrjqt9OxsMH2/WXy4X3/+DhsM//Ns8JV3B5/u79Npr6U5EYJagFmrB3yi8Wj0wGty3he4+R7O/bYDEEifeEBuVwB5vJQHNW9q6eHit/2Q1wABdOZdGBQ4OAVw+xToAVH2uqg6RgEstYXVdtLWh1pr8pCrCoAO+SgWGgUByZaGpjIxTytHLata0gd9UT2qVs9mFPsz2gVE6G8m/vKbvlR49P7r5WGlYg2Hy3Nx6msNAWUhiNUC1QRw9fz8fH0/GCIT1Tp4RgN+RQVQsXpztqOLW7D1ZabFJitHMDMxRMbKSAAriW8X+gJWM42ADfmu0ohBivzxbuH69fzxzn94GPdG8TgVNH/H1vKjlpQLoF6BBEYGrZMrZzBMb66uNvf39+u/f5XcgRn4i/tvVzefBlMb925QBlEO9CyHdwG98Tjoevy8R0ruFjk5+S5HzweQYLxF/qAvYl7M54FB7PWDwPNB3TPBFBHzT3kg6ozjBxPCq8cU8CFqjSQ+fd1G2r97TIkihvc3EUu+fRIl8ChTCLGhDiEC6EASd7p5nb+33OG1e8ktFBbMj85uG1r4Rx3naiJ4Pjx68Ru0/mc3m3Oo8rVQ0KxhsgUNJSH6PGue395O31ZbVAU8cwmfXAFYrd58V+WqoJHJ/smtyxTaKwtw7T39dw2AWYF/VGIkluiJdH2eze8uL1/Hd28648lk5NgnyD6glRgJputDmMZ2+PWJNUyXbxb3T2wSvn79tuA9//JqeHKaQtifWjTPI7YuNACTdBT7/YRWen+8Zdfthh5W1yMh70VlvGDl9NteEtZ54BM4J4SAUUgg4HfcBuLfivtDiSzZO1Sso3eQkh91/XbdxAQeQ6A44MZiXGjz8egPyL0QHx8JjSJ+g2fDLnmxBfgDpnZHt3ofsFmMZojjhfP7i98rB5XNeoZCAWa0N4stQ0PbC8vaYLZYT6c2alY+swmfeHnFf4WTeUkIj9UKZ77agmVFRw1WkMQr1gm1WvmRsn9gxs48K7oEmk/LfpBqGCvbC4FkKGwxzVcfr/2PHx+9GHix6YRmcOmIx6NlObpGKFQLvYl9cjadLj/x4xtoR/9l2H//vPiw5qXEJj05dbQMOr4mMAn535RnpbEXji0Yzm9lpb8tIntRXRT4gRfEYjuQAi91iJjDo7wPcgC5h5ZABMBjAvBEAsjFcC4QDAsxOIjQSVg4BLl1wy3YIz2CLoqSSl0CHufw0xgZEsUhggNRp5OQ/TAaEITKvJDnsQDMgA9elgfL/L/UumF6gBX8wXijf3b4krcJN+tms+Qa0iwQBo0vTUchgQecLwe4plZ5hgKexAMAELByJ+f6jMmO3GQCMM39Y1rvjjGjUWDGRRcNSknPvGu5xyg+mBk3FJICM7oNk4akhXvloJGnhDnvFOYPd2+8eBJejyZjy3a0thjGvpK5xFt79ilQfWFP4d1isf72g/4Azvvlh8276dDBBQLMI7Yg/QjBotR20tiDdd8wjyLA6nlp4u+M7vN6kiehWKzri65e0O75WX/sCXx/BO9pRDgcyoKLQz2m2j4URzveFomC3hOjBeQbhL5HoF2bjAAxb3RRdExBfPQ5B8gBNEhzlQDIeDxB2dI2YQdYF9BQMNqOYS+sWgrAQ6tSAWXwYh3flGYA0MnzsmGwvMW+v2wjuuMfMjOlRNSd+LMsB2eiyHpWFXrK5aVVsZwVYySFp9T0s8Jq214DPf2NbK8Pb0EjL9tX+e/3Dmd7lLyLqlw1ts/Lx6w9CEeU5n6Xq4uP3t2j9zACUB6OSsexbV0NwBajqgoEl3dwNtjcvONFweIzwvrfvr1fbN5vhEjpSYsWiQhsFAq+k17HG8dJ0M2BssP/yJM+bWkicO4miVDX8n2Dk9cOAn7GhmEXtX+36PRrOaGZAMI2juUIto+70IwLjC8RVbsn9itSo1eHUMXe3SW0P6AE4OFQQFUAuXAvEivLGOOS++uiZlGbIEF8fEKNRTQGDZnyTu+rSrVS+WIQAWZmoAPS/9a2hgL4M2PeWB4qxn5DT/1x6sAAACAASURBVA/NagL2idZT8eM/ePYXfgII2GpVDrbqZC34bjAcA2Qm2F/25GO1bNcgh5lcAlb0zMmMENb3YaX43WvYY7x6yaIvK7v0yXqmuNWExoXz16vV+PI6Hj+CwqWNjFtbyV0TKw/FBG56ziCdbt6cTU8HSM61xRwPgp539z2Y4o3GoeclSeRClZ9v8zpv9Q0Br6iHFDvRzVPcox5Ah9cJXrsN+v2RJNdJraAUiIBe3ajbA9+cwHl9YQ4qxvMJ0HO2wkyQUo3s9btkCiyxANIdVglCmoW7I0hhqWYMRD5mnQQzBHoY1l1qATr9aEtvkv80XuwMli17aTKBSjbht4Ph23OFC5bNg0g+1GAO6Q0C4SmkcEJ+0/nt5uTAqhy+em4DnoABVKqPUuCK5KxwBqfr/MxQvtD62YYWhizTM5LeVpY74lmkZlamwztTA8Uakwu0BcNOktRlmRTirJmvI+V2Mmnzg7QEpp17Gdn2ZiY0mZl6wHD9Yj7/+PHx7uGy8zAS0mITyAY0rsMPtnAvIMlMkMoEtZFJyo9w7yFMsLLf7tfskao5LYsqAL/d7/T7IAeUJG63DzP6SOHrXt0cv40Ff9gc5QUBDvDx8BXcnyjoY8yCOXAsEEdfFB4ywMNOW/ICcMaPnYC0IOHppk80YthYGhsGhcQgCgVY4EpkwhOPl88aQd1QLU0BfntRrVRP1w3j8Kcr6BLUmE2nSy0NjPqgMz0CkH4iJCSA8sKqD2iW8kVj9mVgWz8hLvx8kb8uUPfYUjxrlVs10Zcad1QOFP2wtKJ+UXzfRAZJX5dpAoFS2s6k/H6tplT2Mqmnx5isLpguKzJTv1/PHzWekBmziKz02Xj3jO2OMLOL7Hq++mt+efng+XcjnhBg034M2jqWGJKDYhc/rF3X5cFdFMgstPdwOvJSP4i9uiyUZQKIuwJTxyCO+xjRuTb4hd47kdTcVouOaUTqEZ0PMIRzH70BERgU4Q7mfhYZA3n9oGBCSu6DbpusyQJyKe7LCmACu0y+pv7pBBDjCkBIzOHEeFYXiA4Vq1wBVKzKya0+zQtlO/D6bm4bch44MxYEKUnQPWfGHFEWEU1VGugUMGucb8Cf7hkI+NkEAFJfdzL+mDGdV6BfTRYBMkdkMiVkNX1Um/A9Hr8F4K6I+hVGeoypvFArGPXp3KMF+uWt9LrmZCJT35GZo1QyaC8whWIWMkNmLjVmF6vV9Xz7+tH3RlueAtI6rN7+g8eOy8t5j4c+KOgcH0vCvI2KgDzecJhGNT3SaQinJ08A1QKMQelDHtPoDIT5Ao9yt4PegOIJcWZ/DMSoXkgQIT6LClXwGtGFQETpJu/Tye4CT7HnbRXI4FICwHqAYH+YHnZ1kVDPnaplHVZKW/08AVgSBKQYlcpAIpTXgtgzMwNbf990EzKhAaUq2tTIAiWNRmMpHEaeu4CfmgL8UbGODkYXOwic8bE0qyvt/e1x46qVBoR7RDT3PWjnhX/88cfqnDsUhppmJ+76iu7+U03vD8VPnvM2fvIfJLWiKO+GIJ7ld1Ayq33MUwDR8F1eXuPQLaIEgDU9BmXUlketxAAQfBN7gvgwPObrgu5XbwdGAnD92FUnslD1symN9Atug+g2Jnb9E+VAYK4ChKDfcBLqCiAi1BDnf11SM6YEIIeC3R64SpQrgJfA0VvvNwSfNTUzSM/5GuamULNoIFogAzWbu8iCGAisT6vV359rgJ9rAayDg0lJAIiVBADK2kCsEF3KDDMrMf7YDu9XS+uyfUr7bOc2c+u4VnLwZQVC4b7EZDAM9liD7qw5lOlIast51Wo5471tPlB3wtDzO0TQhaFeu/tv9q6lt20kCV/2Qv8CnXLI5DHGGJscBQhNOQSkg0SIxuhBEApFxUAMuIO1YxgYLLizt8HsIjAG2TmtsJcEcP7ndnVVdVeTtDPjXMWZ+KGIDwGp11dffVWh8VEGMIlHlAFQtKeQbpt3BQVXJu2XBLCfA7HfhmTK803s99sEYTmo/yu02ZmVBl3a0UHK43kBCYB9Bbb/K0kLyKdUeCwtRWqzcylIPh3vfAZgiv6KMgbrAOis2wnskux91ywBDuLTGx/cm5QeIRnOe4NQMcixh72UYE2K4iwtTqgAQQuMHsCYwGnc20sMP+T4Lkqi3hvtymPdsE2l+wHLzy/H6/e71m7qkM+jBfrnJw50A+7XTRqwz+yVbAIw2hA6ENGIUM4NqSYK0bikRw5po7j/OFoCIfbPx8loHSrmFstlWi0XJtajmv90uplvQNM7TTcU7jHrNj9Ag434d9jEL1FRb24NjgZtKy4BCLUDaaB1SWzc3E3i7mZTkQHs5ksHzX1B2BBT+8V4IQmAMAuEtQLxgsg55bSq7HYBuiNXIDVCIEQ1w8cq51j0010RSmAHkFo5p4MnraLy4CdA+Wu5EFh+Z8seshvwXB+sBGrPCnYVgkghjj16cExriOv3H6J9M/BBDqAXR/FlsNbSMQL6rlLWSvnFuHKZLttLmDbQ9kyyH90I+drbbFAqWHldrXxXzyH43nVQQ6IfrvZSwoCVRCqVksrdstWoxRRSI5tpFzLXV0kydmIeJuZnG1jJS+ydTZZVabokmxvMOd8n1t1uklB3PqVZvEWZe3ENKgEoJhfUcCtAIciEcw//45ReyhkAlgBTQdopLZeHYIMxupPNmCL8HAkDBPoXNM2Tj2nMvwJWw6jyD5LPpgXWDLmvIMxd4TO5wiFb90z4eP6sXQKMfvedO4zxzcVAAZTPFGCE/o4D/K8WQwVeanwo+cHgOW5+Oni6nwt4yBElvR/m+r4tV3dpf3SV8X6GMGjDd11B90PtAb09g+Pa/G8389xX8Td1i9rXV7J2kWs9u6aedUA2EPUQNQl+mSQjVNpIF1Yid2wcgIn4yyo3xXLQvzMmjHGbSLRgXCzVaUp2VNsqaVEgwu05NgNoVxD+ahU+EdIvcHS3sG8wDqDA2G0TdSoEIHswRUMSJ6cc+TOa+nXMP2wXkCFPF3QVygg+gYjJhBINNHnbnUzx0/nzIIWhFwdf5tAujR7/pe0Aov9IWl+r1y+EQuUrcoDYt/yC3wRpmAXHcUzww8Hjvf0/KAM4OIiTN/8KWX1K2EqnPEjrrxz1R+lO0ZD+vRaIJ5/hsV3Zb/eoE7btVYXPe5c4SSB3orsfS7fVTdStU/Vcjo3hZ8usokgN271CaY2cSHYmRu940I6kOtkBTKknN3ODNR6uI/S9OAfBgFJgAMjaLYjbi52/dLpxsj4pDh9b2GCwwdTfaXkuScuPZn/SMWYnJmvZ0VpBWJ5GeUnuKYTUDFiSo6hsBpASL3BwOTL/dqImFfhJHP8wuiH8vhZiIFzo11wI0IDwceOtQyEiYo28HjZURY79KbSG+AMLjOyPP9sGAAXWyUcxlds5w9ca6NV3xOe79MJUK19QnlUsMoDtdnXSdgC63+FaxCPrr0qZ/gGpInWXq1Gw3OecSnS7GZerYftDFQTd1DkAhPW+lADOUXi3dpTSN/vGAoF1l0AwD8CuPcVlAhu8FWYWaMkE/Kf2pNQCiOmVZTHewiSBqdJx/H9DpUA2JgfAPUdyBKz0tYBz8RNuKAOYFl4vgPlClXUg5pORAwCu1EHU5JYexAdv37t1ABLId308hvRr2fk7DoaC5fhfkEzUYs6Y8v/j/42ix3tbfjgVMPlFfU3771570l9/QSAEuvsyerU6Mea/OrEZQKe1i33c3RWC7t+bOLS6jlrdWaHI30wJEK8L4NiVZDHcGPM2xA4gJ4SsYPWtGfCMM4Gh7aa0GngqsvSSMoo5E4FgbAkzAITeBzYDqIiEl9lrGAdQ2ImAamD3iZsjl3lEyhgAWXCGZu0ygWxGeiEXdvaw8JDjghzAjASBeHgQzltyBnCRJHHvUbMB/yyOH72r61AETGQBw0YYR1i/I743D7FWEKWD+G31Z1OI7BOAB2YAj43DHn3s6JE3pQDvNa5ur6Ab0oH3XuL69ckWEgBIBLY2A5DZuP6qoev+H3xQ3fpcXzsjG8WjSxv5Fy7wU8a/Y9U9zraZhk+rv0HbJzElgBXyxvBNlXeKohwY8lMGAQkThAwgOc0G3gGkFgRkGA+Zw6YESLn62FlifnyLeh9EJ+IMoGQHwPkDUQtm/Iww2HQeCACgNjCifiU7AOt2KkI3vmxADqT3qJUBRNHn47pB2XU9++MG/b9uogRD+bsM+4wT1I5GQN3BzyaG7VsADz1gfPvq30pOAogKW6mQMOvodaEiADME+w3OvqftujNdQkALdTVNDGjjAEz9f7Labi0O4JRBRN/BdxD9tIBsN0r1Mk9LFC0LbCJIjTMV0B+UwzEETKBV6Tp5C0LNCi4BmDHjBLZzoskVHF1hZG5d7Wyxbod0K8IAUJ3HFv87Y5PYaWfTtTLdtqBPERdEul81nnMjP7UpuYMf8kk8iddrpvhmA2e/cONxic0Byh+c4qfb8AOfsIDqASFHk88gUIkeZkpux1Yt1Zh4gWtYC/KomXuDzjTKgtfDMHSH8X0Y6obX8gz7g3ulDtQEGorjx+9/ig96+1mAbygBoij62FH9q0DfU/W7CTztd/d1Jxun+wJiChgygO2Z8QA2BzhryQo1K5PmcHHHsLHqHDpuXk412USqeYH/JuAAgOPPJHpj5lwLULePu37c0C/Y+D5NRskpVvPG5HfcwgPjKjxnZ+McABrXOYic5qJnh5lFPt0IxjBqfJqSYmeb8oAC5gMxMZBSzW+81EIkAm0HcG5SnAuSACpFQZPbKcKinG/E9PCSP9lVkjyKk+ftf1CPf0PSfiAM7sB+N9fnBYBqD/YPg1WCQzFQMPTGL2aN3/8aNZTJ98efOp5FJkP9Em72EOhciATqLqSvCy7QqmPRkKPjYsNfqYBJdP0aiv8t4ADm/+uOsWAx/asCHLCpIeYmF9r4RQdrUEnBgk6kA4L4RTBFQ0i+J81z2e0G8SpS0RrMgGdfYixfCDoOddqIk8M63VwCXIHEp+0jpFgCYPSlusE5ALhEahN5qwg2GllBIJ77Tx2Fl7X8ymAKeDFD3ZCdXTW6AJBjh9k+pRCZTQSKjWt1bvArXhXKlDjqNf5B9UxNeTMUah/CglkaoHbDwKHmjxQE9PsEPfufqMSOOjSsf/8b7At5sm8BPjwDAA23UvW7JDbaDHvV6L6rji/NF1ST5avPbJpvvmxhs6AlABkHcGLSf+MAwPxfr87ueBR1P7Sv7qACd30MfedJzQtcJjzRu3Ag4LSBBnJfkNU0l2NS2wKG3shlAB6CIzyPuPfEA3Ag4MSWAIKAn1P0nQ88bSDFYd0N3Dq1smcXrPmZy4ejxl3BGcASKwJj2CT1B/vcsedAKQY9DjUb5tOlyACM+0CtgIld2vOPly9fvHzx1xcvnhK19CB6d8NcPZ/01yLA+3TergqrA+1AsUEobA4Oww4hvLH+7TSOYMng3gE8+PjeroQJsmFX5PvpeckE5i995SeHWbvTzfN5NV8/Acxv0ljqn1CwX1ngD77zcXJyouXOMSEY0JAI82pj8in7bYxCjgKy6JiYMWxgG30BPpizPyU8m1+5bj+v1GEMYLoJQUCG6wYXIA+YQXTNkX9DOzcqDMOYUzC5ppjTvB6sUh0hE7Cc+xIA8wAY87NnkX3OaS0AiPrspIAHt/vmvOEvCzIAY+YFDQMmo8slPCNtEJlipy+zF0gXNEWc2VYkDRYgThEn5eHh4dHhq1c/Hh4dGV/wfRT1fq5Z6LsehnKAQYsfk/nATRx7LSDvLtxesSF5DB4fuPk5NulGbz8I+C1dgCcgrHirBa6ngro4+Lml3udPUCpQBwi0/cJz+9fbE1Pvr8DyseKHn+FXcgbm5e11v6UzqFqyoSpYV9p4Fvmf8lMK7tNINUOhSRR+ZrzVGwcCZjSz49uAc6L8TxeYdVch/R4W9iTrCcXycmevYSvvDMOwVefaFUTdSal6LyagULgUswCI+1NDn4d2x3Cl3KLylTHH9eican8W9EIgktxVwV1BurWpN+xNd1ZO0Nxt50TCShpBtjdIaYhwsGAHgGwC2Md0FWWvzPEj/DGO4OjoIp70Pte+VrdLARx+T5lAjR2B2pP6oDqoXcynWh+BBDfzU8sThvXN39+a9D9+/mzfAfw2KmAUv122c1/VGLXr2ALQ6PGru3gEzTxer1YA+JHZgwtY2d7/ykR+6wfMt+uO5LxRZYT3C7oE6p7CQbW5SqpzktgPGNyaWndN/XfCAFhwP+UlGRS6nVoGlfimBACh4EtBEsxYd7cUAgBu/e586Xb10Wwv4vI4L8wifth0TOcbx9DP11ACIOd4QA6AVb9zXAKccgawwJsMpqwMBvjBWlYHSAg2HxdylnTqhgszAR3mVvs8KcH46Tg6PDK5xLubQO5r6Gd5BYMnEAtza4DcIMBx2AYciplgAhF/nfQikCPYDwF+WwbwtJdE0T91oPDHQ3fKT9N5WS75Yl/LhLzfF6oeQfjVYjLPOgDI/U2gt5UA+oAzsPvXr8EHmPwAHIBy8zycyWsp79MhJKalu9KkISQESbVfR+Y7nP42TAkQHEW84trx5ChAD3LesJFveG/ubCmW6QnF7YtRPEEiMYGARPojU3NdgIxUPDF2j5woaIGtR9zSSRgAEY/xEv9n72p60zi38OZuQPcHsEJWksZGqZR2xxWawR5rYmk8AqvDR4EBjK2APMHGQGTlkizTxK0sVHvVUVnYUvw/73vec96vgaTJjZfQxjbDgAfk8/2c52GFgF+Ib12QHCMVcrqYeiAygABhA8KQBRCQGg+3boulKTF6py6WAL7iFZCNTuQRoc7BfYXLoLufjiH6/3L8C3MEuVzbs1/dKcavZH2/RPGt04GbMgKK+2+mmoN04mx2/Qer/UE2fGsd/78zA0ilWYCKtISedvvVPF0lyVrj3CQBz1vE6JW3TNovxb8ny4D8FCyfZf/M2ENu/AD/r9XQ9Nmx5oGcAliqSI80iiLlm4yWv2XKGJh+wtIpjvSegWUiHISj0HjGgAMUF/rKctrfMbuBrNzuFlaQ+0EPgLmPkrYNWMUsgjwE8nQ2lAPAtt0YpJIr2lohThe6+zo4CPsMXd4DqHI4f3BPIEN0I9Tlr5c6eqNBWLkE9bc9GAMWFAGAT2Kg7QA9jEAU83dfoc5BlSs3n+28phogB99Htvf2Rmf8lIZrfC3qNl9Ugz/1iHhYgwAJaPHsfH6RSkH4tx+tB4DfmwGwEiCT+q+VEPrTqfetpBqYpYT8ViHrDc0/y5i2E/meKP8x5cfmX43PAGqHkAWwrCAyNYGMPYIov8Q8smLslyxC9CsxB356yyDxPvCA53jEByAyAFbOE99PRzgAat+3Jd9mVU0BuPA2lAAxN+WqQtUUqnxDSDTaWVDGTX0H1vNutXofTxdTAFwnwLEcdhPrniIFVj0AXPbpIihJcnu2hdQnXWMZ9EvPNESzT2C/oNPRLqrAHQjLSAKED4ID8Fq3OzvHx9gE2Nm5HTsep/w1Vb40Nl9RzutSYKJXwP9XQZ8F+u0keTA75fwDFwXKwCbiGgD03bcfgMf97OPXL9B8xTLAP7xAH/t9fBTAAz9M/w5wF4jF/72Q+YDoC5jeKPqaq4mshLz5P68wfO6VmHl4gYn3K0nkr2TLIsLdoGJmACMYsZ1p0B/qwVMroIwiPu121bDJMfMACATyKQMIKiptoLWiKq/Gu1ACsHjMMo3xWIwmqvrFEXSHhgGyX9EVBEGlI9ttjbQsv4qTPvJmXXJuuLcgF6BhzdF1xreLnzcWx8eXr8EHwHrAvFhMbAETvFfI+iTovmazonhAiQgWBTWwTASQGeD86u7liZ1KpTNPs5nMWhfsAUqAbMpJt/7MG8w6OoWGivuRIvWyVH2fN4WE9EhrNNWjKKJnTWs06zs87GMewN0BP9jcGwyaYgxoEHWo3zDtR1EypEf5BEWRrnEWGVcWGfmIyW2svQclXxCNXHs80pNnNQXolvb1Xn3Bl5T7Yimo5TgOPpuyBcLhEWsP+YEOzt18wb8LLT2PHECgSgA6m1g6y1QWQAnQBS0Dr0QZgKgyBLu/4PWgaQQdpsgej1ruybijcQiRxyBbr9PL+Z1Kl28/tHHNEbqb497xxsbuZLG7u7tYLNgh9yLB7quTec90Op+ZIPRSzf2iTvyrRn5EITy7ml+87AERMUv/M5n05rr8f5AeAMumxh8jS7J1WdokPdKbd5Y5VpeyvbQDIFRELKUooFcBU1jzm/an7Fbj9o+TgIMa1P3sthcyZxA2h4MBO3CoSQiQLoHc/I3Yq0RSX0BHKEQ6u5guESA9lrYLkEAVKx8QWRo1Ov9EWAbQGhWMHkBJIoJe+DqCR7JwdQQjd8t2xBARdwnL+7QE0PZl0S0mdN2S4ANwXNejVyQ1joray6MWBL4SlQAuqnvR2mFV3wXoogXXZWUgDovmHviOM40utEsOoEP3pExQV0M+wAqhM24tdjfYf/z2+sg5ss+NPQBVzC/diho4eNtQ/tkWq/7SeczOb67nPc99xkz/GfT+s9nNNfzvYZoAWwDneq/ZUUR2b62AyJtyILoAgGFHGiGPJcyUh3zAAOIEgOf+0AoIIeAzb8C+18LhMAybzYPwkNqJSoaAhAR4AtBnPkDIfOQ1xQJL6ZMISjIrGf8l8aG1hFDU1AWsSLsfndmiR1YNZO+vaiKCKKpqZDzEDwBbeifoABAAQKGfCDuxu+8HOHerS0IQll63xKJxXW7i0ewQF/MJmMNbgbHPhUsICahSf1r7LdU1fyDKFQHq/8QynJZDDgAZQBB9SAVJnTgP8CIblAHEI3AAvd5iV95YAeB+SHB+rWAFNY7MDF3g2UzRghMC4Pzq9w9/vDyCoG+nofWXzrIKIPt0zQD2QD2AR1n25/3Xt9f939IU4NzaOOMT5s9rAHYv5E3/ECeAe8PBkDmAMKx94aX7K/kCvkgH8q3vzjw/Alw+ie5Jji1i/ZfpseTWKBkE/6AL4tpuKVaVOyLyGxWJA+A7/UFZXy2AEsD16poDMJCAXZEBoAOArKAKYJ6TkqAjqxJ2n2YXuH0g6pYOTflLaq3PbQUawIDQyggxUts/vFPZEGoinIXUGUkHsHjDHAJQgRQTguCfk/3cNoXDOGSI3MA5M/vr+d27txcXkPOzj/AZRzqmIfvPbj59ss7+H+T27+fPf/Tslje+XG0GVlKz0/oMN6AVrYTUG60/zPQR6gczABgEsgRgL6zhPID5gOHg1wHYf/jR3CmyjBYiZAD9qQkCsvKr1o9WbRJaCWLgZc4QUfoLVMSfDkfzx2oMJ8k5C10i9GC2UjCafzTfj/2W65A0EIudKumXcAA+VfcpYaBqHXQBbO+MzFWbAiAWr1DHnQTMJbrQlb8PuEhpBa+SvFIXu44CulN9IVYEuPtolGl06duwSdjhm4odAhxSpcF/Tf1FSawWlPk7RerhgKul9S659bMiAOz/9Kq4JPa9XdRoQDRCQAIICvmv2Xnx6urm7/n87u70nWv3XgK1WDoFs40UbKxmQMImAwvI6+D/UOX/T4DhHsOf99T6clPcYNP7rEbHFyn5ptzkawj3xfqfz/yaIeQC3CFAB2A4aMIgMIpQzGeFI0HSwOn/Gc6/cQ4Az38Pn1DlHm1ABn7fbALul7qxobtJsFu/1Rp7zthXGUCHVH3wRBzRsQyA7hES0JHrwAUuA0gZAPUP6mIMiNBcwBy2e/bYs0f3uFQscnxB/EHjBxbJ4/sGlQKQg9SJ3tslAsJ4nyiAKmobmAwffiucX5eUgJ7ntlpnmAFMFqO057y6Ul1+ZPhVIsAzQe2RJPzYvrqez6/vLk7f2SDAms6kye6lfDuk/0A1mkpn1sDfhyr9//X8p9xOjjmAM8Bzvjfw7wb9t5Wc6Od13Ix6WFbWJrJeRmaA+rDcHuy+dsBb/nz6xw7WDjgACL6Ew+awGdJ9Tg4y1SQ6eP5BpEH9KG9yixtsJHJvSX88yisxQoMPXGqjmn1Dkd1cOnLCroBAgvMXo2PsdyRajr6jA4jLPE5yTmEqEzrtijEG5Ps2gXAHlapYBrJHt9SX4z2ATkVSgQlaQcT088Xj+wA0DN1SATgB45LMJ3yI65WA43pkBiD9Alx7XOi6ttM6+QRnkm8g50TjAvU8+K3+PsKC4hOX/eF4rxaT3Q0W/9tH7qvWtSb5s9T+SzYCYaR/fvNmfuEx4/ZcL52WBk+tPj7uZyVqKs2q//SjR5tPHq9j/wPdnv+Yy+U4invEPurxx++rkr+mzu4D0jfkyJ8axv9+n/cAWRLQ3OOJPzQAmQcYwnnseBN+/JiQH5ty4kBgDIk+j+lf/iH6jn4GzwDahgOQfABCa8MXYP621N3EM2/5nr5HT2ooHdCKiLLkAMq6jG/D9WxvjDxCgg+gop5EEiOYbVS5q+F4IwzjUm5Icv8hBLFMBi/kANr0cOCBqmBd0Y0XjOxEkp5Q65F0xQow33Sc8WRjMpks3thOrzc3+PoTpb/Z/eON/XdHp7bd4yk+JzOw02j8zOJTGPjZl2wmk93KbG0++YGFrbXhPkzp//h5jiM32b8cx3P8ldfkNRSm1tKJcbTJmRWtFAgww7GloAOYAWAToEaNwEPE/YRDFvKHLPUHF8BcAbP7wSAkdzAc/BZq3X340j+o6ZxB0QriILk+oGjITNxCpG8Wqx0lldZEBqjx0nHs1tjAAfhq/Z9EdkSDTWQAbYEUYvk1rRI12tyeaOTflgLcmgMQLwdsOy7uAvhBoLYBK5Kpp6GVAMxafXQA2APwqS4Re3uVTltwgMbKkKEkINZCUEGvct+wX9WAyexq+PoiOQCqe6jrEY8gdfQuFpPJ7oJdrvfyZjnUFxUZgHlo9vfpKas7wPRTaRc6/Flu99zwM+AA0izoZzezTze3njxeF/0Pmv2z5D/Hgds7UAS8YZ+5e7xa8CPxg7Us/WlOA61kARlcvgAAIABJREFU0LVUj3Baq5EDOBS7/wABYFY+hNK/CeE/PBiCA/h1AMdgIjD4rWmykluHTVgiODQHAZG2l6gDlDRvZFkrr9lK7BOu4BCxuqwcJXFQUeHLHoCYrcsBvuj+S91Nj0U2e6wl7qSsVQmIqLPkGyZXBhtuQH7t4o8C91+ORQ8gxs4hTQGwligD3IB2AeL9jiD0aWigJKHwVd83/EIh6HHeUiIp8JWfwWtjT6cmIB8ONgQ9CNCdO+5o8p/J5Vv2/LubpaA/K+ojPqH7Vdxmsf+diyU+s/QsrPWkM6kMUAyns+mt/7F3bT9prVn8PMzT5PwNjdHeSIl13kzMRoWAzYYI4X6HykTCLgeqmJOWmXOSSepoZk46TZ+6c3xwkvp/zrdu37c24EyaafsEthYURSprfevyu2xuPn385Mnjp48fbf3h0Q9rsY+vP/o75AQA72NwdIw+KY8Pb2mB5goDT5uBBBF5Lm/l2i1gp59g1qehP2//aQN4BBmheTQ0sT7GM98khA8mBdSHuA40SWHc1j+T+ac6buMaoc/WARYDENH08jSEwVtiA0f8zNwzCJakEPF+F/BKPWOWv9jtsgRgjSb7SxWAHOmfO2lw3Zo64pAJoHKkzD7OOZRuhbt3aAGS/mdy5Mz2LNyHVwe9jGj3YnzC4T1JWCeBcI/rCFH97ZbUENDxlfgnuAPFM791G7rv3z3uKNlwyXYV9DqRTWU4SgIQ4Kfzv5nwN/H/WqN5lAawE/8Xed/3Jzzag0Ifmvs/PtjcfLD55Onm462Hj6DNXwf9t9v77RSLdPofxuJxkwGur5+Z39+IwbWBMwaUnmBR8y/YdcRc8f70opqgllYbeDMa9vWrNNQjDiDwfav9whGM+2AKAAe+KQDaH/BzWAuYhGD+mjqgsKBASNwBTgDBgoLhl3T2lv4rqKGIQwBnOuwxPqctxq7XtXYAdhq4SAbq6QSwVzZHuQkvBwUW9a+FGUAm0gL0UKKjprE5OP7j9CJAIE4K8L4DRyrvKuSHEflvJvBCArijQEZ/ApEIBE3g5FmoQr7TYckClzhst9LjLUDeBzaw/2p68tK8gN7Po3q+rP43dxQ+QQe8/rvvhn2mvzfH/eOHPzyS2fQ69L8p6mcbRBsO46Lf8Kfrm9St+fUlJsH/NwG890K4HwL+tVkEAGB/uPVrEwTADgChADDxP66bCmDYNP+YS3XhUXl98F/dw7z/vfD7kpzx1qr6WdsPCwCsScRK8y6cAEEEUm8+ZXSgEutnNdAelgW1rK0HaHkAXzXSZkG0BiwzhZCmemWGB3cxAZhfI6gPh46+Z8U/M5wvpPdH/lGO/YPuQPUckMAhmoXlnHJIOZPVX0cDT6IGhXs9GAKaGuAE4D+/z5Wm575z7tVkf9L6+/gKa/80NPkPnm5tref637P435aD3ySBWPEaV7g3pgLwJ57S+vEi2h5eRB5rd3dx+xfRCLJceymjUeSTDH9YBqggWz6If1QFgmsm4oecBWAVOB4PgRVgOoHqAuzgVAaIlAACkBhWtgBeoOH8erC5pBTuRfQMIxxgK2+Gz+PKT4IqcKgU/2pZ2wvIDEDQcqWaPoTRFoCBQDlsF0wLwDzgipu0m7szxpdwwg3zNUkSEpM1IN7BNudlV0TQZ0aA5jmr4DkeSgvAHgUlWj+IERAf7E4OoGWe4IQxg0xOpochPFDecoooV2WsMRClAP/n35al/5e1QPD4/yv+dySevXrTebi1Pu6/b/U/oMb/EBNAcUDxn7oxmfxsMlP6O8yrUYR8HRrOViNqrq3366blD7C1nvUV379NaB+M/QKPBFH/y3yQtgBNLAOaTcwA75rQDVxZNXKu97GTwBYggAEDGgqbtyDwFiwCNOxPqZYF2kLE01nBsQa8CJXpE6zJRnzgd/eUxg4Gk+Dqew4uC527RJeJ5IQ/oo+Vcq72L0s7X6IzlyoACkpADzB4QJoKCnNa+QGPoKESQEW2AIlyBArsiEl891LOgQ9hV0DVBkDB/Km2HOM2n2XDezYBQAIxaYQWBn4iSZf3r+eWzbd/EAH8H2gLn/3563/g8d/ypxVzAG2vMT3fb/L/aGc7jkO/Q9BwjcUH1xbC7bd8kwAWYsdzfFhvefEXuZ+7IfM4jEti/nICQBRgm+d/rPyFEkBVvNE2B35zDO+HQ6AEmeBvwvHfHDcLCqSLP0m13SYtsVN9AR1R9TN60a2mtgBbNgXxVk0E1dN6CzFMilk1cQAUbY08E++gMM4pzzCW4WPTndak4bYANANo5OXMR1HvEkuEHvNkAIoOvxZS44AtAGYcQQ+RvjA1BBS0+Dg4AwjB4rei5cm6x12dAFgT1OqDnEGPUtGCQFy+dKhkcBVAWeECb9G/1JT/v81F7l+/c+f+3N6e/4QAPz8fozF07PmP69D8PvG/A4qth7j8j8UPizfXjsJFFcCVRQBK/W6lshS8Tp+QThJMXdmlU7lPYF2P8b99rvQLxAP+wNqfVSj9gQbUHh9BuY8bwHoTpoLDMQwB4FLQGl9EKjpqtqmqOLUFgOk0mm0nY+R5TsJQrMOcVvHukm6ZxTlYczRPNTJvYQjY4uEftwClrqhkyQyAgktswuUQhSW7zzuEGqF+qUbIdWQIiJbbpUxZbQFCEARhHIDlAsDdJGtkuqFbAJqqJLwrwcNMKoQDYGXBfEZaACQclbkF4G8iFUANEkCLnYiPO4ovzOJfeUsuhLRToewSloEilUi++de+aIAfRGg/9vzfF/DvwV/SiVFi1Dk8vCjCK9G8Ineer4PzO6D+tuHMj8V58xcbWALXixcpBHG0WlfBPRYZ+igNljx6FjV6A4p98v2YBSD/VxXZLzq3iQdUpeq/bY54YAMDCQhPfJMA6qb5r4+HY/ioyQNXS+PJ6hg7CE4Bkgf6VkNg9YDPuxcq6K1SHtFfVwGgTImlNmisxkx5CI5ML7IXtFuAjMwAgNcz1U57OAQU6SBpAbJRPQCor6d7oaYDYwvQ6Sieb8cNAXNlSDQ+IQFzHSs72CCJzzInAA0LEE1QNBZPdu6IlFhRCSBPgW8rhyyZA/NS0H8GkmC/z6Mn/4G1AzjY127AphB4D7XQ9GYjdX1BIoJx82LcWYN8vjXqz9T+cQL+4QBQen8T/S8wAUAb13q3qwYAnhXacHYewo1XEjqe5yoBq9YjlTmafsC+jqh+sAoEvX9sAmgWCCVB25zx7SqOAIeYBCgV1IEUCGiA+rDqND0DYvqfQinBXIHT04LJIKQrHNj5XaBdDQJPTShZFETuEXkKyvWEjVH5iX2Cw3XKpX9nLzLjk94/VypLBVDZ0yYck3S6lWQcIVn50T34HwHYCxCIQQKgB5BMR7gARPq1lAE8mrEtQL+fO9AdSSZZq5jrkzwVCiz/bYoS1CS0eGKGHYPDD7GVGOAYOrJAPgIoZJFwTBLhbRrRu/9GDv9ceX1L9z8/sCxf1AT8CIbHd+fnG6mbwYBejdCPxnfWGeDbnv7FOCm2Ivi/KMX/C3iDC7QA/uhdxHZn2Y6PRuve4hTAWzLwg6n8LJjNZqenLPtPNQAOAsn4h+t/3AwC+P8D8oDhMhy3jy4vL6EdwGLgst6uXlWvQEbIAz/BGUQ/KYggicDkmerRmG7PopxeheTxVrseeIvP0LtHP+DCmW7luKvOZbuSALgFyGRlAF+JaARO0iZMSFOYMQM0JRArEOodwhLD7TOE4TMJ4Gw0pZk+24NnS04TsIKGHTxNIGGBMwTmEQ5gjyeRlQxFbpZdBKwlYE/Lj+WUE3GW5QCoV2DUf5lmF1wJ9PiZdV+aLiX56tcDa+gdMQLXqv94/fWrRHpSTKXOz1PnqRTIiEIXABlgez0K+GaY3zhh/mK49B8MBjc3qvinCgB0XJKTK9XVK2cdrZPneVHjLM85ba3wDCUY4Kzq3D9wEIClAQEB4RTH2T8wf+qXlybcTQYYmgRwiUCAIVwFfgC0Ak2ADpi6YYw0IVwljI8KqCI4xpHAzEL5rNWXXljsimDZrhIrV+ZndnHpKYlhbmuukz4r+1t3XqsI5Cbk5LwdCtyWpbTDCRTzpLdFQ8Ac6es0ypZwYyr9RkXcQujbgSSY3yJnEWoZ6AFI/EOEgTpIQcZOvzFCOg0LkRKsSBDDHOnWGpAPdlH7hgTgW1/xmmI4saUgzBBDAh4CVADMBkIAKydAhvDjwdyZ+NCV/bnFBKnt4D8TiV8GGyb8U5AAzm8uBoxHMy/O7TUa4OtHvyn9IfwF9mf+KPEmOP7PqQZI3Z4kW6UrjeePymsHuwvL9GBVN+2tbr6r3K3LLoC6djIGMHF81AQBMNMJmOi//DNWAXUoAeDwv8ScYFKESQR1WBM2CwQWbo4xB+DJX2Vg8X3yAJ6nqYLeCvrSvQJC9nPvEv5Za5JT/p6WUQtXZJ3f0EQ8u2T3cTpPMwBU22cHgUYnU3a8nhBBOaGaAaR9BuftiUwfKv+JnBg+WoelQTtIHoAO+5bGBsdCNOo2lNmASPmUuxVdvNT8hJ8+q92FJFmCMU5y4llRL+wqWQEWKQ27aXNJnIgRsBXvt3z/iCzYfP5zYnqTwvA/3zjfMH+uB/y6NG/rleBXLvzp7Kf/XbRuPDy8Vof/C2oAUlAApEp+Mvny83LpG3wpFjBYKQGOHqBVUQLv03SAe4MqnP5tc64Pxxz72AhQ9Y9DAbpRvxxCyLeHkA+aY/oi2iT2+19NHkRHvr5bN2GtwXJitpV1suARMlDOMucY0gcOH0lyFaDOXe4hW4BsFhk/FGuVDM8CEkk/me6paUKP5L+yWRWSdF4jPDhHTp2ViDNQXpS9qGi3LUCppxcYedT3F5nQhtMtFmFT3iLyjrBH+427aRIRfR8jdJ+DgygRWAaD+/sfX57cQvUPpz9dNm4uyFUsbt6K8fVC4KtgfX/c2noOR7+J/yIv/uKDWLF4DcU/df0c+3IlBeZ1Z7cRo5yVPpze7qJLpzb/vCddzPqyA6BVYIGYAXSjT/hAkwDMmS6H/pAzwbj9AVhBkBAQIkxlwpCQw0fNAluLoGhIsLCxsD/QyvpECQDfk8YifMfgzX/Yu7afNLMtfjLxsZnk/Ac2xgcSQvWNhHxYIHDIBxEDKH7cvJBqRCuCpmm081ar0zSN05wXcniYk9T/8+x123ttQDttcl7sfE6noK0FZK29Lr+LeZ8PbQsQ+UhAltWS2n3s6ME71kM7e8QKWzVcA9L4oN5lan+lYfdv8G0YBwAiAjtqrMhDQKIQEhCIUwP2EqZngAqAVInEGKROj5ZVi0TPW3RLK5wX6nnTy7eYKLweWZKR8BlMWSDKYmhDzFzjUxwCvvo05dwx/SE3PuZPKfpz1AXg/29vuTqFAZVJAX9vBH541r+8sPSrif14olqtxtCsGfassXjPJNnJLff+HPSSATD8MQGk0+8tc86C4OY7bWuPLd8cTDkGaTIAVv8HbP+9RchgEgQiNCAkABAEoLC/ph4AQh3OemoK4PRvNik9tEE6+BDZBBsIC/bUAT0xAJE297yB9QMNklNu4H37vNUiIRhABXDkzQAEs6+QgEwKWq955KAGTthauNEjH+8U04QqltdjonZcL1TG1AJQkLZMUGY7yhqMun+WBKsUKJVgnGM84y4vPP2aSimsDncKmADGqXKdHrysMGGrZ/7N+0rWog4310uRkjSvCSVAK4vhU4/uURJwP338iQf+l2ti4m3te19aa+CXl2fH2R6G/mKR6lBMALncpNqzxqLmrHrx9zDg+/r8f5pi31x05MdXTTMF8ApMqDHwa672YPKnB/9TRUAOxJxg4xQ84uc7pQrqO+c5cFDyAQk/nAAe7PIqUGzAeBoIOICtjbsmVv0Y/xDo19QMbHNLgGLhOBk8aaN4aBuHfnMdiWZm/nOVBYMpNRB18k/rASQroYmuVqSUOJwzEAvuOocg9tUVklDqCI7ycKD0AGRE70mAkFAg3KM1IAz1Sd+nTJYBY14DdthUJGLU4TjqAuIAW4AsOwnIhp/B/3K3U2ByQYF3BDzcRz3hlMoYXaQEWYOw7ro0LR311BF7vJf+sramkH+e8IfGBP8nfUXz/xG8D3Mjh0MzxxMZC8YBGJCIv/i7Ffh2ob9s4v5FIoEzflym2BxKUB9KAJkql/5e/NsKACcAk6+n++hfnfw/XX2uAHD4x5d8AhqAE1L/AfSPBD3FP5YB1zIVQOkgIAxB6wALwB9R+ew/MhB4ZKqBVPuBJwVmocA7VmRjnYeAzAZkQh4FpliDldy5narU6k5gvCwJgLv3CJZ6+xXl1dHA7n9zvaS4ADgDYK7AEP4ZlhF1MwCuAPCuCPqn5AHwQx+E6WxLnM+wtWCBwqhU4ATQ4a0gsY+5BUjDouL12bQP2Dw5sJdrH9KTEY0A+O3npYCLDE8DTNtqckBiZWXplyWlCgA3Fp7949nC8rOFBRAJ+ZlB/b+sJOJS5JOsJwV9jHg+9DpC7Geqt7d68O9nAPiY9AbHyOdMP5QAFA0n8LT3gm/HGOuFHAhkd3dX+gD7ma2tOxP7oAPchsX/tQ5/U+5f091t86WmEAVBPaDZ3vqWhHEwLfsdfGdiUMIgp+b1YUGQ8rpl+87QgRs6AYhASDQEhB4rCmILID7CVt3LjfJRY7QjvgBiD06dfoPNQbvOVISnA/UaDwGzeYLz6ASg+hURHpWv1lFNGJ0Bs9n1e6dUHFmFUp5WEOyIqQckJZoag2xpen/v7NIX/NZGwAod+DGcgHagSQE0e8bac2RTwEW1mrEXnF6mpDUHnClv6ah7sWLumc+Yz8KHucwXfj5j4F9RyJuPfeL10K0eRHyml6leZHoX4NVugv/CBX/Ron648of7k95vIOsK4W9+kAOnlTdl+OcU8/qen25SG2xpVvCUYOA5IYMx/hkeqBJCG5wAYLkHyD+XAVz9j3UBbAZRIOgO9MIO2+0DD3g06wc883tgH35/CrfgUoSaYOgb/SNQTSQgUKNAvtkNJQoqqBrGCNfKHhDoKBuG1hxUje7Y1gfYtSDToyXB4K+fAv2gbEdxY9ghWkNw0AcjdmFF8IBlrABobwBIQMbwdtWq0iaAmugF0TzDHOWtQV1pj0jvH7FJQb2gcUF1khQt54HWe4VGIEz/F9a/3QVcWkzQ2fGbIhYA/P7jNyMnAsgBYC5azVQzDhyA+4GYuicrQ1SzhSBY+ZlGBgtLKwmG9WQo3C9M4FPw44Vnfg8+eubkH+mTX4K+6KYAk+pV1l37wx9oAf7qmYqQwF3mB5Co/4G0BBvA9zGn+tbuxt0GTAIP30O0v98mGBClAZkJnIBcaBtwwo4g0D8336f/g8K/f+1v9OtQIpEzEMvxWqFcGP4xG5DJAqy3V+7WeMkeDs3hXACkPa0QZELH6lt8t2P9ReoiCx62cAbA9KJGqe6GkAQiIrVATiinrCE0VoKjLCLOj1E2DdIC1JnRfAo4oPq9QycKRHCn1OXvRk+atgdiNXwEu1GTAPT6TzcD9jakgbOrgRSh3gy6aDMArAR68Iau4n9YBsRcSZBhHasejLl6vVgvgy1uLP6ToAiXXySwyo9j+MMLBYGeqWLE3/ZMr3/bu5iYhn9CYAvVYqmXWj5yk7d7KOgGsf/mD/P+Hr6dCgq3JOv7tNq+jhtPTH9ORPWpBOCi32n5SPyjVwAQfxHbd3hyst3EaeA16AExJJBGA4QOBBiAubkh5KT+zUYT9go+8ddX9Jtj960FAP2bSeWDbL8LjLuYL19miXwx2HUaXgTRgwqAWwBKAFErBElR4trVOpgASjtqGce9Ql3IwYzTR4Yey4zi7K5MahzrXZc8KHdQAmhgC8AzABElEEcgNgcusBu4VAC8FIAEMOzwhKOu5ho8cEiJdBjlBVYKLQ+Q2v/xTK/8Lud5gsF19urKG0PrTOBywGRyW+XzLJbRTYEJeUgN5n2+2ls0B9wqDg6J2xpPPPmp4TOg85lnuwrDEhPzGOi5ycj8glct98BFJZbF/Lri62Kwn21h/O+9/fDy8tJ0AeFQKWJMCXzMCO0o+V2nqydf7Ks/wSEkzCDd/jM3CI0B/gXcH5AAbBMK6Frmfxj6J6YogOs9MgVNurjebt+Ay/AuCQsB18DT+QvIU4ilSTytz8DlKu1vSh2OiCB4TwdETd4C5HXA9Xg35QH9nCow0wRrHa8F2MyHQJpFtV5CCwqK2IqClpALILU9s4ohnodiMYLhiBs6GQISbZ8IBDhMAE5vtjVsiCAIbxo7CvInsmMpWkZEEtdHUGwQ74gojDsWSEj8BukIuthJsE0IIY/ybz6JE8ClnPdEB1RbAfj86xpvofUbsagaU7kWJ7fQDchyEM44qGhhmP3vRYAPAIwQLlgfXFAfnHjS44AFc/hTow8vA71U6gV7JPqLfsKlpmtSBVfXfHaY3bv68Dv+dF6bVNDpT9n9KlDNA5K/wXyGbTALKaRVIO4CpyeCW6QCaEqA5mHzDuXBD+0qYJtrAJoDIFegedfcPiRTYRAMIk7B4U3yEV+QYA4JqD/tbZj00oGvb74OrxcjAbsWCVgRJ+5yyjXnqYh89+w5v9mCYfk+0+86Y+usI2QgBgZ2qYIQpg1YgzEbULoD/IdsAiBDwUJDjEbGUDKwg6n1Bdi0IgPa4Sui+YU8gGgACYDSDv3BTX7sAm+uk4AIK5MQBiFVDmFRefThUg57Uf+ycsCOHmQSwtVveByNiiPpReVkstWpuqCSNQccHHMThA6NGDZAEEK+RiZbrK72oAtOPN0MsJSIUUFEQ72iA/TMifqiu+WlWDsBKPZew9YvP2ztff5dfmiv8/n03s2UXn4QqGmgbwI+w5rzdPYDqQ9cnPEGUOp+UgyQGwgHgLiHFh9XgicgDMIZgHKAHQwemh6hfW6aiiZQhMxtEBpqHrbPtUzZPD/zpII1qafG9OZZBoACD/QHJv7zdg0oNt4WCOQnAFEE4nN+EwrlbLp2b9VEhJojlBwSEeQ1oInVrhiDCLmXG3qMRsIDsuB/mSp9HM5vhqZKGYYRVwAiPNxVBkE7IlJEz4HxBbjQz8qOg/RHecK5Weh4CYC6mk3WQT4K82H6+O3lmkX9rvnTAOsIYn59SdfoXTny3o1uJjVzpLmgZ9gQsYioAni+iH5E5sbzxSJwCqqxp4kifLaUqGLXf6s0PIo52zrJGJXygTru5+z8YPD/5yuQcjYV/7svZ07B5V12PwxvZuN5Zt433w8s+OaIsE/KHXzwH4iAB1cC5qY55BELaGIaqvx28z0PAOh3ZggiTPikfQN55fz85uZmq/kQGSj4vgFm8NiTOj8C3uuphwNgRozzBRAXrrEIBlCdfb+Zx7OcfAFw6iZNA8v1EDhAiDomSOt2DSgVANGHsQJo1ErKUphSCWgC3u+APg9nKctIqoi8f4nwQAUWAmFNUGIeQy3fkglmLRKzQYc7TrGKaUQYpzpNFKJBmM+/2nsz1/dblgFrQgz+dPynfYOOclQGuApVwVNUHhjh37Anv2sSpAAYmfAHVtHiBObf8eWnWP3H41VE8+iDPeed7P71wNfoM1/3SMZx//Mfa867+eXaf/Ot/YHG+Ca13odeCfoCYL5lmBYKmY4hW/x7Qn60ByRsL5F/mgj2A68whgO7SoB6AHOz7UxK+qg7YIoAcAzuewQGj7Q8BflVDIYgmBYFCbyv4xgBZgAhJwBGz5VZCjC10xW5LGED0s5cMkW9hes5mgFQApAhICeAGvuFcbXO7sBHkDY6ajcXkXz4uhoZlrEmH2OCgCFgmD+NPFFQK+hRKqe0/2CHZwB019QOoUU5kOdoKeIKIKVZhMRjZn0g8BRPp9+8k9L/cs1agClyoMiDf25l6N07euTt6pUDI/fHmT2QEyYxnP6LthF4jlc1Fos/tWHgwnJCifeqfZ4epuhayt7LeYwfTqy9AYk47305W7MijrjC/WzeofkbkQTsT88Ak2pMNosUDpL/4+7qftpIkrgU7Vs2ifIfgE73ECuE8LCSJavHzliTteyRjdY2ZjC2g3MJYpzwMayirPfu4SQiciuEYN+s5CGRwv95U11V3dUzA1rtWzDI2MafMFVdXfX7yElpqSyUphxT2c+nmOJ/Y33rZ8D5ABnwzQbJgqQ5YH2LgMEoDwC1AEsGbOdnd2kWOD59saHRwfE1kIDMLqVACawspAGF01hZnaZ/tOF/KAGMWqHj+9Exrjn4M6IxINnsXnU91Otf6NDvi65B32wBQpb10U+DpMKj9F+C7P6wx7O5kM+pu4fZAJG9mnSEpEO9D+mIIgMRfKYHMGkRSbjN2iPpjhDRDV10L33eI+mwLmuKiilADz8h4gCC35n16zYCas4ooFY93/nVctHolNTtNbc5KAqDhC6wjkAjkSeK/qXS8vLaL49umbZQuvzDqNNM9N1M2ajntvhOty9bAbycpaHv+2/PL+e1ufjvwH/qf9NpcHCapcQqO+CLVWYyoMgyyNgIxRmkEF6zHMGY9v0iBWhuAIz1Idxh3Uc4MGwDdrHo14Gvf6JimG4CxrnBHnn4xDH3HuiNyRA3QwzRGYzLksSg8uAnHCKUjw8Cf+iNXSgwswH71HDvE6xuQeUzTwE6oLnt+wdXqCe2sKZCpAk4YEZPz+ECAIVgbyLdBrWriMEBjCzPXwv89JtgJLA3cBoRHdfhixMAvtWIegCDwOP6psP8/1EkfUVGbgLAVKffYfPd1yr7/3DYkzUQ3UyVwfvpx7qTAXLFLErUWNAK7hbMspboZIDlwJJtBmL8YyWw9vh2gQJWdfjb3U+jiMyX2fFnRv4Ga/Xr/h5g/nY+HUoDB969nU39YP8UGXBKGfEvlWmjO9Z5SglVfcENdMR4HVLQaxH8kA/QKUzbAenKn5v/oApqsD+GIECogK1jO6l3TD+UI+qJxUws3r9yAMIZzZ+y63viDjLU8VHgB96IRUFDKfoLBH0a5xtFoIk1AalUvmgfrKOu6KpTSU83vriLAAAgAElEQVS+PJRSuAJgGP4BhFdH0IFx5kcVwIjEe3Vg65lgB2TLggPmArQmQgKIQnbSpohHyh9PMqF2wOYBDwYJ+LMg+9Jw7EgdMMMIoEqz4HzOO/0aTwAcL3DCCO4MP2eOYLFi1d1rjXpDgFdtLZBQSoCI0Fv/NPxLJWwH/ARlQGltbfXW1AA/wOzvYxbH7+Co8l+5vyPe8BGKfz+Yfjqr1eY5B+da7Wzq/b5/oVwzTcVR5rD+cmMA5WrpcQIxz2C9gp3yP9ZdQBQFWd9GMVDR6ycy0KYuCTgRpD8vYlnFq3JOvDA2swrFcAQVuwKAMjnFwh2EHUZVbDwR6KPvz5rN2cGiYkfvVhSUZ+ZpAohcSTBS5gZrUA+h9tjvo6eIjCw4sgGJv8fjxYP0QUHnytp/oDo4TSEQBzDAbKR5xTrRoAWhVhicCMAgIX4MzBgr+wGLfQ+9IVGdyEloTNj/kWsiSgmA0sliXwOBLkkQHIYBTAquOcs//NAwgHrhIpVRp9ARbieDfIeE9KugE9CgNgBsAErLlAqgFiiVHj1+cEtagT8+efTypeBPOVHv7v2dlODs/HEs+PmXabr6D2eXhzVXvb3KYi21WeA3T1QBQU7lUfY3NdnVjcw6mwF0ObC98QJsvtMssLX7s24DWhIAnE7Syt/cqqcBH7bjGyYOqojPcw3hT938ht2Pe3oEJpgHFgcQXdktgLAHl300qNV1D2AETIsmMvsHXeLaSSBQiIHdbY2lMUhl1OQmIJuBaKlvqgB6z3tGYSjqmR4ANwErhPkbUwLAlVxvNhaGtmDgPk2eUvCmgPUOjbFQlxIH6pO3n4cIVg4Cr/l1LoCA3A6YG4Uguv3w7Yyn141M99+FqScSGGD2rwkND/TFBL5xMoCzABwHQjIolZ48vXMraoAfnj579t+lJCH6tLvnd8Z9ucuZP2/j4x4s/2/P5nNR9euzOW8B5rPAOzpWRYR6qxIQZ5E+qjBgHCVR15svtsEP5ygMCFAgPQCERX7zhKk/m0wElEnhooitU0hOdKXKc/eKXclAlTEYtjgBrCL2/OYOKQItdMsuWkgkYEfCZhdWMwy5tsO0Mg+ONKofsfUUw5FxB9begOPxiOjAGHR7QbM5/FYxkQ8/Bjq/TEx7H0GEkcYFfwHtQZ/GgBVD5MdhAXGCWg5okacRHX/oNbukFNIRioKGLMDbHewsdPD9h74/TGuAc+77OVIAssUE1/9oHggiAPX3C8eA7t0IPFRPLHAIdgK6DIC41xGCi78+W7m/+vTerYj/x88+4qdrEIO6nq2KXHB/45qv+vsdP/Bnl6Lyz8xtwbFt6vl7p+7APy6I83Jxw98+SDkiO7mwjGMK/jKaea2jQ9iWbv5D6++DAf67J33r1qlyREviDO3YUTAu7vjHuTcuUYF5ZxD8zbEGvaYLfLryh+PWwuECDMhHkxNANKYKgAxDRuCh6+10KgIK3JZTOPQFEIIgE24CekdkMM6s/NA4j2FkE24YMkkEiH7yILUigCPmDNFz81ulXKNHE1d93T0Us82IHl3ptzpSGGjCxGXdA9AAB2/n07wqjyoZ+0IR5CskANPVF4W9OHrpGjeuGonpAiYaOcAHedLAoNArv0YJ6l7ATxD/d+/fuX/nVuz/wboP2p2ZuWke4HfdDaT5D7v/2fmha9ua0WuuzWdeMPyN1mveNIvFnHfRsdHXUsJGtxwrx4/TrL+xbQHYYQA1A4EiCBq/IOyrLQAAB/yBVcHcyNdXdzdiWtVj+MqZEmq6L72q05KQg32aEIh7SexAnNVBJADBRZAe65qZFxEgV1f43ANocRxXHEEQNgHXeluIBJw8R/gOGoN0uSWnd/UE209zBGqJ7vtes/0NfTzGE9sDGHUtPYdCETUB00QTUDOfn5OQgKGh97fl/JGFjTswzWtfmUmj/WzEV6yMW6MoHAxACWTU6rYwY/Vhy7ETXELZP69a+n/NPbZw0Tn3OxIHeOOhe80Rz79N8Cz9ourfjgNKKw/+cefej9//HmD18drSEvY5nGq+0cjOAjMTf/fXyedn+4Ef/PvQKdBMdp5XGbhR++p5exeG6C8cc1UOXONqgJmHZMNJgIpc3P3rMlcAL3QCgCJAa/+C3O+mZADrwP8XXdbdf8e7xFmvlTX+EzAg6V1o75g1PSiXM1EvJxu6MQiKQFOX7TtodV1fgBDZ/ZWFSQCIA+g1wT5n2LFMHxreRb2WiENepTuUTyLQ29knqMFoYuw8FliOozRHnwYI8JDoKE001KgAYcKJFQRh30GbAHqS6tNppgs5twVD0R2EcUUUppHfbY+6ady328+7rW67hbMHnTeCd4fVqnNw2aNsbr1B5++CV/Xs4Fqgflx2UD37S5EhSFAEpUWoA2B6ACsrK3fvrqw+uP+dDwP/+eTl5yVCPzdE3XRd4z/XBaAa6jOAvF/9Oc+k5axea/p97jWDRYEXUEYgR6kbQbbKFdNRxU9mKoA0A0AKuFgHKICWAEX0zwk1/YxK+IcPJxvxjfheK0ya71aqYqkfpf4KYljf5RTgU+kaHgnVbzYBNh4ak9HYMQ8kok6lrfVWCAmoKTzpph8V9lgSTNj8QXbo0RTA9470oyo9tgSfmAIDYxjtAlEYbDAElKfdAgzsFGDB+qQG4t+rWFpvuknxiK1IFYDuIKRLfrrcj8cQ9xD67TRDjUf9STgh0aFvmgz46rxaFf0+Ywvg+APUDqdBzwrTuJj1RiKP3STX0SqYFiRcBwhE0BJlgJWVUml55fveBjxZw8wm/bvqOfRkPbfiC46FRv5Nvan/9SxXlol6gMEb514wfZkPWXeDnCUB5Qj0diuuMjy7bA4o0zQQXQPBHHx38w2wgMz2f9NQAXc3T9bja1+3nJ3wFb6yyn0sVYz8l3fkiaO6AEJvQGNAg/Rt9TNTANoCILKXM8S3rh6WIa1nwmz7vmnqcQXAyEIzBTjwm7Qu4wrPpMAx4vF1DCP8OAJA8KIPhCXLBWAb4L7ALITE4qGpAmj9LqBGAcEzGkj0wjCc9Nqt7jhd6umUZoFRrz8IwyiiGQN+8L20sJn+ccaGIHNzPhflP1qDH+747+t1hwXEKF+HqubAWdzD2U4E6owMSupcACRLy5oXtJzG/+rDu6XSw+96A7C8TOAfF/Xn/DUEpKqe+3PpW75M/ensz3lVdmgcA2dzpTo/D4bDi7+wGv4dUZ2iiuI1twI2iA6wqzVB1rU9OGYA9AbZPHmzfayU+juvrgpnfOqax1//TOoYmHnTPdbbDaXsv0HX2CYg7RWoS9gFnR7fxykAJwAs6Ue4LxiTxwcbgzBHN/DwUaYC0JsOHAmMyBBgjI6+MAWAnhxZGKcvhEVGR+cYY1dIe4+RkSSLMNV4zeEAFYva3fEYw77b7nZ6vV5nkEZ+pegEHKIg2IEpADuCGmy5wALpw+/S23tWt3NAd79vp38ONjC/5OG9Egx+QgImmhaISMClBGqA0srD1e8aDHBvDbANUP/rdJfUHYS0VPY250mS3VTVwe/r1bvDeU6umf9dtgMAgk3TwP8Su418AegTF8qOhIbrshkXeG8qpz7IVgGvNzZAGvjFi42LN9vQBNDqQDj62wUdkK2NOOvTJXv8OT6CuW+cZTE7BULmCeL8M5mpQpxWAL4/85kMNDZ04ElFztY4AYQtZgPqLftVmgCADNBZmNp70HKYOv+n7up+2rba+IS4ayFC7z9AL96bSIhbpMgOODKKnNSeantR6jpWUrEph5GQpOpoysu0rRIfQpQiLmrRCzaR/3PnOd/Hdijr3htMk4JDSCA5z3k+fh/MUKDTYKhdSsBp9qUKUcC5vSFh5rUEkcjj0qD4VELUh1kGwGVFGF5omxmPCnxgoHgEV4bQPKBlTGMbF/hB3Am9EC/8ypzjLrj1/WBIII40ALC+0pRjAESLiW08R5Y1UlwpstlrXWG46uj2sZ7986kAec8zRiDtBcIkAF/Ka6Uyviw8fZSdwMXFxadLC2WcysBvpDX+BEiaz0von4Ffj+vq9BRuvLXM7o0m0C4TgKrm4AYfV/ilnP3/BAEfdJAI8AMBA4FQEGsHgBcoCQA/v3r5/QRtGP/6cf611qFxDM7bDsXYNDuxTgbiOAApCRZopYFLqAB2SHsAQVvqCAf8jkwRiK1yWh/AVI/rAQQcoZ+QAJAILoAA+oWA57OFdjnOAHxFy4sHK96vhCSi3WpxxD9gDqmSUDPxwmymL492s+UF/mAUOTbhlOOH2zHBFkBvKimtJQ4Mmu7hZIb3AMY6llUZCbIbldlgXZ7TvpfeJlBAWhtwfa20svTfRxkBFkrLS6W1Z0zshGqn1OoCHJWDTtW09Ej8XSBn+GJZ/dNpTq5ZkW6UeIBpdbqP320uymn/oEKSvI6nz6Pw0H3lvw4LmIBEGPMKAsdPOF798PNLGPojxMeRinovys3/VZ3yXMcvx2YoUAwy7pc1gKc5wkm8uU1XQSA0AbkikLDh4xM4TgYKKRsQeL3OLd1hPdlrTz0hJtiUo7qQ6QE0wXkvkwFsh4ofqKdihD3o5VtAB65UVGYSrRq4vwcog6W4xu9sd2K/4bJiY4ZDlN1tVeYezeQu9N2hO4oiqm1AYBEmQQGYe1fq+2lTHweKs4eWfaDT2WpFUgA5nqtOf5WnxqIkIDgAmAo8K9NjbWVheeVxrv/vllYWnpaesbjG+NB5hn8tc40vq5lRae1k13p7Wt3clBXAVJ3SVvV5YHXz3O71DwxD8wEXczVk6JggCfFHwnlbn8kR5rAh3ASpIjcqrLPR5McJcARxCgCQgFc//fTyeDKZIHVhGzkpIqg2kCEky1BGu1BiGTS4gPoMhf4fPYf478meK0MV0LscEwm1PgMA+UwVeJsbg/CVG1eUpj5rxKeV2AYggM1UdqESYM14XLonUkmk6Wd8AQagueveKWM7EgfYFIAGA5ZDkBtCk6GVUuXJkKohpU6B7SR23bhDOvr4so2jQFjhPYB+Ky3a89uB6w/7Dl74FoH9mPLKJD0Hu8szgKnqBKwyhAF2smM5W6pMVV3jAee1Acb3IV7EDWNa/IohwOoqSQFW1p+VlhYfYwB4urC0vFYWw836WHPymgf1q2ctP8artaH19iNTaFXyMnUIoFi3wiu2Y9q+YWhL1CjojSl9dZRrwitDA8P4h007hDYmRN8foXwyjiSTF0n3AW0CaBTw+Iy8KKB2SjQEJGkQ5e3R8cljAPNFQ1XoB8RB+RSA2foyyqygA1Os8Cx2bNN21CkAEwtjOh9NpiQS8B9DZ3RQAkQ2Q+S6SglAcfl06bP7eG4rnXlUEIRnAExKpOE1k8Rz3Y7fwFs+XvkN+LwTeEkCub5UBQ/1lX8bx8PByBn1erDOu2zJk2vTAdqhGfVAD8DeAW2JKW/3iU7AppoFVM9xNXNXk/Ns5TqHY/36W34sMoYxAwaP60wZZHWVTAIf6xxwoVR6sk7oTWPZ1lM7I7WisDnWKJOkQXpr9a6yrN+MY5vMCYh3+3vbniks+aykNlL+Fd2yUbTDCzkA9LARQpGGNyqS9EaFPwgVq5IrTxppWGBUXPWj/ONPQJ0nYjybOG8NxvA8nYqi8MXnhKnfI+7AtN9HMvKkwUm2nrTw5pYcYgw4sHHe4M5SdaMPhbEgbQgSRxCGKGpFXLcsJWh/nOp7XsMF3B4b53X8IAiTMGnqJX7bxdGNPr+0FcZDrx8N+zahFkGfv0tsirsW/Bq71o6Nn5ZFdI5ts/v+4mp/Kst+hV2maQTjAGD2QNWGrNh8NlvPVrN1gRqs5W5UdUQpcZB2BOtUILBcflYura+tlR5jBrDwZG39SZnpHY7nB8S6pFFnyFNM9H/HvKlmDZpyIgBKD5B0aUbvjj9MkIqrQRvFYBlD7vYCNmjoAPwcAQf9YzuOgm9X5byNuSM+4yuPYEjcUCY3UH5fiWcwjEsbeC+svxaLdR7qNsGs+ZcI80CC4J9RHIATSmgtU93nAYApbDGBsIAHAC+y+IbOBUEgfKiO4LjET7j8DyAOZRMwdPGGD6k+7Pl4ww/wuk/mdPVT8BXvx3eu3x9ENNFnh2XJ/y0Hhhn20U4XR4O9vbPDi3MuLKXV/gocSHJNPplW72SVCPzRrF0jA9R5LiBJweOs+A0bFY71PhirBFZrpAiWiOCV5YVHyQlc+g9OXwAEsKos7BzSb6ynBUwqQaVPvbGsm00t59dVQJifsxK1p4f4bbo7skej0cCNP19eXn64vJwokGBp/asq7BXQg/ICwt82MkC6sm8xqw8Vc4Fzvr86AcgoAAxqocDQTMLwFz5IprERe0CnAJU4CDUn7oQx59oNv61wZ3GFbUN7LkxnHJfDsIOpMO8I2pJ773Em3oAYg8zalVmbQfJp+9FjjLyYkHRawjsw7DI2IAz0Q9j1fVj5YbPZTOf395pJGDqkrKdt/Z7dhUzf2bVoiQ/rHn8B6T9OAc7+PDz7dHVzcT4lVf50U9H+U33B2KB5cwrH/vX1jT2Kv3w5OflCZO2/kDm+iuvjql/8y7HQBxrruiA5ALygChJqAFMILK+Xlh+fZdji4neLS1C+QAnAy3+x3OWJggmK5FLThkBsnk2zbAwVCizY2szGHZcABxDngbdqUtlQy46cqN/v38V3n9+9uyR9OaRZg29occHY0FwFkbGhCYjMMQ7NfoHy5kT6ijekHaFc/BR/IJt8aEPzNJASR9ncRFb+Bk/3DV1YnH4D6ps9S6gCU4ydoMjyAMCZc02XmgemTEZnaDnQBaBYgQYtAdxUkRQJtmkPgJt5sQwgiPCWi2MJLtRZdRBSCBAV5iTVPw4AsITJQALWscUzAHyyhYv8OXt+O222m+FtKxgOnR7f82mB7wCeEOzMydtgD1eGe3bP3jV7e+//vLi4ot09fmxKEhBd+lO+ucDp6+n+L2/w8XprK/ADYvBBTD5ev6AOVmL6n3kX6zDXe9iushlAC18GCAJicHll4VHSARYIkBl6ABzzQDRQ+N9lLFjUNTVwKuhqGgAGFgnRuaZflTO1N1XfJvg3vTob7L4/GLwlIvbcNMwh+4Lt2LgYtLuDmRe/+XB5jI7zQzPjYUrh32bNZ8z7TmPezzAedMLYeOBdj/s4PWJaG9wbsOkzmy1u5sfwtdI+mASGGa6wbdMxo9tUKQHoGJB5bzNPsA5T8dvmikCg808nDwGHGiW8EIBHS0Io8X3S1Q+prIdpDtqVrxxpELuDyI1glO+M2DyfHxH9yonwi+7s9t6+7x323x7efLo43xerXq35xSdTXu4Dt/Tj/un19ekWMfOiovbK8eI1vX5BbG4kP0DwfWsSFKQQglXBoEwjkc7MxnXGCoQaem35EZYAT5dX1lkAWL2HM1m75xyDBo/M/WpG+k/FZuufcILw/l9/PX/+xx+/Ht0c/a9/0B9FIGRBM0MCZbHsLryVnajrDEYD/8PnGU4MUKHwboEjj/HQYJBN/ZFRbFegif+xTj7aUOeEG7oySaGnuYE07RLDMDKqxuQy6eJNMWIZPqcDu2QK0J612Drmk7emK9yBQ7x9z4Zkb3XkvA46dKkECnA0D28Cbjf4cA6HXr+iBICAJPy4VPA8itf1t90GLvHjTiepzGJ4jZwgu9wV/J4X+sPRiJhBw6uKF3tPKfeJg2HP7vVJOuB0d3YPz84/XVX3cabP+D5V/Y2kt5b46enp9bsX5NiS9l7CvFZ8Tnz+iH89zgUKpMKL39tFrHc6MCMfRCQQpgBry0uPLwAskWdeLgOmOQP+KVRS1TqoomWKLyd2b39azdT8wqy9KmoAzcEVXt2Pz+kBkeD5L7/9/uvRwS5e77ZNGkCANLMGfAwMZ0ejO/fg5AMuES4vjxEy5mysxrc0AeYhdwq+LVdrGPdrgBlzugO5ikWUCAP8V3CGlVT6+DA436zdZgP8NhvJiTEgLwE8YBKaEWPhUN8dr015wyogkKF9PC7GMYxw6TBIeZeg3WziVMGLOTvPdRuNhhcESYtl+gRvYLqzbAowa7XCMA78QQR1jGnxZN/CS902LRzbQEoI3xkcAvv49d492jm7uLo6nxbs+VXVCHQz4wQCq//69PffINXf2nqzpW3+f1N3dT1tY1v06qpvM23FP2h1NS9IFW8VTOWYOHKFTIulfCiKLIPiXB6ciNgJLgSnCSJBJSkZSqM+EMFDisj/vGefL59jO3Tm5UqYfhgIbVW899l77bXWnuMMIKQE6AbwkmvYdUkaglwuxgNY8tCzGpgDiEwZiM//1d/QSfoUMcBnz98AkYksO5FnH+3cVkICyElRsl4Qtixrjp9MzfIcMGEMSu5ZChCus+Hp6WWv27Qst6HjhxlnACgJdI3jBYbh2p0H2zw5P7yoH8oa+3/K5lVSVg6sp2P2SlwKvJ6EJ9YTJKDYKgPZUUDSCZPbc3Do1rzY9m9syR8xeEqsBdhmakDM1cE8u4xmlaMznO0DYBgApfMxzS/FFqAFMDxi3w0SnW0a9ejgt227WCp9iMW5BfO6HfH0Nwu7XrNpOeAHa3ECD63nMhjZNwACAENxfR+92+8docD3NxmJVxX5I+mqf2HgH347C0iXT+KeBn+NRzxuCEhhkCdtAMsP+VEwGvFdAYmtFsKUW7IKFJ3w8eQcRIG51ZW1l0+SBvAMdAxvoAUQByO8/4/ea6fYAUZdVG6UyUzEck2VLEAlOwCJxY29gfz7j6nXcDhA/cFlr+M29W4r4xCsUMe1I0kD2PoKHSLNZtMtzE8W59cXF/X6esqGkcc1fOnBnnYyS+J+JZWjvGQcsBy8SHvBtaZVG9bugm7PKwtu/tFaX44BUD0/89LGpqCatRfh+NjKc8ZV+kUsEGBU4OL2Dufn0V2flV0S+oVCsWiaQOBJ6+3BFBTWD1RQsVCCPt8lDT0Yd8JnHDj6OZFPb+ikFLCqWvWg8/V2OvUnYwDteeyLaz2kZyhS/Un2kuNjGvV5fu7DO0E2+4De+Pt51g1AOSD0BNAPkEoAqK3tmH1YDAaUpDEsKnAFgKuANysvnqQr0H9+I1MAQgPKxRueuHwqnSaZy2Uz+q2ayNaREZDgDMjHNlwrrG7eo/o/Ef7C/eBsMOgPel236wJibOA6AP8CwyRsS4GbS6ulWa7bNEfnI2gQ+BChntL7K7I1F2viJVPyaAJZFwNdMv4RlpMRF6B6fKOp4AvEF4dxzyBx5xl/U5RzyHOOLS0DxuA/beXtd1yhjysAQQ2IKgAcgERsU9wmCaAwE6xF7O1SRfQDoH9OE/1n0gRgF2xU6pfTx3mVBR39wzTPQS/1rBYEu6GTWp/EvEPuqrzpx9V/46A7mX4f+zTsVRL/m2rSNSLOKpE+BI/P+LhW41EOhzw637NZsQlAAU9aAN4G1OAjWVww5DkygLIAXgL+CAc4jSXcxtqgV+1XW8AGXFt5mnrgFcAAX7exGFh2995KxQREq7BoPpjVMpNQ9v+Rk3moCt7AqqgPxN9Sn0f8kN4M04sC6A16fRfVnlaLPVaYQWaQ3ynYZFiG7rmG581H/724Hh3WEyIjuUZQFNGxh84A2P6h5AZfZT3mAFyX6D4J19I41KikOBnx1cH4HwJqQC1DDEHKdDfgHjHdWlToGLDCEsAetQZjtsEeaZpKEZpHtbqzAnPtsWkngQ5uu0ATwAyMujIkAXx4FNqvYKdv0yPfAB3KeV0A9g34VlTx0gCY6wOa4xwdff35eRpOfDwEZlfIhnux015a9pEiJUO1/3h4VsvWZMwvK+SDOYYAAgwM0FaA5AHUMYzg1yD6ghpUAljmHxcCpwiF+PPPPMJhHIjq6CdqCvaCDgGIGFikPeVysuBXWqgiMAZhCpjNuLebCfsPsXrjloCSTTBbFqiG35Ye/ynXYDi4HKBM4HYblt7gjPGo5dQJyKTBnW6gq2U/3FyfX1wf1g/r0uhfSVYHS9YS1xXRskdJTSiSC7jCy4pUCvByHzRgAmJrfxbXVFtPevUKBHpRNNBka8LZ9lASmI4ZYQAwBlzgcQG150CRT2B93OeTKcBDAf5S7xdTvcrcLM53UM+la7pwuEenvJFpGFUHQ39VXT/oHnS+XH25DX1a69OZfrjJp/viel8p0IXWkX6CYMlq6J8FtVoQtfpwF9AKACABFP5zL5sfT15NX03xS3G2OCMZIKgRhgCdD2bJ9KA2Gr1q8+5W9hBvp3pi4yEAjn/cAzw1b3AsXgIiEMEA23GLxKWeqbnkR4KM4/jhpkDQ4qSAUCj+BT1QPLFvhj/uP97LSWD4MeWH/JLB6eVl323QkXLGMKhoDKhwtB6gyIGhtaymbnnN5s7Dzfzk5ATQgvo/XOn9f/MDOMT1DfHn4+vB2XbgGW/eS1ILMKPbNHZwIiRTgF3WAlDrzaJZtHe332N5HjT5tlks7ZUrmM1nQtAuSwAgzS8UUOADdwsTdaNpPjYw1AiBV98HCt++pjf2r75MJmHoh2yiR87zMF4ebsYfEJVKSllXEEavwl5A3+jZz8IXoL0aO/prQRCMgpbRal2NN/zxxoa/4ftjf+Nuelfzx6MAUkc+OKMNgdgzoKLg7A5VAu3omc/Fo6AtfSCHGfRbeEvAy5WniQI+X1slLifS4tSEZDKtD4rmhrlcM7M/SYX/Sb8mGwSFcbYwuaFg4DAl0h8tDoYdHP2dbueo02geocexY2HxGEhHW5isohk67hMIDWUf00ybtnezEyxG10wJXF8XCH1KTP4vaJHrifFePcZQrktMQqH45wBlnW0aFMWO0UuhBdAdbYfIgXfel5n2ZwZz9god53MmINnCw1Z6Yo6+ZpD+gVh6g6Gwae6isH+Pjnx7Z2d3F0Q6swjWn1UqCxuIvXaaRHduF9yW5sD/KIz+QZYfsXlQ51/db0AVgA5+Xd//efX99mo6pQe+uLqL83glvrga44xLcEDyMQnHNQHKy/NDHdr94Gx0/Nfw06c++kd+nmzELn9jY7rh341v76K0l/wAACAASURBVCZBgMr+fD4b9QV0ilCrjQJKGXxMG8wMQrfYuvDVF2tPrAIgmOXvK6tk02lyC3Buayu2QlGyCxWMQtHVE/e18F9CVY1/N/n3mXqDhWJR8OP+fpiM9mF0n5YX+oA/6X3yqQGqCXq9/mXHdasZq4op5phnRkoEnYIEeJLgoO7V0jJWs1X1Hsyb4OT6AoYIdVmJrPxqoVfK55W49YeyHPGvp/4VF5g1V1xIICD2/lxgjJ7qeJk8mGAB1HhrZsIRrbllSBd2AR35xV3g7r3fweZbZulDuTxLQ/dMFL9eYSHw9ktmqejZLims6DhWBxwfJViDn/965kDXjj4fWI3G1dfpdz9UOY0nzRdWFTf5ybfS4xJKzxLNBeHxscTyyxLgr4bK/OD4+Pjt27d/oZ+XWvXoyN9Yfo19f4q+hMKGlC3A7lE+Gd3d5WRfwKQjPmECgykAagCe//EkIYBn/4oggHbSAEmAQeJ66thqpXwm81Uq5xJcDtkaXDRw5gTPTdX/cZ9+1qfdk997gDb3z5JkgtN+p9fpdRuuC/Up4Z+7mqA9gxEVvKFwsQzHbbYsq+XNPdM+vz4HIYKyvBOIDQ6FiYHgSMLQgviIUEkuF0sMIA9hoKbHMABa6fMEQPw3sfU3SwCYB+BhEx1SAdBGf7dgF809FPiPdPiLoq5RR6DKQxF9mWtZgPChWr9KQT5c+6M3OOk57OLoB8b3qf9j4occ3KeZX1VVaSYsjYEFnziJJZZ8JUcJ1HAaRKc/wwBqQTYbjD6R2McXqgAaB48lAJIExtMR4AL5vIgesntIAtwUOPHMEynQFl0Wvvryqcb/v4EJBGLAdkzsL9MeJK+kdmyxIpYDZ7RqyA98VWroRFhHogfEgQC4fny8F6J72anPi4LLIxTH7unjkGF/gIqCjtvQm/tG1eAP7j4gAp7rFYvzbMnLlrKzbLaYnc9bdtH2mq5eK9wE5+fK+i+dfpNMIbkrSBD+lMcKCpw8ziHUHHsRuQIvKnx5BpXkUZZftCCkQkj77wq4PKdEIDzI3/sFskfIfDa2BDPtpos6JUeXdLpYja83cOMP83xnX3dQp3/0+ef38ST0meZDZPLJChCBECKQRONPhsgcSX6B+i2Aoj/I8/jHXX8ejv4/Sfj/iX/AbsqvG3/rGvuj6V0tqNGBgjgcgH7gLmaAzyvjNpUDARHw9eu1508x+tHPP14CE7jNzAAkE4RcimXqVi6X2KWaIyBAYyoifCmz20QrkLjHzMD75LE//CiigFFuGPTQQaT3/+bwYHB6dtk77XV73a7ltjwU+sAWLc3N5CBpbs6zhTnKApZesDrmyL4JRteC/4ciWX4QdKAuLw2UwAM2bZAtBQVwQXwt/rRpoMOXLv/dZWNAbPpL1ucQDKBMSwRM7S+Xqdwfr/lutT5Au5B65M/iUr3Ku9mHOSzf1gwLm3Hxap8M+qxqNeOgs16rorSZcRr/o+7qftpGtvi9CO19KG1V6e7uw70P6UNfKqFKq4VuqLCDkVtkPiKFIIQsQHbIQ7BIHDCBTKBRErQECmRBuVJRI22I2v/zzpnx2DNjw9JtX5hCMCbho/Y5cz5+v99xLq9OL05ddIb4Lp4fyamRSx/wwjjDDs/EtvpjDlV3Lyfu/GTv9tp72PYnJrDhT0zgg3PqAKxK8t7LPXHPeleulwm9SwAkwF6g1+Pu+RAFCEUzkv7j9eShzgYbefwKO4AE9Wd8ByAinMLP/5CwAPBeVLQr9TZPrwrnRKRXSmQIALzzHg1BcrqxhW/Ryt3bf/SVzWa9WoWr+zmdZpBx0frDx362UCayNzgGNoqrpar3xyZZt7D4JuO1ASZjhwpP/hYzJdhff5DWhR8BLM4S+TxK6YPNOuvP2KUOYAXkPrJZor0HDuB6Caoimjl3F0Hvjd/tX7meW+4vlkCMy2Q0PQ2ifposOeRTSzOMfMW27drWaQ1Q+35PDwVdvEizPuaaq5KWp9Dol5v+PPafPkDtnwXpFPMPj97e7jnZ+MH8x+n7+F4+rzkXya9erruXbOc4OFGGdgqwW2DpQIAQpkM0t7fJgOCh4YfqAIaHhx69DPTAopN/bxuWND0jMYKnFOV/kYKuGuKCRZpQBDAoaAjdhg2WVt3Slfzh15l/swn1X2EfoStNoSP9aDAwtbhASEmaYeOdsWxoxXIRe4KjzZ2dr+wXTt77C5PHYIt5NhuQ0v3XF0HfcyXo7QFZd3l9aX11Fbr5s29nF9fIRD+o5sN00OU7g35o6PcBvWuYZb+y7zdO88QDWBSv7xiKZRlb1s3Fxc0FgPZVdlHDVF8q/qQi+D1RtFc6KX49ft4ntP4BzUO35xxj/Hq5Bs35fftnbqCJM5j8TfLvLdc9Obnyeg2fVxwGBH5RgCkFkQiAeIDRJ08e6nRQ/GsPP3v5fGY7Edf+k2jAUZUULgaYUrSKG0b5oWIrEh9CIDd/LOo7qYjHBrdikgFq/0reqcuxwkAMG/iCYasF4DG8+wcUkSnuCvelGGCJ+ySbLRrQAAO+PEzEtYCqV7ZKpXTpy9Hm8Y484UOSJdqUa/yT/DlhYgiLBo5BoNP0cQAwZOMLaQPCWK1rIsq9MgdcPRimNbswO5teWyPy+nRvz+okll++ffvvZ0ult4ZuKD6gmmIndFLhM/Z1A/5axcnnLef09PTm6urEFYt74TWMtPDlgk+o2cG9BgUafgFiRA2HfAjVIv+pJwLuL0OcgLe7S81/gr0NxsnDe8BRixGAe3njfq0f6J21c2y78OHGbagNzsz0tumkYDIofPTV46EXww/W/kdekSJAqIwgc35m4rZ/aTLo9HROIQMbGNqf6bUwJkAwzY2epWBuxD1XVXm9gDvSAOYCPuQV5X0zEuAP5gcDHkkUVA6ajepHjzaNMlP3XIFT6F/jXKCgWxo1F80g3gDHxjgoKOTTn0ur1fbR8THh+k/+JvCFgwGnm4F4kCAJsCkomjIfUQUosMmg/rQNuP6WCHmt4FBgYS09O0tAfEDS4zQ3IVT4vERoujEOYAXoeguFctnQGGqSQHcNP+N3ivjHOgaO+/OOo//evby84tF7cTUcf6Nm02CR/xbM6GWBAOKyecT1+5F/V9CbIlSPU9ndQSaBQ/afmWJUPgj+gczHzD+w//FzeBg/B7EpJXQA7tVBxbG1yt8MCDpnvUYD/7gcQAeI8/EIiYgM05qZeT76aOgJzgEebBXg2ejLxDZX+5d50MIMBZEsEJzFy7a3rlKReS0+7T+UblT5/l8wyk14AXUBg1ApQMQC+Kum23XuCfQjfqf2P5j3cYUDxiaqkpbxx4zc78lFzsSt9NTi9VQJ4EU1MqLaLBMpG9hAC4ql2DaUzoqLh9mj46PNyVskf+/SKA8DAhIEHBPa3CrR6J9bZVDg7PJcNgss3bfY/LPpdDq+ur9eBh9lrPNKfMvLywsLhYLhl/ZJFx86jaS+7yg1U4NmvnJQsWoXONo/u7xyU0JRPxXt06XYBs4qgSme0St1+rirrvLSUMET+QagKpBFUJPRfLjSXIOaP9T+WfDPkoHxAkQyZ2zrr9mKRlz3VfKblvtncvuknWicQFzgedvtXqKXmIHpoK9GnzxYBzDy4ikpAsRoo8hSqPGIQIYFKmv6KUrJNwlX8EFxaACx2BNkDqQS0KE7+nxsV6Cm5OuB2XcHA3fQdTtdFw46HdRxO6jrdjv4C4NBq9nIeNWImfPMUNpOmsrdxiwhwUA/e51eKAPvxY+Zy6Rsppm0Uk5K50ZZN4vFwsePNB64VSlsMl4dNBh1sAPzs8t9Nv0bqDvpLEB3QXJ3lQhv3qG7WYAtvUzRQ3Mr6/2FkmlaZojdN3zZXfKXENqeUTk4dfYPLly8An5uSjJ+rkTHDeVQo0W/lBDC810+FHQLkMQUp1+Wbxv4Bq6XES4GJP/eHjb8AW37DXzzH7A6wC72yHkLHMDZxY2jHdjARrI1reImv8f615/TncRYYrs7lkiMbfsTwoceahFg5OlLGAwSNyxZSgBi2ZIhR7qv6TU3EGmTC3zhFAeh/S/OCuExH+AMBtz+LsP/dLNOjX/Q7SKEwiBV5SlGKYTcBiGAZnIRow6QoJlMSAm5fdEXfVncL9cKuqnrhk1R8Gx2hWmajIJEZQr6pf7nL0eb3Lyx+68d6GTradYGXFtNL4IuRzabXlr+Sw2+rKErpllMp5cWi6a5YJcNUsRkg3bwdqhrNAewsWGcVk4rN59cV/X/E5FA0pHrtrIDT0WpfFIln8f6h99VQoVIuwL3CUJV8Spkcl675QN+Jui+z/Z/PxKog3SE9Uvy7MCw7TyoTdqOXcBBAF8XfP3NfiCZ7PzS6YyNjf06+jScCvCwIoHh4aHR54AFnGYSQHdMRsJpT6+NV47Qq/BlIOpqPR8e0Nb0gxNeFgwJ1EA2Hlgc4IYoXtivB6BAQdivBCAax7egJtgasLwe7/8NWzkk1t/xnymDjf3dx200wkA/E2fRoCQH5SUcZFZzsZAwHnZGIOPV980PTSJUYpmEZECkb/I6tN58ahxjyuBYvGiWrS9E2nQnFAXgBgVw8gCBRgABApl6eYnpfCys4VR/eWn5zX3W51X8KxkaqO+S6r5OhHdprQ//mjDPD+brOLpd2apdojMfjBtu+GGuj/giX1DQQYyiE6T7wTN4DSjEvzQoA7DajxAtBD+QSkb7tQPygr0M892e78c9ivnzM/6JieCRVQL2Ybt3zg5sohOhbdmWVWkAP0C7DI3/Nby9fv09IoKxn0d/Hvt16CE6gH+MDL0iikCCIqCkA0Bsv+1lgioML7iQI4LL00AIVIxPCDHzVQV9B/ETDvmtpkRUIBInCqBufARwqDjY/DsoToQ0eC3q1gEhzkWOIXyM3FRAI8tVvWo1V323Ua1ubGzAsZerAhokw4PNMqG2DBw2mk3aU6xjT1A7dBycXFtU/A6Sa53x5YKAWy8aOELAiQF2A5sBWJjBhn/jTN/HDh8Dn9fMkhrAyl1zs6WZmnPri6WSSdt5ut/Wt+CYpijYFzj4G9/cVH6/ufwECD46VC860An5ITpS4zle/AR4pMpKMMiv+qAo5EsYHYG4WwKpqcgPQHsNoPqxljy5Bb29cO/3jR+SAXI4IO/7MF3M3iJXQdOtQn6/jl/TKmh6/vskAVIg8MNP//nx3z8+fpAZwIvHzx7BaJDE7RoovTZDR2XkrDnAS4DeMr7hDzsg+C+qOUlpAJK0nyL4YAE9QqRCWlEnUFAqAxQljnO9KOS2PNLw80LYSC78lSGGaXvN3Wrz3bsN/I88bsBHfLTxzquCbxD/YBE80BQghvON9/X9Yg36aiZpoBuktka1TMkjtA9BmMAslfbTH9ubEi8gVDKkMwWOgU1vZ9/ce12vpnGmrxfMkKYPCCaK2S9A3WLLsfVK5WLrExmuJaxUTAyfEku4qZRYu+XRW6oI5uLqAlIJIVI3CA8k8U/6zU48pvhFEjUQAMg1WmDzAP2DHX8wwRZAAGkUcL4Pvg9bv21pFa1Y+7BH84VDm+KD6d5P/iWT7MO3rH/+8NN/nz1MLsAIyILjlUhImogU8t/r5WgCzfbCjN9DlwJlcipbLhvz3Q7TAGY1P+rYg6iPu5+QzPdEKk8Z84NSFFMDrNvOmapKmCMOeYjQSTM2hWcAEs9r70EeeY7XxO78O2ltgBfwNjZwVpDLZKZivV612YqijOof6u+LVtHat2C0wf+pu7beNK4tHDcXu6dOmqRpo1yqnD70JVJVnRcoPDCYamQJxYlEFFVHyKpmxjxQZHvoGRgYGqyBKAEbTGzxcKL4oUb5oWff91p7xkmbnBeP7YiBIYnZs9f1+75l77hlHRZwcRxeg99p7tZ3N1+8evFKDSRGMcBPr2j42vzlzV9x+482n9Z3bbvBinoODznEyA2HW5/t6jbZ95P9yTiSNVcA40m6dt2eR+FZMV2yS4l5JFuEph6EavJHlir/RFaSK8gTuLEHPnHW+A/iUAJ/xDf7ybOMQLQA8iGbLEpi/5JTctp9SRDKxA2SEKAQIPt/iQGW7ty99eVVBgX67LxRgq89fEglAb9jOYA57u9kVMFVMaqpzIWVR4yAVVHOlYswrW3256KlW9Tyf4ZzMYaEFLV3sUDuCNpMkZ9oBO7Z+9B3FI2ykx8HFRnqK8Y404SkxHFyF7Wm9M4RTWR6vB6sh+vrA7X91+nJFgsKvEo3vUXY7cZncQ729ogp6JOQoEYMQNmhc3pKvDhoa+UiKl1m777pPGUtA1OYiGrlV9+dpcpDG/9vnv3659OdctVmMupMA6nKHL7NmXo0B3Bsp3p02j98e+QXJT3fQpL7FhjegtgaVkKyxSBxWZYa+IQKexggABAgUuorwpGBZbxdWoZ5rCK2QKj6hy24/fMqA8hDk5DZ47+949pOs9+SDCHy85x8Rvs57f91KCAef1wKcOXWzS+urjILcN4AgavSAPzT1PghgX9FAKEp15pKLYzpMRtTKrWfYyckNQg8DtCqiF5ZZRTPZBaAmGD4VsJlAuk+0jMDBgnAOIB+4dSycJdRO6JZiKRf6e0jo5gK+TXCUG98dStRJ7L+en1jKxELEAvQ7XrJqiCrKsaD99MO+nG/16nSQUdlLlPG22/VUrkuSXY2m3pbqu5udl69ev3bb2ouAAkbys/OMABPNn99XCd/S1VqcFZp2lEgQUBZq3O1a42jMUn0fThZy0rUSpOtGYX2NWh8BtoP2wUA4bAMakACGmgl0INJmoAfV/BkH+J6gtZUFv8X+UQUkF8IM9B3meCD6zZk8M8vyvSdguv4sA6oEgFtDozHHwoUVpaWl+59c+/a6uo5RANfuvr9tS+4AfgdTkP6maT9wOWPx/6ZKKnceDJis9j4cr2h4kzecAa8ePIWMpvHBj3EPNUMQVUL6An1EeQxWLjgx+EezNdh988btbgLUT5DgMfFMSU2IFwfyBAApAPeVjeopHUHusFg+EHKAu0Z9Hq9551qw27UiWNuahDePxi9vsBT9WqhtFPvdoMXr376T7Mgp/sBv//o3ZMnjx83y1Jdn+5+x6blQvHItp3Sdm2/vf92MvEnFui8GR9sUXvfyOjxayNgdPisBINLGmGI8bA0/SOV45OkgWP6L39qHvCyv15KuP1ZF2ChXP4CooDy+Q7HOJQaoW4VshrBsOqWnPeyhGEckAV7/2wTsHx56cqVB3dvnEsywKXV1as//vCQjTbTqJ6TExnbE38+nvl/BS15AnHa1M/OowjjRSPc4QO4UCvRHlCQcV3RRyzgjXbhpQXbVRJyGsUVPA7KE7B/OjoiZjfQVDWO4N7XRuA1SwS2pP+n3zQM2OpWvC6qCorPyIuxgtnwLBoj1S8cHMSdXq/JyLafs/37OXX0wo9TgDEvGVTrdT7gW9UAHv37l2e79WrZdlmCK4ZtUMtRb5TLddt27UKj1t4+PD6a+BAWoWeypo7ZQKzcyAJLYMg1wRVKriJ4PyziJGv/KX0h0W0AIkBRNK6saewfL/6xmo0M2DgAWPb/8ywkUEtYc2kj1u0M4ArTdw53Cm5pO7nnPxT9v/fV5aU7129e//pcCgJeIAbghqgB/C4AfdL503h57P8N5oQ/wq5x7kdKxzWS0oCG7puFFMHYeQQje9kbBMhgduzYPUvhyiVijY2JqUClaCEWRatHL4YtnfMD6liKJZi2VDVAxwDMCFRwRVD+qoMNJGieSmJWTxz0y3wIdrVUs+u0PMjnm1C5jUKpJIXNeX7wjGP5nuzWm81qWUvvumyq9jZ7WK25BXe/8/J0cjzxfVY2jUCmn7b9tOnVHjtCQtyAoqXMgLLiICQAf4mFS31awBussGjcyGY/zAU5zoC95IcedCe8jsO2/xSm/dr545UMa/Tjcfp5RBNiTIGD3rbNsQBZ1AzQZzldE0BJgjxFRoH+XL7y4M7Xt67fvnrhPLYBLl26JEQBBfyH1v345x7P/nbLlEuxK5xdHM+iSKHDoUJYqu6T4pga8+DELRpRjL+k+tXsmp4kJdzGPA7WNFXE0/ARlfdLyrhRP1KP1dHKi77AYAt0BUgUQA4vxQTE71MtRWJme72aLXQ06+2DmAEJ+p16r7zjVslepqO5bN66ZxHA5pPNHSpjWubIXfEjq4iuU3MavbenFLVfxG29tFl6CSQ2wN0BgH7x7JF8CBks35u2pnD6owXJIZYhAYYg4cKMzLsenu9JG4CtTAbU//SuzmAoEP3qs2xqMIUBgng9JmGS8wcqA2ZTSoLJL2gVsshIXCYm4Nvrd++vXjivZKDvfxABADEBI7p5gkpw8lF4Cb/d3Hm3pmM3sm7zKLXkXzSyP5AgYkAALEoxlQC+nRr2PhKWIbl/KHSiPQX6Y518zwtV6phJ+H5kBPKwHNCa0jaA3P5bKh/Y6sL6osIUx8OUkN9kMA36DivQkx3t1Pt7uIFIbcHBQb/Tfl5vtpsll8uXcmtRIqm9LO6Xam7Nqbnt/f23p4fU5wOKLqbnp1ZVcTEG+nJDzyMxpSsyYFuWKfGRODV0QhCsWM2LMRea9v6A5K8XkIwuYOFbXq8UWja8mPlMh0IoelPDVojggERXvQkMAUDej070BVl8ouwEe3qF9QG/uXv/vG5/EgXQuQCi7s965FRL/eOOdslt/gkFm0nkNvYjDCUvamSwIRZT1MGntg+RzvKVTsiAGIAJgKNE/sKLPTAiTiQCJHmMR5kM1oyQN81C8UfQk/p4vY5SgS3eE9jyPDMRoCXQYJgULUO9y2FM1UtdCgiwe8/PaCCKX3Bw0Chzbj6LA1xO2aN6XE572zlkk7WKkKCP5DhwdRRL7CVejVJeOWt4i5m3Rwi7FZlUIL22kQWrOob0d4TeMwtRCscg53FLLyCz0Ys8Wk0ZDHA1gHyjUNhu96RIGAcHClOwUSfGd3uCd3gWdQXYY7MrCM50c4BctbKyTI+LF+99tXpuBQEu/MiaAD+z4N8bxZ+AiDgqlVxnGGoNBQabDWfJUq8B+4qQdqwF54nD+LOouwD2qaKc0sq/V4E140AGACPYN85MM6DvB7zHQipJ4O5yfrrR4uUAEQIoG7CV7AtW/tsdpOf9/M+9HvfhVbvdSbtQcpk5k5kcs+Ojw9P9nuO6JZLy206tt3/48u2kGEm4lJXC1TVoeRp3X1TwCoHSiuSUHTR300oXdDXsSwpjxwD9SWUPC6t9WpAGoACAkitC/7NjNt2nAtS4PE/xfszELSMNwQL4+nzsOI69/RyvsrwD+hQe9Ady9lmz75dNKQZkwQvi0hXaAVjOLS89+Pb67ds3b5/TKuCF1c9YCnBCS3hB8GlQ6YldchqdTCsMRgB1S8KAKAKyPwAMgB4oDogqTcOBgrxIPBedNZu2AZj3iOZjihH1PD75VYtF0ar/QteBMrD0r3uAElAufYXGl/PG4BRFAKIaGGx1DXggi3YGSdkiMaxgr03rUoVatdaJN86iOC4osXHhzzi7UZTK/Mnx4fHx0bHPY3215y2TbmHU1OGuLNIJvJFPPqkh+QqDeBbGIQN1+OyfigBdSwIyIysREIDJrvJfiFC4VjQ04YspyQAGDwK4EONuBJqZLW15OE0GcGD18rqwIy45oCTHxoGKAND1A8chOYCfgx49WebPotp/NpeGGM7mlikNIHf5Itn/92/cP6cGgA4GoUXAE4bnH38iJtKnKdYOWbHpYqTDgKASh6EPCORJd4XVIcypArBMKCyAa9vcy0TjAE5/rTB2H2tEtjIYNKo9hmwhYySJoSunwQEboC2oKoLdrpfAB6/Fg7SZRsN+m6Nz7frBIBHuMz7zfDGnrOaihZj4wNMXIUc3wYFAstqolkJxmX4Yxl7cDYZC78BjSrdkfTyvS56Px2NhcJAaR6qMf2RcBS6wEgO9z/xKq0jS/2sQgMof42euDcIMFv3KJBFAeBVbbSpiWo2NYiEz7/nM0Ck1StvHKprP5nK4AZCoB8KEXwT+/ImVy0vLK7nlBw/u3v7yq2vXzq0ewGd0LsjJv7zAX859oBma/WCP9IgEWLWY9WuGgUqVaTAXeONZUTeG4HcxMlh8Fuw0c4EBNWpQtAPrBXtCbm5/6KHZ8HzCC+35hyhw5FEiqPVn8B2kSoD4phI9gYEABwnKkOgJdrv/o+7qetrIzvACAUcK4StgZD5k9aKXvWgqjcUo8tioqFIkVGm0vVr1Ah8sdYVofHHM4EOAHE+0spMMTiu6m3Rv0lH6P3u+z3nPDCTa7Y0dHGOYKLbP1/s+7/M8b9wG7qJ846Fp7jU0Sq9PJW7fOb8egtUvQ/28B9+++8aJf3Ba0B7q9PRnRhxhHVvVk2Sc4kR6aSG2D2OLWmCKpMCGW2vHGCdjIgMPS99QNm1qzJwKv9frS/7HxEV2PI2fvGsKAYE/V8VcQnHb6dSH+CCORsLwN8xk9hbaKk6Qg2TNDmuYXR40m9+/TaVUyGUKCg3ROTuijm58zk+BFNAoYADew8PKPLvNLNR31zcePXq09HhqHcG+4Rjg78dPK1+1+hvl0ZLZAA46nZNrSbTL+pwhGCsHR4Tb1xNCnPMCeIaRQhHJqTw5AkIO+PG1c9k8uOlpsAGI+GNO9e+7PH9I/HEL/97c0fc8ABWBMHs/NOG/CQLY97qlDOAdD73lf/6cl+ybR1dD41UoFv7thFvvGKaey6A33mlRKW5iOuV6v3MPb9K6pZQiY3GCCmpO9dJNrRSJFrrc9dfzdWv5R75x6gDGXvqRAITANAoomINZ/zB+743N8W8BJIHg2IHLHcZGADfz3AT52dvv2MfduSyMrnyWXXGh4EmBDGwhQHi/o/jP7hz8m6lXt1Y2niyvrrL1P607wIPf/WbrD9V65b6lDykTRTWFvV1wJwYqeZlBNkxi0bQZKX09m2AkAg5grVZJtF8IbwGURDgr8OeDv59/aIO5LWYzmz2jpB9Y5D8AgHHgJ5EGBgDcYFBAFkHA++HQl7RQywAAIABJREFUYgHHOg9A6MPA10UOXH3A8EwgfwdXV/rUzw+FbZkuirdawC/p/hp7WcO1MvkE4Ywoh0vjLfqSX/DPjas6MMV0TCblAXxZtb+Yz5ncw8FzyjpDOZsXaSXW8y+WnT/Za+G1/xCa/YTecAYOE0gZgl0cNPe7z98G/ihqhICzrc6KkJ5JBkCtz60R+Lyhyl5lfuFpdWVjbXmW24JP6wbw2yfrW9Xd6oyENMqXPyRLuJlRQ22SehN4w13lT4ZSls0VmFhMNz3nWCCQEgJSv/unGSnyTMQO8M8X334ECn0sIEBMR2kmnSIN/zP3IntV+tNRZB4Ww3/FLXXzgPB9CjgBKg84xirEMdvAh3igg4Dri6Mu76Knin7s1O+RCYkshSkqEuscVKxQbY/usU+wJZExtQ5nviDa+1msZDbCaEd9jhjHKKHDMbkvi/ccHEFY17oD0GmVMbyE6Dexuh8OTGBO54xHmS34526uZlkbOSjmyNE9/F7wJ4Z+QKf/pWACdN/t7ZWwf4BBgLMJlDKFZAwwX6/WdjeXnzyZ4hRgdmOrWqsusDdTDPqhOmrPI046wZMOA26EC1M31WrbIOhT14qDbfSUElKGFhVPhlYUFY4MkTbeDlH7I2jhpiYvDQK/7O/C/H41INB3RQfQCFMYwhKzuB163GBVElSMA0VAkubVmAcBw/Mjrszr8qpfzn1LCbnnzC+KofzyeuGKkoaahKRI22YiC07opRXLIhvSv4pdnySZHwjPHZY7xDgZ9wjQaJqXorX8BGwApEAgKhlRbQVgQwRCoVsjwhL8Ty3Jz4Tx0vcn10KAUJODnLGigiZ5krmpv/YNFRDBCZufZ+8aziwuEwE2IC/ArxIKEKAyz0KA+YX6HMsCNpcWp3X9f7O4urZbq9X5+/k/mCN095sH3bOzSxMD8KIgFrYipgU7Tietu5rEex4hkLrODccI6eH/xpCFIxvGYM0XtUk9eBDYfw6JABbwy+GUKREK9Q8TDQbKAMAhBcRt4Dk4oIdvT7lZYPdcHvxFHUzkA3+R3xin5cj1raAqcqum4KPqTRKKbMd7pEui0kuLn+wC+W9jAwcogxc3K0CaTsETtyEdTwiw8CcF1hGJir2/I78vkHEKI25vAPZkMlbCM/UVU/b/j3jtL3PDtCDwizR+6UaP3SUnUXfPwzD343++gbANgEUInbM3v9oT5CFnAMwsLMwszFW31laXVme/md4dYGdll0cAlcpdYf+9bOk9lyuxd7Pf2e/+8FP3PFUKTXZjSfkImO+jdkInBR6wAQeIOicKvtE8wh3igiw3Honm8FlmfOHVyMsTQzzkum+s+cVdUEBu5pi9UIGBIScGuV4BagcYoIFfEfwr5+12f84J9NiN7vfBbd2f3cOIyL2Il0MHSBszxA6NXoGACOE20NfHGjOVHfZssyQ9RrEEBWjS486BJuaPTJsnWWqI7rT7akUFPYLzhG/mPYza6nUh5c7KNSS621/u4DA+BSgIQne0Al3p4aTJ7slb/dxWDXUseMK7ubz5wjT/8h92XLK1P1efq1XrWzuzi4tTGwE8eLy0ubJbn2fL/+GXNZGNL/24x+Xpb179W+0AKgrIKIZugrwsxdJMAppHmZTfMap0D0Ru9IVKfDna6DXVhH9IDtWvILRMMocI5IDHjqWMjzKBWCAzYuHjY5sPDPjhCjelT9++eH7Ts5KYojNmVEKY94oBrvsOgV7a5i9eVJsoMkSMPMxPBQSxqKoZDrPg16NYiaZEaIZsy722FuLHilHNLZS0tHNimz5J33VCjCRTZwItWzw0nK6oBZ3F+epnrxojsJkjTt4e9ZWJT6b1f2AfKCRxGiYQV2UnnDN9kMrRNzQg5/pr7hH+H3fK3j+nG4Up3tA2AFUWOa9srOxubSpDsCkkAj94sPRkc2O7Wmc7WqVS/imUfVR3m6XwqvfZj89evby4CoVNoywIvKbu9OQkDzav8NikhC0tKzWs4BaJtEO0LDQTOkA6kWD3z8aXR3aIlGJ/EOGr6jF/GWGYuSml+7dbMQoKCQLkBAjzMLX6dVWQfw3+BNfeX9hLG9xG6oB0ex1EhV7poJOmZkWTyDAgjFdipLkBpqQuvh9bGSToY+d4GscCWONxksgCKMvyscibkHJH1tZuCLW9RkmxKsvTRPUHJML52bAzlLaXOMosx5k1km+Y6KsVtYDlcalQ+TtdWQSBI6b9vg7/xZB5hX5Q2M2d0F8lfpedo/3O6QWo/sPbOW8T9OZXmwOz1bJQ26rVNnY21re3N3kVYBoP/9XVxdWdtfWtan1+XkAAXyeOBCJJr0L4kkW+p6ev2A7QvOpb/4YgSxKMYWMe3mCJprLhbOSrAQ1LQKrECTXQlcIUP+todjTMQNXPQ+9sdO+JR0Kv+FcINsu2Cq4QSCwz2EQDxwWhMDccPyQ6yinA5HfS5HyXXKffSeTX1bkOAkHLYsmINp1PlZM2GiVJmrB4nt/6CTtlkzRnmzIeYV6AF9EBcsVUVuuoTRU4T+CWM5KJidMIUR3Cy3Ic911EkWkhxrOHCRUUkdgvUcaq3V/odPxQsVpYOM29wq3k+l80m/sX310Wa716GgTnXA3QefdLcgAw1SuVmTkWAaxvrK1tbLAIYCrD/8fLq4uPl9dWdqtz8zPzsg5oD/6Gi/+7sqgG4EtD4vTeu6P9Zufox2fPnv3QPLvK9Gri/ODXCXJCPtFjkR1DCCVjYtpNaJaZeeDB4m1CEWp70aLy+0tGmTNnjDqkBAIKvGS/OD+cZNIhmOfWhN4YhgAXcU0OlsvHdhlmSflwQojrsQOwP1LSzOCuRgell/ZuaaxQfbMvms8JSSE9HbKln2lGvQyUzPf9IM+yIaaYHfBsK9AYvKkNaKIVElsEbuNBTG8noh0DiYhxb/G6PRDfDRhwBnvCszHGLiIRSxk3TuXrCwM/1rd4TF4+eHK0KIcAjzo0LL1EXHXZ7Vpv4EaJOSCgBltqoKcHZotlZm57u15bX9/Y3Jmd1irg7NLs6vImCwFq9QWOAgBd9F1IaaNIo3Sf/KPZaXa6f2M7wL+aTW7LZNHAIE0gFICk5Wg8GE8m7Et4WWkTGX54EnJLEywJvkokoo4o9OdP7c8C+rOCH6vqDUABOCip67nQsUMLzEEekAOtsIMGplYXcGyjgAHfA9ofPzv1CUQHk4IhsmOCY7Q1ZX1S7iyVCKUQ6Y2x16oBORAez92T1zRxF/wdtyzrJ/10RLGIAkSkpfRNNiAQgABW5USa9iam5TPR78E3DI0KW1oU9SYU8JDE/oUlDMGWf2aa/YLCv2fsYUXcviT4mnsBvjwHkZsn/7w+aHb2T26Kqp/GXvnkL0992fqff7q1W63tru/s7MxOKwtgaXl5aWn50dp2bbc+s1DZs3QI+U3jq5IB/dVQMOB+c7/7im0Af/zptHl0nRkql0gEsNOkK5bZp5DyfuDBAE3SyXicpuNJMh7f3lJ+BGGZxEqwWhxsvFQ1ij+1X1B9YGQSAjZwvznmc6USdx2kcgc8zmWhSRzyeeBGCXngTEbIQw3DvjQKOIbcILYJAHpCW+lteqRVtOSwCBkw42gVl5GDGmhAkJDxOMa8lZmBRGKjR2grdj/tw2VeFgM4z/uvR/+j7tp+2sbSeFMKaSYNhEtgQ+jwB8xbHxxhIdNERCuNVK3k1z4Fg9QqgmEkG9NwdYwqZ6jLjsR0RiNNtbXU/3PPd67fOXY63e5TXKm5QUh8+c53+V3iUQITW9jbPJkAF14TUcRyDj+K7u+P76AvuKN0w4QT6HAHcwNYtkB1pPMObTSBIZc/C1Ui/LIRQGarhr+NUB0WgmwJcAD8wABAQC9HKklAxztjP5aegV7wr3i+/zXVbdt4rgxDwGbz6fp6vbGxUJtWHOD8cvXhw/n5Rr3eWi2Vyo/bRRFPb4cWvqaBgc5JDXD416vd3e3tjwNn7/QFu4RSdqoFUP+5+RNADIJZt8qDBJqeyIYbEUOydMhb/HRUOeUOcRrrk1nEIHYIXk9oNUI/jGgPpBpQyC6o/c1+ANsEHGgfx4DPP/+kyaKxi8WluIcClv2OabQ7iUinP4CmP/cp62Ap1g7D07veKInwtY2+LDPVS9nxSMUT9IbeBnFMDk/CUEOeQBR6pi0KBV1DV2A8Doe0K/g8J/omUxwYU4TjJFIsf1T10zfyPZKBpDySq8aNzsvMNWNws5YBfyLqiDKIbVvP8yiXKGVegsEpKIa/n0zzaU9c9fGjcnmutNl82qq36vVGtTatMMDaQnVhcX5haWWpvlqiSCA94hlYyEIEQI43+WvXOTw5/0gygO3t388d52QkKmq+1AQUqO5qOD63I934BHbYFfpeiujjsbSUnP9hOKhU9kJLJ4Nr4z+ttseTfwtTfqwJXAF9OmjlutHBCGMC2c0fL7u9/+hOQvD5yUo9Hg+fF6gd6mZJBejfgn93Yzw7E3N+9peoaSsmQ6jmKGbTaQB7qbQtBjZBGPuJT0HcNP/yEWpQtBuYpTKgdsnfhd7iGAaFQ4RLYL3+47vxfUgNWt2OSd2gGQZkLKRUwV6/GrLPLmzV5rp/7FdOqCHaaagPciwF64B7FyRBpRmAeSrr+YCmBtJWKYDgDZAMYHOz2VpaaqytLU8tCuhRbbFaXdhYaj1dnZNzgP/XMul4DxTsDkkKQCLA9Yd+t3sVoyNFFxyaBmBGvVvgxO25kiPiSWgbLW6TENq53e6lFPk0CkY8xLNsU0lOs5M16UH5WYEWX5RYSCwmgQwPRB4d9X4k14KP/ZTecGsVNxoNhb/uTrE2ws5Q6OXK14W0jvTMvQOkv+dr7VCVBPgjP04DufanfPUv0NGzTcEcDq8VG4mXpBwIfVes1CIS+9p8Efms+9RyKbwbk+ItjKMxiQmRD06rpqliBwERaaMhxOBtbXpToNyM7EDNmG2np85Bd+8gsiWsW5vlsu/54ojkp71PX386tyeNAcEPoFknAYDU0dMLA5qvVjcaK09XZ+ZKsxwIkBNBNAOjqvnbW1s5LCCQggGO+WF7F0LA7p/nTn9wq8ZuLAsA4bDic0N/yuO9P9/lmtxkkWNnzG230j1JLVSfq1OiuFWcmUOkokUl02CnWVErWZyN/0ZtAGgAnDl9SL0TcuW4UtGaLaKQnfv3Q6WhrfAAXPdouKPIAc/V2Ew56QzvADdrihJ7gmhBrn6mnG9lctln3zfFfFne6cjksCPDBXVsq8ohDYIgAbE1F+ftptGijAkcUkwinejUMjNpDxMRUSuXzf29hB7NDEcAjgDUxrWZJARneCyAXiU3l1ABdF9f2brYk6UxQoKTXq/f/6WQ9lf8n3kZcDWQ0tzm3Nxqs97YWKzVatObASxU15Za6zAGKM2WjZ5ou0AMZBJREiuDgTWTc7hNU4DtV9dvHad3GsmgLZpOJMn0PZEHuNJ+m0NTNbaKcCD0/RAQvxRXEDmVf5zFKr3VlnQLa8dYGP5nLO1YF1DVnjqCNJMSFFJhgtGD4n3sInTZO7ji3y3xVGuOpQBQoX/24/FwqHS1pBq/ige6PSbS1D8mdf8bwM54HQMKzZqoJCtKUcZvqh/Kz65p61l4RmoZMZrNB8IwTCLP72CjDt6NzTnEIkHGTpGNks5QhMZ/Emap1qVAPn9cyVOJehTBAMQ6T++fAfmqd5ZmWOTZrAbS08Ggf/5+kiJI7sTXWwNUC0RWAM82V0nxvLRQoz2AKewD1hbIVgUoU2t1BkuCFAH92oW7rCAKlLfOqbXFWxoBSAx49eGg2+1fxMbplaYwE/B5m487+GEoqqeSf4poIZc/R/zCu0T9rvPDVYoKPbN0lKvchKlxgcjcpC4C5p6pEBBgbmD0o3MhKuo0uvEToU/u+mwRpQLXHufYadamuumWScQF0Gzkd6L85UQzI9hdpPBINSKkkEGyrDxqxpo4JEeZt7aFURLRzquaNLpaKd8xCwPNkc0z0YkMweH7Iz1XKQRmmINAVaSllg7eejEA8+WDI809JNP7O8AX3iNn46cvnNLGC23zUnhM9UDLczOrmzOttbVWa/khAwJPoTfgYpVEgI2VlRUSAOZEAvBFItAXuEBqXx4f7B309g6vd+lGsoDrw1734PQ2RasxBwbEJM306aTfYwa+KiHgOAFeL5LVIk1TxPSNX1Z6352KBSBDoyPLIIDk/mVaapihO8hvKjOChdZuFK0AZSS4f+Ec2WjgabEaR3bq3YgB3z13NNbxgcZ8QO8PwsUvgLqeNpTvUCwvDYs3QY4EjT54lhfTmHxHzTv1UWEYMrQgL8RcvVBz1ZXum0wtzzUWfib3n8Ra5a//9YkxanI0t6yLl0633+/fmvQffEBBFrTX74I7UM4e+Esdbq3L/RiogOVZUgFs1pcaSyvLNTUFeDR1LYCN5eV6nQSAzVKpXN4yJZDNEt8IjW01NNGi6ScqgvvbK7L+swiw/QE4AmeRLSWcZbEZklLTZyB1X1KGKTuNN7jJ4gP41TTV2D6Wfdv97vsLg8OTk4JUilGiBJb9v6xQDdTOtRItnTqcYQ0KBgrcH+3/c3/gnNkSow5lAFQ4CFkbMbArzNj9MLo/NmT1n+duhsf34JLh55Npiu6ll7/nR0mQ180Vpb0BbRYPM4NZk1naXpIptJYJkAMQkj/nSakhqi+gkgHZ0fH1D+sL8TEBNyYfOhHkLXtS1zWzTIEWdWwy1JxReX78sud0Tw4pCkAUbDwEiC8EeyXqDXo9AAK1t8zxNh50t4tdQWgCsFV+XAY9IBIDZpr1xlr14fSqgTyZry4vr9RX6quyBzBRCLT99Qzq4wHVwfxIKwAIALu7v791fnD2zkYaNUsWA1YQJx4bYnkuu+N5tEDwwiAMkMiXivtX3Url5MrKjQEnDozU5GsyIjinJG3wzixjYpAKqbA/nMFI+7UsvRHsB1XReIyCBytgND6+B1nAIpO0IXT8Rp77xtVEPXJ4nCTUBVDyRnmm4NnfrLDa7lH3ZRAg8Rq+FFMbdA1SpggALqoPODKJTShp9PBVMLfNTGzSh+FxyfpSCTPaAyuVwak1gTHIz57bLpAB3n2rFahCAoIt4Mzm3OrKUgMUgR9NbRtwoVptQACYLc2WtwxBZPO2Xdwi1USUYHv2C8wBur+xEoB2AnZf/XnS7e31Ll8gZIfoCma84XQThnEQhUmcRgFJ+cm1D2l/KizhbYHPpYt3cOJUYBBoIntt9qOZxgPLiqyAxVsqVqBEBoqXOcRQPuLJg/qtlA8BLnunhuIweacQ2DZebgTGVUzIBZG88cf3QyDYgNIJcG3ujmNSE/mflbSHnlHLprvnjUaI/myjvYPQM1xNK5N7Be8iO9MFkS1tf6EdaGnJQBCECagF+L7AbzGiMasPKG9I4Ag5aojlLCRgJXGgvFrwUUCWTHK95k9mlo0Pvs7PzgR+O7sAM6Xe4MrSYEK2bTA6Lxxnr3v+Tk9yi4TADR8wLBDONnL9N2dmgAwwxWIgDx49WYQ24NOZmdLs7LfN/dsF959RVnD/g4gArBD46xCMbSOG1KPwLYuD0qR+0ATouuD1s5/lJ9CR43zfi6Tuu22LOh7rxGXoolRnmQD9W5pSEMWKWXowQeeQha8I9RLrA/yrd2EwVlluM/KZPqfr6vrB3LqMjQgg1fHf+BL3oAl7eNgug2XRJPHnbT8SHjMrVde62E8SHSs76LrwofGfNi+3LQmX5M+nFEdH/xo/QgAWioXss0RpeFLTX0wHfYqHBp4f+cQBT/xTrZtqmZ4tdk6WzdwsXcudnhd74K0+uECuD5aKIuo0uAAgYP/dNy78igtQLm2ut+qt9dbK2nLtwTRHgNriwlqjSYJZSUMCFgKiJxIBTFIwwAFBm+V6exvHgOu35On+6cUoU/xMLUudwFbB3S2V311WKk7l1pweTej3K0YCMgBC7YMicIBWLeidJXQBsVnASe82j16hEHsg2nWKNh4XuJOxi0V7xCjdFaBIUXBDTh35N2FBgLRk884kz2i4GrP5N4k2p+Mi2Y4ztvAmSiKAHlLJEd/l4mMe5xGy/h8JVlEyigPb/Ly23vKzc7Jfeb0mQ+cZP7x8DYLf3ds0VwBprtAvXoNo5XvU7v5b9nvR3cezc3PN9VarvtRoLC8+eTC9TQCIALVqo9lsreYDwP9Kkv4vdVfT00ayRWMcsAzJ4BhjghMPP4BdFtVyyyopLVpPQmLDNqs2sQSyPGKBbSSwwe4IoTA1UkYCpIyI9Ervh76u7vq4t7qc5L2ZjYkg2LTt/qqqe88951xwpn7vps3rb471+E+xgPa3Ie10aUfQAjBDDdafzCBTMQEYy+byDk5osHrhA3kYwvhBRYC43b8gNcC6HUmOVwiE6YpooAaXwAFO6MSwjTg6HiZ0dgoNP3RXxd8fvT87ypMh3wPXPhEoJL/fng0YqvihmIfMQ8qdkL9unZmG/JhqA7BzjuYEq0woWPzx2Ww0uhWMgU+CQnx4liKgZ8nj0aeYDQbMqqtKGA+cRHW5ORT8OVo42/ul7qI4SjJ7GkaxA1QAsyEbiVaL+18crsA/c4cbN4BCYafebDTfbG5tbS09e/5soWOA579U6s3tnUKp1Mp1Rvj+tzM88lLLxJtQTAH0SVCB2m0zBVw/DdOmt+MDietwBEVL555MvpE+4iT7ljQ2yP7q7v4ajuM0kzAYPrF7AEIGj7MaCEhCuNk8pBFwFGdwhASKGCAtAqiJglkDZZAMDim2B1pIXTyD3GFQVpeiPOnjlUr8pqp6hkE0wt18eV93zkTyOWijxaBbhlIMAc99eW5RyYSZYi7T6KBM4WKWhPrJQIs/xaMRGY1UCMfUWeFQ8i8/TrMwGSEw0FN6DY5LAD43hVh5XOfinupE53pK5MoHDtQ6kv8mHaFV/QM3vbD4PugO9+z2oZkjoJAC1ovbzVq1trW02OP/2YsXryqNxvbKcumfsAVWIOlpN+1tffOYFQHaxwoIELygkJbDaDxKxm6aXkqtIEDWkkvMwB0q5X0yedT56lVAV+nFgTHr0QZgRgIopW/i2wBGOpdkXAISTBmHiV851BEwV/5pfR18/PihfAKwN6VIZLKtVUoLmKqhfvje8kg9BHp+ZetzhjoeiQRBVPx8o5lTxySONt1/cb4GEPTkGmBJN1W/ZGm9OWb9MB2lltxOuqxlYjrfz86XOj3Z3KtVhg7LEaU3VDMty1z+9IVnWcEk2wFZWPHxZVMXPkP8GNFXizB9Q0wFu4fS/p25stlWEkFkChKY0Cjo9L783xqA7O5eXlkuFJuNepIFVCqbvyz4BPD85Xqt0aivtAAPwLPMUn7ADWrlQYDSv3uiv31weawX/wwJEFHADe1H5bATjWcgIwRtvCFBzORxJjGQK9S0k0wA9Dy2a1Ym4jNv4Kt7EyXJBBoJw3IRKh7ZKbUFGYgQ4OM+PccYAAgAZKu00W3GezyzqbI2wV9afOpqn+jVcXYri2cAK/WNEZoZenAxV78xxA8GKTUWBsKXSlNFQgjOwInNkgSD3Z9jOWAl8kacR5AiES7++LIwfLDwuLOQYCKW/9R/hsD9yu0zG1Ia9MPTltUOwGFv4Vj4tRlAYaVQKFYqyfDfrFbfvnqx2BPAy/WNWlNYAiUhgJX8tH4SBrTOU6aX7NNAWDA/aC6ACAQyJKD9+NBNuUL7w7sYRK4cjznM5M6b+MW/lWmZ7p6j3BJ2iyMWnSTPFfAd7YOtT/kBszDdZPbxw/557CavgRtyICz5jGffmVQ/Hx3JUtqh1kQrerTI/Udn8WBgdTsjmORv8hiUPpujmQcI+G7+BDp/NmOa508LIX5unBMzmTo/GX/+fJqCJVrAos3MN9i/SG6lJLifIEKEb22a/JsFQRh1+i0HCDgH+XP9TWAA74rN5natWq1ubSx2BPB8aWn9bTIB1Is7mgnkOez/kD2y51RPWLzq35MpuZcahLb31OKvwcC9r099kSNEQfdcqIV9i+vtQoY5SmHF110y/leHN/0rKQDESr48i9zZIIhg3I5jBi2gyLkGj4yr2ccTWh5jcp0lSlQufCMhmz1SVTNlypsqIg4PQS4g/jI9OjREXyuL5zjDhZp+WCRDQAa0PXHo7DkAz1yIPCwQcAyTgs0YQcxK6/LNY+lwW2tppjekW3JKG8aiAECDaCTrn6ifIPzE8yQA6ER/tByW3z/xw/xeKiT5f73YeLNd2VjwAOD52sbaVqXRaIr+gP8QCODJJCCZAC47NKMDWV+CG/jUFf5syZW7uJrG5gLDFUYV7G3FL8/WwPhktVxe/fYUTiDrlfskt1zkmshhOwB8d/kmDuG4t5jRBMLhLayC/0NlGUBCZ0aRY96USR7NYDAV3ltn2UJ/KLCBoyPIrBf432GSMHwajQaQ5wu4+qnwFx6DzvpR4zNuup8Z6I+YR76PxRPgxHD0w4xfA6/qkMly58Ad2CVJA8j8QNGF2xGALN6ob7tUQDRLmGvFoD/aj/piLRkf4Oucu6yxAKY79M+/j3GVCvVisd7cKdZevVxwBOCXjbW3tcqbxvZKybGka3dg95yZE096oH/yaSQswsP7J7nyK06gZAXs7R0/9XfDDu3SoNu7uxqpOpRR72PGYH4ki2bw5e7D3n33L8B+0e0BdA2LY364zyWh3Gn9YfxEAT9Gb07cxiPsX7t0H7cY8GVXC7NfBhUTkYDw4U29+jNif0qBPjyapjTo6eh2xLWjl/Q8tIgKvm/WWo49tLhecBnBDfKMMxKH67GuaNorMZpJOTbp0T4iip0pp26uR6m6Jgrc5xYnwwdYP5NkfQ48/8BUpq6btmQxLcJSJ6CoGwZjAsMNy9ZB7FWctg7tn84JXr28xAU/p/UApdJyobCz3WjWhCP4gqcAGxtbm7XGdrFQgmogO+gBE4E3TzOMeokk7/ZFtGlJkq6ve+09SAjSYUD7+OGh36E0XBUGAr9NkvUOppWQ1cIJ7OmjgsYJpeVhHb9wAAAgAElEQVTOzWP7a/9kKpfeHHCHECWEdREn3x8w6H0HSAbr1WA0HvRoZ4bqcdzeC1tiRwT3OZ4lE8HtIJ6eTUWVbzT4FLMYe3qZiYeTXIxCuIPWQwgs7/kESKYtQhDXL+AO5YCfQz450F6aaQXDqyRHv3JBBQbyYTZuwGw7D4a4TrZiOE6NQC7DcJTTPHOiAzKSykeEZ+Bl3tXSy3XC8VxPqgfCPGu5sFOvVNeWXj5fcBrA0tpWtVrZruMO4Za8z2vlZYDIOcTz7EhANE8eChww6AzbEv/LIoC2ngfE/49fI8HhonQ3olHvYnZn1aEctt3m6WlYfr0rGMffeqn/sP1Sx4OcHoDMlQrM6w2CYwPVckawEn3nxyLJAcFufMqiQ9z2QPSEM/vcnhB7T8gPjtJ1TrDJ4VzSbc5ay/XB7tPHf3gZiI+J/7YDKOH51xHLzT0JA0UJ8MN5XumBD2rWC/sh4AF7Oesrz3LE8tBUoRqICzFwqVDcqdfW1tcXPAMQNKC1rVql0dwutIwnmIfmPpQEeE6jkJbFCW6lvcZOPydjW7ABjnXkbzIAPQtcPz51U/lgOYp+3Q3oZHI3Y4Cpy3MuMCbrHAe0XO5e7+1d98P+FZj8udUFjEOxL0AM9BLJtaJADTx1A3FkUsdhagtW3jtaPvftvFoT9DEKxgxZUZka6/yAmDrkHLMSjgsWYGDAyJ6Y8wf76TpgEOyg68MMTDGAOKIT54xSsfQaAYYc47CcWIpku9+vdb0IGu4mCjH8Tz4TtSa6H/Qk/wG5O6FU5u68E/T2L98hElALCeA9zyYDedZimEW3heWVnZ3m5vqrtfUXzxbTDsgQgZa2KtVaJUkBlgvfZUHknJK9ORunrgktUVM4/SwCfNq5bys+MJgC1HPtvePrp5u0KECjXUpXg+7wZDieTg8G3GHSzeCKw3p09XVZ8A2vkxhwfKAbeugu4dzV2sNa+nzdCQQsOkR9ECPW5ugJNQSvwuAiHcycGd2QbVeWZcRwRQWmpsodi5k1n89Zd0HyrN+bI9NPDQTIU8E1vca0POH24s0JeJkPSYTEceIYegN7Q27FDNxswRlq2k7MJ6ErwvMRAWcGo1HneBzRIKTR/oThdu++onGpl8TDHg16w9O/wQLSplfLhZV39Ualuvl2bVHtgAAKkHoCFd8VRB3Q+18FUt+TTJdKQhTUoVH02Fbxv0oB2m0wBaQc4ftOWC7T1+JHGIRh2Dnpja8ms5k/wEsPoutPkllj9SkzHQnC4dRy+tZMU7vq7RvakQ9qaMzyynMS7A3LCGhnDqLyB92V1s9Rh4DqLVdiU+AA1EL40NgH1vkc+2UVTEERAJhiE9sQgRFbVWPM0DA1yp/vr+DnFmognvAtlzXoQUxQsQK6sau3ZkgpZmEx5vPjD1FIu+GfVwPo/s0AnUvdCXdJqiCFQN8b3t7PFAFEc+DtZrNRq24sOA8wiQBevtqs1Zp1LQbwEEnam8eYsnVStj+wwBSXT4fJDNCj4ee0VZAZ8kYipBjCIhD4dn9/2aGryYUqJ4FDEIS7YRh1g4vxeDa9uooZgyq+7KewBQk+f0tBhocgKN8dEKsC5CNVLBj1QNmLtpPEU+xSLRe9fKFa24RH5d075v+Xu2vpaRzZwh1ewYFp0iEEaBryA9ixKCslqxYW3iDNL+iVLVkKQrm6qzRSAuEhZUGgpVkQJKQgTf3ScTmJfc6pY5jpuXcBCd0Ekpgkcp06j++B7MjQfk1LZkHK2QdS6Qum3AVb4kOeD4nMDJkyme0uBg08szEBBE+LHAVN8m+A1c5uCfJuxYMQHMeYKLPTtyNI20VI3pcNvet0BHBitEA7vZFg/Z7zo96ehcnJNHMFe+P0dXNrTJcoAqVUl5VGUgDsL+7uVfe215fefQD4vLZV3W2slMvsJ+OiBglHBGaDg1n/ydcfSXUfdVTcP6Y9wOy2NwMHTTkDj5PHOIoOdioVw/Z1kliQfAuisBJ3u3E3iQUXo8HF6HIwuLm+GYwuR7GqHBzMAMfjWKnLG8gJwopz+IzCfh+CBfvQ3IOHz6X/nao5HwhX07blAF9KI1liQluUiBCDjiGExY+XBClDLfQs1iNui8D+CCMcirdwIZghLevuaVszotSDNhbAJyHtpkWWJgxO4yQA+PHJQBR++NOvCxUm28nwKNvMXBIJWq3iDQ6e7sn231xs7u7t7dbr1b3N9feeASytL2xs7e0vLpdbRYM9a0JiNQRcaxJYXp4qjNzfKb+jlD9pZwEA9wDywDBjCrSfx893oXIqJgA4SQbhHJg2r3/oJFFBmd/tRIdK7VR8FQTOjjNlHU77iY9KnQ4EIJHhPN2CtGpBTcExiA1qz+Pj4QaWOcGCg/NbKa0VQCxIUH4P8nXGoTznKdN0m4rpUb+TAqOj3AeAgvg0EdCWjB+SthjUYJoHgULEx0NqokciGBuXXJvdNmzXVNgBfJ35xoXi7KRHooOkgGx5GvhREP+3SAPcfa3PhcqC1dJKc7GxX63VanvV+sbS0vuPAJ83a/X9ZrkgBrbc1j9XCDA9gGlE6Sa5/FkUqDHpAc5uezASzMaFbYMQeBz2O6m0oEqWeMUsc7P8zU/Tb45zkGQJfrr+Vbc9O+I4dioGGmzbg1P9SWbgbUnQSovawyrVpo8cBZWTa85OCOkSCEx4lxzFiDnZGfAOEi+m76ronTFmKfTZrF4wVUggMixSCGGjESzMT6E2gRCsNxN8Pp4Fzf/OIIx8Y0cdDeSr+AXTAYiCaF4A4JMVn7hQ+Y7jw6RqQIv7e/Xt7Xq9tra+9N6bgKkq0Fa12ij9CuLXfbNfchSmNgF++OzRDMAD+EDPQ3lAainyMp7cDR+HHeWEfrr3J0EgyQxMEEhu7jhOEhKcdHqgJrNY4j11fD+6+KEhEi1vpGmZGwmDM1/DXVdnbel5Wq7hvC2DF8K2ucGjhE54DQppLbCYmIbg2WzXzQXNM5k+OTfFzTQTQRMDzzPni3j+kucQQDCrnMPvtGAKY6IRzKXpGs0b9NyyV2ZkBFjk6wwgpG3ZMY3+gBZQdjB7VE5xyA8ikMhh9uKSh97GQWBE/sL/PFDj93wykj7lOoqiJFP4BRkw61HLxhao8bW2uVWrzT0B3nsK8NtmtVZtLrcoEpACIQvSIpfDD2QRoO9Pd/LhFVryXr7uYXvA8zLO4Oxy/PQ8vhp2+sl1GKqdTjzd/6OKiiqROjycpglP2RGGsfK/X8L0F5AJclwYKZslkRSjNqGSONVbBWySYx6O6KYGmERFHiR0s5SM0DEpOgTE/oJOgcBlCebS4fKHvBtJ7JIIuQ9yn6UlrAQmD1bHXtvtBk1yBymAOQORJBaS4QTmg5gLozsV9P3oBnycGjtEpV+/n6aP/Fm4rl1e4NJlFLJLy+WV0m6SAdTqtc3P658+QgBYWKvV67umb4dbepA3iRnSbgvfCTXUc8DUdGQynK3Rfjtf9XndDxc/vKZr35sND6Ypgdd+uRpPXl7Gj3fjyXA8njwnOcJkeOjsOJXH/HnPneDwtDcQcHwuuN4wshXVEokEYUaLKBIFAXecKqeHtDgk4zhOBwSS+g2BNpqmLX1yRC2su+GhNfUClVRli3mXYCuWdIhChyuiEIhI/hyhJzKNDvQhaxYKJBEAa/pTzzctgMC/mM1+tIS4B/CJXIaGBvRHds66oBWIof+cN0gLPs9A3EqL1Xq1bgQBP0IAWF//bWMtSWf2Sq0yhEazuEiX/7FFpMHdHAuQZEz9FKwdRZ02zPPp1n98jNHCqGKYZwXHYG44+91TZPoA0Ut2QK/9GAZ+eH4NcPR0DoUyaJ6CDpBwUlJVPEy6S7+6yjm9tkXsLEo8y6iH+rhS2rZFHPMXdyGJe0EOmhPEBkkz9bfMKXhwMKE5IIQkcH4NGqoFngxZI1NTzIAGRmYwWwF5mWZ9GlIQyInyk+UfRjdEboRotohB6Cs/GLLuX27eFLD63RZVyAwBWsvlUqNer1a3N987FzhrAaytJQXN3i81Ad74/RQSbIRYfBV1Jh6lBHnMLUoaAp3D9hw4AKDE3jitCfrgUN5Lx3ccozgkkUocbhVrtCWRMb2mZHnQ6iY75uzbpXIqF2T+nhGHgTIhyLnhEALspwjro0Xegteklymsv0YVFfJWn7ZClhZWzY/tk6BCgxaC4heAhLeA4EuIU4QcPmSwmDU1QCcyCziwnskDpMbwaDnqGVWZsyC4wBKgFH4pBsauNvzz6A1k69+46a6ulksrR83G1716be3Lwm9LHyEALGxsrG3WqrvLtlgqL4roYp6Qa/uJwDLAQIKjtA/gR89tmPbjvb6gGPBAsTDd9efTg3kQeInNhCB+RmnEuKMq6mz0I1fphyeIBuef4PJyhFzTgIZogWOyIvrHd0fFt0SFG0OMbBcyRMHNSI8c8p5I6BOoDZk7aiptZM1A8han1BYpUkpuIqfp72kdhSRU80UuBEVl4UiIJP7Ri+C9QWf33PaUcQM663auBfYSyMNHGoVuz2M/iMN7t8D60221mIE/pAbn6yFZ/rv7u83FZiMpAb59/iAB4IthBO83S+VWi1nELqFNtYhd0GtyYfPLz66RbVbBcOId//srjQzPgQELdK7Qo57GRnu0e/s7a4tljbxY3I+dY7Nzpllrupe8wREesmFtvgJdLAEFeeQr0ljyNYtMzYMJxBtuacV2Ycy0nkgLExOBIn8yXuBfcsbFkvNw570e5CCVl478eMAIisF6aRREftS5p929N0wAXA4GtJrOABebKyuL+/Xa9tq7JwNOVQG/mAKgOaUC0Km+2/oX1yktyFzu0i5Mcn28+udL3coUkLqI513FKUrg0fMQ1uCpq/zK915WCECim6X3z0tJsOsNuhCDhz8kNYA6Z7xpJT9d5+RFcs97zVtlYGEg28hUWCU+8jYotNwtCg9Q04go/2lZsFSZ8MqFMN6AlXmf4DVkTZkkhpwbCFAYqN4teQEaFxE3sfoz7t/D1f2rJ3SKb10xlyMjBvB5Y/NDBIBPCxub29VGqdQqr7b+T5ejO/8sndhHkzbiA3vHVu3vsX0ASCP20N3e8cRJ2cRjIjfgvQROxfHj8xtNHXIwDl0QoRk8C7BoAfAJ4MQeKKcyBwMKG5TG4HUl04vPnXlxIzt3OMZ0vznpGDUdSaNdWgdhaAHylcaCsH7mzYdt/SbacoFjF/oMJCYmBHNQ8D56QagCP6nuB8J6lfAVXUdBFPX/Z4L3hgfUbDYau9WtzS8LC0sfogZY/7z2rbZ/VCqXV11LDdxSSmY0wf+Gb8hRPx0F+lHcfToukAl85Xfe3FqAiAnMJAXiHRNdjDAAvjxNjIWoH45uITW4IN9EuF9WxtKWGAXb1cMgVM7h9dxZM9clINN8oVEaYoH2OGC8YFGuLKBWyGLxTYT/Y/ZgTTZ+bafxkiKR4DNwfiUADilHCejCNwo4kwRlKZE5XHrI21h1/FgFvdMHqNKkgfRg+pybM+V3cg6w+4oDyCv/YAqQRICVKRLw25cPsf5NEbCRRIBGiYVAWDggIphEFINIWyV7zPL9XeyryKiEGeqOZ7X50E/FuIC8IQiv42lwmSCM0fRZj5Hj7KhwMGIcv7V4bZ0wQ6hXy9LbQ0eFF9KSyOYejeMQmKAJtlznhpWMpJmWVgtCi6KiH9+ti5sEr4KJi3sMGmu8W9rfSP3RFirTBZ2L6bcf4Ungq5Pw7OymGFRs2MK95KTr3lPLe9fqBrAtP4YFUzaX5WZjr7a1tb3x6YNEgKWN7W/bX5vLtK+PET8INsF7J+NvIACUS6XyzyDtBPrK5AD8FAAShrNmXzsv+iGMOPMcTP576lcMPvhwDCuFGaz4pd+tVBzlhxc/5BstKtxDY8kvjLlmRo29VJWDC/vh88WlJW3zaTDSp0aeMKfN9f+sQIR5yXaiwtIa7dfP8RbRowQBTdI9nFNAyN6RpkQCmrTYMkP2SxUasDbP/dR+NowuGU/YPFrd9KIwvjtirMAw0B/2/V0CbqX6YKXlcqnZ+PoXd+fu2zayhfH1+knFiWXZkuVngDS3cJdiBBEEC0LTGHCR2hUJEKAhMHAKK8TVWwJUmKIBF5IAXyiAmX/0zvA5Z2bk7C62iZXAelHUc4ZnzvnO7yseHh28+82JoPkE8OHsrHzKgIFrkI9aq/H2f7CRqiZKgnlw4PZ2/fOTSes2BrbcBRvCO1qD4wXDxICmSRcHWoORFM5J+E3W+y70I04ev1gWoonHbNOlADQARzzLl+v05wrXIZIYbafLV5+8hvZIlfzIRQdClevRV1cNTJniTj7y4eairojjAqhSVJh0jpEOW142iKRSAo5oIPVb4T9SiWKA61QYxsYy2PZU8bvI3/G4rTebk7qo763V+Di/VgdtwXXxaqZs2dz8XDk/Pzktl9799p0AG7kWqHRS2dqugUAIRD8CIaEmdlNLzMLSHdC5Zfpi03HoWh37mY7MqEMY1Pb57D8nEYycRlMxkMNIATRnpuvVatWeAYlB9ud51ozUQvjG+x9Lm0RSNrhYsA9VsRcvZE1H43Vp01BiNGhuacBVEkNJy3omYlcBCzMEPiiIVxOzUsUUgZlodhjdTg4SzKyAEYf5ZATQrHcvQyVBKlAQMt1TIfRb58ycRFPWvMLBUNrTF8i2/zBtWKGqCioiD0cUSTOtuoRCPEQvjjxs2A939TovVWWPUTLuRR2MA/aeaAXw8fS0QkKAcung/RvJAfyx+65cLlY2/7kNyOsbpNvcPZlGpN4wzbmTMkCYir6o/pEkAjINMNNPpGkDV1c+XSjusybXFi9mLkUMKLjQ7foMoxrJ15srO2IRb2TOdMMGt4Z+gccqZyvIdaZK/a659hkk6T1mwuwQSRzPRTmDxL0LvaoLYDqf2eYdifcwYsTRq+uI0OUNQWApfFMMGFx8ObyR0NA0bVPHLvbuOWNJlZ1qurqBp/+Ky02KAtimS9nNSumweFgunx3spa0Av/088P6sVD4qrklLpRAJIHVSXF053YH5w6dHM0rXkX8MKlhaB9TkmmBNUgWITkuy30+Fi9agId1CawyWtqIoegFfKO2uPw6SehrsFgjz432ifctb95kyFgBWZleCrqIYSv8VKDfim2Wy9l8ZmzvvyA0B7pohaSOen8lJYdNmZeb+TFsMHpm2I/NobQHfFQJGO3PEz92XwRoL4j8lPUPsa2A6frmPjH11JLLXdQubV60ReGPsC4hsY9yHqdC09guPy5oMBJbZgpLwf+vjVqVYPDwsHR3sv38rEcDGLu0GKq5vc8GPcInTAHJ6wdoKgWA8baSKoCgPoJvmw0Kj6/9kGe9EVMA456clq4O4ezDaxtFYjJCTFgOcrLmw0ejoioGtS3eg5R4EDUAjHvx4ovOPUsA6zQf0Odl4KOQGVF4NIL89O7u+MfSCx6F2WUo984NnAn70l9wMhK1YoQBSObYuYkazgPUX+HksiFAyBwkuAUJrpYpErh+bBAiRdCcqCxUI+WeGbzn7pKLxjy3dMnuBKv2u6KZjzzRe0sVnjc8ASu1/V93GFLS2t7fWK+uV45PyUfngw3uaA3gThYDdD2fl4sn62j8N9v/GXVPqG04mAdt042WAE4/+aORrcYWwkTUBO3ESMAEGZmm9JAOQbBGP8B8WJYVYhWWykdMQ04Gas3RpZ4heIMuBS6tLLQiEgFV9RYmb6ABXVNYCC1/g7lh2F0/YE59MJt9n3IVXvyzgPoRkbYOI4/CpcrkAhBCj8WjU7/t9r9sbDq/lpB1Y1wTPD7IQLMc3REgVPXy5/YWSom1yFrR1o2VgvXXVDcQqa/qhjDzr5TFtSf0Xov/sysfz4+Pz09LRUfHw4M/dP97KibLBaRZQooZ+zSpZdsxftX3eFxABQijIqbPgV/X50TvJCzJ5wPQKlwFIqWLOD5sCwpTIiizbms0nxtPMYuIqdBFiFC4Khu563f5wHEgS8jyOEiFplhw8wMeKYXmCmo6vMUjlgByXh1fKAUoQb7CtSng+sMNQFQx7VVXse8g3vB55LjnKRtUT8mWRRdN9KO+XkDw34nOWwqXU4Vgiv4T8EiGzH3ZvrYgZ/a13L6Ie8vGvJw4g7ATAlvpqdUnl+ldE3PrO5tbx8XHxsHx0Virtv5kc4MbGfomsas63tnd2ZLl/aJPI3QjrpoLh0k4KU05lxp+nbvTDoo4hSQufpgE+IJvGk6ACHAALyM41bWEqSsEoKAuwZRxGNPKIQRvMZzadAcjGlDZ4a1+1ur3R9RhxR1W+Sy9kyTYhk7yONhn5fo8cnBRD711n+CzE1c1l2rqcERqy3oPiYZLtEQih/U2Y9TQAv3POnjtEUMsccoyCXBQ0vLUsPTuZmHxZXh8UAfIERfJOVZm2IgRGillRI0C52yCc7VjxQ5iWL1hmQh/b8aSk93N0GIIm7urQsl+md9PHx5eH1mO7Q846j0/Tu7s7UNwWSUA1UR8Emt+2aRZgbf388Ohgf//P3d03UwTYe1culkrnm+QN7gjN0rxMqi7xDJBlC6BkKKWN0FRgxzTjKo5uzRztVT1wlidgNEDaCuGw04lwgYVJ8ggNnOWqAodaEk46lDxciIIGiovCluV7vWF/mBevUCgq71QmiI3+j0fDvue17W8WxmZVp54GSi+AphYSTR7bkB/vMES8QwbT4sdiwKFdJ6wRAB9UlZX5wVw+0BSFCEbl6L6LdfZkP/+YkYCtNZJVH1QElijJe+GdUaV9gyrvRgq5xblhaP42AtMwIryH0Rpnsx3nYqIOW/pDxzYsmwQKZPMrA8e6QavjvtxNeeaHQLWpy/IBkSHA5iZ1u1hbPy0Wj/be7268mQlgf68UTwBxyiTP3NUyYkqtzvsAZLMAN9jrvBQQuquRZ5i6j3QNQIMAPHvOM3ZACczW/mSwIM1hbYZiORDWlWrUcNTQ+BpidOxPL9JHO8/LeQdbMWNUoUcV8sdWDK/p+33fH4/H9+p9EMI8FLoPgyC4H4/6PbKRd9v2yJHSwmaMMI95xQW37Y6QyhM+RIB/2mSP2BZ4qb99KHb0p49lowhxGYBEGRB3sGToRym+o9e0dHhyf35ZzHVs0tgGcdhTBLxA5fRuEWHAS5MQywDlMrHsjjy6KHGxgW++w/4fpmjj0zTTt6Z922x6nve1dXPT/EanAssic4fbemk/TeHPG/yKgUwYtrvQCWCTEkEq5yelt9EKnEsBT08PK2uJQ7jE6EdOCpEspLgKYq2e9QRHF3aiJdnT00MkC7Yo0XHyQwPlv6gawPsIasBMLAn6s6kjEQU5M7LP/5Dj+pwVBIPJBXoULubLiW1d2IWqTmKBQkodJ3+sFq7aX9verd/2ul7P9/1uz+t53dbX9q171TQNTKXHSuEyjiAKF5dV3Wy5E5Psx168mD6D/REg/qLRPezHAWqkkFPrM+L5LLpHK9bhUMAjQx8gwRMh8LAunJZfvnyZz3S9PVYFZI/QYiXAlvlcgeQjASbqaiiCQOK3McQWWTm2LNP1eW1hGgYEPeum1fa/349REKDgHgVkKh/53fY3w7qi5gDkP249PnFLXDbxxdNw41t2IkU7PW3RLMDexluaAHb3isfnJ2uZO4jcJ6G2EqX0KyfRncwxkM4A5FOeTuKf2QP1DlwOHDb+11jejybt/+P+pDOItnQVSgs3n7n8fyOFCPG3kUBgMJ/Yiq3EI5mGEJHXgGJUIw45vsCXZFq5UKqXylW1icnAjzjnlFCukCufqnQx05m4rdli4WgT8vzu3Hmwh4IpDsMYB1V0UL3KR3oISMGwHhZKjpMoVHkwQEZAZkvuKIAaBgSrdqOWZPzr1k8yA/ykvitjxh1UDcWSvkQ4BYUDIauUVFkBZIZwRwiuv/LeXuo4b2DXvvICsYgZ24YNu/736yBAKDNbToyXg+F37/bWoosCw77C9uP0v7+E2zP3RD/hzbUtMgFUDs/e7b+lAIDOAGenJ8cUCcDjv/8WRr32l90Wa7WOkfy2LGy7zwMHwr9WwEIb2mp0KD3GP9tKZBhgOhrfGdjgOwUzyJijDZ6XswdqTazjy2ho65H1ULQ2UOh4N4xClUQIuKDE0wNZMFRp1K+b+qX7sJw7jhPXGZZk6rBmg8FTs/UdkgVhJoE7BrL8cCR22mYOASHL6BaCbeC1i/iuXdDflGcGYN7uvqVLTzQEIEEAiXKu8+SEiFmSCB1DHlnKqA1DxBuU5aEFgn2NUe6wizFd/mPjZqxKnE3oXoLR/7m7lp+2lTVeCBBCWgIJrxYo0tmyYzERluWFFW+QziJrVrZkyShyL2dBGokkOETKAnAlkJJIkWLpuP/onRm/5psZB3rvLlBB4hjXBM/n7/F7pG6rUQD0WfylP3zo2TfWFVETaNnu6wfHgQmljTIBC4Wdw8r27vYyrf/Pq7snO18vcAZAmvUiIgpgqQWWdJ0XBudkAeoy+/XL27cuTsdw2U1ngubY+bgekCwCxNX9nCxZ/Nn2VLZgyPnBdPjo4FRgGsznk8n4HOeXZJXjhb+la1FdUKLhYEvXkzShpGu2eT7ujoMJGGU6AU4hTHvSUF+vWwNwb2KgcEDxjt6qfYTEmtcXUIgoMhfnJQyhajfiLAIZK1CZhiBinMLR8Ea+/jW3GUcAowfPE4wr/YwDIWiXAn0TOPlkKBJQOCQE80S/d02zE71tDHxIKEpVClJ3d0UR7B9iC/afw4e+2SbEdEu/fr0VxH/rEvXL+NtK8XLl6/G3nWqtVtteqhKgUitXvxU21i+LxRx1P+ic9C6gMgdUzM4OLl4s2zRoDoBvpJY7dfgl/VHhUGaXoK19pxfs3FElO4sJBWtCQicOXuBNx6PupD0f2fb3rmVr+pZ1bhqWa9uGbeuu23LH4zm+y3u09+CkBgb0eCMSHlz89MW+uh8IHhiKxP+LRdJIsPT8LVaRmofIyfoihB/IFfIuhaiXs/418zcNAL/xH2oAVWX4I1AAACAASURBVEWRHN8k6KjkOXcBIXCJOUj25ZGgSHEGYN5TCIBwAIQkrU2ZGoOPHgembl2ZunZ1330BbmGLLu11nP4XdnZOj3f2DstLhAIiQKDdk73jgxWcAqyvb/4J3K/+/3CFbm9pwWlFcd3tzpxFauFqjm4Q3MFxI+tAa+LkSwypeYNHuoadGHnoedMgmE5n80kwmQWz6TSYzSa40HfSTgXvda5SgUJcLUxwMnDbMq77voIU0d9WEM+S+IdysrsSwS6J56GSo+jFbUMMFJdNovtGXgDQvCgFCHAsyDc+RyKgSTAelIKIeMSy8O5Q7yWaLJqW2RFyHV/JablA4HLmbuwPnm+uyFTAbJntXx+6fotUEOzsuLqDU4CT3e0vy5QCfC7vfTs92NggRU5R1Pu4rIt6CjyLGm4G2dRm9nzzEsACX0amputZr2k+bXDegawCIOz9qczXjCukTslt4uh7SZuropCocBSVO56aYpETALLK759uYbOJ7BTGZJo4J3t5feOc6BEiiQZ2biMe1Mu8YxmUE0pH7goHX5IkAiGDJYK6W0yI+Gnnrn8rygCazbGmPwhOIaHg6xlKWY8S4qAiKpnJNM/wvz4xAsRXS+v6kVMwiBKjUMoc5N49Jib4g/t/XJ1+PL1citAWPm3dpI73FweECbR/UtleXaoAQIwBCmdnxMdDgPOx3H8AC6rLVJVE2CBUXeH0xV5TyJlOpALcudeQegbyC04sE5K238wm+D7rqD1Tc/WGofyACrY3WLwA/z8m2X6OoRH+mJDe4WhKu4tjrWQ+ZG5+IUKZWh004kk3AHoyQhnWDm4PAXM3ZH0IGQug7JAAEyTaBdHd8hqATA+g2fQsqsMLMEgo7SkqiNcdi4FOsXdQmJ6sKAoeyh6mu/q9Fr3/a9qPYeInyOooc1zi9A3P3jeJUeHjc8sgcwXdenrLAa5kNQBd/+tnheNqrVyrlXfTALAMeKC1yiEuAQqFs2LxDwUA6n/OrmB/5PaNxZySbuBoHHxAMVy+ZKPPMW0DWNqTlxMBGu9rkHMehvlzCf4V1XP1o7++j2hr0ZnjC/Z5CNvtSAEd+BAg8xCH3E062WnRHS9z5Ivq5qkOoM86oabZBK8lnuHxY4rTAK/zvAAwTgJAc4J/ozSKhYhxXon1kkLEC54A1zIEdk9skzhlwlTlI4zNg4YUnGiYphFDLFCGyUTZiYSsOyhi9NboL4p4iRLk3/V7V3S02Pq1+GrfJBlA8XK9sLNXrVUqJ4eVpeoBrH3ZPdk7LRQ20gJAdEWoi/xIOW8iR3s9yqM2mcnr7VuXSnWllxkZuGmWNZ4FHGanAVFAUD6QTwa8Oe3dW0fdmXSaAFJ/iBVqqMC2ENQWwg6q6FRAcoCRtmVYxiRKIYKOod8PIONWoMJxpXi8wc94woJPjiiDxVcMwpCQ0QljHrMcqLbW7eas/266/ptTV+vdKQsKfSTyjlCu/JpgdMgrpMWv9Cgv6ckyzB7i2/wK8EpWkExxXewLJIHo7qFF9cVt9012HSffNgkGGGcAhephtXpSrpRXlwoH8Onzl/L+6cHFxvql3OEjbzRw+WfeCptMD+D2ta1HKqGG1TYs+oD8IUggMMfjqYQKxNzwob04XJBTCgcqWZo1URdlDx9JNJgAsChZYM6QtiGNbtwk9OZXpa1IKRDxHMAFXbHs1iXz6MmEr1mossSxW6qrC4DHWch4NLXZyHo3ADRdMgjgxcQlmn9KCKp0kbKLck3TYD8BJzSPtDuhG5bd+TuLIz5vjS6TVkSC/QNi1c5IP/AHrgNc27JGFzIYa6YIvL6+slKo1g6rtd3tz2tLtv63y4c7Xzdie7APNfPr/0N1EFuP4K+3Xbw+aQfGuL5/+Dno9AwqF2act2kq0LXHEy8XCrgQIthoBO0YsdMOnFwRocUHVmUWpfId4eFUtU3pRZO4W+jMTJzkJCj69725oHC+XOcr5MW7pMY/Si69PvHpBVnCs6V5E1MeAKZMABhbMREPQBURf3xZPa9IRBB4QXNoyxrtNTA1Op+w7B8/ESN1ICoGIHgKcjW3MDMwjMiJgw6hP+hXrdfFV3Jx5ex0v1bZJragyxUAvpRr5XL1IPIHlEF+61ATmHt6CWzWIaUCMi6L0aa3tqbj9xwvf7vzHMXoXqdjJ+BAm4gHG2Z3HngqNwJUG8KcQG2AgRy5DQfRnWxLK41UyUJX4UxRWgPAn1FZcoLKaZPBwoLCEfEv4SUJhNPF12/rAahyKlmxmtXOksAQMpVxmFqNwM5/gq0POeogZOeksDzWrpe9ZfatbnMqzwDc30wAmGhWh6EfAJf1kPMy4eiHWVeQIwJBcnLIi7ETyhW+IrTY5y05QJjQHRjAIONILDCRQhE1EMOQ7h5vWkRm6PqXxEGEXtMREviscIpv/6tflogJGLUAVkkAOPx2thGzASQs30s4wOONQfJslTmCFaEC0Nzf0HVXt++fh2mB+/fP/9zHQHRdK9kR5s4keQBcmGqDW4OquE2dPeEDHBFAwNwBQwNu+XJ+BEB3EBYADfG/lT2ijISt0lFpa5JOE52JrZs3nYEo8JUKCkBOQKaAh2RCYX76zGdFuSjKP4PYI7m+GGLIAOxLQ9rp88QIYGljdv0351qkxi85BlT/ek/nDGXaaD5N9aH6Gt4Q/TKDNk4ObZwwEg0gXihNEG2TvsNh3gmHSTXw2OtQvuC/txKDq3psCLJy8PV072R3u7K99mmpIsAasQgu7++cFlaK7FivLlCA63KQFCcYnm8evLl+8eqS5W+59j/9O3Z2g5TBoH/TIVjviIVe0kv2lqF153PH4TjBfE+vIUzmPNekgF5NHzuLjccBpVjQJW9IJwECLhH0IAKDxq6pk/oZeSOCYOsPfUXE0PNG43nivpDsD7WAFYZADxQBFMlwXDYiJ64G5pjO+eGHYWq2yq7/5kyzehLL38W6akhwDkFsBSFvIsa4x46J7xZWy2iZfXBDl9i2SVqBEkyiaFpKzntgk4S03b3NkIEpgH2TgABWzjYKZwfH++XKSXnJWgBra2u7h4f7BAxY3GQJ0pwCED/JBxYhHJGS3RD3/vExX/41tSsi6GD0BneZ/HUSk4eDXv+x08EVn044eJR4d2SVXDeYOu9NBTn98OkogvFvaSPvnfbdgsZgQ/7Swg2qM6fE4lECHCDnM7Pxluv+kCs/RZOvBbheZSHWl0cU5jt+86pC9EkvqvQnsd5O1v+D93+SAWhtqcUwkhicLDJVCyVjQgmIaWDqWoQWS1TA0xrDR/mNFegvIoUEwa6B//iDqAZoxit39dZjKuDKxsbZReFg56RWO6wsVwD4tPZptXayX937GjOCRSSPTDe1LoEF1UVN1Sh+0qD6y4waf63nh4iZwYFKFd//Gz207fbVuRm18Ur4L18ySoZlz2eBA6txNQcqFCNyRpSvd/RXqTvNdxyQkQTglnwiQm40mVnEr9yestHJm9valvbjYYjElr4gScgvZUV0/+EtfULRK5S3EpLZiSdH83uWFRC0/7zrZoBAQzMDbv03u5b9JBiU8FA/Lr+R7CSHRgoyIcqAYHUMok94P+QkELlWSKpPnpIUQs4tid3zv9ydyW/iSBvGJyttkwWy0qGTSH3NrQ+FsCxrZOFLpBz6nJMtWSKyHPV3CEFfWBOJQxj6U48ESIxA6so/OvWWt9pIz3xH6CWEzmSCoare5Xl/D5ZZhC/tJ8hMb39UZCYIVAC31rY3yucfj07zh/tRBrC5QjFA8fD04OicPMmtJX2AX9AAKrK3aIVJ/KsfKl8g9/fIJW70H9OjX+RL01Tg+eneIXkfeeU1On0Lo7d6qOmNwVTigMm+wTEjoN4LqWOgpuutyTInYiV0YKk3+Tt25tz3qYNbqX7RqnNA0sXYtjSPHmMCPR+x3mPcDEDKxxMROZkEGPMMIWE+Hie9QoQNcW3FxPLo7k+vFS/1eeglyLbWVFz+X78OfG+Y5tWZARKLVccpACAB+2XFTplGbmSu5+zyjx7pNi14y3h24/5BBI4b4vMwDLYhKBKD0guCZWlAdBkenofQmqbDAQIAj5xh29tbl2dHhULhOH+499vK3dYPT4/K5yAFylVFAGhF7fTzTv2vKrFYP/y4tS3Pdp7afYOFyKU22uwr+2gMG+1rh4R+V7Sar8f7QMkbjGe9aWQkUEuA4iZf1UvO6t5kfBUdZLq3qEk+JBxLyDRrNfFbKKqEwgiB7EUaixV61IBAm5uZqzH8XgTkZwmakAgIajkelykAsw1DUNZyxn+ICxCWOP9g3vGYIY3G32p0b3nxwM/b22QWtubhbDGRl//Xt5Zv/cUJdQwVwCC1NDUEHAHb6stwhKlPG87g63DnL4qPDcjf96wrGeac21IdMpv6YwUMmTMhZ4CMWfjRv2tAfbr132qVT2s/5Na2LzfOyoVC+ew4n6c64BWTAuwdHhQK0AnMVX/lnbJMLJRWAyvsPXoFfzRCYDHddR+QskTE9arh9jgaPrW9azeqBGgl60LTShfQI/T9yWA6rWeTvHyuzkz6L1o+hXroAOmoscRxnipucm6CTFmRgw/L+AG1fxlsKAPYsa78mcA9700cUCneUfMAVviPEEoBl0INABvLLMowpwkS2v5YyfFHKtwO/RBa1oJZ5vS36kbSm2wiWGrALylSYJX3QLL7pI1JyeJs1PkP3cAbrhN0RKcFzE4yyE5i0mdY0iGpXNYfu9dQogZLQe6dnsutXX48Kx8dnX46zhcjT7AVqwPsFg+PyhtrW1kVQNnQr4olQb7ZLycAkR2IQ2J697b7MhoZhozMFzn6MXTqodHtBLcBhW1aWqlkO1qSnQaDwWxaN2W7cMY7mKQBYxfUACQcB96AyR3cfJrPYwjFPzX5n7j+QE0YKTSnbglAo2FdtDNcDKh9QdBFnMRXaJJhxFO+fnHNEN+CixZPmlaMYoCXciw5/UBC7fnXf3AjAUB4IzbUMFL7GLHn/5KnqvRZiu91KAEAHOXvhsubikhtpSRfLOkHQgq3osd24Nm288pHtSQzXjspn5+dHezvFYvruzurlwJs7uzlD843vmRgwHfgSJV/NRX07bttW8F1AwpgSUwYdX6xIA3Hkq3cc7/TCXTbDaAQ7OgJsIuqfKxwPpn2evzRz5/I0zktaQHZy4IgIPIfqtUkL1KVpFgBJYrMiyTnYjPlEMf/btJ2mgZaZJZFTG+vV7auW36/y3ey0UgW+CN+6lW1/FFE+smOtBFnpcOLYNMdIuqxk88TTxTj1Qr9t1+v/2kITQDRxSP+2QVHAqRYeSOcwk4R//MjUaqPhj7tCAeWZ/V5WCoaceWT+IknFy1+WyHePJESlvgtICmfYHZnfGySCMCzvvNvbGCBnHw8Oyvk9/f3dldyA9jdA4/wSA1YUboliJbqIja5IgUI9JE/oI9rN59HspssUhjb8Ipw4+ah222324Hmpf2pCNdJFvWFZrtuOJ7NZwmlI0vo4/O4N9ediOKlWY1pehbzouA6oxJKigu17ENmScjIg2JDgzqDDkh8y+DDNKpAegszLlgw7kez8MLVNce669wg2RADIySSOhFPFOYR44xjiMHPDySFOn4dCiZeIxwFB0Ny2P6DDWDsWdCON9hyn0ApS41TMBLqcuzGNJL8hURiWD+wowkAhzn/mcoHknolDOooK/WLYxAG3wA1xKEpiAFg2/kzQ9p++JDb2r4ET/BC4fg0v7+SEcD6fh7GAU4ADCaYJKTWCFUVNJkVBfCGKhH7rwXKnqcuq2QxkDQcI7WL2Umy0UP/vtNwNFaprlOOLznY9ZKt+f5g0ZtFcGEz9g6MvYB6kxBm3GzYAfwZRxbPMnyTTRxqGfTDZAp+JvNZigUw40OfiQ7iL5mA0YCuNeo10fwM0IFjHUafHL/ZldP7kcJGQN13F1L7kdiOY3GbQo4cPdR/bj7FjkhYmPlZUgEg8ZT3LJA7lbxxntMlCxsk7Y74a0hfbWgAWh2Fo8hSG3RDIKix61z4X6neepAuNQED6/+Iq9fQAdjKrZ2AKdjB6enp4d7u7ubqbQA7xfz+4UH5ZBv6gELbT8H4EH3BKlXF8U/++tYgi+9+OEKSR63yhZRs+ZhkYNhpt90ScH+T9Q/tAajx0cPWslthazZZTNmqHSy38dilAQBZc/5gmg0T15OlmxoUJ4e86E4uYIeynkGdiSg464EaiP+sUqkUzk2WOpjc6U1Aq2zrmue3+4YI+RSujLjyFT6AKl9RpKqsZP/1Y7cZ3vo+8PUiwZ0Ver8KAd7Iagx/iixzQ3byU9h7GKLX6hIb5PhLupEo3PVs98kw3mGNyQIJpCCjIcnoVRRSMF86gmagHX5LZEC5LcoC2jg5OzgsFou7m3EEsGoDQfn9T+WTjUuY2ZO8PyTkN4//EeoEyS7w5btv2dftFyS+ZtywKhZfCVE2mr6YD/1mR4NxwYuSTqv7VCcUWfvAcUHiAccPw9fWfLyYLaA8AEH9YvwaYf8/XzjuoFdPGwCMwFhoKXBCQFllxMCBmBKkmWFEoAXha9rnCyucMlamNTYKGPgAHdYctzPsGqI2R2qviXhdpG6/Sf6dUqhM/jy8PHd8z3cb4z9/T7Np3LC88fs7wBuJpXz/hY3rkYglWKb5UTUnFdiCOGC4aXuQ/JNz2HGpAIhVDy5Bi7LJgfisVS4m/JbC9wLuHcuzn1gcYG7tEooAB3nwBFzBCGATDML2jwvls6gRKNl9SWagYlhQEcoAEP7DxN/dM2dMl/rb8A44/DsCK6KARC3cbbfv7gIaBmhJU6BEIUBA76axwQVJHH1bs/3WfLGYTCeT+QWdLyhB9SCc9ASXIW6RcwXBrMbPQoa5GMFcxiyjdcDPWqvVY87/GhsHTAdXJDJxXCt0mp0ulnKg7NljxJB2ZMkdVzdhUYEK318SSTUD1/Ebrcm0Tm7ZFe64JEJ6b/33QsvzvK5kycNomDBim/5siYJt3/NrN3liOPUVR8ZzNA/iBK7bfzCEgwGLkgMs74gYIcF7ORMdixpMJKul+03oP6T2QdQScPvjyeXH8une7ubmCpYAfttZ3ysWD0+Pyxvbuf8D/6u6fQcXlqjlzWlHMbNNY3EORGp7Y8SpTqIZuIfh3TC40uMtQIv/lKJ+YVwt1MkNZll9zb9IcLcl8pjWmvS4VV43xcleWtWn+UA9HfOnGX7sOFznoEFmokhMuwDRg6FFwSStOpMA1NmMwJzOxh6df3Zsx212+wyyCmHBG4x7d6ejvbJjOZKUsgkR9Kbfbzc8F7grrcGiF21sqRsnuoF+yfzt3QaA63Uwa+ST0cs4Vw9DpBry+wXODAGQkTmjZqE6sPpASGG37po3hiFnQelsdcpGSE0UEDtgHJdCsBwoGChTIGQcxawXcAvhxx+JIwjoAM6Pzi83Cp/Wd1awAED2tB2y/ov7h0cb22trOckXoVJdLguSVULRx5+OQx1lZRoMs7S5ZY6RwhKGk45lZ9kLehk2n9zgmhzrOvgBWVa6GcSf6/FDMOcZbwBkw7C1K9uf1NNU3hTmAmtp0y65U08Kg2bqSMjyiWo1Np9gZhQnUf9Bn4nrnvm0Nh1TcwSytDzPDYad/ouRET9Evh6WK2yY3UszTU189eIrOnp57Hfavu06JLQN5/MF1D+iRsb/sohjSH6Q1mTZDjAPvdBqvI4MTvvDqWkMTqDErnAkmfiJrzXDFbjp+66tWa5vefdNHmvMfYtMOcQJHg3GVS3FBsbXKaWUpsyASBycbbHJ5PAzFK9ekwA4t7V9UjgolI9IALCix//OOkkB9j8VLre31lRawHfXv/S11ervr5bjtbPOv3hQqUq576rJeBvJOB94fujcfW6EQRBVAqFFqMP6t7R4R/ibu2t7bRtL49ukSbDTJM61SVsn0Ne89UEhHqFZhLSFgBkWCvsQZkEHCxSE0s6DFYEsyxfwgxWnTBnbwYvNVp0/dM85kqVzc9rdfbPqukl8S22d73yX3wX9TD0tFnKOG7zjsVJAiqE07cfKAYWkBoisUVjDHGMkUx1CmUIDp2nEBOBfwZjli56JBJgmNGs4KfXWNRTF95rtzoDVBZMI60B6q8vH8Rn2lmYHd5qRmwQZ5crVp+OWnEuey/JnYt4SoRzAGQm3/wa2cAmoFoTQtJgS9eQLf1Erk8TlSTC7Qx+bXjDUcxAyfD6G6iSoIenevyQJtccIZxNugpG+c4O2bShX98npvLGxelJ+vfdmcxd1AJYwADzfWnmxsrm5AzOA8tnasyeB/xwuQHjDu56q3rSpPSFmBJ+kRczVuCK6Z0wZ5mYPHnTDeqcd+fbxW+M0cffFOUAxgQCiBVhMWwWF7Bq5+vUnLQrkJ3OCIZrMgAOp5U3jhkmHAW0+GLRm5+gXKpot+anDssbTRI0PsXDgJu3aht+MutW6xEllCbnDscRzBtDKD0NU75uI1WfCcAx6o0mqUZBXJX+Nc43fQRNW+QrgsoBvMwyncpwozjOyWGKxtbHE02yZXz+WxBIBRA1e9fFbUUS/d9Sl+cMS5Y1MvERcr0p0xcTURZxhqQgwTA0okU2K2n+XsNmenZRPygeHCAGwjOsfRwBUAuzu75Xmg0CRL/AFy5GgqUJEsLjXlaBLBXwKu0FaR/DNmgVQUkE/N3WNRPOByGv7gXdtGso10PHYHy7/U+wWjB2/i3nPEIGIUDtw2rJo9KBF1PCMAnCe88ucwHhaJGTfZhSDlpu89FC07rXckQzFilHDAYpu4sG3ruhXunFthkHUad9RKpZ58c1wb7JL9a7TDgLvBm77qmmryE/DBK75+2QMQ41GuZ2g1ya7sZUAFUuwGHFGs79/+wYv35CFelJAgUzeWGLhtEz9L3IuZY0CK6I8AD5HvXmNyzZw7lz7LJqRUw5GxX2124lub3y/GXhBGLbvMrQ5NfvgkxSJ12OlgJaDW1W1Hy6wjuWz8qvXr0qlN1gM9PkyNgFWtlfgZXt3H3UBSW1QwjGdSgguGGUQ2m39i6F6A16Rgdv5s5KN949lFV350RLdbUbjLeQOGwbvbz7eeopdUE6PgVpElr5viwkvOIMRFXBgAO6klW/l+YKUSU9xWcAIJP3ALJmwJ6CFB5FZKW5NmqM0TMgyGUXmAGH8hWW1RsMparQrSqqMhpCwNsy7XXheR6FUJe2+qZkgrBju4D3aoed7gWEoBtZaRzRaNEo3+lhckcRAW5m0gkXDde/6abvEbADTGSpOAr4CDRNEMa39yzV2KhTrkPAelSQBCLFCk4TTlCK01UIKALwO6wyOQUoBv/nSHgwi3zV0PXOaVhQYCsJuPSYE0mNeNyA7BWOuoMhLzK6hAhdNAC831suvDg4O91I3gGVMAla2YQSAMWB357B8tLpOegJfirZ9dkJAiQMh+E8g0cwugVgE19ir8NGY8I/n7OL5bGGOGarVHj88er/cBv8OvD9vYQFsFPXT6xv13CnMeQS4NgBOYzhm93mSCajRKb5MZ/oZ8JC6S347TAGQWehbGGsYXiABD9QolOBsNGwAvWGYpgKwTDKW5YCRwDR83bZ9z/NDL2gGURiGzSiImoHve7e+4cCsBycQeBHoaPgBTNV0ncZ0Msbu5Xj9W1nVkcYdy/qDhmQMmq5iztUAkRQf+tdRnKgdCzdWGhNEKX7OaQdcA57divO43jaLyrminOuqg+r/rDMQs9ieBDPZadpIOIISMYIZlK2bv3lhVaKQRbHEAo+T+cQCoDQWSdFV/QHBAJ6dHR2VX755ub+59ZclPZ5vbcNjd3dz/wAGgNWNy0WOHzAluBBLBBIhoq+YdwMhyFcsVjUf3YqUrharRS3Al+DPrvM+OWrva4+P//B+9T7+Gn34yftg/834eKOng0OcBxhDVAlQ7l8k+0ckF0gpCgnkiPIr2Ro6SCG06Iy1J6qAJDtIQgNMBMbDhqkYQE8jQNIiVNGiQONC1cEuColsh+OghZ/6qqALUBDGUDGcvun0ZrNWmvXnpMYM9JRmAJ9ZNFy33ffSfR9xrxFEOPhaZcF8EmXOIyrrF6N8F0miVwO7oKMAANOW36IBrT0u0WYJaFQXAXX+H1dwGqDC6KdjD2Gg614zaldYCUHRy7Pg5OxUrQeq6qAp4Prq0Ul5D0aAze1ljQDPUQTY3dnfPyyVXq+ebTDWf0LPFBoPmCuDXn5SlQ5fWXGw1ooQD85BOykph1hirWEFjjT4qL6nj1oNX8Hj0TsvJvSgQhHPB+A22dKolh7tIsRJg/JzQ03OOEWkdLEsjwDCJxWKDrXqswCRxwBLswgywng07DXA/PQ28TnuJO6YSVQAiunApa/quaOviY2WgQLMRm+a7vq4wTCnK6VsJysdbli4V/kz40aSvHlh03dNw3Bdp/mvcCBe/YwLQIWB1HHa4BWJtQ+lz4KujzRgYAVg6rrR5Dt2zPkSOkhpFeFCdVcHrmsiDSlcPyW28/BGOwraFYEiCCe6ItqakEiYDYz7DRQAYApwUjrY29leWdocALUBN/f390p7Byfra5f/8wEjwIMCOhKhvExR3alvYw4LHi+QjSJviSu5AlVlMaq8muYA81QA/UEHTAqCmwQ/XDjFiMLTIpiOrCfNx79/yOLHDxMYstJgswRGw1BOmYialebpVms26w2n0x6AO3FaDRgIMIBPbiyUbaAvcHBIWn1g2BhOpjM6ySBe08oEUNKSAIWtP0RvHwq0g3hQiQcs9V+g/01/mwn2V0jfokywnPwcExpx+tR17E6uF02zoPp3go890zrHn38TKNjZU7F/v3/36dM9vHx1HccGsAzCHRBE6dMVxw7aKekyeZw0P3+kTGI9zinB2dfJESnK142NtXerZ+/OVmESsLO1sru1lG2A51uoA4AygIO90gkDBrx40i2Iv80FgXDal83v4grD3oqFWIBYYnrexMMkbojME00q9WoWAIhYgMLAP72P56lg2GkBkwWLznTUEqqFhPODgQAAIABJREFUisW/hfcQKIVOTIxTVpyRJc7+maIgLddzzIA1noxnjV5j6PRQY85BLhkAn+SOYcBVr5umYfZ6w35r3Gq1rAWFhsa9MI41MEH4zMxlSKExAU+HtORmAYiL5ItJkH7uJYQaehm+c9D1r1WsAlt09es6mTRSo8D5Q6MrzP3QkaUfqT3x6aHhmn3gqDZ2mUP3uXKDTpcwAyGnf3FOHCSV0+dc6boPzPu19bOzs5Ny+aj8cntra3dlOff/pAm4s/nm8LB0tJ7rgolxP5QJKOMYeHkJzK7Y8YoqyGLyFBKUloJZMZcJxvQHWYkp05u8GVBL/tbSr9Dx581Hcz4ZPC6gXFotOr0R2Q4QSQfREWGhbTlRPYxTmA+Y5boA5L5PFOVMWGAWs2aNrdloNpuNhtPJdISYj5PRCF5blvUk0EDTmDhACJZrWksSy4/TlnoU6jCWFpXVAjwXgVjOVEDISJCYHLZt1OVA+F/3OCVISiL6UPoM0bV6BVMh916UhN4/9F3HNgxVSfojhgvsZnQ3EJ1p5P+aR6mEvv6wvo7UAEvlk6MDBATaWl4gwMrWi62dvYPDg/I6JgRePK0NmF1RUQJRgFW7zr3P0uIOEO+L9wOtPhbyLYm4XclMgNj+a9kXtVpYu/WOr4zjNA0oIO5Aodjoj8YtRjmc1g560hqUChfpY2Y4AWhgr9LvpgDfPTSNeeh/8UQadfc5nfEz3XuhhbpzFVFJYiPCD3xKhNIh13UjV3SgnxeQGYxScG/8HP4f0080TwvqEdKXhUn+l4UclU+9hm3o2H8O24rqADSjzkDMqWatRlKSQeiDq94aPFbLpYPXpcOdle3UFHAZoQAvVmAAeLH78vDN4av1tbX/gwj0Rb1h+etCRIiQQSoSj3/ip/TClypsIMBZwHs6BGTtgPDxl8dHD8MDCon5BOLnmmZ/Mmv9kDT4kz/Lv5uauCJ1GjPWj0hgKiDTxGGNW8IaRT/QtKfWu7bYyCBnL/8cSwJ4dkUg3cGBehk6UkzjvkUugdyn+h/yruWnbS2NXwolODwKgYRnQLpbdixOhAd5KssuUnSZLkZ3VXVhK5YcRQFmcUNmSEggUhZAMpeqSVBHoIvVP3R8/Drfd84JvZplhtDipMRU2Oc73+P3CAx6607A3FJ0paq0eonSMRHtUoLD/xRDC8mXV+/D+wenVjX1oEeih3QLvxg4IURuyszRrjt3TUuz+xQF8HZva2szv05NAWcmzRAARoCZhYU3S34RQA1CpuYibyBQ/xcQ37cgVQ0LFID1KkD8CRruGNANZAF5ZQZeWDY5H48eg1a3AuA8aAd2jm/iTmAcAuJ2wOf9eiUdKotE7AFFS1u7T8NniBMGQEBUHxgcBAA7DMZwgK4elAHmbRsuc6wSIEgQJJImkrQdkI9kMYIjJ/GVBzykP+MrSSIn8bBlB8Pr8NA91EL3VCF5UFWpZ0ikQu4xlrCqXtEFSp0crbRSvutxQajnccpx6kU57N5Y5z/Yis7P72s109JMyzZDsIBZrF3ddCArmIgYocCiqkJHrn0KAzpM7eXzua2d+Xfv3izMzExmCRCEtYXFpaX5LDUJO3gbr3hx0F8YpwqeSIBrxU5SK0bEEDLO8UrSBPDwkmadICxrLdF8lwDF4yzgBPQB0HSgVPr4obJv7UcOJJqW3gh2iw3dGrTHSYQahlwbXPQZC1bbaBDyEWuNUUI/BBk5XOVoFRvj0EOsX8A1DozxiGMAO4JnN1zjXxyVBopvE2H758z3AP9H5bL7ccJdTB6O/unUFSU0f1H2TapQNtY4LW4ANM1QLej8z+SjB/cPl/76p2+hJmMUSmHXr1oXJ3zHI5Fk61zf1Wi4MF/OI0+g/FYut5zNrM9TPfBJDgB0DpDJ+AEgN5Uq/M+DwBeteM0JvCLLGGZXA3BaKtICiUcxwY7U86Qq0J4MGR4Z0TCnGaYxfsMagTATCDqClx/O9vVYYSQdAYfTG05t8Dxsu9BQwICqQDJYAG8tFrz+7FBUj2lr1vMRZAsYIBVAmQDbtNkPP+K/crEgeW7gjd8AwqX45OEPc10kwpKMypgFCXIe8cDgj4gGwSRWHObgnV6UrHmcgdFJK6Rw60pxIxAoS2Q+ZLPdoDSn3T2/rn/4szfk+f2XGpVBsCJchelfCqt8eXd90znpgZvtpHN93bq6tAJcUaXRP0+FVOC9zc3c1nJmZ35paeGnSf6gASCbya5tb+ZmDw9lDT8E+QUegAgb2NfsCxVgQtk9RJCWNBIEJuhmAmohRBDBibNVjkoAyJ+EcNAUhgtIGgHxROA4QAaUSs3PZ9Y/IrqgnwPs+p9+ILBts1sdDEcuPwQUG//GeKtB42hYdcJJfmME9nOX2/6FOYBxxO/faKGjQCA0+fikQZhAxExnigYU8DFYOk/FKsQqszXAOn8gOYun/2Ci4LFSI8YJtyoRkHFX23euejDSEKgKBZICKmBMfcsQEv0H+9X9QyNkGepRX1DTHa3iOOVavdW6u2s2m1f1Zpm2Cim0gtqRR9v/YSr1lmqBrfnLf3FhcXGS1z/NAJZW51fXctPTs7EwoEwBYLw/eHAZXvTLFqCtwKmSTOsa9mLE8ROvCyb0E7BGAFE5oyzkNHJycwyXftIODIPA3R+Pp2WnFrqSUvmwiDy0byo1Z/D03OYAgtgq5Ej2IpMmHcZIHmeAdu0EbcyZC6H1CnN3A8sSAp0xgy/2hUQAZRxA8cz1VN50k8fOyS6cSjgPQ471H98E7IwQGEAPmlZo/6ikdzXn03VPyhlRASOEduesYFxon6NuVOJnHY2mZfYU/WrNNO3bAFdpU64U/aTgyXKAGzRtvRYAoG2n2HhIlv/U1PSmv/1ns6sri5OdAASEgNWd9cyWXwFQQ9/XJwCFcTOCB71YYcrvRIUDIb53xKlGy9kDBNq4sRoU4zg9vp2QCIyx5KL32+/HaBSQ9AOjp62Pv16m9z+dBs3AdCg4GtGHlH0/E/j27LqQIoRgw4bUYSRWB4kigGY7Q3EYN7Z6l08DfvBuQ/6vQtMgQSAafx3v5w0NDEWPMiBTpHoSwme8gnuEW9f0ZJ2WTXuvukblU4vNGxVDkiDygDBVqGbA/zH7kpsx6FzPzY3vBxw8vDSqlm0FaqN08GPpZoSkDKYF9ElVb/T7Mb6AqgHOTufXsjvZzOrS4sxkBwBaA6yvZSgW2A8Ac9DjW2IEfigtDPyXDhy90mPGVCQ2p+rhyjBJBOPwTi0qQron5xaSOOfQt9MKk/Q8gA2NnjG3WlXFXhkIHwxoQlEzAM8FHh8/fresT0xwVAmVhhTaHLSVanfQfR4BK1BoC4pcxwBr8Mhtf2vEkH3dfnJBMW5wmztIBFyDQwwLLcYxgCRJvx8LnaHmAMUDfuUqMPBbYwbDAN7vhYvai/l+Htzne6pwET1kVxaKul1VdDPk/u7+vFHuSDzFeomhED0MxwN3Qf5e7R9IpKiTjznpxkV5bIX7h36jb2uWRRuCVHWE0i79MGDXurpfH1StRgOBC1Nv97a317Lr65QJNOkBwI8AO8vby8v5vSlqESbg/rArUKEgmRHQ33LD1Ftsm/Bi8TZRfwX2eXsEEMt4mIlHCPKPJFyzGoI4SWyXKcJRo1bADYcNRLkAPfql/tEqWvvFOArQakDXKUiADgz3bYe6EY3awFRUhgqO11p7NKRo/piuqtv2wMVzQLQesX74mHXPzxmg4anx6uOIgzeFEey9RxBFB4z4E/W9RLQXDHXkfD0CRIJjYUJ2uUJP4IsKpf5ogbWLUq61ehLqF8SRRf+Jk3Iw0r/FSWjwmEvFtrRzqRTSsCiwQXZAZj388tCoXDqBGqt/YWp61dYd56Xq1weNBzZboD1Af//3C4BMdmd1Mg2BBEjwyvpyfms7F2gDY/KfWPFL6MCFUA5YuyKIug3DOpvoS61uPK4z4HGSuIKGAO8DwUsGeGgWQTsBv98gltAxTxqiX1qPv9Y/WFao3a+EUmN+DqDrdEhAR0mO43QHT8N22227BjQoxsmBO3oKWX226URCH9Wu3m0Lq5mh/HAzgEUDF32zLFawDp8rnh5OAQ1oiEz/l+57VRXlRoQjAj3BVYnQBrd4kRIUbA2c3FVovh3grxSlcofOSBKEANdE9kivSdv4aAKY3H9zqXiHmkvNRXcnNLaCaPXDw3PaFLhtNCqO2a05Vq12W2n0v/CTxdRsLp/fzq5nsiuLC4tvJj4D+GlmcSWzubWVi8XBC0KZXxBNAvnPL7pZ6zGTdiI3gSIE8YRQaekxJKhEN44ING8uPAjCQlw5cXLMw4JKXCwID//yR9mhGiI/B5Kj6UhLyN+1dCaZoVu31W73eTB8bvObr/vtuVsNtX387606Nh0E2gFxt/vMj/AN+cier/ANCAHCyEFhKCBrJkATFIgFcL8CdJ+I2ZB4Fsh8SDwRHQhaAQxxeFFTdhUtFGvcSFcu2EX1CNY7JbDzQMh1JFc0zrYW36wFubgl1xfw6/17/0N6ytR0njqCZdayKwuLS/8PAWBhJbu8nT+YnYroAIcochbQS/wQJvk1W3qlw1nDetw0V0b6JZ7KTZx6Y3yn4bk9/HbiqTJvKuxLRucBJfwIhgOliC8cR4dSqfXxrP63iqKYscYwBayFzHyzGrT1Q64P5edVn4aD4bD7MBwNR6P2aOAArr6tXZ4+PjbPtDh0jAxOFiA6cpl/AFjXbKnDvR5t7gbf5TPk5cWRpN/gBwD338ipGRnrqvxxUNB76GKEeuE9mV03BGvRk1xcmVS2WfcfmlK16jfgW4lodw6J4/UgnN7ej9uQ4K3J61UWpIGgEHcHhNepI8jbqem93NbyNvUFX1p6szChPAC2/t/Mr65nlrempmanojoKowFQ+0+UCoy+WlrxAmoseYIOCHRv9URBCiI4Rnu8DQ30FIE+uVAZm0GEBJe8cB5QgkzhuAlQQjjBoB74e/NzecOMbQYSAQ6kRBW6DzhUpUfTK6ZlJ1mCpp02//kYRJRfKCg1lNl6csV9fSyHx8DcPgPN+I0joRAYNy0Y+9xw339VJVM/GZUDUYLCVephtzexGEsucq9Tt4oB3jq94WdWSvNatAlGVxKKgQaSAXrEART8Kgs4KX3Fu+6Hzjfht6X8dXCwl9vMb25n/QDwZmKJQCwAvNtZ38lmlvdmQ2XQw1cTK/44efKim3dIzpskCDN0NxEimemrsEfAmv1xhulBbSg1oaR4GP6PfIdQZsuULW5KuBA45jjD4ZAgSRCa3z+dnpoVx9/M9Uq8su2oDtA024TxQI80taicz9nZd1ZhlM7Ct1hVpzF6nclnjJ8NcvP8V4mBQngIxY+5U9JJBYLtsXTMY1SAGIBJPF5oX8XWPMlTD7QHgr9aRUvR0xtpPZ1O7+rFqw5KMULHco6KkNw3vzX/S961/DSOpPGBQDuBQB4kvAIdaU4r9a0PZcWDMiiyOxKa7B52pD5Ee7DlSI4iXgeaCEICRtsHaJbuEd1Cu9oWY+0fuq4qP+qrKgfoGc1KG4tnSNyt2PXV9/g9CILn/evo3ksHQz+yYMcMAL9B1sY/sBDA8uZyarNSzE1n///zfxwBFjfwxCOfImMA0PtXk5FBYBDgH+8No38jRfvL/a1BRelBIzDEtZoFIwigPxU1DViReoQAXh0mAXEiYDd57RC2KUCP7ul+v+ev4Y7VIALaAeN8l9b2IAYYu53DXnevP6JpRHie6ze9IAcwOjQJcJ5F5wV6Ac7W1m+hGINugK7/eKdp3LRFY2cAbHcPCdajSJYgMJcK0dnfK9pIWZ3zi4CdU2CLys0WeHJBSALY/RDfkUpYqeImYBo0rsMPPq9Xa/KWllgBpF+kUstr+fXqenF+YWFmMgLATG5pY2OjuDY1O6WkH8EAJf1F/UeDuMgnHijpF/T8l8Sz5/GvkR0t1423+JgawJEFAGvAHv19NPq5b512TKthEPltfy2bNBeIiwKjU+/t9f9yDxhI9IfRGzMsDqyrcw7bK1nHOmj88U/Sxz9Nh9WFnkAdJIwAWgU8+S1/9DKJL7notw0K+63PrV71ey4P0xh//S8xC7Cx80m2oKmFJ0CnqbUn3b9JT0tjDFA1tZmvrOWXprPZ7ybkwISAjeIydQjj3iPRBUSNWMOsTcBBo/PugiB7kExIVkMSvzuPR/HeSLHpYxVmw7Mwz+dOy2ECjkDebwPdAMgasJk0AKsK/nT9w9nbvW7X6HUtk4j5W53IgtCoG+Z+/56GknDiEAWT0V/Nbtgd2P3KrV+ujQ9TBEceIGRZhMOrCjnCwzo4n58AbAV9gACXwekqcMYe0LdVenk5f1d3iKUL/d2/gb0bMy9HmsTua4zGiHZGWizGB2nDLq0k2NSo4+GrrOs1+yjGEihT1ermeiVfLizMfDc5x8zC4sY6tgdJs7j/ZCaAiAQ4MK36UDLBY/mmHq8VxJpeevFPY3WlPenZ2fyR16r2Yi3CgCaMcUH8ABB0B0Cj0A4T+iAi/DR6OP3zsNPZjUT8/Thg7j2wIENQXJA+QN8IFHyxPREv/6WPz9b1rXhYIKQE+vNqCvA63F3cPvFYI87o7Q8uiaeJgtqeKP7kCbEZecfYcRvPUjOYdP2yPbyAeg+xx69ARQ6ecIwlfzuNgcrVn2n/UGskX2WwKUC0TqwC5Ma2zAn8DVCZImJgpbxfAUxYAFhaT1VfzypKohQYSw0SQkOtdmU0zm4EjS5Jo5dTbI4t8Ng+ITdt1mTi4Ix0lYcecyFgEs+bI272z4aAaDjArWCoNd5sXnYHJhXwt3ZNoxuu/iZsKsTTBfs//UOaAwx267ufna1vO/Tf+WXk/1G7A3qrCM4GERIvpeDbiRCQEtPI5K+NUT+ZxmoGFwCN7vAGphWxoACPSIy+n1GD0w+qym1CaXKjphUpQ026/tVEW9socCizs7NTL15U1/LFSmWlMCkVwEw2m51ZmJ4vbS5Xp2a/oQkQ8oGM/iWzNOMwDvRlGdaHBFcWd3+jzB44u4lOTwg4ZsV8dkZPGiaVVDrYZbL0AA9AJ4BBCh9s/dFDbN/AP0b7vUCy+13P3B/FeT/kGkVDRdJJuO9RdjBmCQ/+6ThgWw88Cpmt3Il3egds+Q6fPehiIRC4F7K5QzwagPhC/Pv2HRthYUc21AFAHjB6Z4YFiJV+DSqwo6EZyC3h/D/T71yLElzRpJeeJH48LDQuOwR88b6m1v6IQ1GoIUB1vVgqlZcmJQBkC4WFbHa6sFRaq/4Gd4BPfrXmArU1gNHT+A2cssX87f8G/DkqRsUSnnefBLdqUPojXuIOcXeVBsYBNsAExMuWBQjY7LImMeBhrx109S2z/2CD5Q9SCbbT4H++DU34/IrBvPrqyN2CIpdBbnyni9KBDtNCcORVvwPUx3WHRRzRU1FZ8ROEOLugIJTeRF8YAQeM/4EaTFC98fKib4SUyrlM/dXh8OhG42Aioke3xksU0wSg80FN3oICIHD6d5gAkhAwhfXA86XSRnl+YjKA6cXsQqFQyJWXU6lZBRdXckaALI2Ke7J+AOgNEwSAIcpUgwLgCTLh4aMe0HFLyu55ALGoWA8lpjTNdW23ya55wU7A5kkDATjA6mA7KtwF7PdtQC1kfxA6ATgL6BMDiyAO7H791kLg+YeT3F/QqYfo+a2niV7fSBTqH6PdHl7Na8yBIOhpjKJu94aXUDyA54InaIwft0kCcEVrzoTbUFHo6lcFqXrQ9HtM7ZqigGenqmupZX/9l+ZzCxPTAMCiINgkcKOymcJNgOck/oz4QqOx021F2G4W8BfhwmDlzg6UWa3QOHfwkMa6hbA6AB4CWiGCODi8rzzelNw/PkIkoA3rf4YuyOYEozdWfafeMes71v7DKIATs68KPt2mzbEPaR1w2KEDQdPC3e3P51v/qwOyBKllyMmtx7uRc9QKDjeMpD7vw65hYBLF6svvv8+sZoy9ixuA1dI4HgenFRX3c84Itso6SLKrSWNIgKKEs0B1/E2rPuGRqWpqbR2v/+IkDQGyudziwvR0YaNcrFQpIwiM+OLGCpAHUDni5VWjblwDm28EljmCAkCaHLSPIiFBjZMV4xY7/88AgSDEdA6BBDG0FAZbdVCtsxKCdhNiA+/3MJ/VNDrG/tkPwdoPOwQMgoDZ++O6IZwonlkRWtiydj9/dQIZALhdO9I93In/Jknzda6WcITN3+FzgmDt438f8xsd59YL6zOPfQvj99HjbXXDEB40Wy6HnUBkzc///7RaPx0etwQuB5L/guC3FukANH4Fq58h+tEIkFYErQoZ+p8bXsHv4X2cfp1aK5XLpUp+aTE7QQGgkCtMkwBQLq2lphTBHHR8HzWMAZ+MRuMUSfAdHnoMSOJpTz68xzFD4Dlo3MlbdrPpMkm6a4uLN04PrvcJ7MfY7eG2X7ywYbnAdv65qoJGgJ+7FD9o0RHi4IvjJM3xnOe2/vXEEzyGHt4KPIWd7QONi7dAoCv5GuD5yr+Gh7T2J6Kfc6/MPfcoEcj12NUdUuwU6QCoIjlFDZKAmrxQlbncMlVtjae54PWP7UCK5ZVivpKbnpmZnAiwsJjLFRYLS8Vyfm25OqvIjME4moUkyzrwK+P2JTd8F5C/SJz6QuivJxMTTzSYRgIDORGGEJ09vvVuWk2gDiRp5UePPbTp0H/HfBsAA0QLQqF1iA+XDTIUXGyGBEHs61sffHWSFEJ5WNDYIl9PZBMwVuShL7HENMgJlA2c85PbO0mTJX7HuWk9ffxm1G9nQmT0XGYuk3nVc10NSkEzYBCPFXyXmIxd7pAz/ZqUzVMJy5pcwVaa6qugcQjCA0YWKFgMuFLJkxHAdHaSYAB+DpCbn18pljYxGChuAzzGo4J/tBpW7yLBGyKUlfGEi+0hnngO5oXsFxmgkPnZY8zsPIlpCDQrZJTDmwQd7NoQC2yzqgGjPcPAYpLtPYrztxn2UOhAgit/rvFvs6BjhmR0GKUA2Nx+MPj3+dYYQYAnT/cl8GLHSTYK45XEGLPj8x9PTu7ugEMLf6U8qMFweWpiwm+w+2cyPbN35mpAKCCe0QJNQQAPjZ99TZyD3/0C7sQoWcefokFN8vakykmsTEMhjVuAy+ulfL60Mj9fWJig9T+TXcxtrGB18M0XfhhU5IU+YwgI8ZRhG+Bdo1EfMtM5Vis+KtvjXo8mGIl5rMBPyA4MNm1PKkTjIb65hHiZmbgXgaARAdMI4DlBEBdk29d7bdOoW23zTSQeADnEwU4PMn+XQxg145aBbd/3exGJAHOEsE8xM7nXZe4/+njioM7aCCafQE8iD+p6FAIc+gWnAgd3kMGJwI4eQAM875cz0wgokZm5l5lV89Xw8liLRMU0zsYRCj5Dl+LgrJgF0MAYgBovR5+mI3sCBkzX5Ix1CSGY17UQawmcAeRXyuuVjcXcxMCAKAywUFhawfYgmy9mlSlFkU0Aa+O9Q/1jsFM3upy1D5KaR8rUZzxgJslR1IS0U7ASlpcNCJrUCiC2WCuoGa1ZARQw+hvJ/s0393Dxs6/hf7GbYCIIv9IQsE94BH5aYWG1SqM+uPrisFxdCU8Irm2dX9S6xBtAtCLaklCGYt2QUOXQIVHAIdJhJ9vbB7f+4d3e+W+kRwQC/V9ubw9uT263t53tT5gkRSRT5oi6emPn7NoF0I1kL2HW5ZWhImrXRExx8DpavwEEkKAAlYC6rqaT9CpVCRYQ6Ilz97CSxjyAzUq5nK+urfgV8QS1AKYLpAOwsuIHv+UXAScYxFI1Ng0DNRT8+wfLME9bQAqEz+u1J2lOifwe/gUMPNUTyMUc7A/EFc5ympQBl2CTDvJ4vHyJkuioj1P/TrsrAn7clv/xsXnUOj5qua2jZqv1seW6H10X1v1QljxCBtrXOAug1GIiMTSwOl++POrwm7DB62M8geXC4f8l79p+EsnSuKgIPd4AQUfR8Q+Yt36oijWGbCrFmrhb2YfJPHV6kqpQSRlS9uyDDgkoiIkPanWcTYQOG4hd2T90zzl1+75zTtnde3kC01gCgg11vvNdfhdJGhDpHIZ5BFv89IopB1AQEbyEtQVtGMymz/csjaHuSt9Tv792Z3jBEbJQo0b4aMPPKICZXJQAfMR7f7RZF0kASEQ8cVaKJ1NHWCWUm2SlJ2+xmKc0gJW9Um2rUq+uzoMSGEQClUkAWKVNgNLuW6gKAN8uVdZQTbmB5OBt2250rxV5t07iRi8PBxk+4thI+EsvwQNOFOlrxUHAlGoDhBX8FUlr2o3TD/2EMGyaJ76WjrbCI0xNvvDNiyfz1hzyYQAQjig4+C8funEdEEqI215vNHMz+oHQEUR0DJQRi41jzh2QMxkz+EQBCAezHICufz47iG4Pl787uW97nqPrTsN7813jh++/+757dWMqmqZI+rWZdvEaVhmmWCLWJXF+Sxxq1ajqj6qARMJexSM9WQDglK7hY9RYYyCfW1laWtqt10gyXF5fn6sWIBUGLi8ukiSgxrqAuTyvkybvoqID+gndkRKw63PLTOIQDSg+XHOJN/7EDq4K7AYoEiExRRN1hEE6gZyuQPbpa9GOLUiEfjqniejZr2zsNzx5Mk1+rWNH3aS56NN/5IrkBCfDIegItGBC0Gr9cvYhURTwYlWR54mbuaYztm+JhugrW718zmhwxqJ0fdNiIEoIUqdy1xgYLCOY9GzKhmLKSD9aVEW1fXY19BFCC2O0AomZMHYlCH/2u6w8+oik/+DErhht3aq0raeKu7/E2yJ58kI+T0kAu3v1UoUEgI31tYX5uiyvra+trZc396sHu6E/wDeRgWK80B/kJG5ec5ixAFl9c+ta4WJDIODBw/UbpK6ASDkOk4KCxM8mEqRV8EuIRvWpaPATUAaLD/q/0AT99Gd6/ER3+sBHWpZKdgTA43Fz+HQS8o+GaCRI+4uts04IC4y4hY5t2c7d82Tgwi0cuYWmWbrc//uY9xDB97pH+GUAAAAgAElEQVRQTxQ7C3C/GHYEmYRwHBTc6Ga6919G8mi6Q/7kxps3Pzjnw9sLXwIbTDFbqfJnoCCzMSAhSm7p22xK+hh3/fhNXQL+V78Ft4pbBCT9z1EQYL1arW6tkgxgeXlh3i7Ly2uL5Z3S3h4JALkizq0E8UWVKw2i9/6R+q104DSfbwMFmQbS0l6BMHdOq3dRJUCQH9A4E2hoQhXw9iHmkK8DWq13dBP60DoZPpn8rs/pm6GKQh4ESNngDyXk4tanh18fXjqRjWCiPeo4d+Ox8c0UYON/gBFOgQNsobvo52hIML73GokYit27eyaxy+n0b3Hep8jsxhSeAsI1BNkBK430S7bFh2PpIj4hC6xQVY/4IaFcAkzqdJWkBKz8X1naZkIAtc3FjY35W/8LC2vr6xukBqgv5fI5/k3lr2TpFv32uamfnt1iSiBn6qFIMkP59oklggVDSplkuIK2Y04hXFJjQBdLP50BtBgw4IECUcjyPzHlyEMsR/pVOlo0CDAq8vAEqw60Ou+6DvWpTXHClG3kjSZj7BPKuX7Kkn0DVwEGn9xzwz/kLiqjDNAUgPmguMfRfHAwdRygj+w0ep7ndK77IqYb6IgLnxqia3Pv5Q0zA3Ue4/4cf8IVi4VcIgfCZ/hZiYD8JGYIwMPDtytLh2+3SQlQ2yTZ8DwGgIW1tY2dWq26ncvzSCAVi7ALwkpJ8vXZbjeaD0l5HWiarMuXVP5QDkITtgoOI8Z3AgMsI6QJXUasRSKQTqGPRXhtghFAq39G1r/zL9nq516Bn27JwhC+XERGRTAR6L//s9W0U+1xRhoi5YDlTd2Uv4/9hbmevyEsfq5TyIcGQ/bLyKIsdjwywmbBn1x3PPvYe9fUdYZmdmJe02fnRsM+0LG0kOQNf13miRkOdMMZYMzSL9LrIjjRCkc5Rlv9kput6GODblRjEjDZ/bdJ6nu4WypVaxvzuf4pHmC/QjOAgpwRyMdZCQrrN+r8bj/4CqD3C009QQxcQ6sY8v5QUy8Ayl8abz6mQX0hQAaCMAA8idKgBHGqFBR2+05eTskZfj7UTHHtKwJNTugocKqXsqzAHz4JNIGzzlkzcSEIaYMsBNxPx4A5zBt9ZgJ7MmaHxrE0kRAeaKQpgBsxBdyR12y0w8KfBQCLdi3a3Vsz3spTtXCk5iQSfzVe7gX2iW5CUNHjEZj1oRVN4Wr5QiJhqx5lEQa/1ClQ2VMUctv16t42KQMO6rul8trawpxGgMVaaY9EwkKhcPQlZTA0eEnicLtBAWFXPrfnB4DYLw7reaGPV7jiyZNp0pFe3CUAMuOKoDSdthYCBRcj/sVttB93Gqenf+9Ldn7IKpC3OfBfnbIdhEAQ+CYdKQ4hS6D1vnOeCA17bDhIbQbJJvvcm4Z9QWm9n7Hz80kBMBCSGpQYEi3CCFCsDkae3YvMD5pO03F6dOu37U6nj3J87nMFoixBHIQDcSSLPieWACA38FT3u5BnBMB8LpeY2cq9bKQoIN7WtsiAr+RySHL/SqVeqlZK1fK8ZgCkCtiqkED4lkTX4pHYK8HvL74juvGzzfava7SWNWAJAoZ4wiIOFB5wzicOst9SgsSDRAg6ECjEe1ej8xXAAul2fN5oNju3viZr/cHOouyPC8QGhzCHTJ/xguoSDGEIeHn56ezMiUaC9HuiO2z3vOlo7B4bLoLzGcLQ/zjLXxDbCxkSWJHB3c2IioPxeHRHxXkt2pnwSBSwSSxwHPLt4Rq/NbI6C4pCpoP+QFGkDSHy0fRZHmQ/SszACzmGASzQwX2hgIzq1AxGkIz6A+jE7FlyS0sHta2tnZ3VzTKdAcxrDbC8sV8pHRwc5pE/gJqtsKCKqiC67thOP9Xx4GUgEj5/EA99AhgsUsdguIwxcQChxhROSFhTxMYDogxJEQnRyvRpEkDWfyNWsNR4+QqEMkw3NQ1wDZMjWAVldwdN2hS4GDKt4pAs1H9/9cFqWl7cEbAT1oDedC6nk/EY7+KGDORrICExodtn8EFEDjc8Ph5Me07TOg2peQ3Lo7LGrAVo9+x/3phxHy/JigKo1w76AVyhBLxcAuz8ol2ECUBbNrEj6z4eUucL3zb7e+1x+cPtUq1WrdS2Nhbnd/3HPqH13ZUouVJ5IYUURa2KXGumCtJs6lbPsR5QI0/iFwww/pqc+sszemHPT3AD/io4oAa9b5KYALyuwqH9WaPZNfG+L3INlezX4qgLmkRPSzYwuPA1M1YqbP30cvVXy7LTTjtrDJCMm4mRW73n6XT8f5cTcsd3vZ5tk1qEEfMsOqe0QzF0q3HZ6fuCW5OS5l8KdyD9bGUIcaXPgEXWR4mkb+GIfoWNu6OjLLU6lbevy3iYmo4BD/dq5Myv7G8uLq7N8/pfp2hA2gbIv+q0LFqxxgePTV23P1/q1gNuu0v0PHGZEHDbMt/3lzXdgD0gTBw0/pGBiA+EAAHAR6EBgCSgV+LIn8v+pVMJSZczzBEEqiIXdEA64JumGbUFr37u2HYUBPQUJ8D8ychKtLzpbDQbuEDcC6n9GtzWb0C6cHqLcSzkCK4xGM9I0t9jk0loi0oCEAkG7a43fDAVqf+K6PghmeTg0wEMDNl1h70YQwGTtYlOsUJiC1jIOhvVr6CvI/gg7QPktncrOzu12v5qOVYCmccwQLFAm6u1OpUFKnx9KgVveLTIVtUbObrzjwCm/YES54qhoB9XOiuIFxrNj7Qg8QlNZcJAZ1+IEZinriUqNgpUGVfiXw0kysO0A92A619gq6bkowCqDinC7A9aacedikDihCyDDGkkCjDJwk8Pf+ucO07kQxTCBGxmQW7b1JtY9xzveTqauMcSIJ/sBuEBYMLIvsbu6O6uZ9E6P8IlONQbNbI3pvolV1f9301F4fDbAVdOKfj/mH5KAXB4VxSsIc2Ob1gCoP8hF+4G7qD/jfxvTClgFiMkA1g6qOxs7e+s7s8lCjBtAi6Wy6uVEjUIoFqrKmerIiCuOEklenF0Urz2Bp7VuPZhzocy9cRJhq/SFU2WG4I2Op/yQ41R0TIUe15LKYlJsRqdrb+/azB/E5mgMAc4SBQOspWPRTdUSGh4LQzQFeKfsGTg5ardpv2AOyfZiunKTGxJLXqj17t8fh5PZ2P3P8H9DQbHk9lodHdvX+rA4jziKdESgBT/tBiwL69NLeApHvzYBo1/BUhghpNo/CMDReqWlMpbFGQ/EBRVlbaseI4w/ImijAr5/OF2vUoiwObG1uriHK9/Kg5WLm9V67uHKwwOpMoHKJnCAFQZkKQAtjUbe7b+0VS4rRqm4EqK8OfPJilyUBGHAmgsH6D7gbxt+vgAcVAU6fN2mu1bjYMSpb+v4Mdz92sw48/4f2GvhNciQFwUkCDQ//T+8rxr2TZYmE3bC489nQWAEDzfaDq90WQ6mTyPZuPZYOC6ocxIQuBl+31I7h3MKJd3Mpre98hFt4FCCbj8m72re01kyeLjFT/AJCZqIuaD/A+zUE2aoR+a8SWQB5/3yYaGBOllXuIIahsV8hDjsnchM5AhA7fmH92q6u7qc05VZ+Cyb4kz92rGxHS31qnz8ftI0o5Q/BlO4quvV/n5c0PJXxs05FYM+fXgtvePU1IQWw99WfD8aR3h4Y6/Yzf6ISGgwNNKpv6OGidUSuVjOQBsdRt7zfbBmw4Akhnc7LZEESAjQJ0aKzqFJqs5IusvX6SOs+s7UaZOrph1nwcFMEQFUqIvGebT2p9hoWCT80vrTwIuNMXExaPtEIgacUJjYhaGIzh4G8vVGHkywIfjxQNCCh1UYWAaT8JsKODr9iA0KJdJe5BACMbiici7nz3NXu5n90/hy4tY5SK7f56JBX9//zQTSVokO3oiww8DWOgrel8/fW1lZOCN+uPJj8WWJGUQ7wm1gXWf1Dx3Zu0Huxo06rrzS6QFntf19bqx2VM1MOcVJ2DHhK6pIWBFsoA6ndbh6eFhu9Fs7r7pACBdQg4aIgJIbVA8Z31VFAiUB4++SAFm159+Bn44XVs5NEixB7B9ODMy9WxdcKgZC4ZqxYrDsD1dsL50GXLLsyHhwuuvYE3KmCV95XZ0MLe09pl5+oy9vuRZUWNg+5/V7WoeD8c3QTSUazbyEkBeSsqToSCA4SDlFyZw3ZxqpNQHYDIhGwo6BoR511E8FolFMJ2PM2V/GtBB5QMlmJilvQnx/xZx4SycrkJ1oDOzxZc4gGQqYATSU+D0YWliA0E7pyYRRdWPcgR42m6fdg6lEsgbDwA7fzQb7W6nd35ezYRBYNFPFAEtYffLyPe98fPn6+exF41XvzH3xpsBQ/NhoBaQxYlXJCUIBxFtPdw2kRNf3C42m/lkMhndTOabtaoAkg6gsYdbTImh7zDpBbjY85g653KiaWx20e18p+S2vr0KH6YP0dSTeb/CCfb7gS/VRPpqUfvJwH6I8ngv7xmgta+Yh/k/SICPWoF92fAbhdF0E6+2V7aRCMzYOCnCCvSfqd4bER6Wzd+Fij7+fymIB8gA54mowU4hSlYFWWo22lZegJVqtXzSPW00mo1Wq7m787bX/+7BgeQEtjonR+Xz1HHFKbIK086quAtwLxKAKBLV5zf5oVwwhj4jzK78Y9fxZhZXUFsrjxPzatO9moCJ1eNlrIQ5/b7qOnujqShZpioBoAAEU94GHact/8fChwxK4TLGChqS3P7v5m25Xq2W84l3LzfsIBsPJgu5H8LdPtB3KmlQmYIu7iOR7PeTPmIaBKJABY7hcDgexe56VUSC5iYewwzP1gtlB1BnL7QeqwOKaLcuFwTVPB4HGYM7GJUKXG0cW36g/tQrtUqlWu6d7UsIUPMPqQSw8+FtB4Dmwc6eNEY4PlKkIMemr/IbwoWoAUQi+vD58/W3vueHKwa1/jUIUKPGMnkNnnXRIOzPgPpT42EqLpdhAvP2AlQIhpaDqzkopMVHbhZ4/s1m5C2zviW3zRl05wu4DhE9O4xJQD2DfJ6oxyAIQYeGIdh4yyY7dLWMf2zieDyKvNFIQgNkDRCqtCBUJxclk/tccCjUW30YeiLBj/LegRIoD8ajYRCOJ5PlYrslEF19BtwFwxBOh/sueoNYbgINndzdnCqYicUnX2wuxXH7cAaIzcAqlboVk/L37INLpZJY/72zk+OTTlfU/80/3vj6T8YA0idYJAAV5BPoEGCwY6qGZt9zr4hi369FBJj1g/F8bXx4IfcvQwS7Bv2fWRyEEHCEUYg/+JFszW51EwFiz9nt8gYXy+Hz3YsE314aFACX4JYQOjhVudKBLMM7kOI/WbDMYClbiMPFnQHrZRHrdLtdbb7G00ksWfqhXNShyAIisZXLUBAk+34QJrOCWbLXJ4CCQOX8So90GEU38XQRXy0WX4taEog1ge5NbQd1DbawgQs1gRgc0oC38Wou6Qbe5aNjak6ozn1CUyEGP3YdEAsZAIqCiLuKXP9HR72T495xp9tuHrzxBqDqATQbzb1m66R3dF4tYc1VB2sBEiVWcPu3VHMIHiSL9C4U4XyysKnB6jjAGB7rWRE1hLMDxcRdbB9sppYIKcRTzdnAI7doMPj1LO5XcDSoPcdz/3FDVoyhtZE7IG4ZGWAw4ovpojEBIxomaEhJ2RR24bHNYhHP48UmXkyjUIJ2o3Ai7hRwP1KxQIQBqd4lUQTjcBY9iDL/r3A0j+PNYrn6mmL0uRH29D6OQTtY3ZGcAyPIfzjyw76A+RVmG1WM+Q9O6v2h/udkRkCJDlDdSlKnrCGUtjpU2iKxFhDl/7kMAGe9njQDOdh5X/8fPuy1G82GhANXtTYgHQIimUZL/P0yVsD1F+U6OZbv6GRL6n5TIxgLahDnGfKt6BuR9KDrvkYl1o+XxvKXxzsYDEQEiC01vRUOTIsTy/yCIUaMyU222KZlwxDr3IxIKJAEBYTSq9Va1AbxfLNaxJv5dDJZzecP83j+I5rPJ/PJdDMRoWKx+nF1u0pyfUPSSB8eoGpxxooRvgjgDOM15Ucg+BTuBK3/mYgh6RlgXTf+EtpuOpjKslBs8uFc5MU/blKTD2kyVaxWS9WP5fLR2YkoAjqnB7u776s/MQlqtLuH++Xzj9IpmCIuHOi+aLgspBf4Ue40wcO1dJu7e+p7fX+yZrlTp2kPTKW9qGwXThZdU1iK6oYxmxqZfjbuW9a/F/4aDD5JKjN+LWZY2MJkANoVcyJCxqyKt+ght6bRDM03YW2At2JT9gyAo1zNkZYTxPQ3bb/C8dvWNegIealOuMzmledYbU1nWMwy3bN+hV9VvTG+qgCCi3z0pyKA1AGQjiB1IANG2tKoM01YKua42lEuQD2x/GUHYH+/1W7uHey8L/+0ESgCQOesXC5XazazBVRSYbel7CZSAJEDfEvU459kQ+pmk/fFaefcptmVr3tjYIikxIjTHGPwOWBiBzfphXX9i+MdDL57wVKL25h2BKjC4KB3wWyaGCCIARGThAvhupbCB7MTCeZYlzs5ncLU1OAMO58xvFhtC1GzmLBSA0PjFBehsTWGE5CdbJhp45xcxol4GnIfdIcSROb1H3XmWaukoyglA1xPsGkOHUVbJtVOAXFdAwfqpfOz455EAEsQULfRaOQB4I1DAXYORAToHEuB8Nrf7LA+JuPoa+VN+flbJNV14wUM/NzY/NMPBAe1t7lBZUuOW/Yss3/GcmxO/t92EdjXvzcbDO48CF7Sx6HBvZYdm2E5sPTMuC0f4a5NmwS8OiiPLXKpjKhn6Kugt2tm22SNS2MPBhR+bUchEJdA5hIF2CL0TzY6yFuEGfhPsyj5dnkpJQ/88B+lmib/1NJtX9H/kw7g/4MJVJMU4HK5t394eNg9PW2fnioSwHsTQKx/6RXebu3vn53XKPa6yDUcT2MvLr5EIgMYBt8UtfTT9Xepbxf052vcmwPDZI4JuowRz7+8ZmQEKMBpTcphA8EYTXO2HhWsfy/6NfglspWla0cQZF9yokCqjYm1hjkRJqeYAjLMtCCNyA/yQosd4zmXiG9jfe68HUnTMW77VeT3GZ6OBf7t2csjtQ+G1MEAbiD/sa8SlOB7/qxUqqFZswIBS2BqrWbyA5xiA8siRbC6shaqVErV816n2263WiIGNN9bAOn+35CySI1261hRAuvFpiuv3L4oLFn4PaWb3d37EnATzrdww8s2PQ7x/XAv4pQ7x3FVyqHPLEcpwTbdpbag2k5e5l9F6181AV48b0EKdLB/w60Zk5FMOVDGXQwPMNsK+eyfE70yIKjELbs4g/Yk2fOc4YaETrOoKQvHiQGjtr3opTJ4RlaGuOhKY0w2Z/jyo+TA8mMMY7snKWbhsVqtmSTg2kX9N7u785pDCNr+paqgNAM7Py932u1u61DkAO33AJAhAeQkUGIBylUJlTRMAYvogCjuPvgy7R9npNPrp7Hn+0N/vLhltJXMLHYgBA/DfgMcdKEdCEIVM/RbxN+4cP3LEmDw0/MmzHWt6QMrUDVFqYd5YhxNObBEnimRg5sjLkBHW3dlkiTlQBtotuva9LftoLxiGz/QCGAWACYab1hGKLnVs2udmDB3KUdHs0s/+FJLQei5da+U7ajULn7nUO2Y9oBmc1DyAJW6oPQCEDVAt9lsttvtxnsPMOuA7B7s7TVlAJCyIPViOeBXGEEXfw7Vlv+kVebuwn7fFxnedAEmXHS9a/BeruvLEboM01AZaRy4UGVAow2RcNCqXxwAnkQA+CUSAQ72XziJc00leyMIUIgisUGE8iLYw5hppRLUvsRTwxxdx/J2OzObjswmuMtxyOKaqQDHrFAqGTutvabv7yLCH7eNYXN0JBFU0++oDM3+ZeA/VCoVbf2ZOwHWSvXUCrCAmkZxwZgNDJHA9QQEUD4vlY/OWqd7O3uyB/he/+ejwJ29drO7f6SxgI6tCjBUg9F1nyoCWvAzdZcQt+fxUCk9xEsL3jX9uyVW3lg3iozegdAfKHstew7IMeaehr8aLYBnEQAGkReuqGetRdKKMZvVofs/9q7np40kC68hdttmgo1/4ITA+LiH3HIoi1bUGrXoy0gcOM+pW7IEsjpiD3GQ2oANEoeYzirSAFJWcCj+0a2q/lXvvWqyM3t1BxJi7Ma0Xa++9973vo9RuRLbSCjAy5NaJzDkjQQdT+GGz6GoOj1ziUNyiXqvmbZQJubOoL2frqFoKg/A9kfh9v5FkRYDPzytis25pu/jSrnXyjR8CAV4hG0r6JsVNQfqVkUOAazXpB3gYG1ts9VaW617vRCw1mptSKfgzI/lf1BYRTfdprvqvBCYnT/KURXP8S4OGW6iE0sdUsBGtlOcUHPLzqKXtq/Hzk1ZAJBEoKOjG8ddQmNbXd9Lq7dr3DbihYufUlqNsA0kQE5IwIywptHIg42WEbgE4LrqEwsmU1Rt2BGx8wBFjzifEGYgfpyGVwrlZ535xzX6X3LTeTqv+F3a/khBmmqlkhb9lRdAveQd99ffnZJPXKlYkgew0+71Blsi5339atUBgBjgdbfX3qtYVtXaN6T+yBYAUq2Siz2TLGDHu9NEp+f3X8dqAGdycWVjbhs180KmOywrNIGGPGfIhpBr+JxstUtvPL9zSmkA4rh3nCVeb9rJoNKI1teHrXi0x/JsBkor2VH4Q5wUbAgItGqeXTgn6zsyB+JIuNRA/IwQDtB1Ezl9MTj4X5F8MU55D8Q8gQFLl+I65o+99n05lzmbniZmncP12nCYdgOUfUe2FeGSlNGndmRgAmd3saoytlRqb9s7e+1+p7MrNrvN1ysaMCgDiAjQ6rT3atWqlXMvRiZ9QHzVCzrgqRSWdPzxk65A93QXpBvwcoGoIxynjZxh3S3CnbXhzDAzVuh0pBr54+eSABA8qwDw4DhKExytIaNWoa0RW23zjK9tgzFI/RFwfXNkpsPpmRiajixKcyb5Qg6vLQBDHLOYTck9TSB02pXWFzX6N2HBJr2syWw872l/Ppc9wIm/f5tU/a1aKkqXMYEtmP8baKgGfTpjG9uqKhaAQP/tXr/f77a2Wt3VGACJAK82Bzt7ciCgViPpFB0KGpGRwf3971JPKgxnH491G/of01AKzDcCP7qMObD2zt5eHBBigX4vQ2QhfY+FwybgvNkCOzwL7o9+GHIA8VQTAHD0EATBAjDY8t54ITfMMIeG8nzS7Z4z1GFjnBEzHJ5Wx7Vf2dZ3WOxkxNFUIg4maSsO0o7yFh7Te6pwqBIWHDgg/VI9Bq7BB3D9uZGcxZBVEqA+LNR2MZ7ICkC64hUbwOT1TewpdeBpKAPA8aC6am1Vh+vDt53+YLe7IUvem6sWAAoA4nOr32m//SDAUh3JrIzwZJDRKnj0Yea4k5nn3h9oTpOKFDARr/X7pjeOEhUeUPpiLDaYR4Axs1i7NesdYMyvb7JJE1t+fymB/vOzT7f/4CFZ/0fPoRMsYTmNUP6YbnZT9L2ZaQoB42YGqD/JrTErhgmQU0qxvxcyAuqnMQ5MiFghqY6YuxwLIWFUAfsbUOLP5oSWBRVYsa4vB+KLECLFSIdZq3vG04m0A3aDqVXJtOgsaU5Rr9ZH5kweDqli2a8RYQJnf9XV+pcJwDvZ/m+1trZaWyIArCAAqQS2BolXMFEB0OyV4e4PFRqlOmA4Ht88YS3q+Y0n8j05L3B+XsSAlKmrs4Fiw06XY8h02FythhjVvWNWPDj9Ur7tzgL/Sazxma4EovRvnLvnNAAchc70q009Lm1g5YGzDNgM4zoELgpm5Jchc37pc+YxI7Lk4G6ZtkBxkTgqsuuBg9loaofZNpZN1aVKaNmfGJvExvnu4tUr6jMxA17N0hOVIXcUcbfLRKrI9W+r1WzmT7r/qa9HePxktF+CPJEDuFkitF6tVKsfdjqd/u5g0N0QGUBra9UDMHICd3s7b9er1ksmgcgcCN7jm+t6Yp2PH6BRxfHH47vJbOK4amRoerYwuXghYWBdH9BM0ynRCtQZvSxyHLnQ7wMXRoC7bP8Xx53jn1yXn5cb1MGIPhayJWYmCk9J475E+/AFLUTGGC1AvCye+OL1op6KsEzDir6rWeaP2K+hl4Lavh1Grq80zWbK+Svzp08mgOt1ouy3X+5cOdrH1mCoJmBZteGwtt3uiAjQ6UvW62oQuCQPWNvt7b3drlgARJEwS/RWiut96qt93r+hZhXzh7ug4TlOQ0CBaZoK2JzZZa1mbBvCNWdgnTSf5aZcw7/5qeJoPJMB4Pnp8UaXxJ09F+tfTgSfHRauBZyBwjoxLCuMirS7Y3wAVfThAIO+GUN7VLplG1URbWLTkXdLODNrGcBGPCfkAJ1OqN/EbDIGzeFcH5wOhmKQ1E4k+7hwlYiUN7mtppM6hRiVVXBRCO8PD6Qa5esLbUC1/4ucdri+vdfutdudQXdzTbqBrha7Yfn/49XmRu/d2+1aqsFkiL1UGAgxhm6niR7tIzKpkrYUxw9hGIgA4DSkflB0dXmIWgJc6/zpSTSHnS3CgTFRi5MTfZ462Vp/nEktLM/znfH9ETgkF3BJLe5t3P9C34AyptmT5npFopAApuk0/Ee3McgTH27DomcZ2w6bnuujAkWZNS2ccOSRzE3cYC2JKaoMQNvZJo1MnPQQelLBQmRXvqrDRs7MSpd8tZp7dyklgFEZ+38EpaooREC4VKkADYfr73qddlsKgb5+/curVQAwB4BfNnf7O9vDxCIE6gKMDHKAI0OScBp6AgR4/j3yqJfu1gfz+WPoN967bkPuw83ofHFNi9kmpgCUlyyhEhCRQYEAgqzZJ9b5/Onm/unu+Xl+RAKAt2Qm0h5c7EZenG1Q7rHB2A/kzXBGsQJRSinKjQadAWaW62fEoZSMDuAHIsZvUUE16RhzTSq1CNVM8060s1lNUEPRJNaKWHGlKCMCip0WQN2A8xHdn25LI3I3aG1Xr0sbEHF8WH/X6fQ6g8GGWP9pB3AVBQy9gLVuv723LkKAVR/tl3CBX4CDkQUAACAASURBVD6+ubLFFoQkCTgQIODg+OnxWyjQn9tsus03jZOT6PI65oijSjQ5dcCcc/U5XZ2afG+6XESW+XD0k+M5cPxJjHJ8WPvmNllspfxbIgpWCGKCqf/cE1UreWgzxqD7hvp7XBuuw7kKaFbg6h/BT9qMXg5gmOk3ZZCBoV1qhoQRbANCQs/oS9ICdP0Zsu6s/59D/+iQ9X9JAapUatu9Tm+3KwJAzgBawYASSvBuLzEKhGkWibVImD1HArdSgdJ3ght99094gSoCiL9+hOOG2xRvgTcCknvu9Gy5JJIxmYwO8eDOpWsY2oiyz8+M/Zm33qd5u/+F40akLcsYjPzEuhaOVufmOkcRmAIjCzQ6FQQ1EHGbnDFApgVsIZZPAQB3Q2LUyRGV30bVSozHC85Sfn5mdAFllMUJaxgJsGEM9xp4oQStFTAOp5HYA7zJdKIBAKUAYJCcQPUoIk5hJgLlSMESi1+u/51eTwSAzA58BQDKIUBroMgAUB4U5vsjmgpo0OybyO9CkWnfUWNacSQhYP44uwlVXb7ZkFjA86PLxWJxjR1/gZw0UqnVt9OYLy6vrqbn0fTE93+PHv6d3XPqhOFPA8BcPI8o5iXSe4YpPxuRZalEoZLfy/diBgfjmW1zqIJm9hWz0aAPxEdcX+fF9AFDmt4gPyJ6SXgMA0qLQQqUhoboSwHPw00ZWXaXePm7cmcJwm9WsVcr9q+q/4+wIi3+CqaeIyoTVnwmCKAmAsC7dqfbVVpAKynAlwaD1zb6g/6OhAB/HXFlhcDQ8X3JtNMLACk3UIYAgQMODuYP31VNTppCNJpO04kEEA/OLi4vr3hsG3h3qJWcsEni+HqxvDg/m/7Lc5TZbcNt/OpN5n9mj7jwlOrHTw6pln9lQO2ZfyjM+2NmqjzkZTYbggAO82xocIwtEfMyfhZb8h/NoS0q8SuAQRMN8gC9ZShvyumzg8WGHO7YmPeEvVZ13WaGAhjL+ybiXJGrtCOCUOsA1pVpr2X97Xed+TGKAlBVEaDd2djodje6Gxurvf+FDGCz1d3t76wrOqBRe8mszKCDsFNpMTsOvOApX/hZEqAigDqkduDT/eP9LHgjiwH/lP1B+WfsuJNPUXQWLRdfFourz4dX19cJGc5m1+rtdbi4Xiyk9rXY74PJmyhp7TXFh4gjv45PTr4ff/wtA69XstX80wAgqcJLhqgIHFALgLCGsTev24olqXQMRUVK/AY1pzwdRoPvxlozPffVBeKp1FwMYH9mcirVWvjcIGaGmAwlRACzeSKZh87THMaWf6gWoOvdytJfygGq7+eCwH/7D7UHT7wARRIw3Ol1BPrf3JI6ACv0/1IA2Gp1+3vrqVMoNFfYR/VYQhfOygCBNHx3nfAhHQs8SJqCaU9QrX8lGXB8MP/tx9ev0UnDb6hlLEKAgAOO2M6b00kj8EWa2Bx/+nQSnUwm05PgbHoy9v+QFYbk3q7bbMoHNkQi4Ted8Xv/639O57LSkGtRnolY9DMIIN1BwnN9zN6sZGs2CyD+GEDnEI3dxVSysMjuGR7lMzTsOVmKmjtJtpA5KzwTzZ589n/Zu7bXtpU0ju36Eru5+drUSf0H5C0LIyKMTxHSSyEP53mfLBCoGB3yUrds5MSOIbBJmkPLOoEUB6r+o6sZXWa++UZOuvtqp3VaW1Zsovnmu/wuUuOQiARDgKYgEtgRYKECNKkgRHJSIqLvQaTQYgwt2zbscTr0rzDub6VcPpbsfKRLS1MRU2SounAY1QE7LucK7cJBq8M4AFT9bg0CXHHLb1Gz8O5BodDLyZ5sqwav8iiQ6XBaS5fjAdMqIM4F+nEUCKuB9w9X3zeobMchiwHv3rAtvRrFhDcbGzQiWNWqEeGI2N/wqA3aSa6G2/5gaG141avF3eO/H2hiEVYY73mm7dn21eoIcM+4Qt5nrAzOgfZoVJaiYwMFkxkNMQhkKgjM3ojBQyBjX2RKCFQgAtx3CNBDkmBEvJMoU31krSAd6ZuLSEDw8flnTclMAFsUSAgBwF1O3tB8Yhkj2zKsb3flGAEUoYDKKwy+MouATPiv0ANod7s7zf1GY5te27tb6yHAqiYAdQnZ7VCPgFKpXIb8ywxNQEGfKb35sQ7XIuYFip2A9D7WDWL37uPDve8vbM8yDqsbxptqmApsVN8N0ryAoYfCxGCDbvf0wXfhIVWjejjyl4+L+6cHhjakDQZ6Qpev5Jsw27xatf6XUToxmkGePCC4Eo5I0kU14OQeiuFkkpOBZp/CRVehoQMeCKQNWSdIU1FM7eV3RMAgBc3pJE0irESIxhsKwDNAD4LPEB8woVUeNTb/WUkMuyopBAhKUKxgAmdpBMpYVaoF3m116swNfHerRmnA65W/KgLsNqhoavegl8vlyhVIq9KOoSgA0mXkMcCJnOcHMSbY5QPBvtAQ6KesQXaQ6z4+3d/fX12PvJFTPXQOB1aY5Q+qFFmwYdCvN+H6t96FmcDhaHzoe1fh0VOXn5p2Flg4Mf+TYPCCz3R9Z0eAX0tmkT0Y+rO05wWzdwJGWGjejxTBAqLA72bQbGR2vriYgyxLccTsDwgGLPNxSpD9k3BaD3xcZZw25AQTGaUNWMPAF1r48RdMBthwnOvTyjHH/2oKkRlN9gsHg2lNkqjTJDdbigJincV2vdPpNMIAUNvebtTW+f+zhKBGp1Xf2SkUi+Kv51iJw1qhD0bTasMYeo/J0nejzV6gCJk8DoBZYb//8PD4uHic3l8vFp7j297YcxxnPL72l75/tbhafvt+O50+RGd043PHZ2X9RbN/ynfHH9QoczHNmAB61EB3PA7riJECY7+66aVanDJgBrFyn6fpZGvwY4BNRmgimT5+JFNqWPQEz3xHGXKHRKn6rGqbfGHFoWENv9ECPXEB0pSmPqsuMA0rg8ulA60scrmjdrPZbO3vb9MUoLb2Ang+Amztt5rd7l6JZQAZtRf8pWkaDg63A4eR8BkxEGCCJGyA8j8ureWTtMCli3xKN3da4PMDTPBq3lmgt7+FsTrbdOylohHwsGRG2uPLWViyDC+EOhdb98mVra7UzBDFguMdFeDjAEMIqXKIvsi6CjIkc5OxiJqumgWSjJwDipoo+UaplD/RJXI2kU0CsaoBRknMRiPqG2fY3u1xLEGfwS3RMtQAtSzNWkktlJmMFXNUB3ynXm+1Op3t/GZ+89W6Ang+AjQ6zWa3cFSi6mCVjCRAUzwufj+6GzIKruPfi8W/yb/HY4E4I4BRIpkVUBKRACd0ow0/TihM04RxIy0pTPcPEXQTRoDwqnOWD2IM+PXrcWFTAIDvXwaXdpgljCGPAHiSBEShhSmKchJJ2Af0/zi3WQAN6Knjn6D0C22PdVkpiUA9Ue5NoCMCr55ILotSSYEgeBQAr6UAC34HMCfQkde51PYU838gSsafm599GA5sw/JGt1QGJBk0KU3ns66sVbAAIUJo5UqY/5faYQCos9t+npX/6/X/gkbg7vb+TruXSzhBGjJkPcaOAdI8VjuimuCGbdnD5ZSv0HQBm0nm/vKbiZII10wTgr5rirwjV2yAB+exJlgYjX49PfyaPk2XvudE1ODhDRUEpGgC71JJoFHIbBKs6ymrhyC7bLGLL9plSaYeSvctSQtBx7L9oqc30v+WJZOg1DokEgY6UTcvMX5JVjLUlZ8ZVCc3/zQGjmEfHn7PMQWwcqWY2H8KszwNKdCLhDRNvt5gh1DoB9IO4F6hxyJAs7X1eg0BfjEaYLO2s0cDwP9hzHh86g9Gsfy+i2YAfVfCCKlKBDNe1UKvQDgHbwGY/AVJI2AKNbrnP504BDBDIKYJwNqUnhc5g15QjfqLQJYADETH8oD7ECajcrZ/B4ApkApzByp/cFltW5VCc3PfRC8xgGjD+OmAyOwpwWeVHnYC2MYIlksE4TFRg5WbfkFrsYDjFJOPmFgYpU5hkjF4zA1M7MUmFhsBWPb4KKLpUBUwcfxX+V3sn7aCCFSkSiCFHoMBN+u1tQzwi1OAzTxVBmkXcoJCuITC0LBgE1IPOY3WP8XiufGKN2N9IHEyAJqCMTaAAwaiSgEIDEntQ15HuKwByLAH7t9wEvV1dubEMcCOIkD43bMn85Pocp0Nbcc+n0vbKGDvyIO1FOFKAAsI2GEGiZagVPFzVUPO3pM0wMQURpYH0YlKGyS5+/rp5vx8Mp6cOR/PJjdzgvBKCPAMjI8FWLGklEhEpoDgfy58YlnNTBBsIF8vLMMO8/+h79/S3b/Uo9DfsiDeIflNqZSo8ZNw30/+0PVP/UZ6vcLe3t5Bk9IA1wHgxV2A3Ua9+/aAygOWKwq5RTU4A7UCv/uOQfdcI8YDxJu3K27xLuILCA099CCMCuLWz89BkQB99w8Cemo0C7g5j9J+qkVHewI3P2Z8aX4JM5XBRJ6j8YpZVQITRBvSJTk+CXsHlIbhquOJucxJIpLUL4E/AC3oi4lDDTcoyYJ+1NFfkxOBNMm7AEDNV0eaI7rItASEYNmhBGkOCYouYhN1NnYspgo3/ge1nyiWcmVhEAjJPYqCX77sNFmRUrwMK0wJlLoNtHd2ut1uvVPbXk8AXpwCbNX2O/UwByiViuWsrEzLEmoTn7i2YiGu66my95928l3YygcFv8nbe6b0gInP6LKEwXQD0Y4szsk/BRc/vvjj6/Of15+DAOheTih0yZp8xd5kROXDjXV3JcgL0uCXTcSIynYUIQ+xKWrGVC95cHY2EAVQfd8eWB9v5mLbIZEwFAWJBfU+0dCUQAVDCaFIFCNHpWoS+5qPWVwyLMM5Spd9uEw11RgvK73XVkMCuQ4QSwBKR732285+p1VvNWrbtXUAeHEK0Gh1Os2dMAIAg9a016K0D0WQLFoF3NkGuyBtf4q6eGyhmsJkry8vf44jjo5yk/TfNU1x/XOUsRtXAqb5rwziKzLuji7W2ZBencNEshhT6nRZuIdIQv+gAxeglCAQ8/mE0Cu9HjuI6rCSQUPJuN5P/ju/cCQD9Kfp0vbs8QzxFzG7UFeRd/mcAZkTASoilArQZQxw+PfGMGyLdgCc22LaXWKTQAA21TLgp7j1p62wrWZeAKV2u/22Tn1AotuaBvzyLkCtsU91AXopFkDBuYa8bLVV4+21Tde/53j+kzDs6/MU/j0rA9yMlj/c5F3XFF5risMEM6UXuNGEcCqCVsQhF7+0xXGX/jF8n+Prn85MrMxV1X+G+G2mQajU4NefV+4N0ERPAPArJJDT8186hmx/4P/556/7wdCanKjsOglU+4I0QijKim2asBjJCjN3cvEhDLDeONz/78rFUlGl4Y8laKWnVBhAxcUZkwCLvfbe27D4383nN/Nb27v5dQ/g5bfNWqez3zo4iuUBV7Rdn/FlPL12DMbUp6BAVznSYxIheBBgKuYCrsnhwxBezAGBU1YFsDYgHqIRcfkDENx8MBwMxlPfuSFIpDwA/wiU8l9InQwWDGD5BS8BAxLlSzPhguE5bwyF/xkVRJr6g8HZPBNjmKG5LiuByuUA+goyzNIiiyYrjACW44y8cuIDALv2/6MKgPKYSmw32O62Grtbm5uvN/P5/BoD9FtYgE5YBOy12z0aAZTEDLUsE9JzvbtL9LjtZR9h92JwAMDzy9Aecfmniz+iEKnAhRoTHKE1ANGJQkiUKMxzw7sTihXwn9yr8cU8ufQDScOfSIY6IKVPdm7oFUoEha9kggg6dwGG8klQQwJEwrj9rtwE/GKpHBAjWfSFPfjrRA8ARwDD9hL+n+xAToQeoYQ5JHi4EEAsZPQRvliGZQ0+eJZzWj5WMPc1aRCQyfnH/8APRQTDIkUBtmphBHi9ubW1xgD+VgB49Xq70WoevN0r5FLLxmd/J5rSS+R0HCemQ2cxddEajxe2aYI2/3OIIEr6jRt+suxYfDrTJcgPR8HeT2+fPoZvcXzlut+GoxMkuKcQJVMbkoMWeQDdMrHnOeToIWpuFB8kVXH0Y2KlgXPLUHqgRqKo97Z99onEQ31c6AtvR+U4RAKFgnGQCJOptNQk+MHlyKKULsO27yIJ4IgFUIlIO8+KziDhD8RJFS/HSjkXXrW5UqFZbzbDTLaWDwPAugHwewHg1et8rb7zX/bOpaeNbInjssGPXGOM3+IR+QOwS6RjuWW1Iqt7M1IWrGfVLbXUkWUpmzhoYoIBiUWgGTEaY4kRSNN80dvn9KuqzmknwL07e2YyPIwxxKe6Hv/6/ff3OlIR8HxO01/CBIbP2aaPrqLVn0qBwyGhtCWkiAlu1BR00zFCMioIu4DunKKycdUL9+b5m9912+GrC+6dMz69AA6gGZsxUCXgSwMBH1n/IKkv3NKLUbzAFRRmE9KIwSce3CmbNOv864vY/8j+DiV6SZbDYL+OkT5jvM2AscGa5qNFZV8eUQIOIW9O6sIIxLSnM+EEXCohJ+D/5a0cQ4CKG3sHzS5fAmjm89trEODzKoCtzc1qvdvY39nZLRZKCRkAkVkHkN86kN1a0hzgZiKSAK68X6TruwZU+wyjtb5UHoSdRQy0QBi2+8JVAQPpBNyYQRTcgFsmOomMEY8hcVy/fBtxzyDuZzy2Pp35miLxh0bcyX6+z1Q24hlTPIasugnXi2E8gA8UtwwFHbn0PrP0jFtERJvbetTgBPwCPwUCEyMmMtZjpCEp7w/6JOxBfNHH47HNrUBt+/Yzdf/pIwoo5n++6G0eXzgHkE8AK5Vuu9uubW0lXmDrOuCXpMBBxRRkAN12q93e75UEsa08GGQiAlVGjigC3I7tWIU3WcITnsYAl/IC3CEY/lNNwDBSDBqGgdHjaYQwhn2mqc20JF6FeOtU51xSPq5czvTfTzzF0gvRt0D5n08R/JJCRqMwcCymIZB+NVlD+rL4wa1RZgCIrZF0/Vij7j0MZP6JpapiVEh/BUA8rGHmiOQWxicAfBisO0EReA18QMqELoEX/wcUEC698rLo1DwBKOQ2dvf2W83KQaPRrq9FwM+dAeS3uEHAQZfLAXqFeGv7Fbcb7goWJQF3Lj77cNCnUvdE98JwseStuWvAOGG4IGz84cnEborsSj/jcVq99ShCykIffTuDrTGkzSdrvB7MdsP/J2a6qa0ASyT+KOVmxBYIGCRr+Lyj8kLzYWjwjjPPf1wCHB3NbOsUdRM8pnnEWjh67DSQeUDL5xEKOtN8XDBoYJMBSJrOxzz//023pzfitSRkOoNSefD/uZULxXfF3tudRqMl6DbN/Pqy//wIENzqtUrw62t1Uo8AlQ2Tgueiut3+4BRwPUQFPkoNftL7N1KhINwgxncXon/DjcliQ2nG4Loa2K3NTNEZkAPbkx9zoSJYjHTnSkJtKXEd6DIK7+5LU8HVD6B2QVawQBgR6bFTPfuWGKM86vqJp5jREZiHppgJaqlSUFOoEZFIMXENjn+vZ5bNDdnt0ZvbYq4Q6v9LShBQwpbr08/hCz3tOaNylO8Abmx09lqNRpcL2pq19RrQs2/57e1qtRr8ud3c2QgFwYoW7c/wzDgC3PwI/eCsqelcLtMza8jYwLBNIPf4DbJQGJuNKDEjQXSY/yFD/iQmr59k8ue2PptMFmFcuftNt04uVozdCS1X5cq3gq5DzPukd+XxumrKHn3Zx2/mzMmqAFJrtJltX2ipjTLDDQZCNvQh+Rd0OnyWpfrJAJldmTzuj03TnHG7iRg09QszpVV4wOxPlwu5Yme387a10zroNrq1fH6NAXyBDGB7O58PQkC+stN518tFW9sDadIvybBWlArXP0ahOE23zcndXBb/g8MrFnriFUK0C5wRFIa4rRB2EdxEDcTgqN5n2K8rrrwvpuL5LSNtAlfPXCVLvRKsR3IvpCuEZGSXOoT4uM6m3mawBefLmmP8/cQ9zxx9kRUA7gEAydFPNIa4Pph4pDJcRVUTgBjE8z8/eVpSgyH2AeUj4OloPHlfKPDzP8CgqX4mEUwl8ifraPILMMguCrne7v5Oo9Vqtxvd/Nb6+v8SLXBehIB8vtZscbtgsRb42kbA59ANTB/Zlm1PlnO09gfPtxvKfmEG4MLDjuOFYQxd3DNIXEhc929CwIf6XgnnfcaLFOcyai3O/7Ec/dN5kpl7jJ4LYvytdg+lzl7Eaw8/OZ8StyT0CN1D5H+ejKbzy4wA8AgCQPBbR4uE0Gx4hZ+oZDaa7gklSl8wY0E/20UkTxpNrOsIAF56leHnT+p/jgESHLBGUAF0293KOgC8eBKwvc1VlNUKhwMVYM8GM9yIVciKLKB/fcsxQSGMw9StO9dAfDDUAnRlMADICQwVVBBkC2F/wHCNvg8VdB7T8Mo6bsJ9DQkG97z5YAgX05FuHX8VX0lJe3hfx9eoR4APDouvkd4b3rOHXr8aSgxkyY6WxqJUGjB2Jk8ZAWCCHZDsc+TaB61L4iu8HydFnsbQnjBKaTwU9LyYeuAhzCCHgI6ES8ybiX4Nzn5fYTkDksi+YjFA3hfo96WdFK7/LfZ6G293Gge8+q81K/V1B+AVAaAeVAGVxt5GsSD4gOWE3LCS3j6QN4X7EfXhxpoISUgQA7iH6DybCuYmch8DXt+jLr90yTeGLmIFJeXBh79jWyqWhd1Kr1pXtm2b+jSyF3Dd+cLU7U9XHkgcfKUNMMFsEbMs5eoArPUVdlxkyZZAw3y4qnAxNZdHd4oawNSdRxQAbPuUgQUJjTA9oL2ZagcBNwslgQMD/4U/7MdTyzRt3Rwd3r4vJPCPgWqbNFP/p1b7Kf/h5X+v1+l0dtoHtcpBc7teq68zgJePAfJBAOBskL3ORq/I7VvLP8nYfiFz+8ydA4MAIBJDezoLCgEDWgSkSYALjnQiFjIilpib8IOwnih+EDexI3c/YBq/wsgHpK3fgghgmfdGtJ5kGLfTIAJMzhDIL67NfSyKj3fofaQQ1IidN8oiMBIEc3gRz8+X+Xqpp/AJ1/s+zRWbQDZGIc905zxlE/vIokCTWcdkOQF7IVMyCpYzRDnE8Xg00sejQ+s/1+8GpdJzkvkVCPoVIsBCsfhuY5cbgW7XKrWgiq2uz/+Lrv9RE7DKZ4Ht1tvdDlcDlAplQm7pUzYQVHbJKUA4DvjXFPNAsSds687dUlIFGMkY0J0nKoA4JzAMSgKKl4lQk9ANS4Dg3w/gRQ6Ju+lEP8rRg4P3Pcybl303Xk9Y3nAJ6/FXaOTtaZFuhgFKuE9gQkjEDym5UNZLe2bQ5w+Jl6DsF7sCad7UtudHR08Tcvwd2344IgFA/wfTPdNTHT1JLw2HPhVRxeoGPy0bGDY60ZCZMfsi/o4da2SN3+fA9X9A28lkxCe/ePp0ICi//vplsQMclAARBaAevIi3tqr5NQfkJRGgmt/Ob3GnsBrfCmrtBxGgUMiVB5S+hhL8fmYbF33whg+GxfE3uSvP9M41cAgAsh4jlfvHwF8XEoGMdJBoxKRwI+WGCzvyz0lW6yGaPsgK4hful6mQrN2JXaMo7jxyDZN5fJG6dTPNQ17hUWEenXkvbeV7WDUYGQF6wjhYPBkP7wB5ce0tUcji45f+HFEZzrQvE90J1f5wHTD49S6IFUIQIswr4BfK4ufrp+0JBr8fA+Kk5DnwJMijnU7xZiIain5PF8ccTMb/rg/fcwigqAH6BCTR7yvwfwOF5E/CA6L3y4Pw/BdyQQ2wtx9iAPKij73OAF44B6hubVbr9XrtoNttN/a5HqgEjAJecXt3LXYDOC4sTAJmD0vC+E80QZE/AHg/ZAJgiEhy7Xdd7EDAkwPD/eCzlQQO8Mmr4BCZk8lcAIfjROThd/3QnHy/UGh1oHyefBNPtshhiAjAyCMlEhqNZXsB+YwRjPjFp0m48/v4MLPT9H9Cz//RU/DBM9m2jH9HT9F/yPYhYmpsAbnD1xOOADRN3R5fF8VSaanwvDLgme3/HB8z5oq93Z1Wo13hU2weANYs0BdGgE2+FBxEgFrzoNnstsKloFK5TLsxCnGGogTAH/18/W/ctR4FBYFp2Yv7JZ3xGyp1X0QPGFLRoKHsIhoRbYR3AmX7PIoKYlFBrTvOD2A5GDwErwNG+skZo0NzWRkHsnoi8qe+2UjMjxduY96+D7VFxP8rufOFk8h9FzOLCy5N23aWCh9Ex3HOpYVjRPxNTZHpdpMGcQb40z6lHYU24NMxrwDs0ZvL641cgdPlSokJwEDxGlI3laU8oC+piEIX0AJ3syzlcr3OTqN9UOMDrKD+ByKgdSB4fgzY3BJ+4ZXmQWO3yGeBg8gqZKU0azBQNgHwJ/66tSJGr21aPAiMFw9zVz7KBjT9MSJTMNlolH4gmRSInMF1GQRWIO9q4tt5Jdrnzv3QiHuJIpFYTm398JN9cqZRgy2k6yNzQMkz0Keq5NgqPKqvidGPRlvyxIUzlNqDYd/T/H5xf3/39KRyRH+Y6c5HxpgSYAAlkSqSuCR29plG9gEZ0DRq59Pg2m/aQUk1ut0ockRnZAO+spefOSJYzQcQGHAuV+MqwP1Gt9usV4Or11oC+PoIsMkbgWEGEARYQG56plajr1IGXuqiH2iOw/n71Hm4cw35ZBs4ELiGYcgLQ0OXfiCZEPKuwYc//ZRPiRb1mA8xF+yjkAOa9pxojYYPh3xyaf2XvWt7adzL41vdetmqtVfxhn9A37qQ0CBZCc2L0Id9nqcEApGQoftgpkzTO/ShtQ4u1kKHFsz8o3suSXpuVfc3zlszoLUX7eg53/O9fC6Nb5G0dkyHIZTGpCB+hAIIEee7wI2P09NlFDwlRcAaiu8YgCjK7XdRAPAt1aXMxwKCBERZhJAMqEhHKFjJhxPIpkBSGEgT/rLn4DmPYZVe/4nYJFgE5J1188G+P6dHjxsAMA8owvw/l8sdHRxsBgCfEAL+dnB4mEldFGKJYKKDw7E4BMm+SDg8vl5Hw4jGaoHqdR/kAv7L3CY5wDFfIDrQaW0ABhXE3B0bBsP54Q2tqyNJ/D5EHzsmpp2WOAAAIABJREFUykxGjOFgtXrzeAfDlTH+xonpiXk15PBf7PMhtungPDwlSsN/hR/G37HmqOby3+9fM/ArHit8LcE4k7Oa5ryUkrQOILhKb/qOcYv8oXXnqZzA+H/q/GeWjMzXkuKbXLWJH99D9QXEAZ3mC6ACuDhJZTb7/7OIQZkUyADOLotII1iuiJDcstjg8V14Z705gkkiBIupBu5gaQbIA2KTP9pIMPzSRopghElQpClOYwmqoW4IRhXbdsAY+dH2HhF2b4JTAHdRJecL6IdAXJBjqE67PVB4pz5JMLcP5X5CYT8Kch9wR7tE0g5oS1GFtNykxQKkmmta/gcCwBQFgDiDp1S7aYkgReHnfJKI+BDnCySKEfyr3WHyt6XrI1iXRyxgyr6b8/yQWSMQ1jlUFtwdIgAqyWQisXO1Xb7MFrIXudxFLh23/zdx4LdyAIioSBWgS8ApAgPIhEMjGcDlNzIAmRR/p3XD69Omr5rISRh+MpGtuD99sUUcvyqBB7y+XscP4j0HqwjYd/N9lZJL65JskAKA7NVUDat7XWUVCu3lyNVKkNzS6k8IpXxSMJ8x7pYUiTEKouWCGCyAQFxD4tgMuAYZDMKhXMNU3V/v7v9fEOAwUBgakyQU+SS4RkyUZBlCvF0pbEs2I/EH/akMNj6aAeICQOYMv2Ta9FP+ME+QegxCgIqXZ2eXhdzJSSqVy6UzGxnAzwkAEAuQujgp5M/OQBWQ3KMJWDLn6S6/m/6zIeD1sT7yoKQdlrXStJJhGq47m9EEPyQPYF8zRqGMcEh1jRk5agbadj0gtyIxUiMAu3BDqZZqjqoc3QDkEd1RCU3ZTXfcVwS0eopXHyiKUCRboeWFI/RgQHoYBAr5DGbMNum0G2YjfHEHHLWLd/e/CwryRszupWT9OZghy/eNlAOl2AAl7nFSxErMIe7jlg4c87p1NP1LJGkOkMydFbIggWQOi3VPCa0Ats9A9Z/NptLpzFYmncmETmCbPuDvg4Iy4EpdZPPHp6ic29sLW4Fr5jNrKgC2nqPVAlzf1U0jwgii5aOb1st8GdXyNmketKr0aTmxKu06SjTxoutfPxjeqqAxOHAgf9UqzYUTRruLrIZhkPA6A4a1z1bDksTOBgMy/wgkHhA8kbjjVqL0uWq9dvPWbHrT5wCjD4ImCEfvpQAL2GipceUPrXROwIAorhTtE0ARBQPOHu2bi/p/mqNrzgPSAE0mUBOQHRtTlrMyg+zh54ACOlD4CTqBJrYvLxEFIINQ7EdHkQ7QJgL8Pi8I/kLTF4VCfntnB3V0fgsOJAwRDw8jEAF0NcoDdAPXkIY37cbb22an/zFN2BbgAchkwMbjAIQMfmYRKwq5/uEy7qjqP9ySOpxRloSxNll1tnA0A1QrhtFojGsxQ48y/eVHaPw0T0C8YRyJ2RSj1hu37tRb31vMbux69IqaYVnTtyPAAqQ0ZnstEIr6MGGcT6j3EtBNE6oJigCKnS+6WjJUvWR5bp0UAP0L8yP5Q3ciBnAZ2QDl0mlkA7R1uJn/fyYuGCKDoUDY2dVOIoErOpa1WZEpPieB2eYsA0RpglypJx/9V0QSQgeIsY9Iw5ZqGcPpctYlmnzXsSAYvdVtmgtAEQPDxADhA25+BJKk8KIdcXsQqgManur7ttiWoFrtLixcr7j7XnPcUwgoHzUx42Zkot6hIvIUU1g5AaU/bjdhoeT58y4KZT+i0/q+rXK4fzr/n8KUxacRPCtuD6UFFKN5A+5Nir3T6RFBKE8IIrfphzufdACmVgon9yWzy4deOTLjJhZOAOH4/2r79PL8OHsCm3+QxLaxAfnUNgBEVWbSqZPjyysYABAocE/QB5SFbI7KGgdHZuib3K1XnkZDE4/hQJVdUl1oKwgzAZAITGcz2145gNlvsIjXfhkBCb//eBZBXOMbfQtHoZHAtTDKRrpTT9X2NU0D1YrRHvcnfHXPg2p5G7E1kmM0BmjQabUMGBxNbbRY2qFcwfcYwtNDxktv7n/V9Wpiy2FWjVxiqpc1bn8shDnsTDo68ibXDff1AVT/8HymaMBcDy9eP2/jgdbagWIToKur4nH+PF8oFC4yW5mtw00D8HMjwAGSCLrIH1/uQMgljLnJPWF3RhZZh1cqPJeLv9A6KY/++2hZLioG1JJj7KOuO1YUH4FUwCaUwOw1YMDqtQAsHMF6w5d+f1be4AW0wRLWwSqe8UKDK1KCPfUNzGnSLc1pee3+ZCK2DWSI/+SMbZ3QPx76TYJep91yLBXqarjuAgbB0EcJ6Z1F0aIN6hF32hXv/yX83ZnNPu/ht6ZC+ZhzocDKUOk0bw3wB3M1De3/XYwA4taFqLHHVPdcU1kWAIUwBGC3AjmAp8fZfDabz+eODg//voEA/IEk4PAwVcgeF6/KybirK/8/pd17T4gSxsTDw9Ojae27KBMogQOlhM5jZDSuuYuXWagjUrX5Hp3AUnTlHWKv7MbhSODmWWD/jbdDLfTZtpZUc6HKaBFWZ0MPTy72PfD2mk7zZ6dHN8+I6X+g8Op/oZpeEAaEIMQVIjudXqf1tRlSJgzLH3YxHTqEQNiRAzpqxY2h+5L1ImgEzKfoGyA2o8Lajoe4/5X/j6RQAEHyNQF1mzMEg6XTzzuU/5cszfJ2Mfun8lf5P/KHn4GcgLeLZ8fwyqaPNiqgfwATfHAIsoD0SfayuL1T2Q1BgSxQoyK0B6UzAKq3K/xbw5zu6WH4NLJK+ytpCxgDwFGruoZumt5wvlh2rwU2wVXKOKBKUwlWKiKhnLBdfw4kiZzSh315UFZD0J9quXaMBaYsy2OkYne5sMABDS4dBCrt9la3Go1epx9RaANay4eVJiQ5geH0cDDo99uNtufApij4b7uq+2U4n9mrUUZYAtwQlcSgY6ogZlmLGRkDfl2/IIKg6Y9qE56wRJL53mwPCuyDuTIGUim/qDhtK+mjMvYAS7Intszd4FdRRbhg2BUWz5IgD2i7WDw7Oz/PZ1NHmaNNAPj8AHC4tZVJZXLZ89PT7QRCXRN9GnYuI9QDIQp/Ev4hYgrBEJAoPzSfQCVAWN5rBgQJIH45qNENa7GczbtRR2BlMGiLy3+iDEBFdOQh+v05YLy9wVE26I9RO1I3X9Y7lEZXdzn1LVMv6SA+aTpuYjoNtzVu9yb38GBURNU0i/m9v78fdMbtlvvVUU0MjLR0TTP84aLexe/1xsbvPpxp1KkZwWsoCGL58+v57NdsCd6VGxoyOZ1J5GAkZEUqkrLG75fFOUwCpl6I5QCl+84dFiQolSzvISzpKAMATstfJqaC1IqgFQNJXTByxWBqITz/oQbA+flxAVIAtjYdwD+SARylcpl0IX9+VtxOxLwOpvUvFAWV+bav2A8qCvJYOgJiu+pPj4+PJcOBwBx4IKPTzFD3EWgQ1Oia4fojnAzYb/sJV2NPcfRM2E60sY8wyKnlSDhQUb4poOZuOqiRhX6qOa/yJCOWsQjygNncs9AWNNAEE71cNw2r1Wo0xp2fvf4AXMo9eQaDOyb9QafXajXbjYZjNrG/J4gjuqEh5VRjOu92baxuRLCTsQqSLdMggcEo9AdE1YsbSQNYvtWoSeJJwxtGhms6A4LyP3w9FFXXsRKhOUwm9ygVWWrQv15ThiWYUGMBLgvYC3UAdq6K0AeocHKC03+0/zcx4NNTgKNM+uKikM2fF8tJorPzfu325rO4fhD2jdnbxaldslx+eBxqPthRPtr/Bu4HQMhQmBuADeca7tBbTGcvMzQvtCn7UVJsOBrl31xHxGKkM2jP7PrDT3D8Oo5jou8cHp0jcArPrkkEIk02IquM5XLuu54Pqc2mirHNYC/CIYHzpWSVnP84X5uWd9dsgpDQ9Jxmw7t1YD1j6ahxbmoWDh26D37o/9i7tt20kTAsmoK9SpMQwkE5iQfIHRdYRohdWfZNpT6ELVnyCo3EzVpV6+3SVuKCZVkRbYiUikjwpDv/zNiek6HdbdIbSNqkYAKpPf/8h+8QxMndcjx200Qls0Ek1AYmWSrKBffefIzDMCuZEvoV+X9+/o2XMN5wQsYb6Sd0uQd7m17el9hIXZLUACw3BPj8fgjYP/hEawkoYmlPerHqn6VvHMuXkgkigGT9n1frrbMzkAA9erVvAD5RCDg6Pj4EbaBa9aJdKqfMrnxGow3tBRmejPISQF6QAZikecTyR2M0m69jXBPjcsDJKgLfZ5N4mhvQFAEvtnj58LC8Xz3gvZPODV0mMMqcg12qKgwcf1xGLx9vl3eTZDpFAUBXPdiEPS8TK/FwIY7uo0iyJhV8CtNPfNB4NF7eDUMfOI7UD5tuis7NT9DL9HAuA84DN8h/7Q1+9bJfxocWgjPwoWB30ORucvc4zknPrsYJBb/9n6OeYuL5+csHBMRKHACCEP+FcOqxyT0FebECyQVIJB4QhaBcJ0iWLVUog70/wptMi3DesXWDYNvmiX+2UjZmw0BbyRUk5RDy1aQAgHKl1D6/rjZaZycgZHm0VwF/OkAgjgCHkAJUZW0AezcXsDCMa+9ki99gJDLAHuGQM08WoR84zGFwQCiEA9EW2wNdb8dDfhDgrThE6O5uulpN7lbJZHmXTCarZLm6W02m+K4kfI2ghf/aCxn0IP1h0GtMl2YwwFV4VDBi1OEQcKx5fFhOYCsO8Y91XpM36cMow2GVgXNDxhqel2v44d/Kx9FmEE+Wy8iVfFG1rwtQoH84CGMqV/rXm96XL2+T9+v1h/XnfPPOLf90JoUa+0ShYsgpCbzucUYf7HY/kLQMJy44i5mMbJwBWN+D6S/fzacDbP8/aLYPLqvVWuMMMMBHexGAJ8sAABJ89OoF+IVetCtEJzzTB1PB2mLzxrJ5wpcAG9JwvUgPIAOR0YYAAR92rM58jkvtAMcBvH0OHbqgaGsAeoRp6p61DQGvR/LrXCofnhHDigzoVu+RjZqGAJy+v/ZJgeGwapaU8hPJcUjSI3cF3iHgknF6fv+AS4IpQtOQ1BQ4Wt3Q+IJ3SpzJ3ASpdKeHlw1CyQSQTmNS7aeSRtnr5NVGJotExhj/9HoSvqjoJnP+i/QIusqQQqIiKm5IEEv++hTSlunQd9DMtkt5hmjZmkxPBPQILb5iDSDBDiT1ASlXmpfXF/VavdZonUD+vy8AnrIRCLfTk7NG9fzgoF0iqbqtxgBLVW7TaL9ZtkYNluZ2ZO2bDBtEVn4505M0jM7ImMaT6TAhcy+yfB1WRYcDL40Jg5gPBYEsmD9ID+P6CpTBgnAhjgsBvJsNIDUgDyRL7TbsalBILkMosdJ9PI4elw+r5eoxmQ7jJPaJRg6OYHEyxPlJMJ1O7xbLxwfIHICxEOmQTGlXI5K0T6J3ap9OWfe9nVqoxUCg3U8k5cFvvwc0lN4gFM7xaQILwHyh66O8zPKxd3jNSJcRuT4MoABcggRQo9VonBIh+70G6JMCAl++ODwBdYDzg3anZG/FeVhb2n+WpjuUg78MqRjIb7mo6Gg0m0/8OA4QmIyR7dqhbYCBT/d0cenjzRwX+Q5ECJbu42s2DB2PUQ99eqgXOghiQxjEYdLpzMgQcjgIl5kukOBnyvUa3ZwrlH+NWCwgdCXoOUT3j2P8iW/R+PH+ns0to7zJ7zLqYj/iXc76kaB54jKC4898Fb5RYgDH3kvB/hvZFmnD2RoXt//VKMHlCJ/eMu4vTmTikWGwNu5Xkn4sGUu6xREkFwCB/B/6/5VKs96C29XVIcGq7VsAT4wIPjnEt7Na/fIcPEMrZbNsiOiN4pZ/IVFYHB2aEjw4s5Q0+GiDv6lUZreTUTKfDlEQDGFsBvt/gEMCjApJSR+QmRoDEZAeX+CwrR+BHCkTIxyw+ZvjIDT0PDRNFrejDrynhUcO9fxx6l4oq5K5rsQYlEFIooWxoGeY44p5ynLqeU4Xf9TPEgNB74jEl263u9EQiLbM8bbs5YL2gH4GuFG/e/PRh5LGgS5GuJ5xyB9boPkWScXqrhxrp0MQvSjKlfZBE/D/eP8/fIGz/30H4IkDwMuXx8enYBXSuqqDYVi7QpI9eUQreb5I2C25NJTNXvgrwsyXPqsG8tAAjUij3MGPj24XIzSZTgfI8d6HnuM7OI0HH1LPCQJqRep5IfTiQkT3em/AokTgQycBIW8YB/N4vpiN5jP+rc9poRGie7qTS6BCbhKYDurcKDUwTH1KBAlTN9vtc0czruxPyQpu1gFwMy+EvtR3cIn3cYoxZoO5jTKuEzDHqRTohjl794SnbNIDWPewl48Dc6BwBmSGOz++9YG3CQmWP0w6ouyHhitiqYA/S6f/IV8i0hVl0gBQPmhe1Bv1Wq1xtvcAfJZG4EvCCzq5wklA9bp50AF2sJkZvlt6zof1zUMBhgfIWoFc1OdY4IYAHcTb9e1svZguZpP5IsElPAoGSRw6PqD0Q0DX4SQghBoc8gQH4TI8QWEYr8P1dL5YjGYz7dtEdDgfrMZ8wS9rD/HO5RADxqrDSRQpegWCLToZ8StyxzSYuBIVKX3oXU/s1UuC5Zt8rxbZhT2N4k9m75l5EGtAi7wAADFUJ92/kETYm0U5Pz+7u/nWlhrRKnpa1vwDRlqpVGk2z2tXeP0f7vn/z9kJfIGzgKs60ALwOSjlcu/SFm/r9II1zcD8ghB0YmEeIJMEeNoQfV2TCxG599CIYAjXc7yfz+fxBN0uksl6vVjj79eTJJ7jGDGZjxazzmgx6mx3M03IJMBJ0D1vXSZxj1yRhkS27IjrC0R0d5csTlKSgQAy6rui6pmURAgQhF8kz9NcpaubqZV3pb6+VML3uryuuawGJHCauj3JEqT3pwczjZ9wAeD5aFYqG2qzx5LRf/JkQL1IZDPA9HLILhbY/4kE6HW1etlo1WpgA7BfnM8FCXxF5UFa1SaOAOVSBWdihmnpNAK17G75RGtmRTItVOALb/n37o7TzE6L1GwTKu5O0YcXw8GQjBHRPb/MXWmRCsN7foKXgpBT8TKhgeiKyuP9wleQQg8rEiJZj1On4C1IAHd78nAvSxA2otqXJETKWIM5Ywr2/zjFS/lo3TFy/29e9E851YUOf3aR7LekIM4GgJ3mdb11dXV2dna4X//PHAFeHR2fHjaq14QYRIoxo1gRdDf+Q9GDtkxTczhBBZn2/4kC1g52KiGYSy89C+nMMIgfqPqg6yooY8niXFi9NPlnLL7syQqc2HU5dAHfalB9U1MwYD/6WxwC9Ho6JzJuV+8KfuCCSThvlsr/yY2ORV/wT3+gFIo9HITvO8Un9FsZwNa2y8ZkKSBOAMAF/PT0FHys98j/Z50FgEbY6dlV/fK62QF9ICIQYH7ref5WjTjTMKkaoWH9Zwr5tnhR+MjcSweHy8h1+9s+VJiQ8Gi0/bmsQSg9X/dt+s27nmodtuHXsAbjR2kAEgiQCfrJBYIMGMydwT/5bLziDQMnnv9n00/rG0+kia8AIjTcbtbr9Sug/+zVf559GAB9AFwE1KrXB+1OuwS2zGUiE6jQe7XZnEwcVmEfKl0sJQnamj2a9YXNrwwmPGfR0qqXie3MzmztALoe/1kqzEBRJECo0DUSAhr5cglQJD4gJBP9vlJARLLU0NfI93S1Zr+7JH84NDFQ/99TlOQgRGu0Htl6uW4rLd5tHsSn6xfJX9WmEbsHAoBplCoHB9Vao3GyV//7QXgAGgGq1XPoBFLxF1M1B9H7OhSLw2073KLIwwKvUW6OaG0DHGTQZA64aIkWFYrWoWXfJinTdhXt1geQ7nC3kQjEJe8qukZu8Q8gvYZ33WLvLvXfSsdQd6CWESxkBp8//JpBJ2PkpNu/pVPxU6xjivQh9ZeBAggmoyC8/eP8v3Z1eLIX//hhKQCOADgFOG822yWoAIzS99V70rJIjP8jR77jRY1tx9+GzOvGX0Wp45gKCUoLdL5wd/u6gkDDLC4uKYoOIP2Fntqz4zN9rqrnGIDZQF+q+DfdXCNs02XVxEayKux+/OAQHiP+Oxj664XxfU/E1vQf0CClSqV5UWvAR+NwHwB+FCDgJYwDW9VrQASWwJnNyOzfJQt4yTZEwxVWBgT5lm5yAwJmL6XpN1piXqBVJrUK+stb5hN5nrGYAtfd95JBEmkEAvsZWlcaDOgNy5TcXhn8abZ+jQ+660Z/p/CfrurTwXsSdiVv4q7oSiiChDeSY0IG/yEG6sTFyZO4vyrG3xKFwLUpnsr+1YjL5GeGbv8w/6u1anV8axzT9b8PAj8IFHDcury8ADhAGRoBJUElwN5l7L7DHl44kq1/w7YF7pjGbMr6ytfSCU6bRgERDbyLQIwA6IbJQ/+pb27/qwnIv/S6usp9w8n2dbcV9lvFADk5gEyh/HdvOMT/DRAEwgFaKG0c9bxtNfrbQgASP0yTKABA+++cuoD9y9657aaxZGF4gICRsDkbxEk8wNxx0aVGiLFQ942lPES3hNQS6oibYVsTMibbki9s7Igtx5Eyyh7RTzpdVX2ow6qG7BmN2VKjKLEDxgm4q1at9f/fX69fVrD8L73637AXULvEhCB8CCCBIf9Vif4/vqGfrzgTImyW2zV1DEwt9xu0H4c4AOVZ/xBKAEgzcKQ6Q4adf4llep6YKSR/GDbzPGbf9zSVf0BILtG8XzF9+K8m1f5fr/fb/+P7SSDDuN1c6FT9zb9+2W7QCUC6ALyhLNA/BdRxWkieaALzZ2e8+weJn6l2/OQuUFCQI7VYVAEkFv4lit1dhyg1LL+ALA27h+sZtQ7bXx2A0RNklE1g3S4vAUza8o0D277BLxUbhtMX8364Y4DHphRELn55+/c0DRABxR+9/+Rv/Lgd6s7d1dSylupTvUyH5PGR6hIRrgCo+SNPHACjDnYAt/uV7Lt0AviWN+y9Oj8vV5qDXGFYwOPATL7I6XsF6KvqPQaUweCREiWYDqWkUji8XMaQJZ1F+J/hZTALcO35+ndD5oNCaUVG0rVsSFe9IdYABvw4dg34hyQDZJp83lhq/HlRqO+YC/YSIsDCzyOHkff5A8EyuzNsl7Yx+Sf2++liSLx4DkhAgijIH0K3oOjvMDqGgBVyg2q70cfyv3Tvf+MFgMwD/FNAt9PK5XK4DKBaPUjvDeMfpMg4xO7kfGNPsIuBvnL+q4GJpNAvlOLNg+NmdBd7Klju3ZBHRoqAcBgfQwE5GQDLDTQmgMiPNwAYDF0w8AYx5AGDjyOIv9AgSGMvMv6zmv3IIARRvjWNWyxiF0EoHvS4BeXucUF4iSams1rmfgeuxfILi3S5BSxsEXzPGIqYREV8/WcwAWCYa3Wq/UqtnCoA3rj+xzd/Abjo1+vN3oAIAjI4C65YRDD0F4nlu1h38yBYpCSLINUJAP4bXvWDlPdHTxtLiop8V2P5YEeckYdvjjjsN6IUIk7eL6WJOKHLj5MBBJlFYRi6IbqNJI1xMHzcXI0VUcSshJfLG2QTkbQxH/TJppzH9/xyY4a4YWvmPj/vACEVUoIgwJdazAjgl3YkvqdnmdGw4O/+Xf/8X+37139q/33jBmAgByhjUHC1O2i1yCkAA7yKUgcAKQDRUTwE9DOEkjEiR+FFkOLpgMQ5hklyJi89dCFY7lZrkn2JIQLfolrdiNOJOT1/dJE6E25TD9p7UepQ8JsTJ5jyGz21BDvclzHqg6sxiwLSpD+lnLJDD/H4TLPxr58I39wkMHbbmj8r3goEIMCTbL6Kt4Av3YIPixm893d69Xa93ibb/7toKJ3e3qIAOKe3i1qpjRfl7qDTyZEVIE8l+5KzSzkO0gEpnnRYFCmiIk5GONmjKLJI8c1447EsQ+Ar0uh7rZ7tmR2QyB82zFHeMZgYcm7n5u8X9b+GKPybOM6EKQYmia1EajN+GUtoUE2ieEdMAD4V3ROrB8ZFRD+5+zSnWanTuTUzLet5xw5jEb/Py5NAxKgvpY6L1CcQmgjB+N//ccoPO37tX61e9tuNGhGi/CVdAN6+CMArQLZWajQazV6n0xpSTE8A6xDV/bqc9Y50WdcrMmBgviCCUIPyN0Ki1xABnGkkBdip/r36crubUx3cs//b/QZq6gnYDqjp56ilw0HQ2dFSAAfHm0Fj/DGU56cwCqgtBHefFhSjhglKi+l0tVsmm/g4CJREfIKwUcAXsK9+8SxDhn+Dll/+19ulUjkd/p2KIJCsAhflcq1WafcGHYIIw+7gTOAPRjzoC0TCCp1/qSuo6zBEWFViCiYiJOrRBB8KknqEAr9KOuxu3SBEAOfvvH4zOO8PS/KVAsvilp7Do4AmDBSUm/SHFHADfqIgJ3jytxdauHuBwTfU9DJQIC/o6nlhkoDHDAmCzyPeV+gwHo9vrWva9sTQddPd7ZNHfQLzTf4llflIig4VPCVF/8epkCnkOtVuz6/+K9lsOvw7qVEgtgX4K0Cp3iSgUCLWCryBcDCUjAqVFANgBxDphyhicD4hgkUBSIf2ffGrkTx3QM8rGhyA8aP2/Y/NhAEGgymF8biAK/kNheTP4FCihqQ54GMKKTVQ0zSe5xNSuxi3n6ax5DBN04RHi/4f7f3jJzukKmMFxMf9Mpn6DDVbkzsD8trALe6E/4tFJoVct15tXvZL2Yvz6BiaXn+nMQokyYGlPj4FYE0QVmzkcW6I1Pf5GRcIOC44+iuO/6rjPCuI0wsud3YQ+kWivl6dcAAQNQUF9q8Rq4WcmP8RzwecSPZnxE/jMK1FnkMchYNEM0Jj8zImUV68K+iJw3oxkgAaXv40FrNBwrUAO4fef16QAAUbS3+t2Wy9Xh5+uVCiMkgxGoI6sYhe/sH1P2oNev713y5VKuWL9LI7rWkg+fMCFwHt5iCDb0M6DtAhXT+ozhc/RNLXgs1DHWwDJmr/AT0KOtSmlJk0yzVN48ZTsalp//jdETZ+h48Tc4CiwElOMWefyznUC8DJAl/GQGhvHOkrZIDFSkAx8YdqArS723mAUHft/UdrZq1/U7zcnB90mPVlAAAgAElEQVQDfA+Uyi8eHybJ/0nwRD4zGuY6g86gV8f8L+wATq+7E6wEsjg/uNRsZfwTW2cwzEfOHVUdr8oGgcNjj96flUkkxxxJUNL0EXFs0j2lC9MiwF6/bsB2fdzHd473AgBPwsgMwPYgmQWArh5OBww6fjxeQECOAn9/nIch57PZ/GHmPi+Pin5BqlcUHYiJRvKg9uyMnCfz+Uyu2qz2qpeVWqlSKhP+X7oGnF4pgEGBlX61UzjLDKqtAkaEnOlJ03qp7Z/IhUPHnD4PrRYIZNEfvbawDx8tXZJDRoIJTX8JuN8o9L4Ge5lymeLABCAJGsKGEjmTiYATcyglPBrjedGuL8gAvDHDCvCPAdpTFApOS4e7x48foqP/1JyZi/XuiJdbMPMec8JCCS93MY+b/2QBaFWrdb/6x/Q/rP9ND/8nORF4h48BjX6zUyi0Bq1CnqX4I6CHJw/kkM6PBKSMEQS0+IQJEtIlyJSwBCDpykcHiaVwVbBy6XwM/7Kn7vz7Ju7vAY0+ftYf9wT4wHHxsY5AHAeLAIOOA69e2BbeE9sNjHG+WuwT9qJzQnTHePz5wzwOU7TN+dRaqS9/pNrtpRGhqAAUprdI7MYS7x/hf2eGnU633iiXsfovvfZPWhmQrZX6zUGulcuNyCSATAME243KIoQgLQjjKBGGdAgi0PGXPRtFDOH+OEx9LEjh2gKMFIhdjiie8PkhiB+mtCDXvd84IjRQuKAdwR7sKFNHlcMEhYkQ1wDEGeRpQEiYJwI/ucgPLTICfn7E2cgLUvpj4re1X+2XsPFSEGMJLiDeCCCIrGSXkC5qgGgeFEZN5bq9XrXeqNWytOmUXminvAKUK+1qt0sGgtTBDeSDiQYc0bYjZUJJOwQCDglAO4rV8EnhJMJDJPkRUneswwVA17e/uXS7nNGE0fn6q+OI8zuDxQYJFb/B2onZxcGAxX9O+DSOyCSl40A8DeCb/hwuMB4OjsfcSkD+4u6fN9HuP1u489lqsdqqCn3FhAfJD0KAOADIjOPKhbNoBShU2xj/1a9kz3Gdmc7/TroXiHPDLnu9nn8GIJEBVBBA08MOD/QRrNhX/LXqiK98OqiyRwkWBPVhg72t55ZJWgFmkEm6+roR2vaOsjvo/IR7WHlfeNYgmeT4HBBe7p4GQkF4cmC49z893VmmSf8TJv4fzUx3tR39ocarru6yIOgNkF5hgn8nGWCjbrvUaLf7WP8b9v7SFeCEV4BSo1FvNgkrsEC6OBjmWywe8gHogCpfMpHq8WlAAQTgp08QhQ48c6gSaYAeoPytt8/+RUMm5m4QPOyuvzsyIcAAsT8GayQGr3ND5AWpBUf0HHCleaHkj+kGhkuCx0CBGCDA483NzWKKkxAtv5pZX09ta71N9FuIRZhIb0DsXym8AgAXhLqwi2TcgvG/l6WGvwI0Kqn+789xCsiWy/7b1cfA4CHhhWaIQegnemtKs1jCoxUbOdClOspXiI7d6AJ/wPN6YYex47Qh4K6pQtDgAn6SNnKHnxoY4lEBwILLpmG8APjngH+/jGXYt9gWiMuC97f/upmbrk1IB65pThez+Wy3/ANwX/TzCGCgfMPyHxwDM+r0qpelUr9Sq2QvwmZzejv5YQAWBDRweGguV8gUhqQQKEr6D6Fjn7AJIyFaTvIPJUAmocag8KSs8UzQrcBqIyg9aH9vWyEpNxgNuu7rxoFmehzqAzIGHSkZUNQApAy4etHGvPXPY9A/HuMafPp8e2Nh2tmUFP8zG9O+9/uRDv7vRWSvskJAQt4rkpu/En85LrDw5j/E9O82LgDKafb3n6sVeH5xkW1Xu4NBJzfKtfzDQIgLlmtxCBQk36GYEsDJQiABTDITxz+KSMUnZ3JEJOKNdNvu7+frBYnL9E8Epjn3K+nVyn397kj7uCFpfCAcaGLBYKgDSegKMMFLgMz/FfjAmnd3u8KhRzOC+v7oWv7HqzWe+yHudUawphN6F8T4nwMISP4OIiAn+t9ca5hr9dqNRqVSIuO/dAn4U4mCLioYFNLttIhJmEwDZF+fLoUA6XKmLLw+IOVcSsTPyBBQiE/IJxTxNkL+GynVTdvlaLefYZNAOBgka8HDj9eNlABgKCt7hb3YgLsIBpszbAhOIufqizcG1X9B/++X25trf626pm3/qb3erxfWf9i7thbFlS2MOl7A9q6ReMH/4MMUgSZsQvIycH7BeTJQ4EECefJhJpvjeclDThBsulto6Ab3L921KsYkVSvq9MyB041hprFbJ3Fi16p1+S5Q+meZfbJpG5If5dj8EFyuQdPQZDDSlQb6L6v+2dHvtTrNpgj+vYWC//9eYBEQAQNoBKhTMBEvV89Xf9KAn2jSfCiXN/Iz+uAoAfXdp5a6Ad7h4FhUT5A0nEfnef7L5jTKi5g/y/uMvt99RgEwcQDP2oWICuPmPWYgbt6fRpGsFvjDffzr66MoF84K///895/2N8OI3yjb/Fcryw/DXJoVfsveRbEi+G8AN/6E/b8yU8fd7qDXKd41EvbPbeV/oBSAR4D+WC0ppXnkGRB7fkttPYLzbknm5SSnuYeM7bKyknLJSmSlwIsMtrMdrbTn+Ha7dnghYPEgAEghjqej/ma5lHA8ZjYPiHWAUKmgJDYkAgLL+4yiaIIWMDmFKAoh5pIsv//x/ft39+tfj4+PXx+//uPff/75r4TOaHOXb8vxtztCCL5YCcrXw7QAZJIvNvIjouQKJADlCP+vFWZqu8t2/w5Ifxcbt4X/EUNAsdVjOcBYVSK50EgmAFHrzp/NSVWi9II0CI3g58Znf/lKZVlJsvgytdSlarWMTqBkKOL6O48zhXhiDQJiC4MuHN2m/vPTfpNoAiU8YMQpOEkDEnBxTv2POQkAKACCSZxI8KSDA5CXb28v0PCnrFRhb0x3DH1BqW4bx9WfLfpFmp9wn5ARKUr6y9MBy3xunPoLg+OCoo77w0m9VWcBgG0mtwDwIeeB7PMbDEEyPBoIgn9gGSSDtaxzrCgKhAlGS615ckYRgIiIM4JXFkTapojQOshephYLHMQkp1ocA6pVocJxd67zw9Mj0QDKSYOU59q2b/tP+/0Stfs1k8T/WBSYPzsYyPQCj0EmpR2yXO6fHesbvBfo9hsW2HtZlmE5we4hA4gQ83OCYDBzUwCSr8SckxOcwL8cPaa0+/1BdzjpDSctaADeAsBHDAAgEABtgJGqjkdTngZE1i5HrYeqhszo5DaeDDzPkaIiOBNA4JqgHUesf5j5Za8iWEDoV8XJANLh2LnhITiwbRYIQ85Ct0/FNqU08KPGoEzqOWkGp2ABS1Mo+E2xKFjeo/7iZlqdgK3912f/G3tD3wDjb4C04cpy2Huz1mvXFcCTBJVKzBnDyhTLs1NZDTGPjdSYeQQozEbt/mAA3l+tViut/3s7PtY0sNHpTYYsBIz7EAbARpzXArVINDhKBnAsCHm/498viQBdcTUiioNoNfmSsYj41nMWnhfPBKxTv03XPcd7fX1dbjKkXkjTTREXdEzj0y4CWSdhM00WSDURU2Yjm83bK9v5LRj3854/aP3YlAellbed58Knfqcp49lmS7L8C1z8pzsYDCadRuNm//GhQ0CxWGxNuiyW98djpQDSbjPeDahq/+ODXFYheF/f+rqjloAEw93Kcax4+wd9fei3R0x7Sn0avOyXomxYFutnZkQEzSQsmGbaeyCjGJY4EZj7/d6nNqv0bduKRT5WOmV5v2U7K+ch1H5fKCW/EDo4/K9QKMHy73Pxn07jLsn/b2HgY/YCvzRak+GElwIKGAjOZlwpoCa5/gkz/gywB9GUl0QnJUYwggfC0UU5kmOSpnlKBD/mq1ylJ7AL/ZWzdqyFfrIVOvqL2aAjoNPgNXh52yczAkEX3MwDAlxAECw3+5fXJ49V+ZGbN78o0Jeh+KfWYhFsj3BfomkyKENSbhcafOkWIZFG/ESkcWAfSuYm8xbgvNRm+8Vk0qs3Qf7jLsH/3ALAx1v9/EujBa4Bk0G/PQZsMHQEC+VEMFDWBCHnJnf5JmBEMvsieXLDJEfYGul9oUqWNSEAnOcdwvKYu+FDQAOg2hlH5hDfjy3bONYFtu15/tPby/4NqgJzY8a9QFNQ/sn+IP2NeWIeLPcvL68BtY+BJhpIrh2o/Q1o+UEDwAldF9m8L+TpAm+XEHlaiEsDSy0/cfbLtT9nI8j9J/V6r9lo3N0AwB99+4evRVByagImYKSUZooynY7m4CIcWXCSd+r9vVNs+HoES4b7L+Sq6R9Ua1fUCiTWDggWtmFTJ1IRi9JxQ1+cIEOGbTnUob4fbJ/3XF4IpvnLkzCQKWT72ap/A+t+7z95nmOfTno84EI/uMLvQncsuvUe3CvTfYKz/a8uF3LpQSQl/V2rlUH5uzSC/X9Yb3U6zWLj5v73SRoBrI6DduCgPWURYDYrgY8o2IedDMSykyNyLZqHIAB9krETyYwVhX+AiJAh4mJ8Oq2lslqhzK1ql8ZjmYQlDHe7rWeA1VZUjENDkMZAPBgbRowieOwEfvAKacHz0/PLZrPcsGCw3Lwtl3t4wKf6G/6T15f9s+f7a8+xPEr1U7/hBEeEDGDFL8m2f2exDt28EapgpyLJMKS2cEJELE86L0iPEgg2Roj/1Gpc+gvaQ4o6Ytv/EEZ/jUaRHbcA8DmyAO4b0Kn3htAHmEOXV1UiqYAaWnkS3L4vB/GfD/YRKOgyyUcmuEnQd3L0CiZ57IA8HBNOHuIP3e1861FWiUdqgqfBQHrR2lbMJ/DYC6nl6Q71dJuubQ/IO469CNgztgf4Il5K8IYCPQaVKKSAiSGPBpQ9beis8rcP3g5f/WfuP5EqfyKO8/OBQthIMEX9qZW5i0SV7//KtM2y/96kzq2/owTgpgD8CWJAo/EFQjpHBfTVUmk2HauleWVWAjdxQjRkDWKYknwqquRFj5+QYLpUMshQyzYfiQg1wLVIMCAMQYUzeP/DDXeHbWB7dGXbrCyI1j2sUyOKBXZ2F6cxtyib2FM7butHOz0r8FfHlH9N+TMc6m/bdGE79GG3w9uVhGjoTRed2tD1rmlYhM17nHqhxod+HB5WYImhOlWmXQD/1evNDh/+3xb+5zjuind3DWAIN+vDLnQCZsp0NGbFAHgJHztp5NL87nMc3Onm9F05ZLX+wfdY4c/rgIiOz9brOkkI2Bq39VPLQAoKcQOR7/+gTWxFS14HMV/o/RvsZOtDEGxDN3wPf+pnPoGf+JSiwX+hXOE+MpWSqoLvZ7dXr7eanVanc4f1k2/Hx0UEsYKO/e30hoN+u60o6nSkKorCIkCB9wPJCWVLatoVRj1EO+MOLmw1lwqMnLwgL5vHxMguvdfUpDszO+AQYnf+4Dtrjy6oHq11K1nWhk0zxTx/5NjpH/FBonPKAeJkwrEdSAAc54e/zW71eUpqOZ6ehGCU3hxs5uV7nH5duVKZzQuVeYmt/3F/MGm16sNhvVlsQgVwWzafCxDE2zqtYW/SB5WAqQJBgEsHVwqc/1mL+wFH9UDMPlZO3mXav9BUENJXgpEM8DMTxDM0dyJB0KoifTYiDREy5wq1hzDcHjx7u15QCnxiWMERetiG9p29iFc5l+84ShHrgOVnT61W8XOQCaxs3fMP9Mdht3PnFwYsRJPF+YR7h1RVIiVDgEtkodjCaWI6Ra1arqjqbFYB369xfzhk2z8LAL1O8db9/4StwLsvLAL0hnVoBLZZGaBM2VGqVOYVYAoDLqAaJ4YYoI6cV5Ej705Hye9LhX9HneJq290uNDzLWlBnYXmsyF9bth6vd1YQALmQlQWUsqd4b0/nXD7LCiAABAsvWO8eHlhEYWufXI+jJr8nu7/uE+G8P/aJFxSV/QpUSsqo3x1OJj2o/1vNG/j3s9YBLAS0WA0wbndHijpuTxU+FZxVYuVgYXxHxI1dcBAjGBIQ6eprOUi2XBQidgZNy/MKRf9hNuPIGQzkrSrXLYfVcF4NXdcP1oZDjVXgO5StcIOu2RZvLOiaxQCIDJQVD87W8wJW5R92rM53NfciDEJq0kl3nYj3H/te/GgI9v/PkLliyX/o/BfA9bNSgkMdtbvDXm/Sq3dY/s/V/2/HJy0DmsAOYgmAyjIAhR9sD+AMwUg8vKZp8vBOFJvLmwOKaStiNISJVGNfcPprVoUAKQHyegvShXB9ceyYuy5b1i7b0d1tuA21XRiydR4GYfjAcgV3xx5rkOfPrwVByfczDelD3qVG8BuFiq9rksaahMbmgl8VTg2bKWq7P+b1f7HZgunf3VH99xYDPl0AgPXf+FLsNFsDVVUVZTabAzJYgQDAPYRAEK6m4T6C4gyenNXxJpjeDy4ULsOMzxneksvoQkllKM+U+BcrBvKe1+NiP+R82i7hgOT/SR62WrznPPfnkh+s8i+xXwK13R0MB8D7bTY7xZvz36duA/zN3pUuN6or4WMT21QBZjdlluId/KdL7/9iR18LJ0ZqMPYkc+ueSJPJZJzEYIykXr7lI4753ySqMpgGHMdR5wABG4kbnYDTHJU+t5OcWYrK9Xn7hlvY75VycYM0j5BpAdhHq5H1ghCBTapR8x/6uU6nzbQgpUSHRkmjlWRVlIUaoK3cRgJ2AlpKQPwx7uc2ohU06OC/LBv4/kRpnvhZ8p9fBfBpX0ZRA6mwcbxeR24F4qZQJ3TJLC7J7Oa9awoubdLkSggJWN+FHZ9co1oShezWJDMdP2InMXloxy346X7zEmBdErJjKsd48fEtELsmEkiY3LKM0KgB3c8oQ+nk/zJ0XZZldZoy+AfKH36C/IYFIE5BDmyKotIBYMcGYvqm2E1hgOHaPULTHlzFQpGOKgmJyym5RP+lVSTxihXIWjOdLCG82ca6JFJI67Ti1+j2T9C4ZO3ytKGPL9kzuK9fuqiGQYn13dj9HtH607O/qoo6BUCEmb+++fc7Rpzm4AXA8FWPdtTJIHqBhwPDwkAQCMMvXBDAc6RcHg+5ct+iu4gk8WVtcY42oZsXbIi1BWCMlF8snOBDyVw0PniSgTy2O2yoPrnyh+4eT0IgT5ZCo/u42F6QlUJDNvvgTA8LQNBW+s2v614H/vtzEu+98u+vagikTQHWV1lXVQtQYDAeQQcBJWziCaplrvC3VMl+op//93/x3WiB3j6bt091UvzFQPU/qyfdDxh/gPnv9//ftADoEADvfdrrGLDIOi4JBtfgvgKgHHB4JNoLtny0ofK1pX7/AzKC27QKaFFKaMviRE8Dkq2wJto6t1/RUnDcXKZWL5Z5HfNdWsj+ln3fR1gBOPz3C8DvAgWkgHzCOgAs4Q7QwA5SQZwIcEPg9HQzo/Vbb31KktDBeo8Do8RGpVsBdA8kCRo8nXD0XLVj3Ql5y4HIvTZPVqH1Y5/CA2tCH47B5cKqP0XRlFFZRhGUP/be+vvXNQVjtAWTM7hfOhGosq4DMhDUUI4B5vt+OC8v2b4gSqCsW6U1oSSmVqpxtEz9Wc7CLUqsoHu3XHS0JUu2H5WkKp1IzCdXZn2xKrqhMCrl+iSVCxUMvxj3c9PZ/7WtmigtGy4A5PD9+/Dx/69sCOCN12MfYQHQqUB7bYdA3yO74HhSG2A59Mex+t9Mz7fyFuiHXtFaXkGLJ/nnV5sJkKj86Q82/IXnT74/69gv2sexd/3wXYE8ahAP9lXbZm3XXRgcyMz5cKYb+F8RBfhVwzR30frfjdcOJPAuK3jm773qhx9mBUhynQuWfdFllf5z0UHidTSSYbAQMD1Bwj9mNaDNnesnKmGbHQO3BuMzY8HtR914NOG7G555y7dWvnj6lLZUwuxHsYqz4sfueNNbf9cOV8h+5Ulsoj9p/vsV4dctALEOCKOoh1RAkXXBGLTdNRiPR2CE9CLA0ABjHB+S4Cs9x7EptSD1SW7Ri5aA8u5Tbii602LUTFLpX0LSqteLANYZ08IlEc6SpNqeUNebe/jK5+wgMYzUL2/+2P7HYMiqTsd3rU4AojMigITJIT7798NIBqXpuSx1LgAv0Y7vla7KBgAFjwY+cvpUEneUAWdOo2RT39TcXmQO9iEbQfRoTLw5AJgp3YkqmEvM4xlNkd4AApID5yEHmCzBneauiO5FELU9LMvgx+s/x1fz5Ecr52A0v8ZRh/6ZXt+zCpIfAP7tz+dzfo59AOAHNwXKUicCfVHpLEBnifASYlfBbmCQ0M6whU/K4AJtFV87epXhvGs6lZJWgIPuW5iUzsRfiprXqu8zJVJ5j3fotmTZa6/H6u4XaqMWsCNyNtf9/oIxfhI2JoI34v8x0End9dpmVYE3tQTyBwJxZ4zE9//84BUgifK0qfu+Kaqiyuoyisq6qNoBCoKgC0031OQpHCpHnWph/5uT3EgJGsCuZZU7SZ+3ABd0yx2zA3cPdUn4tBGJQ8oVObBNkWhJF1k+rKX1K4QRCyvMjMYVhsbqG9l/AAlYdHmKOkr1Mo/Zn9zx/36/9+MzCEjyKD+njY4BsgIQMdgJMmFsMhI5fToJqHA+M58jU95v9G0gAqlNmD56ytj9njYHvYocpNeecv3l0gT7OzDqb2TBr6Gt6gZ9/1xv+/scGYAh/3x43z8/HpO/jzjelzUkYoq6gYlAN4AzOjBXAE0B9hSkuy3fXT9UlBFzJS9lguBME0e0HiHaOD8s4XxXopTUvNVAgnYBvdDMp8fXYG/DDxKpTj7jVEPmF0HSBn3kMrrBxec1D0H6N+0biP4GrPnSZnoBaKL0PKX+e/B/Pj78xPfDjgJ0KlCWddZlVc0tgeF6uV5ukI8GQviwO5k5zwKC2GY+ucKhCARceWyZILxIel0n3m7tKcoh9Jx6/BSSTHbzcTWDXyAev9WsFB46nL4gm6EKwfnBGrDbBdD80Pk/O/4A9oe6f2L2fz/3/RB7gvk+OUdFBXBg0bVXqIcFqCOxbsCRRcS5vcRFgd0UEVB4siSCrIK3bTi4JORBgvrVVsQgKSVRfIVInJR7Vu+inVzbZFrqeJKk62X19cglLruXch5JnPTSDLQfh2Uh1/2B4jjegg4Ibz1Q1C05AEiSWK8Aidf+8mOlJxjH51SvAbVeANoBreMu66AhCBpZAGjAXUX0sztoKwUoGdBP88obycoBJBoQPlcDcJ/tfjyyW2hKatBtPZyVAjgi/KIvgZWg2AVO4VeUopXK5kMb8LQ7GEm3kIF/8PkKgltwRekv66oKsn9Q/WLaT2Ka/34B8GM1E0AtoAdjJNOjq/qKnYQu12G43Fg3BB0mIyN4YqggfVYG7B1wtinadhdrSJ1XjLQswTFyhIRdh12S9uVXkfekFn5bgECJ6D2Xn2hjH0iKBh6OxL0+w/WD2cfheGmHC/p+XZbVFVdzIgzQP5OEmT9+9vvxpB4IJ8E0TXPuBVR1VHftMAycEgTsJ3fY3fcds/WYouDnfJCJ7oLWMP2xOAA9f5w2FuVnp/+9hKDXX90TjeDpiwnttzN4H/b5bCu9aLctNv+6riD4y4U/A/+dof/9QuDHchQQ5+CLlygHNFFfDW2rcwHIiRuM8M60BVlMcLojgRGgu/ee3Q+3NsuHTXIGw5l9LRgRL6b/jh6p00x4RAvKPy57Hy8dc1bCeOwpOE9FSi2gEtWCBdv8EswDlfsTsXJbaCTdWefnNuo35nbpiqbG1q/3fh3D9VGeoPOPuR8nRvjDhwB+bKkFpGlUNlVRFT1AQVWmP1qkAsE43nYH7gLo247FA/iG5EiAP5EoVE8vtrXXvyOC5mkZu0MLv/M+BuClzZ7EluVC14HEVz/7qTBkVIbR+eQ3AhWaCyB/OunXo6jL6AySR2rmf+x1v/x4tRqYpJCNKuEa2xSILJkjMFwvAUODDqwy/WkpZAgoSlTlJ5KqdQ6Q15HQ3AbPp1ma7EDvLeFtyxnAtRV7Xn+cWW/NaA1kNfxJ1P2W3dMk0IRlHnrvt6p7t99UY3Xkj3bfAEKnXqUrKP70fZqnMPw2rJ/Y+EL44ccLa0Cug4Ao30NJvDC2wvoua7sMzPLjbnIUYNxZSByOhqefVPV4e5P+ZlugVfuibWfwJjAwvI+J5rcz6/DuFqBZg7i/6IahaPq6j6D6qD+w/+v57wN/P14eSao3kTTf63UggqsgQIEgCxZ6o+mu8BW7jaYmODkMYw14MKK5CwgIsHeyDcVlhNCzHEDk2om+OySZDq7z9bcoECjJ6E+2K5X6laIlov3lxO2frL242g+JX5ZwxV8G/AHvq3M1vfVXoPz1euqj+gfQj2f9+vHWiPXsj/Jc30H7c37Oo76uurbN4CdQVZVOBdouGA1GiGMBlg843W0FWF483KLBQU94cbbLjVqQIyR6F1+3Mv9JyTKnG+l/Lx93ibB4Opg+vzJlPyb5srvzRSf+QztUUPnWi3QTlU3BuN98H8eJJ/378X4GkOz3+RnZIyPIICYORAlgJQWXBDKoCV8vlxu3BlCE5vYgswYBSeXywD123UrRoZU+3reKB9JfyT7++NhmAeR+y4TBhHDrjac+AjLIfKDyh7J/2TQ669fB/xmSH/GH0X30wb8f7zYD0TZmCWF8Ts7IKQEqiRrQS+sKVUEgBAK2Gj6akHTynwBuWH3FA2G4cT+WiPMbI3H12ga7/jPPUoC3lc827f1fkr5s1sa+PgZ6oTj0Z3PPrBsM0xd/0a/tzQKQnuP7W+dBf358X1sAMuIglLOorB4FUwaqouLawEXnoqYqwIgURAQGn2ZAAiflAvEFehy5zXB6tj0qoVwuwupdQD0tlOdfQB/M+Q4kQhOffMO29ro/bLRZQ7MC7Iw4E1ovSPtN1a+e5P313o8awN3q5+PDz30/vmvif8UDMZNJ9C2Wpugwod/c13VTZ1ckolfDHcICcNodjshQb/qeDSfQ2v+8J/D/p+k7xfwMsOCaPyN+druRwb5VVjBYC9M+MqF/tGeo/z/mz+O754cff7AA8GbyYeKAM2Tl8xw3nXgtFzEAABPOSURBVJ7/OhQoGyCEBrMADIOe96gFHLkyMB45dT2ESo7tpcDfrbAvUnFmz+J2zwVtPVJKPobYhH8k/LgkIOGMhVNZe2kLZ3CHU+iwKVTQYQgZ8s/qfkeTAFyHrKobTsng8Rfl+h3RsX+yT/4xVP+Pf/wC4McPlAXiMxTl8hSBZ9/oRKApm4plRLH/X9ls9GbwwtyiOiJr3Rm8YPjlMf5S3X6tAfgssXf+s7k7oGSRkH/ZO9fltJUlCgfJSKoSFwkQlACV3oE/Kt7/xU5/q0eYq+3knJ3jZM84NtjBdiCanr6sy+fl/addjeGlMKC3StQ3AelLCJg66UpY3xMJ1gmVj65aNXb8WyReKvG3o79mXXQ+486P658YDMxmmMkt6lKJJ/vf3ptmtVlZGoD+BCAhIAJ9SjcgQ0/M8UIjjOUlPvYlS/7TXvrwAUJnePmDXsuCf02nbPiQtvOUKzi8oCaNhb/UfCn47XVCixVgxTRU/lb3S5mh33Ztd9iM1b/9J+xKd/idJXU9jxdpXP/cmnP8u6J0XXseQOfpKL/xRmBBlnoBWxEHXVKIe3kRyIPFfd/uHa4rRuEtZXb4tAN4I+o9PLTlnjzyfMXiuVP8/TkRgttvvyf5Xn95OD9j/dy0LqXn4+Qel/TNJj7wZ+6HuB9EDHvrKsv+be2E0+a/oMTmR02aeO7H9U8uO/7pAdZOMJ1bIqBMAN5QuUZU2NIAhET33X7fpikgoa24A4wEMqFXp36iFefi2dzfE4ThlV7A1473J987fIFa9Mp54+t6o0/sUYaP8p3hfGXjwbkvdqVEvVD07n3idyKhstMfdZYOiZ/Nane0cLtD6IdUzG6Sp1s/hoO4/tctgLf5YkENkCR2zVk0EN58uYB4doSHWlWrnU+liQLbPrOMtdMF3KdZdiIXyIK+cOFeI8W1EE5+Izn+Tha6QsPfEYHu0YQflPcvHYhfaW1/0n4cXs3xn3CahnuDjyuWVED4Irs6OTvMb5ohwKQIwB3LqLK+HUGYG7wcwWStl8rBLBFYvMXdHtfvSgMsCriuPPJhNJ9rYOc1PcGm4eLUXBqwIKbjTAZ8QmD5q13UFgSUBVARnMc5d5AUeOnA82tAvOH81aH+zxGQfwXVVxR3x/9InAzUHh/yBZSv/dm2nQhXRADL+vdte6h08Dey9vZVQ9daWwyex+M+rt/ZC6QGENzE6oCy9JIgWTCVojRd1tyAFSRptT8wifcdJ1nbqyPgdYC3BYLdwHCzV4Yvy/UPz2HE98Jj9yIcD4YCwyNZ+AtKoMNjFTA8aHiex1Tn/XeMDVGXVQh6PnLxRW7BXqK+3W/JmCD6txXiXg3ifvT+kPhdque/XOqlT2Yx34/rd65kMUpLIyBYqzOYzMQeJCEtxylhU+0PlghQEGyqAyZVW82xe4UAb3ap5GUnFVf4t+KFctgLV4+nG304P1MCHJ5piNyJ9Z0/MyQYPtAteRqFVOHnIQsYCu/3T1zGLzB7FQNOlEqpqv/UxVdS1L0R9gWErRfX7tjBv4Sf5aj/d5RGXHH9pirgcsHNXGjSQgD1wELH0tKPplJ1wMbK1lW131T7bSv+isWBlKmAa4pNNCAoXF04KIsI/HblgPdyBDCcH313b50+nvgLDk8VOh9UuIev4I8fpcbO9+lBcOtxAVXP/YvCJ/vZ1AUWBfOfnLY9s1NIPhRK8Py4i7xfs14Cw16uQfvp9WX0n9TL5KnMTzT9iOu3NwelOgcBFe6wJEXpCsht0LLXVVVV3d6dKrY0Byfj3gclEMoB3qYOf5kWlynghUZw/oSU+8p940nv72tEnk/dSO7hRfcNxpswE2b8Re4tP4H7MyGmTpmy/771eQmiKy0zf5on+84CKLZeTF+B/REB/OXF4SMC/uP6HhFgDAQ/fvhoQKyUhZ1UQARoCtISPNAVbLuqal1E4DTxI3A6nYRywI0GckkMhb2TP9cZeuED8Gg1MjwO55/6Ef+MItiD7+eDwJ8T+c4B+qhcQETp4NvHjp9qxpcBnT4FgK8IvgfprXStnf2V6FZNs7aSa+Gw3+PY/qPtMu7/GAXi+j7lgeUA4AIsPZ3PFwGpuiyBCVEG0NKuOjvhdNG7sJg+TkIYOF86g4Wfm+d32cH/viM/fNHKc/jJ3/TYihycBllcOn5W8yDjn0nMhyd9CpoeyvxTbDxbML68UhYrcfRW+rSTtneyhO0v8C+cTFZs/cX1/z3wnxcDb0IIHde1fCiUENR16eAABQAiAFhh8l31ue0I9D0hvfHCtW69ZM4v9gMvC4CPkP+Pqt+fZ/9fkiF4xy/egPqvUf25bLqLYnwCuWKcRBNOeu6y7lRXRNNS2/F28CPqq6b/ZoWnLyO/Uk2Vcg3hl1Cgxn8yjyKfcX3P4PCGmNCyDLIUOI0t67VdyvQC2213OGxkNWRZLtugByYEZlAMgj4bRwNB/m4aJIby535AwwObpnjJzXnJAQxvxf2jPmsBnJ+Bf/zHyLGDbGbq4/2zhHwgSRL5ehX7BMH9YZRZRdxjA8gfYkVzFL1/fSyPpaBWjAB2uyMi3xJmWCwi6j+u79wUfPMT6u3HLKmpAdZHVISqtrVCAONRYYYpBbZ78EGtPrT7NlVXnDGYtIXQFDlfwALFFRTwxQYtfrlEyG/LjJ8B+Fw9PvwUN046e3uDJzHxhp9QfYQ94P08eer8auNqiw0zE2wYkPSuvdhfi/Mv3r9VAItZQF8kEfYf17eOAJd7s3ldJzU4QVettqvdzjiq3M3hgJZQh8AwTBdLDqrD1lnvk7TFkFTiQkF0WOYjRZHf9POKcche3FqTFk8FSV+KdqpOz/OnNOSA2LkKMVc/6F36WPW+JHxyEoCpw/uygH+GzSdQjz3JVgGAyj/dqtJf4cCmY18gv+OulBTzUjNVqXtDuCAOLILcR2z+x/WHrKSWfIBshrTz7YLfNSDaK9vuqglIgveYj+69TehylzIkddlxOoQXSfziqgCgwC5UZk8Dy5CGu+gF4dM7ZNBdVyDPw2ODrcHwxCnYt/Qls9CvHCON5E+D0EHw6JlOA8DRQb2ZtzqCQlJKASR7JQ35GfhtNCWRyKJl/ML72Eav9ZKh7cu8b54I9leWSdz5cf1hMwGO/yWkYTSrjw1t7WMpryGdfSuSX1GHUBM5OKPYSgFpCyhbDqLjTpdxCkHor6uxPhmF8mRS5og719J6hAxeDIwvWX8+ehqd/RtGk6Nxt+fhB+a3Ol2hva/QMI72Loi+EeDox38PhZdhv6y7LM/fyGZR7yh6ithPBLBb4fxE8odqYZWTNBjnM7qqjP1i2y+uP64WwGGMLhakVfvYiMO6kJ4Y0HboLZsgMewat0oNNrZPunYvHiHUuEy+A/IkdvyQDts8fM1us154wrAhg5TecMHhO6KgGLm3AWEw9criPJ7whRscXizOxM13Yc6rmJHnQ4gM+kecXbHXIQ0uiZxLFbn30x8ChN228uzeKNu352vlDy5+Rzp7a1j9x6PE/RL5+dWQrWsJfdnxP5+LfR29/eL6M6YA9+2AWZLMknIcZpW1o1ogDaImIiURK383QF7lO8DnbJTOUmTLlTMIMv1k0ktVYJK5QXF28cTWBPHU6+RV500o+2keTm830vP63N11prmf7Z4+FGHzj4jd4oJFtvtsZpfmHFHKHmMKJ+5NRwL/JFAcMkGc6WJg15OilNhR57D55d3nxp32HMH4WMUPq5fhnrBT0Prm4vlAua5Fs4Z3PQtKnx+8ynHF9Z3bgW+zJSSW4FYprxEYxLaoDnb83RGdCyuCyRMYgKs6aLcyJER0fJLJhEjSWL1TZrKAIuJd7HnVA942dOmRUU0/YI1JBXw6Fww2Jk5Mfmclh+n9OcwePUR4Se+uR67SFwh8kkDX6X9K6Vw4riFL2zSg+A8adhy6PbPPYNxL5gOtF94kVT+KPrbRNeorF5T79sLMhf1NEukuxMo/rj99zYVfhSCAcu3byBsAK8hM225L3xAUxFYfrCQ3fthK/54p+RakbC+BkdBFc9jAyd0JM3sgHYOALERSJ3s30AxeutPQptMG55yGhuAlu/CGAXXkw3vt8sztTwvv52ceUULc4e2U9qNRx3brQmgc/FgmdaJBCc1LtxPvLrEiOP8JdC7k7aSJWvyesnaG/1KaK0guSHUhbv64/oIAsHCb2rckcFjegvNQWKAF1uMbiTEKY43UhqUxdnD4UOuaeMAI2m0rahGyGSQGW9pqbQqVHv/yQDgmBAQwjmtuuFsJkFzmcJfgkDtWJ1TxweRINy5dEMzPtPsZ4rtAL7M96R5K9gh4o1r7B9oZgPmqSo7dmnysLbE5goawxL8MgP6lZn04rYhAKfoE8gpk/dr+vFTx4onrb6gEgnyATrWbq1qDba541QRUw3TEhYFZrzbeNKvkQYTYYNvRSnO38m5PbGhdgzhVmY0UYWuptw8QbW+feifdZhm1wUTzAs8MQOKrq5h5yTDJHaKvv0k1vRNnaepdSIH2x9aeBR/p9G2h7bVe6IdRJgEL1a5GaAe7XyHhhUYCuQ2I/qPUPEjwZbYGsRcTT9/wC7f2QW/N0/947cT1F61Z8tSu1rOAuVTG5rVPDNgvx9WaHSPh8Y0Ihez5lQoEtheNAh2yjA4tGFBvd3uihZ3C6YnNvE0lsQXauHf6UeaexpmoCMFle6QkqaEvSr4jlKVm6h0HCg6EudnmoBgFXMANoVOZQl7ScfIrPEktHfmuleP5l86RZspfOpVHHmt1oPXxzD0AcPTP3zQ+iW3/uP6+TGB2085+u2oVhkY37YEE6JurDcuEzKlEjXAD8iUlKPAVztmmWZcr0WZVc2u8hjphc9hKXyO1fN22r9sVYKsrWYK0dzyeDDeyPoQHtfROKBcBQ9L8Tmd/6tSFXtM82/LMKgHv6pZiX4jeS2xaNcw3iGPMOqTioUrf1VK04RM01BaJ9/mUFi1cZ83qpNkYEuP1Ete/MUvQ5DDoCtQjEW7nY8OjW+BqUEAcYICgypqBWqOduDrylWZXOcGAAp15HLedzIsq3TrMyJv3Ut7Wg5Xp65HtXjgEQXZbyRjwtQOS51T4wjRuvLeP7An9vVXwT+dO2PnKZRBOTqSUUivD9zGI2vz0P30x+5vdxMYYAOL69/YMfrwt6toDAFpYQXr4P+3d644TRxAGUGnif+sZM6w2K4jz/q8Z11c1xtmVgERBIco54rIXI4xQ93RVV1d3M8xqNFJD7eU1l+I9v6ZJ9tMtXOj1wS3Uvr5+/K0y85/ruE0ChXpU58qC6kvy6VN12P9cq/jUHP6S8/jJLf5arTiqiWkl846ZoHIP9f0+uvNxjurXmE+7ziT306o/Xq/9fiqKqQtU9oz0PPSrnWId6Osnf63919y0Unv/J8294T4FpBp+3SpJ1kHz2mMmWfMunKmM+ZabymqFsKfYoFJte/cjTDquMvDXXqTnvN0kE1JuWN+uT6rSoJoXZ+f+8++VW6wth08V29cx3Q+ZNKo9X7foyIC/rT6ytZeRX4mKrE36DTyltG/vPc687SWxfj5aZwu0ZMmfHKDevvAYCVxqyPRiYEkBQT1D12Px3KvmJNPquNFt8Kclac0Iex2iqWLjlxmQl8tLJw6yVnhNsiBP7o99/H7262syyBM+M0E9+tPP+KWTDx+yn5f65afcxvG0paBxqpdq1fGc4r20QqsJqt7ctve8tWzHvyClfYdzH+0T8MOfE4N1090xKioa2OZheV77ObpOEdHW0fWS1XWChJ4A+s6M+jTJxMoq5qhNqaPJ8yS/xe8vtcsw9cfJ4Kd72cwRed01qYe8OldyJjH5nLM6++Wo50kpT1Yo98vTai5YzmuX9KSoN8//0/nL8H/IgsL/caR/x/dPOQxTxQKZAXo13XH0thzjrSPqo2FeTQV5Htc8UecQsvW+3RbtT0nQZ+GevjuvKT166eLc567WOSr2smKoBESN8p48JspIoLF39D4XpPUkNfF9De5zLu3o4Z43lw/TP/nN+Ae+lg+YEwU9BWRR3TUDHT0nsq499Bl8y5IlQa0I6ttH6vA2baS31nNu1Lz20zxXbNeWXRL3l9516G2G2xeu16eePS6XozVXGnXs05m354DO8neXnlPPU1nWr/OV+rBH/imb+/0awx/+ypLgoXr4nDqZ/v2eUFsnT1hDfktyfdlmRT4Xaa01WnMuOUXHU5A7A/qScZy7TW4/aiPxy2N+q1M6MwGkSX/35p2/rR70fWZnSpzf/WtOeY/3zX27/PB3poZjo+zInNWv95TaMo/9I+GWquPcZz6bhz0r1Ljdk6WrRXvCiKlDvmwTwt/+TGXx6z6eJBnzc+s+Pfs6hfqz/OhM3jfmrwn+xfrwT08OHQlkTXDux35HCPNrluidAVgqfKhXrqnLXfqTDs17u74SDV2h0wmEpffs1g7ez8vEHut5unM+1Ot+dWjnb/F/BT9kCpjjhdWCdDbb19P00ajDBfs+ifgjcqhthX3qbu+BRNJy03S3zy72WD8dS43amDg/LD0U7sC/nxh49/LOER5x9lxc2KnC09ylm22E+yieId7lt5NjmC+9OZFzhPD+X+AnnCAyutftmAAeEgdLn7V5SMK9PZT0sCl/On1fms5MAD+bnCR6W1dbjQjmrpIfMmjNBPATpQTefXU9/7CdN4MfZCUAAAAAAAAAAAAAAAAAAAAAAAAAAAAAAAAAAAAAAAAAAAAAAAAAAAAAAAAAAAAAAAAAAAAAAAAAAAAAAAAAAAAAAAAAAAAAAAAAAAAAAID/hj8A07MC7V3P3EQAAAAASUVORK5CYII=;" vertex="1" parent="1">
          <mxGeometry x="406.78999999999996" width="52.71" height="43.91" as="geometry" />
        </mxCell>
        <mxCell id="2oHWV97SwtffOisidZYd-29" value="topic wisinfo" style="curved=1;startArrow=none;endArrow=block;exitX=0;exitY=0.25;entryX=0;entryY=0.5;exitDx=0;exitDy=0;entryDx=0;entryDy=0;horizontal=0;" edge="1" parent="1" source="2oHWV97SwtffOisidZYd-12" target="2oHWV97SwtffOisidZYd-30">
          <mxGeometry relative="1" as="geometry">
            <Array as="points">
              <mxPoint x="80" y="120" />
            </Array>
            <mxPoint x="130" y="220" as="sourcePoint" />
            <mxPoint x="179" y="148" as="targetPoint" />
          </mxGeometry>
        </mxCell>
        <mxCell id="2oHWV97SwtffOisidZYd-30" value="&lt;div&gt;WIS&lt;/div&gt;&lt;div&gt;&lt;br&gt;&lt;/div&gt;" style="ellipse;whiteSpace=wrap;html=1;" vertex="1" parent="1">
          <mxGeometry x="158.29000000000002" y="75" width="50" height="40" as="geometry" />
        </mxCell>
        <mxCell id="2oHWV97SwtffOisidZYd-31" value="Incinerator" style="ellipse;whiteSpace=wrap;html=1;verticalAlign=top;" vertex="1" parent="1">
          <mxGeometry x="219.41" y="75" width="70.59" height="45" as="geometry" />
        </mxCell>
        <mxCell id="2oHWV97SwtffOisidZYd-32" value="opRobot" style="ellipse;whiteSpace=wrap;html=1;" vertex="1" parent="1">
          <mxGeometry x="240" y="30" width="50" height="40" as="geometry" />
        </mxCell>
        <mxCell id="2oHWV97SwtffOisidZYd-34" value="topic wisinfo" style="curved=1;startArrow=none;endArrow=block;exitX=1;exitY=0.5;entryX=0.75;entryY=0;exitDx=0;exitDy=0;entryDx=0;entryDy=0;" edge="1" parent="1" target="2oHWV97SwtffOisidZYd-12">
          <mxGeometry relative="1" as="geometry">
            <Array as="points" />
            <mxPoint x="290" y="100" as="sourcePoint" />
            <mxPoint x="379" y="180" as="targetPoint" />
          </mxGeometry>
        </mxCell>
        <mxCell id="2oHWV97SwtffOisidZYd-35" value="topic wisinfo" style="curved=1;startArrow=none;endArrow=block;exitX=1;exitY=0.5;entryX=1;entryY=0;exitDx=0;exitDy=0;entryDx=0;entryDy=0;" edge="1" parent="1" source="2oHWV97SwtffOisidZYd-32" target="2oHWV97SwtffOisidZYd-12">
          <mxGeometry relative="1" as="geometry">
            <Array as="points">
              <mxPoint x="340" y="80" />
            </Array>
            <mxPoint x="300" y="110" as="sourcePoint" />
            <mxPoint x="297" y="160" as="targetPoint" />
          </mxGeometry>
        </mxCell>
        <mxCell id="2oHWV97SwtffOisidZYd-37" value="topic wisinfo" style="curved=1;startArrow=none;endArrow=block;exitX=1;exitY=0.25;entryX=0.5;entryY=1;exitDx=0;exitDy=0;entryDx=0;entryDy=0;" edge="1" parent="1" source="2oHWV97SwtffOisidZYd-12" target="2oHWV97SwtffOisidZYd-11">
          <mxGeometry relative="1" as="geometry">
            <Array as="points">
              <mxPoint x="370" y="160" />
            </Array>
            <mxPoint x="339" y="160" as="sourcePoint" />
            <mxPoint x="300" y="60" as="targetPoint" />
          </mxGeometry>
        </mxCell>
      </root>
    </mxGraphModel>
  </diagram>
</mxfile>
